<svg width="50" height="128" viewBox="0 0 50 128" fill="none" xmlns="http://www.w3.org/2000/svg">
<path d="M49.0316 124.677C48.9354 110.08 48.8272 95.4692 48.731 80.8724C48.5867 60.0805 48.4424 39.3027 48.2981 18.5109C48.262 13.2068 48.2259 7.9169 48.1899 2.61284C48.1778 0.774105 46.4101 0.533656 45.1475 0.703386C44.1133 0.844827 41.1911 1.80663 41.2032 3.57465C41.2994 17.1955 41.3956 30.8304 41.4797 44.4512C41.624 65.5119 41.7683 86.5725 41.9127 107.633C41.9487 113.63 41.9968 119.627 42.0329 125.624C42.0449 127.463 43.8127 127.704 45.0753 127.534C46.1095 127.392 49.0316 126.431 49.0196 124.663L49.0316 124.677Z" fill="#E0A619"/>
<path d="M34.7566 124.69C34.7326 115.171 34.7085 105.666 34.6965 96.1474C34.6724 82.5973 34.6364 69.0472 34.6123 55.5112C34.6123 52.0459 34.6003 48.5948 34.5883 45.1294C34.5883 43.2907 32.8085 43.0503 31.5459 43.22C30.4997 43.3614 27.6016 44.3232 27.6016 46.0912C27.6256 54.9738 27.6376 63.8563 27.6617 72.7247C27.6978 86.4445 27.7218 100.178 27.7579 113.898C27.7579 117.816 27.7699 121.734 27.7819 125.638C27.7819 127.477 29.5617 127.717 30.8243 127.547C31.8706 127.406 34.7687 126.444 34.7687 124.676L34.7566 124.69Z" fill="#E0A619"/>
<path d="M20.8554 124.677C20.7231 112.032 20.5908 99.401 20.4465 86.7561C20.2541 68.8355 20.0617 50.9007 19.8693 32.9801C19.8212 28.3974 19.7731 23.8147 19.725 19.232C19.701 17.3932 17.9573 17.1528 16.6826 17.3225C15.6484 17.464 12.7263 18.4258 12.7383 20.1938C12.8586 31.99 12.9909 43.7862 13.1111 55.5824C13.3035 73.7435 13.4959 91.9046 13.6883 110.066C13.7484 115.257 13.7965 120.447 13.8567 125.638C13.8807 127.477 15.6244 127.718 16.8991 127.548C17.9333 127.406 20.8554 126.445 20.8434 124.677H20.8554Z" fill="#E0A619"/>
<path d="M7.06092 124.704C7.12105 109.315 7.16916 93.9407 7.22928 78.5518C7.22928 76.2463 7.2413 73.955 7.25333 71.6495C7.25333 69.7966 5.46156 69.5703 4.21093 69.74C3.16472 69.8815 0.278649 70.8433 0.266624 72.6113C0.206497 87.6889 0.158397 102.767 0.0982699 117.844C0.0982699 120.447 0.0742188 123.049 0.0742188 125.652C0.0742188 127.505 1.86599 127.731 3.11662 127.561C4.16283 127.42 7.0489 126.458 7.06092 124.69V124.704Z" fill="#E0A619"/>
</svg>
