<svg width="262" height="256" viewBox="0 0 262 256" fill="none" xmlns="http://www.w3.org/2000/svg">
<g clip-path="url(#clip0_300_21)">
<path d="M115.17 100.841C121.01 99.2095 126.891 102.766 129.952 107.644C130.12 107.917 131.8 106.516 131.494 106.01C128.915 101.753 128.017 95.7823 130.92 91.4505C133.688 87.326 139.615 87.1946 143.729 89.1518C146.45 90.4451 148.676 92.5725 150.267 95.115C150.436 95.3877 152.116 93.9869 151.81 93.4813C149.231 89.2239 148.333 83.2533 151.24 78.9189C154.148 74.5845 159.935 74.663 164.049 76.6202C166.77 77.9135 168.996 80.0409 170.587 82.5834C170.756 82.8562 172.436 81.4553 172.13 80.9498C169.641 76.8484 168.771 71.3314 171.188 66.9996C173.467 62.9112 178.781 62.099 182.915 63.5086C185.641 64.4398 187.988 66.2399 189.782 68.4748C190.027 68.7768 191.643 67.2805 191.325 66.8411C183.617 56.2813 171.353 50.4251 158.742 48.207C143.667 45.556 127.941 47.6299 113.51 52.3644C97.3198 57.6778 82.2244 66.5814 69.7583 78.1992C58.6674 88.5395 49.347 101.247 44.3021 115.66C40.0747 127.738 39.0554 141.274 43.8521 153.377C44.3899 154.734 44.9924 156.062 45.6612 157.356C45.7861 157.597 47.4537 156.28 47.2036 155.722C45.2948 151.534 44.9009 145.582 48.2465 141.978C51.4081 138.569 56.8965 138.79 60.7535 140.777C63.2958 142.086 65.3754 144.127 66.888 146.542C67.0562 146.815 68.7363 145.414 68.4303 144.908C65.8516 140.651 64.9538 134.68 67.8568 130.348C70.7599 126.017 76.5512 126.093 80.6656 128.05C83.3859 129.343 85.6123 131.47 87.2037 134.013C87.3719 134.286 89.052 132.885 88.7461 132.379C86.1674 128.122 85.2696 122.151 88.1726 117.819C90.9397 113.695 96.8669 113.564 100.981 115.521C103.702 116.814 105.928 118.941 107.519 121.484C107.688 121.757 109.368 120.356 109.062 119.85C106.365 115.401 105.395 108.592 109.186 104.425L108.179 105.017C110.106 108.217 112.035 111.422 113.962 114.622C118.585 122.308 123.214 129.995 127.837 137.681C133.396 146.924 138.96 156.165 144.523 165.412C149.356 173.439 154.184 181.468 159.015 189.491C160.596 192.122 162.182 194.75 163.763 197.381L165.249 199.848C165.489 200.235 165.701 200.799 166.023 201.13C166.067 201.173 166.093 201.245 166.125 201.296L166.215 201.328C167.23 201.12 168.269 200.315 169.158 199.808C170.299 199.157 171.439 198.507 172.56 197.816C172.883 197.617 173.987 196.736 173.706 196.262C172.064 193.456 170.422 190.651 168.78 187.846C164.743 180.958 160.703 174.065 156.666 167.177C151.569 158.484 146.466 149.801 141.356 141.116C136.532 132.913 131.699 124.715 126.851 116.522C123.642 111.1 120.442 105.673 117.16 100.295C116.937 99.933 116.711 99.5665 116.488 99.2042C116.325 98.9399 114.632 100.331 114.945 100.838C117.963 105.731 120.877 110.693 123.809 115.638C128.539 123.611 133.249 131.601 137.949 139.593C143.096 148.338 148.234 157.088 153.373 165.838C157.61 173.061 161.85 180.288 166.08 187.516C167.438 189.832 168.791 192.151 170.149 194.467C170.773 195.535 171.326 196.765 172.073 197.757C172.106 197.802 172.131 197.851 172.16 197.898L173.306 196.344C172.214 197.017 171.099 197.652 169.984 198.286C169.377 198.632 168.769 198.977 168.153 199.31C168.008 199.388 167.734 199.504 167.652 199.572C167.463 199.73 167.538 199.519 167.651 199.655C167.45 199.414 167.306 199.085 167.147 198.818C166.033 196.964 164.917 195.117 163.803 193.262C161.868 190.049 159.933 186.836 158 183.616C155.473 179.415 152.945 175.22 150.419 171.019C147.555 166.261 144.691 161.503 141.827 156.745C138.963 151.987 135.924 146.936 132.971 142.033C130.181 137.394 127.39 132.756 124.595 128.12C122.212 124.16 119.831 120.204 117.447 116.244C115.727 113.387 114.01 110.527 112.289 107.671L110.66 104.963C110.391 104.517 110.154 103.952 109.815 103.554C109.772 103.504 109.739 103.431 109.705 103.375C109.547 103.12 108.745 103.92 108.698 103.967C104.233 108.874 104.132 115.896 107.507 121.474L109.05 119.84C106.044 115.052 100.385 111.588 94.6313 112.819C89.2535 113.964 85.3308 119.019 84.8225 124.392C84.5024 127.76 85.4491 131.13 87.1942 134.007L88.7366 132.373C85.7308 127.585 80.0718 124.121 74.3182 125.352C68.9404 126.497 65.0177 131.552 64.5094 136.925C64.1893 140.293 65.136 143.663 66.8811 146.54L68.4235 144.907C65.5613 140.342 60.2852 136.948 54.7569 137.745C49.5322 138.502 45.3206 143.041 44.3857 148.159C43.8114 151.296 44.3434 154.468 45.6612 157.356L47.2036 155.722C41.3997 144.429 41.1239 131.274 44.4026 119.216C48.2166 105.174 56.4147 92.5761 66.5245 82.2702C78.169 70.3943 92.6566 61.2655 108.218 55.4749C122.398 50.2008 137.879 47.5486 153.003 49.2699C165.587 50.7041 178.25 55.4493 186.959 65.0093C187.963 66.114 188.904 67.2692 189.782 68.4748L191.325 66.8411C187.926 62.613 182.236 59.9449 176.869 61.7074C171.872 63.3476 168.45 68.3584 168.179 73.5264C168.006 76.7156 168.942 79.8682 170.59 82.5877L172.132 80.954C169.127 76.1657 163.468 72.702 157.71 73.935C152.332 75.0807 148.412 80.1397 147.901 85.5084C147.581 88.8767 148.528 92.2463 150.273 95.1235L151.815 93.4899C148.809 88.7016 143.15 85.2378 137.397 86.4682C132.019 87.614 128.096 92.6687 127.588 98.0416C127.268 101.41 128.214 104.78 129.96 107.657L131.502 106.023C128.317 100.945 122.278 97.5393 116.271 99.2142C115.816 99.3417 115.376 99.8723 115.134 100.251C115.014 100.436 114.723 100.981 115.182 100.851L115.17 100.841Z" fill="#E0A619"/>
<path d="M115.714 100.022C120.968 98.4942 127.227 101.164 130.721 106.828C126.646 100.222 127.891 92.0598 133.5 88.6002C139.11 85.1406 146.962 87.6931 151.036 94.2993C146.962 87.6931 148.206 79.5308 153.816 76.0712C159.426 72.6116 167.278 75.1642 171.352 81.7703C167.278 75.1642 168.522 67.0019 174.132 63.5423C179.266 60.376 186.27 62.2572 190.544 67.6575C172.061 42.2109 125.859 41.4417 87.8906 64.8576C49.9217 88.2734 31.9827 128.599 46.4233 156.539C43.5139 150.291 44.98 143.192 50.1141 140.025C55.7239 136.566 63.576 139.118 67.6501 145.725C63.576 139.118 64.8201 130.956 70.4299 127.496C76.0396 124.037 83.8917 126.589 87.9658 133.196C83.8917 126.589 85.1359 118.427 90.7456 114.968C96.3554 111.508 104.207 114.06 108.282 120.667C104.791 115.007 105.217 108.208 108.937 104.202L166.879 200.484C167.194 200.454 172.016 197.645 172.92 197.087C172.92 197.087 124.059 113.572 115.706 100.027L115.714 100.022Z" fill="#E0A619"/>
</g>
<defs>
<clipPath id="clip0_300_21">
<rect width="197.075" height="178.262" fill="white" transform="translate(0 103.447) rotate(-31.6626)"/>
</clipPath>
</defs>
</svg>
