<svg width="98" height="109" viewBox="0 0 98 109" fill="none" xmlns="http://www.w3.org/2000/svg">
<path d="M10.186 43.8781C8.59636 36.0406 6.34432 28.3431 4.82087 20.5056C3.95979 16.1161 2.50256 9.69095 5.66868 5.79766C7.3246 3.74923 9.86813 3.53293 12.4116 3.52021C13.1005 3.52021 14.5842 3.2403 14.9684 2.60414C15.379 1.92981 14.6107 1.86621 14.0278 1.86621C8.49041 1.90438 1.94621 3.57111 0.449259 9.41104C-0.252852 12.1592 -0.0144363 15.0983 0.369737 17.8719C0.899632 21.7016 1.8137 25.4804 2.72777 29.2337C3.98627 34.4375 5.29778 39.6286 6.35757 44.8705C6.54304 45.7738 10.398 44.9087 10.1993 43.8781H10.186Z" fill="#E0A619"/>
<path d="M42.7995 44.0946C44.5084 35.6719 46.9989 27.3637 48.3237 18.8646C49.0523 14.1952 49.8869 7.65546 45.608 4.22021C43.0247 2.15906 39.448 1.7774 36.2156 1.75195C35.487 1.75195 34.043 2.01914 33.6721 2.70619C33.3012 3.39324 34.0165 3.58407 34.6524 3.59679C37.2091 3.60951 39.9911 3.95303 42.0312 5.5816C43.7666 6.96842 44.5482 9.00412 44.8529 11.1034C45.7802 17.4141 43.6871 24.2083 42.2431 30.3027C41.1171 35.0739 39.9646 39.8324 38.9975 44.629C38.7591 45.8122 42.5876 45.2015 42.8128 44.0946H42.7995Z" fill="#E0A619"/>
<path d="M37.052 44.1956C36.0319 48.9032 34.3098 53.7253 31.3954 57.6949C30.2164 59.298 28.7724 60.9393 26.9708 61.9317C26.2819 62.3134 27.2225 61.83 26.4409 62.1353C26.6131 62.059 26.7985 62.0081 26.9972 61.9953C26.5071 62.0717 26.4939 62.0717 26.931 61.9953C27.5934 62.0335 26.3879 61.919 26.5071 61.9445C26.1229 61.8809 25.7388 61.7536 25.3678 61.6264C21.6453 60.3414 18.6116 56.8934 16.5583 53.7762C14.187 50.1755 12.4516 46.0278 12.1734 41.7401C12.0674 40.137 4.3575 41.4602 4.48997 43.7122C4.95363 50.9898 9.62995 59.1835 16.0417 63.1913C23.7251 68.0007 33.6474 63.7639 38.5092 57.1351C41.6091 52.911 43.53 48.0253 44.6163 42.9869C45.0402 41.0148 37.4494 42.1726 37.0122 44.1829L37.052 44.1956Z" fill="#E0A619"/>
<path d="M27.0907 70.584C27.1569 74.1083 26.3621 77.5945 25.9514 81.0806C25.448 85.4574 25.4877 89.8724 26.7198 94.1346C28.5744 100.598 31.6875 108.156 39.6359 108.919C47.1339 109.644 55.0161 105.42 59.8117 100.115C64.6072 94.809 66.1571 87.9384 65.826 81.1697C65.6802 78.2434 65.2563 75.3298 64.223 72.5561C63.1898 69.7825 61.6398 67.4796 60.3681 64.9095C58.3942 60.9399 57.9968 56.7031 58.5664 52.3899C59.2685 47.0462 61.3351 41.1935 66.0114 37.8855C71.4296 34.0304 80.1861 35.7608 83.8689 41.1427C85.591 43.6618 86.3594 46.7281 86.9423 49.6417C87.7371 53.5732 88.1875 57.5683 88.5187 61.5506C89.2871 70.9149 89.0221 80.3173 87.9358 89.6433C87.8961 90.025 91.6451 89.7197 91.7775 88.6509C92.7711 80.1646 93.0758 71.6146 92.5459 63.0901C92.1352 56.4995 91.6981 49.3491 89.2606 43.1275C84.3855 30.7097 65.2166 32.44 58.5267 42.4404C55.864 46.4228 54.7247 51.3466 54.4995 56.0287C54.4067 57.9881 54.5525 59.9475 55.0294 61.856C55.7182 64.6042 57.1622 66.9961 58.5134 69.4771C64.9781 81.2842 62.9381 97.9007 50.4458 105.28C46.4981 107.608 41.9012 108.499 37.8608 105.814C34.4032 103.524 32.8003 99.5547 31.5153 95.8904C29.8726 91.1956 29.25 86.5262 29.6871 81.5641C30.0448 77.5691 31.0516 73.5994 30.9721 69.5662C30.9721 69.0318 27.1172 69.5662 27.1304 70.5586L27.0907 70.584Z" fill="#E0A619"/>
<path d="M18.412 61.8942C21.1277 64.3116 23.7904 68.8793 25.3403 73.8667C25.8172 75.3935 26.4134 77.5183 26.2809 79.0069C26.0689 81.4497 27.2744 82.7729 28.0693 83.1037C30.1226 83.9562 29.5 79.8466 30.2949 75.2536C31.1692 70.1898 31.964 64.159 33.3815 62.1742C36.7198 57.492 32.6529 62.4413 27.1287 62.5558C21.6046 62.6703 14.1463 58.1028 18.4384 61.907L18.412 61.8942Z" fill="#E0A619"/>
<path d="M35.0761 3.11199C34.0296 3.11199 32.9566 2.92117 31.9895 3.45554C31.6583 3.64639 31.6318 3.86265 31.5391 4.18073C31.4728 4.44792 31.3403 4.56245 31.1284 4.72786C31.0754 4.76603 31.1946 4.68969 31.1814 4.68969C31.1549 4.68969 31.1417 4.71513 31.1152 4.72786C31.0754 4.7533 31.0357 4.77873 31.0092 4.79146C30.9827 4.80418 30.9297 4.82961 30.9032 4.85506C30.7972 4.91867 30.9827 4.81689 30.9827 4.81689C30.9562 4.81689 30.9297 4.84233 30.9032 4.85506C30.7575 4.9314 30.9032 4.85507 30.9827 4.82962C30.89 4.85507 30.7177 4.88053 31.0754 4.80419C30.8635 4.85508 31.0224 4.80419 31.0754 4.80419C31.0754 4.80419 31.4066 4.76602 31.2609 4.76602C31.2079 4.76602 31.4861 4.76602 31.3271 4.76602C31.1682 4.76602 31.4066 4.79147 31.3271 4.76602C31.3006 4.76602 31.2609 4.75328 31.2211 4.74055C31.1681 4.74055 31.2609 4.75329 31.2609 4.75329C31.2344 4.75329 31.2079 4.74058 31.1946 4.72786C31.0357 4.63879 30.9297 4.56243 30.8502 4.42247C30.4925 3.8881 30.5058 3.15018 30.5323 2.53947C30.5323 2.31045 28.6379 2.514 28.6114 3.03565C28.5717 3.97717 28.6379 5.35127 29.8831 5.46578C30.5985 5.5294 31.3404 5.32584 31.9895 5.04593C32.4532 4.84236 33.1023 4.52426 33.3407 4.06623C33.4202 3.91355 33.4467 3.76088 33.4864 3.59548C33.4997 3.53186 33.5262 3.48099 33.5394 3.41737C33.5394 3.39193 33.5659 3.37918 33.5792 3.35373C33.4069 3.76087 32.0292 3.77361 32.5061 3.76088C32.9433 3.76088 33.3937 3.81177 33.8309 3.79905C34.268 3.78633 34.7979 3.68456 35.1821 3.45554C35.2616 3.40465 35.447 3.31557 35.4073 3.20106C35.3676 3.08655 35.1556 3.08656 35.0761 3.08656V3.11199Z" fill="#E0A619"/>
<path d="M35.0766 1.96727C34.6527 1.96727 34.2288 1.96726 33.8049 1.9927C33.7784 1.9927 33.4869 2.01815 33.4737 1.9927C33.4472 1.96726 33.5797 2.01816 33.5929 2.00544C33.4869 2.10722 33.5797 1.95453 33.5664 1.9927C33.5664 1.95453 33.5134 1.8782 33.5002 1.84003C33.4737 1.76369 33.4737 1.7001 33.4472 1.62376C33.3279 1.11483 32.9173 0.809466 32.4536 0.580449C31.99 0.351432 31.5131 0.262368 31.0097 0.300538C30.2811 0.364154 29.4067 0.605883 28.9563 1.20387C28.5457 1.75097 28.5589 2.57797 28.5854 3.22685C28.5854 3.32864 28.8769 3.34139 28.9166 3.34139C29.1418 3.34139 29.3935 3.3032 29.6187 3.23959C29.8439 3.17597 30.0691 3.11234 30.2811 2.98511C30.3738 2.93421 30.5195 2.84518 30.5063 2.73067C30.4798 2.18357 30.4665 1.57286 30.7315 1.06394C30.7712 0.987596 30.8242 0.911267 30.8772 0.834928C30.9169 0.771312 30.8242 0.873072 30.9037 0.809457C30.9302 0.78401 31.0494 0.720396 30.9434 0.771289C30.8375 0.822181 30.9169 0.784012 30.9434 0.771289C31.0097 0.733119 30.811 0.834915 30.8242 0.822192C30.8905 0.796746 30.9832 0.784034 30.6917 0.873096C30.599 0.911265 30.493 0.936708 30.4003 0.949432C30.4003 0.949432 30.0956 1.00032 30.1883 0.987599C30.1883 0.987599 29.9631 0.987599 30.0824 0.987599C30.1089 0.987599 30.1221 0.987599 30.1486 0.987599C29.9499 0.962153 30.1751 0.987586 30.2413 1.01303C30.2811 1.01303 30.3208 1.03846 30.3606 1.03846C30.4135 1.05119 30.3341 1.03846 30.3341 1.03846C30.3606 1.03846 30.3871 1.06394 30.4136 1.06394C30.5725 1.12755 30.7315 1.20388 30.8904 1.29294C31.0494 1.38201 31.2349 1.49653 31.3541 1.62376C31.5396 1.82733 31.5263 2.10721 31.6191 2.34895C31.7515 2.73064 32.1755 2.69249 32.5199 2.67976C32.957 2.66704 33.3942 2.65433 33.8314 2.65433C34.2685 2.65433 34.7984 2.5398 35.1826 2.31078C35.2621 2.25989 35.4475 2.17085 35.4078 2.05634C35.3681 1.94183 35.1561 1.94184 35.0766 1.94184V1.96727Z" fill="#E0A619"/>
<path d="M35.2774 3.32932C35.2642 3.17664 35.2509 3.01125 35.2377 2.85857C35.2244 2.62955 35.2112 2.40053 35.2112 2.17151C35.2112 2.12062 35.0655 2.12061 35.039 2.12061C34.9198 2.12061 34.8005 2.14606 34.6945 2.17151C34.5886 2.19696 34.4693 2.23513 34.3634 2.29875C34.3104 2.32419 34.2441 2.36237 34.2441 2.42599C34.2441 2.655 34.2574 2.88399 34.2707 3.11301C34.2707 3.26569 34.2972 3.43108 34.3104 3.58376C34.3104 3.63465 34.4561 3.63467 34.4826 3.63467C34.6018 3.63467 34.721 3.60921 34.827 3.58376C34.933 3.55832 35.0522 3.52018 35.1582 3.45656C35.198 3.43111 35.2774 3.39294 35.2774 3.32932Z" fill="#E0A619"/>
<path d="M13.473 3.5069C13.6982 3.5069 13.9234 3.50691 14.1486 3.48146C14.2414 3.48146 14.3473 3.48145 14.4401 3.46873C14.4003 3.46873 14.3076 3.46873 14.4666 3.46873C14.5328 3.46873 14.599 3.46873 14.6653 3.46873C14.7712 3.46873 14.864 3.46873 14.97 3.46873C14.9037 3.46873 14.9435 3.44328 14.9567 3.46873C14.9832 3.59596 15.0494 3.71048 15.0759 3.83771C15.1952 4.35936 15.6058 4.65198 16.0695 4.89372C16.5331 5.13546 17.01 5.2118 17.5134 5.17363C18.242 5.11001 19.1164 4.86828 19.5668 4.27029C19.9775 3.7232 19.9642 2.8962 19.9377 2.24732C19.9377 2.14553 19.6463 2.13281 19.6065 2.13281C19.3813 2.13281 19.1296 2.17096 18.9044 2.23458C18.6792 2.2982 18.454 2.36183 18.2421 2.48906C18.1493 2.53995 18.0036 2.62903 18.0168 2.74354C18.0433 3.29063 18.0566 3.90134 17.7917 4.41027C17.7519 4.48661 17.6989 4.56294 17.6459 4.63928C17.6062 4.70289 17.6989 4.60109 17.6194 4.66471C17.5929 4.69016 17.4737 4.75377 17.5797 4.70288C17.6062 4.69015 17.6857 4.65198 17.5797 4.70288C17.5135 4.74105 17.7122 4.63929 17.6989 4.65201C17.6327 4.67746 17.54 4.69017 17.8314 4.60111C17.9241 4.56294 18.0301 4.5375 18.1228 4.52477C18.1228 4.52477 18.4275 4.47388 18.3348 4.48661C18.3348 4.48661 18.56 4.48661 18.4408 4.48661C18.4143 4.48661 18.401 4.48661 18.3745 4.48661C18.5733 4.51205 18.348 4.48658 18.2818 4.46113C18.2421 4.46113 18.2023 4.4357 18.1626 4.4357C18.1096 4.42298 18.1891 4.4357 18.1891 4.4357C18.1626 4.4357 18.1361 4.41027 18.1096 4.41027C17.9506 4.34665 17.7916 4.27029 17.6327 4.18122C17.4737 4.09216 17.2883 3.97768 17.169 3.85045C16.9836 3.64688 16.9968 3.36696 16.9041 3.12522C16.7583 2.74352 16.2814 2.78171 15.937 2.78171C15.672 2.78171 15.4071 2.79442 15.1422 2.80714C15.1024 2.80714 15.0759 2.80714 15.0362 2.80714C15.0229 2.80714 14.8242 2.80714 14.9302 2.80714C15.023 2.80714 14.9037 2.80714 14.9037 2.80714C14.8375 2.80714 14.7712 2.80714 14.705 2.80714C14.2546 2.80714 13.738 2.92163 13.3538 3.15065C13.2743 3.20154 13.0888 3.29062 13.1286 3.40513C13.1683 3.51964 13.3803 3.51963 13.4597 3.51963L13.473 3.5069Z" fill="#E0A619"/>
<path d="M13.4738 2.36217C14.5204 2.36217 15.5934 2.56574 16.5604 2.00592C16.8916 1.81507 16.9182 1.59877 17.0109 1.28069C17.0771 1.0135 17.2228 0.899018 17.4216 0.74634C17.4745 0.70817 17.3553 0.784508 17.3686 0.784508C17.3951 0.784508 17.4083 0.759063 17.4348 0.74634C17.4745 0.720893 17.5143 0.695424 17.5408 0.682701C17.5673 0.669977 17.6202 0.644547 17.6467 0.6191C17.7527 0.555484 17.5673 0.657268 17.5673 0.657268C17.5938 0.657268 17.6202 0.631823 17.6467 0.6191C17.7925 0.542761 17.6467 0.619086 17.5673 0.644533C17.66 0.619086 17.8322 0.593665 17.4745 0.670004C17.5275 0.670004 17.6865 0.619111 17.4745 0.670004C17.4745 0.670004 17.1434 0.708172 17.2891 0.708172C17.3421 0.708172 17.0638 0.708172 17.2228 0.708172C17.1433 0.682725 17.3818 0.708172 17.2228 0.708172C17.2493 0.708172 17.2891 0.720881 17.3288 0.733604C17.3818 0.733604 17.2891 0.720868 17.2891 0.720868C17.3156 0.720868 17.3421 0.733616 17.3553 0.74634C17.5143 0.835402 17.6203 0.911728 17.6997 1.05168C18.0574 1.58606 18.0442 2.32401 18.0177 2.93473C18.0177 3.16374 19.9121 2.96015 19.9385 2.4385C19.9783 1.54788 19.9386 0.173788 18.7463 0.02111C18.0177 -0.0679522 17.2361 0.135628 16.5737 0.428261C16.11 0.631831 15.5139 0.924439 15.2357 1.35703C15.143 1.49698 15.1032 1.66242 15.0767 1.82782C15.0635 1.89143 15.0503 1.96774 15.0238 2.03135C15.0238 2.0568 14.9973 2.08228 14.984 2.10773C14.8648 2.27313 15.037 2.20949 15.5007 1.92958C15.6729 1.80235 15.8584 1.73873 16.0571 1.72601C15.8451 1.70056 15.6067 1.726 15.3815 1.71327C15.1562 1.70055 14.9443 1.68784 14.7323 1.68784C14.2819 1.68784 13.7653 1.80234 13.3811 2.03135C13.3016 2.08225 13.1162 2.17132 13.1559 2.28583C13.1956 2.40034 13.4076 2.40034 13.4871 2.40034L13.4738 2.36217Z" fill="#E0A619"/>
<path d="M14.4239 3.03631C14.4107 2.88364 14.3974 2.71824 14.3842 2.56556C14.3709 2.33655 14.3577 2.10752 14.3577 1.8785C14.3577 1.82761 14.212 1.82764 14.1855 1.82764C14.0662 1.82764 13.947 1.85306 13.841 1.8785C13.7351 1.90395 13.6158 1.94213 13.5098 2.00574C13.4569 2.03119 13.3906 2.06936 13.3906 2.13298C13.3906 2.362 13.4039 2.59102 13.4171 2.82004C13.4171 2.97272 13.4436 3.13811 13.4568 3.29079C13.4568 3.34169 13.6026 3.3417 13.6291 3.3417C13.7483 3.3417 13.8675 3.31624 13.9735 3.29079C14.0795 3.26535 14.1987 3.22717 14.3047 3.16355C14.3444 3.13811 14.4239 3.09993 14.4239 3.03631Z" fill="#E0A619"/>
<path d="M90.9952 101.655C87.8159 102.367 84.4246 101.489 82.1857 99.1353C81.6691 98.5882 81.2054 97.9648 80.861 97.265C78.503 92.4557 82.6494 86.2341 87.6702 85.5852C94.3733 84.7327 96.8638 89.593 97.7779 93.5244C97.9766 94.3641 98.4403 96.4126 96.8903 98.4356C95.4861 100.268 93.0883 101.197 90.9952 101.667V101.655Z" fill="#E0A619"/>
</svg>
