<svg width="97" height="91" viewBox="0 0 97 91" fill="none" xmlns="http://www.w3.org/2000/svg">
<path d="M78.9803 79.2099C75.4703 82.3399 71.7203 84.4499 67.4903 85.9199C66.5603 86.2399 67.7803 85.8298 67.2303 86.0098C66.9903 86.0899 66.7403 86.1599 66.4903 86.2399C65.9003 86.4199 65.3003 86.5798 64.7003 86.7299C64.2003 86.8598 63.7003 86.9699 63.1903 87.0799C63.7603 86.9599 62.7603 87.1599 62.7503 87.1599C62.3903 87.2299 62.0403 87.2899 61.6803 87.3499C59.2903 87.7399 57.4803 87.8898 55.0703 87.9298C45.7103 88.0998 36.2703 85.7798 27.8903 81.6498C20.6103 78.0599 13.3303 72.6098 9.65031 65.1798C6.55031 58.9398 6.2403 51.4699 7.1303 44.6799C8.2103 36.4599 11.0903 28.3199 15.6003 21.3499C17.8603 17.8599 20.5303 14.5699 23.6403 11.7999C25.2703 10.3499 27.0003 9.00985 28.8503 7.83985C30.4203 6.84985 32.4503 5.80985 34.0503 5.16985C34.5003 4.98985 34.9603 4.80985 35.4203 4.63985C35.7003 4.53985 35.9803 4.43985 36.2603 4.34985C35.6703 4.54985 36.6003 4.24985 36.6303 4.23985C37.1103 4.09985 37.5903 3.95985 38.0703 3.83985C38.3603 3.75985 38.6603 3.68986 38.9503 3.61986C39.1503 3.56986 39.3503 3.52985 39.5403 3.48985C39.3103 3.53985 39.3003 3.53985 39.5103 3.48985C42.0203 2.99985 44.5403 2.77986 47.1003 2.82986C52.3203 2.92986 57.5003 4.28986 62.2503 6.40986C71.9703 10.7399 80.2203 18.5899 85.3803 27.8699C88.9903 34.3699 91.2603 41.7299 91.1503 49.1999C91.0203 57.5599 88.8503 66.2899 84.1003 73.2499C82.6203 75.4099 80.9103 77.4499 78.9703 79.2099C78.1603 79.9499 78.2203 80.7099 79.4203 80.8799C80.6203 81.0499 82.5603 80.6499 83.5203 79.7799C96.3503 68.1299 100.25 48.3199 94.0203 32.3499C89.9203 21.8299 82.1603 12.6299 72.4903 6.78986C62.8203 0.949856 50.5103 -1.42015 38.9303 1.12985C20.0803 5.26985 6.8203 21.5299 2.4603 39.7799C0.660303 47.2799 0.110304 55.5899 2.4103 63.0499C4.8903 71.0899 11.3703 77.2499 18.3703 81.5199C35.5103 91.9899 59.7803 94.7498 77.5203 84.1498C79.6503 82.8799 81.6703 81.4399 83.5303 79.7799C84.3603 79.0399 84.2703 78.2799 83.0803 78.1099C81.8903 77.9399 79.9503 78.3499 78.9803 79.2099Z" fill="#E0A619"/>
<path d="M71.4303 9.8198C72.8003 12.9198 64.0503 20.9798 60.3903 19.5098C58.1303 18.5998 58.4303 14.9098 55.9603 13.5498C54.0803 12.5098 52.6503 14.1198 52.5903 15.8898C52.4603 19.4998 53.5803 23.1198 52.4603 25.9798C46.8403 40.3598 31.1803 34.0198 31.2803 37.8898C31.3803 41.6798 57.6103 47.0698 56.7803 51.7798C54.6703 63.8898 55.5803 75.4798 48.9303 76.5498C21.6103 80.9598 18.6303 30.6098 13.4203 22.7298C13.3903 22.6798 13.2603 22.5898 13.3203 22.4898C31.8103 -9.60021 68.3503 2.8398 71.4203 9.8198H71.4303Z" fill="#E0A619"/>
<path d="M80.5203 18.0799C74.3903 16.9999 64.1603 30.6699 66.7703 39.0699C68.9703 46.1299 77.0303 44.3999 78.0703 52.7199C78.5203 56.2799 78.0703 62.0399 79.6703 65.6899C81.1203 68.9899 86.7503 72.4499 87.9403 70.7599C98.2003 56.2799 91.3303 19.9799 80.5203 18.0699V18.0799Z" fill="#E0A619"/>
</svg>
