<svg width="218" height="176" viewBox="0 0 218 176" fill="none" xmlns="http://www.w3.org/2000/svg">
<g clip-path="url(#clip0_187_202)">
<path d="M200.362 174.075C200.424 168.579 200.036 162.989 197.957 157.824C195.308 151.248 190.065 146.492 183.535 143.701L183.135 144.451C196.566 135.791 203.227 116.373 195.157 102.084C191.823 96.1811 185.807 91.8594 178.813 91.5462C171.819 91.2331 164.947 94.7781 160.328 99.9733C153.729 107.378 149.745 117.649 150.19 127.495L154.178 126.164C152.829 125.706 151.464 125.278 150.115 124.849L150.456 125.266C153.974 118.921 154.925 111.987 154.63 104.861C154.417 99.7311 153.773 94.1384 150.934 89.689C145.241 80.7456 131.896 81.8701 123.849 86.8651C117.893 90.5679 113.942 96.5683 111.942 103.122L116.286 102.209C115.542 96.1573 116.156 89.81 116.224 83.7227L116.614 49.282L112.626 50.6125C119.303 52.3998 123.538 58.4753 123.583 65.1549C123.575 65.805 127.916 65.2024 127.959 64.0503C128.156 57.2699 133.39 49.5694 141.082 50.6586C148.775 51.7478 153.395 58.4185 153.435 65.4823C153.428 66.1176 157.768 65.5298 157.812 64.3777C158.009 57.5972 163.242 49.8968 170.935 50.9859C178.627 52.0751 183.247 58.7458 183.288 65.8096C183.28 66.445 187.621 65.8572 187.664 64.705C187.839 58.5302 192.334 51.0137 199.404 51.1947C206.475 51.3757 212.05 57.3624 212.998 64.0519C213.11 64.8363 217.453 64.0121 217.375 62.9473C216.171 48.305 206.543 36.0528 195.161 27.2244C180.408 15.7583 162.157 8.8051 143.902 4.92547C123.065 0.500328 101.266 -0.019486 80.2342 3.39978C61.7959 6.40417 43.3081 12.4521 27.8546 22.9811C15.8138 31.1389 5.165 42.6219 2.02313 56.9654C1.67422 58.5427 1.43047 60.1359 1.26195 61.73C1.21079 62.2614 5.44441 61.8202 5.63851 60.6254C6.75261 53.9289 12.48 47.815 19.8042 49.5355C26.5881 51.1319 30.8954 57.4741 30.9255 64.1241C30.9184 64.7594 35.259 64.1716 35.3021 63.0195C35.4992 56.239 40.7329 48.5385 48.4254 49.6277C56.1179 50.7169 60.7376 57.3876 60.7781 64.4514C60.7709 65.0867 65.1115 64.4989 65.1546 63.3468C65.3517 56.5664 70.5854 48.8659 78.2779 49.9551C85.9704 51.0443 90.5901 57.715 90.6306 64.7788C90.6234 65.4141 94.964 64.8263 95.0071 63.6742C95.1768 57.9869 98.6932 51.7749 104.654 50.3182L102.307 50.2481L101.849 90.7614L106.225 89.6568C106.171 83.8045 102.046 78.6465 97.5251 75.213C93.0043 71.7795 88.3518 70.6645 82.7923 71.2538C78.0011 71.7627 73.181 73.4979 69.9049 77.0971C66.8875 80.4331 65.4237 84.791 64.5623 89.0964C63.4782 94.4781 63.2505 99.9726 62.9328 105.437L67.3094 104.332C65.2714 99.581 62.5097 94.9551 58.3327 91.7175C54.7376 88.9296 50.3291 87.5366 45.8192 87.1177C36.7094 86.2789 25.4846 88.8157 23.2343 98.8393C22.1097 103.807 23.1795 109.005 25.2947 113.58C25.75 114.575 29.9796 113.158 29.6713 112.475C26.6748 105.985 25.3667 96.5723 31.3713 91.2298C34.5485 88.3979 38.8981 88.3421 42.9565 88.7561C47.015 89.17 50.6872 90.4663 53.8659 92.8211C58.1488 96.0008 60.8955 100.627 62.9482 105.407C63.3441 106.328 67.2686 105.277 67.3248 104.303C67.778 96.1655 67.7604 87.0775 71.8165 79.7188C73.5219 76.6196 76.248 73.7532 79.8833 72.9951C84.6497 72.013 88.9683 73.3755 92.8047 76.1217C97.5367 79.5132 101.797 84.717 101.849 90.7023C101.842 91.3524 106.213 90.7501 106.226 89.5977L106.684 49.0844C106.691 48.4934 104.473 48.9863 104.338 49.0144C96.6567 50.8807 90.8723 56.7133 90.6464 64.7051L95.023 63.6005C94.9757 54.4826 87.2439 47.5561 78.0276 48.1348C68.8114 48.7135 61.0644 55.1008 60.809 64.3779L65.1855 63.2733C65.1382 54.1554 57.4064 47.2289 48.1902 47.8076C38.9739 48.3863 31.227 54.7736 30.9715 64.0507L35.3481 62.9461C35.2946 54.3749 28.3455 47.4274 19.587 47.4496C10.8286 47.4718 2.69988 53.0126 1.26195 61.73L5.63851 60.6254C7.10619 46.6182 15.9531 34.7903 26.8853 26.1918C40.4897 15.4947 57.4015 9.0897 74.3685 5.77364C94.7442 1.78567 116.006 1.90061 136.384 5.72964C154.299 9.08835 172.09 15.3568 187.066 25.7466C200.087 34.7851 211.601 47.8411 212.923 64.0363L217.3 62.9317C216.045 54.1552 207.997 48.5552 199.166 49.6701C190.335 50.7849 183.463 56.9602 183.213 65.7793L187.589 64.6747C187.542 55.5568 179.81 48.6303 170.594 49.209C161.378 49.7877 153.631 56.175 153.375 65.4521L157.752 64.3475C157.704 55.2296 149.973 48.3031 140.756 48.8818C131.54 49.4605 123.793 55.8478 123.538 65.1249L127.914 64.0203C127.874 56.9269 123.172 50.8759 116.196 49.0114C115.431 48.8109 112.22 49.2634 112.208 50.3419L111.695 95.7162C111.666 98.2722 111.563 100.739 111.88 103.269C111.991 104.113 115.99 103.122 116.224 102.356C119.1 92.9306 127.102 82.6302 138.33 85.0733C147.638 87.0964 149.767 97.0794 150.203 105.123C150.587 112.412 149.724 119.481 146.145 125.958C146.006 126.222 146.306 126.329 146.486 126.376C147.851 126.789 149.2 127.233 150.549 127.691C151.269 127.935 154.586 127.395 154.537 126.36C154.166 117.963 157.088 109.676 161.832 102.738C165.03 98.0595 170.087 92.677 176.371 93.1893C182.656 93.7015 188.113 98.1944 191.002 103.561C194.244 109.581 194.87 116.813 193.516 123.433C191.812 131.69 187.057 139.632 179.796 144.311C179.69 144.383 178.932 144.863 179.396 145.06C185.971 147.88 191.169 152.622 193.727 159.27C195.671 164.33 196.031 169.772 195.986 175.135C195.979 175.756 200.349 175.213 200.362 174.031L200.362 174.075Z" fill="#E0A619"/>
</g>
<defs>
<clipPath id="clip0_187_202">
<rect width="216.052" height="173.278" fill="white" transform="matrix(0.99994 0.0109654 -0.0113123 0.999936 1.95996 0)"/>
</clipPath>
</defs>
</svg>
