<svg width="427" height="316" viewBox="0 0 427 316" fill="none" xmlns="http://www.w3.org/2000/svg">
<path d="M202.076 149.129C233.943 184.234 273.225 221.324 294.998 243.938C301.13 250.308 314.317 238.459 307.404 230.576C285.078 205.128 267.823 192.308 216.734 134.552" fill="#FBF5EB"/>
<path d="M204.119 149.119C212.772 158.653 221.642 167.969 230.605 177.179C239.501 186.32 248.503 195.355 257.536 204.348C265.667 212.438 273.827 220.496 281.943 228.602C285.412 232.068 288.876 235.545 292.31 239.049C293.826 240.594 295.302 242.186 296.839 243.71C296.986 243.858 297.148 243.991 297.3 244.129C297.452 244.267 297.534 244.474 297.285 244.129C297.316 244.166 297.432 244.23 297.483 244.262C297.518 244.283 297.752 244.458 297.787 244.442C297.823 244.426 297.3 244.23 297.6 244.341C297.706 244.384 297.813 244.426 297.914 244.479C298.294 244.665 297.356 244.336 297.767 244.426C297.873 244.453 297.99 244.485 298.097 244.517C298.37 244.601 298.031 244.363 297.833 244.458C297.899 244.426 298.35 244.601 298.396 244.532C298.391 244.543 297.818 244.532 298.294 244.517C298.37 244.517 298.447 244.517 298.523 244.517C298.619 244.517 298.776 244.532 298.868 244.501C298.655 244.575 298.533 244.543 298.842 244.501C299.233 244.442 299.618 244.363 300.004 244.262C299.588 244.373 300.207 244.187 300.293 244.156C300.526 244.071 300.754 243.975 300.977 243.874C301.88 243.46 302.382 243.142 303.067 242.595C304.426 241.507 305.633 240.068 306.323 238.566C306.683 237.785 306.942 236.952 307.069 236.092C307.196 235.232 307.185 234.569 306.978 233.655C306.744 232.636 306.48 232.089 305.912 231.293C305.41 230.587 304.802 229.961 304.234 229.318C303.204 228.156 302.164 226.999 301.119 225.847C300.617 225.295 300.115 224.748 299.613 224.196C299.491 224.063 299.37 223.93 299.248 223.798C299.086 223.623 299.532 224.106 299.278 223.835C299.217 223.771 299.157 223.702 299.096 223.638C298.842 223.362 298.584 223.086 298.33 222.81C296.301 220.623 294.247 218.463 292.178 216.318C287.927 211.912 283.611 207.58 279.29 203.249C274.259 198.206 269.227 193.157 264.242 188.067C257.947 181.633 251.714 175.13 245.557 168.553C237.421 159.868 229.392 151.067 221.455 142.186C219.193 139.654 216.936 137.116 214.689 134.574C213.974 133.767 215.297 133.321 215.855 133.326C216.931 133.342 218.036 133.724 218.772 134.558C227.237 144.124 235.824 153.657 244.461 162.968C251.029 170.05 257.668 177.057 264.389 183.974C269.623 189.362 274.913 194.697 280.213 200.016C284.666 204.48 289.129 208.939 293.532 213.457C297.843 217.884 302.093 222.375 306.232 226.977C308.504 229.499 311.441 232.047 311.547 235.779C311.659 239.765 309.047 243.227 305.938 245.238C302.245 247.627 297.346 247.627 293.841 244.824C293.045 244.187 292.36 243.365 291.645 242.627C290.869 241.825 290.093 241.029 289.317 240.233C287.664 238.539 286 236.856 284.336 235.179C276.546 227.323 268.674 219.551 260.823 211.758C251.775 202.776 242.737 193.773 233.79 184.68C224.579 175.316 215.455 165.862 206.513 156.216C204.342 153.875 202.181 151.518 200.031 149.151C199.301 148.349 200.65 147.898 201.198 147.903C202.283 147.919 203.363 148.307 204.114 149.135L204.119 149.119Z" fill="#DA9E30"/>
<path d="M216.728 134.553C224.148 126.93 227.074 124.015 227.074 124.015C213.497 108.159 207.258 103.546 191.545 85.8584L157.736 122.237C177.258 142.298 180.473 145.663 192.971 158C192.971 158 198.489 153.291 216.722 134.553H216.728Z" fill="#FBF5EB"/>
<path d="M214.679 133.672C218.113 130.147 221.536 126.606 225.026 123.134L225.036 124.021C220.623 118.872 216.322 114.163 211.661 109.338C207.396 104.921 203.074 100.574 198.865 96.1038C195.695 92.7383 192.581 89.325 189.507 85.8639L193.6 86.7398C192.479 87.9448 191.358 89.1498 190.242 90.3548C187.554 93.2479 184.866 96.141 182.173 99.0394C178.917 102.543 175.666 106.041 172.41 109.545C169.595 112.576 166.78 115.602 163.965 118.633C163.037 119.631 162.108 120.634 161.18 121.632C160.759 122.089 160.343 122.678 159.851 123.06C159.831 123.076 159.811 123.103 159.791 123.124L159.491 121.919C165.136 127.716 170.771 133.523 176.421 139.309C180.119 143.094 183.832 146.858 187.575 150.595C189.948 152.968 192.337 155.325 194.721 157.682L190.917 157.124C191.926 156.264 192.89 155.341 193.854 154.433C197.439 151.051 200.944 147.58 204.429 144.087C207.867 140.642 211.276 137.17 214.674 133.677C215.348 132.981 216.824 133.342 217.58 133.688C218.047 133.9 219.482 134.723 218.782 135.439C213.517 140.849 208.227 146.226 202.841 151.497C200.559 153.732 198.266 155.962 195.903 158.106C195.614 158.366 195.325 158.632 195.03 158.887C194.072 159.704 192.043 159.136 191.226 158.329C187.235 154.39 183.253 150.441 179.307 146.454C175.098 142.202 170.918 137.908 166.744 133.618C163.158 129.934 159.578 126.25 155.992 122.566C155.687 122.258 155.297 121.791 155.693 121.361C156.813 120.156 157.934 118.951 159.05 117.746C161.738 114.853 164.426 111.96 167.12 109.062C170.376 105.558 173.627 102.06 176.883 98.5563C179.698 95.5252 182.513 92.4994 185.328 89.4683L188.112 86.4691C188.548 85.9966 188.969 85.4764 189.441 85.0411C189.461 85.0199 189.482 84.9986 189.502 84.9774C189.974 84.4731 190.973 84.6058 191.531 84.7226C192.322 84.8925 193.042 85.2269 193.595 85.8533C198.444 91.3103 203.419 96.6294 208.501 101.853C212.645 106.11 216.819 110.336 220.857 114.71C223.666 117.757 226.42 120.857 229.124 124.01C229.327 124.249 229.367 124.668 229.134 124.897C225.644 128.363 222.221 131.904 218.787 135.434C218.113 136.129 216.637 135.768 215.881 135.423C215.414 135.211 213.979 134.388 214.679 133.672Z" fill="#DA9E30"/>
<path d="M184.471 172.036C171.462 159.173 171.249 159.752 142.252 128.687C137.449 123.543 148.161 113.877 153.796 119.482C166.42 132.053 172.74 138.051 193.783 159.173C200.519 165.931 189.934 177.44 184.471 172.036Z" fill="#FBF5EB"/>
<path d="M182.722 172.359C180.155 169.822 177.569 167.306 174.982 164.789C172.715 162.581 170.448 160.368 168.216 158.122C165.092 154.985 162.018 151.805 158.955 148.604C153.852 143.264 148.791 137.876 143.744 132.477C142.897 131.575 142.055 130.667 141.208 129.764C140.625 129.138 139.97 128.544 139.544 127.784C138.931 126.686 138.708 125.486 138.915 124.228C139.347 121.632 141.34 119.54 143.394 118.203C146.123 116.419 149.435 116.132 152.458 117.231C154.01 117.799 155.196 118.813 156.368 119.976C157.387 120.99 158.402 121.998 159.421 123.007C163.159 126.712 166.907 130.402 170.656 134.091C175.144 138.518 179.628 142.956 184.096 147.41C187.144 150.446 190.182 153.488 193.221 156.53C194.595 157.91 196.248 159.232 197.192 160.994C197.887 162.295 198.201 163.638 198.161 165.124C198.085 167.752 196.669 170.305 194.838 172.041C192.795 173.978 190.061 175.029 187.297 174.562C185.623 174.281 183.98 173.57 182.727 172.354C182.078 171.728 182.209 171.016 183.117 170.836C184.091 170.645 185.496 170.995 186.236 171.712C186.343 171.813 186.45 171.913 186.561 172.004C186.607 172.041 186.657 172.078 186.703 172.12C186.977 172.359 186.586 172.03 186.586 172.035C186.586 172.083 186.84 172.189 186.881 172.221C187.185 172.423 186.693 172.099 186.683 172.126C186.683 172.126 186.87 172.216 186.886 172.216C187.236 172.243 186.318 172.062 186.779 172.179C187.241 172.296 186.886 172.142 186.663 172.163C186.774 172.152 186.926 172.195 187.038 172.216C187.241 172.253 186.744 172.2 186.754 172.195C186.82 172.163 186.957 172.195 187.028 172.195C187.084 172.195 187.139 172.189 187.19 172.195C187.479 172.205 187.007 172.158 187.028 172.211C187.033 172.227 187.327 172.168 187.357 172.163C187.484 172.142 187.616 172.115 187.743 172.083C187.814 172.067 187.89 172.046 187.961 172.025C188.174 171.972 187.682 172.126 187.89 172.046C188.428 171.834 188.94 171.611 189.442 171.314C189.503 171.276 189.746 171.117 189.564 171.239C189.685 171.16 189.802 171.069 189.914 170.984C190.162 170.793 190.406 170.592 190.639 170.374C191.08 169.965 191.491 169.519 191.856 169.036C192.592 168.081 193.099 167.104 193.444 165.872C193.789 164.641 193.855 163.574 193.586 162.395C193.52 162.114 193.439 161.838 193.342 161.567C193.286 161.419 193.231 161.275 193.165 161.127C193.165 161.127 193.068 160.925 193.124 161.036C193.18 161.148 193.023 160.856 193.008 160.829C192.855 160.559 192.683 160.299 192.495 160.049C192.389 159.911 192.277 159.778 192.166 159.64C192.135 159.603 191.953 159.412 192.145 159.614C192.049 159.513 191.953 159.417 191.851 159.317C188.788 156.232 185.714 153.164 182.641 150.096C178.116 145.584 173.582 141.082 169.033 136.591C165.431 133.034 161.82 129.488 158.219 125.927C156.302 124.031 154.39 122.136 152.483 120.236C152.239 119.992 152.001 119.742 151.737 119.514C151.636 119.424 151.524 119.344 151.423 119.259C151.808 119.588 151.408 119.259 151.281 119.185C151.23 119.153 151.103 119.105 151.058 119.057C151.063 119.063 151.474 119.233 151.271 119.174C151.25 119.169 150.89 118.983 150.865 119.004C150.895 118.967 151.479 119.211 150.911 119.041C151.418 119.1 150.429 118.898 150.911 119.041C150.85 119.036 150.789 119.031 150.728 119.015C150.424 118.951 150.88 119.137 150.916 119.026C150.916 119.036 150.581 119.015 150.55 119.015C150.49 119.015 149.998 119.031 150.302 119.015C150.586 118.999 150.094 119.041 149.993 119.057C149.703 119.105 149.419 119.174 149.135 119.243C148.958 119.291 149.217 119.217 149.232 119.211C149.151 119.238 149.069 119.264 148.988 119.291C148.846 119.344 148.709 119.392 148.572 119.45C146.579 120.268 144.596 121.977 143.719 124.069C143.516 124.557 143.358 125.077 143.287 125.608C143.272 125.735 143.262 125.863 143.252 125.996C143.252 126.049 143.252 126.107 143.247 126.16C143.242 126.351 143.237 125.99 143.247 126.181C143.257 126.436 143.293 126.686 143.348 126.935C143.404 127.185 143.49 127.429 143.582 127.668C143.693 127.954 143.526 127.604 143.653 127.806C143.734 127.938 143.815 128.071 143.906 128.199C144.393 128.873 145.103 129.531 145.742 130.216C150.835 135.667 155.942 141.109 161.085 146.507C164.204 149.783 167.339 153.042 170.519 156.259C172.725 158.488 174.951 160.691 177.198 162.884C179.445 165.076 181.844 167.396 184.152 169.668C184.842 170.347 185.537 171.027 186.226 171.712C186.45 171.935 186.774 172.28 186.678 172.651C186.581 173.023 186.135 173.171 185.836 173.23C184.872 173.421 183.447 173.076 182.717 172.354L182.722 172.359Z" fill="#DA9E30"/>
<path d="M172.77 183.422C159.76 170.56 159.547 171.138 130.551 140.073C125.748 134.929 136.46 125.263 142.095 130.868C154.719 143.439 161.039 149.437 182.082 170.56C188.818 177.317 178.232 188.826 172.77 183.422Z" fill="#FBF5EB"/>
<path d="M171.015 183.741C168.448 181.203 165.862 178.687 163.275 176.171C161.008 173.963 158.741 171.749 156.509 169.503C153.385 166.366 150.311 163.186 147.248 159.985C142.145 154.645 137.083 149.257 132.037 143.858C131.19 142.956 130.348 142.048 129.501 141.146C128.918 140.519 128.263 139.925 127.837 139.166C127.224 138.067 127 136.867 127.208 135.609C127.64 133.013 129.633 130.922 131.687 129.584C134.416 127.8 137.728 127.514 140.75 128.613C142.302 129.181 143.489 130.195 144.661 131.357C145.68 132.371 146.695 133.38 147.714 134.388C151.452 138.094 155.2 141.783 158.949 145.472C163.437 149.899 167.921 154.337 172.389 158.791C175.437 161.827 178.475 164.869 181.513 167.911C182.888 169.291 184.541 170.613 185.485 172.375C186.18 173.676 186.494 175.019 186.454 176.505C186.377 179.133 184.962 181.686 183.131 183.422C181.087 185.36 178.354 186.411 175.589 185.944C173.916 185.662 172.272 184.951 171.02 183.735C170.37 183.109 170.502 182.398 171.41 182.217C172.384 182.026 173.789 182.376 174.529 183.093C174.636 183.194 174.742 183.295 174.854 183.385C174.9 183.422 174.95 183.459 174.996 183.502C175.27 183.741 174.879 183.412 174.879 183.417C174.879 183.465 175.133 183.571 175.174 183.603C175.478 183.804 174.986 183.481 174.976 183.507C174.976 183.507 175.163 183.597 175.179 183.597C175.529 183.624 174.611 183.443 175.072 183.56C175.534 183.677 175.179 183.523 174.956 183.544C175.067 183.534 175.219 183.576 175.331 183.597C175.534 183.634 175.037 183.581 175.047 183.576C175.113 183.544 175.25 183.576 175.321 183.576C175.376 183.576 175.432 183.571 175.483 183.576C175.772 183.587 175.3 183.539 175.321 183.592C175.326 183.608 175.62 183.55 175.65 183.544C175.777 183.523 175.909 183.496 176.036 183.465C176.107 183.449 176.183 183.427 176.254 183.406C176.467 183.353 175.975 183.507 176.183 183.427C176.721 183.215 177.233 182.992 177.735 182.695C177.796 182.658 178.039 182.498 177.857 182.621C177.978 182.541 178.095 182.451 178.207 182.366C178.455 182.175 178.699 181.973 178.932 181.755C179.373 181.347 179.784 180.901 180.149 180.418C180.885 179.462 181.392 178.485 181.737 177.254C182.082 176.022 182.147 174.955 181.879 173.777C181.813 173.495 181.732 173.219 181.635 172.949C181.579 172.8 181.524 172.657 181.458 172.508C181.458 172.508 181.361 172.306 181.417 172.418C181.473 172.529 181.316 172.237 181.3 172.211C181.148 171.94 180.976 171.68 180.788 171.43C180.682 171.292 180.57 171.16 180.459 171.022C180.428 170.985 180.246 170.793 180.438 170.995C180.342 170.894 180.246 170.799 180.144 170.698C177.081 167.614 174.007 164.545 170.933 161.477C166.409 156.965 161.875 152.463 157.326 147.972C153.724 144.416 150.113 140.87 146.512 137.308C144.595 135.413 142.683 133.518 140.776 131.617C140.532 131.373 140.294 131.124 140.03 130.895C139.929 130.805 139.817 130.725 139.716 130.64C140.101 130.97 139.701 130.64 139.574 130.566C139.523 130.534 139.396 130.487 139.351 130.439C139.356 130.444 139.767 130.614 139.564 130.556C139.543 130.55 139.183 130.364 139.158 130.386C139.188 130.349 139.772 130.593 139.204 130.423C139.711 130.481 138.722 130.28 139.204 130.423C139.143 130.418 139.082 130.412 139.021 130.396C138.717 130.333 139.173 130.518 139.209 130.407C139.209 130.418 138.874 130.396 138.843 130.396C138.783 130.396 138.291 130.412 138.595 130.396C138.879 130.38 138.387 130.423 138.286 130.439C137.996 130.487 137.712 130.556 137.428 130.625C137.251 130.672 137.51 130.598 137.525 130.593C137.444 130.619 137.362 130.646 137.281 130.672C137.139 130.725 137.002 130.773 136.865 130.832C134.872 131.649 132.889 133.358 132.012 135.45C131.809 135.938 131.651 136.459 131.58 136.989C131.565 137.117 131.555 137.244 131.545 137.377C131.545 137.43 131.545 137.488 131.54 137.541C131.535 137.733 131.53 137.372 131.54 137.563C131.55 137.817 131.585 138.067 131.641 138.316C131.697 138.566 131.783 138.81 131.875 139.049C131.986 139.336 131.819 138.985 131.946 139.187C132.027 139.32 132.108 139.452 132.199 139.58C132.686 140.254 133.396 140.912 134.035 141.597C139.127 147.049 144.235 152.49 149.378 157.889C152.497 161.164 155.631 164.423 158.812 167.64C161.018 169.87 163.244 172.073 165.491 174.265C167.809 176.527 170.137 178.777 172.445 181.049C173.135 181.729 173.83 182.408 174.519 183.093C174.742 183.316 175.067 183.661 174.971 184.033C174.874 184.404 174.428 184.553 174.129 184.611C173.165 184.802 171.74 184.457 171.01 183.735L171.015 183.741Z" fill="#DA9E30"/>
<path d="M231.598 125.895C218.589 113.033 218.376 113.611 189.379 82.5464C184.576 77.4026 195.288 67.7359 200.923 73.3416C213.547 85.912 219.867 91.9105 240.91 113.033C247.646 119.79 237.061 131.299 231.598 125.895Z" fill="#FBF5EB"/>
<path d="M229.849 126.213C227.282 123.676 224.696 121.16 222.109 118.643C219.842 116.435 217.575 114.222 215.343 111.976C212.219 108.839 209.145 105.659 206.082 102.458C200.979 97.1178 195.917 91.7298 190.871 86.3311C190.024 85.4287 189.182 84.5209 188.335 83.6185C187.752 82.9921 187.097 82.3976 186.671 81.6385C186.058 80.5396 185.834 79.3399 186.042 78.0818C186.474 75.486 188.467 73.3945 190.521 72.0568C193.25 70.2731 196.562 69.9865 199.584 71.0853C201.136 71.6533 202.323 72.6672 203.495 73.8298C204.514 74.8437 205.529 75.8523 206.548 76.8609C210.286 80.5662 214.034 84.2555 217.783 87.9449C222.271 92.3721 226.755 96.8099 231.223 101.264C234.271 104.3 237.309 107.342 240.347 110.384C241.722 111.764 243.375 113.086 244.319 114.848C245.014 116.149 245.328 117.492 245.288 118.978C245.211 121.606 243.796 124.159 241.965 125.895C239.921 127.832 237.188 128.883 234.423 128.416C232.75 128.135 231.106 127.424 229.854 126.208C229.204 125.582 229.336 124.87 230.244 124.69C231.218 124.499 232.623 124.849 233.363 125.566C233.47 125.667 233.576 125.767 233.688 125.858C233.734 125.895 233.784 125.932 233.83 125.974C234.104 126.213 233.713 125.884 233.713 125.889C233.713 125.937 233.967 126.043 234.008 126.075C234.312 126.277 233.82 125.953 233.81 125.98C233.81 125.98 233.997 126.07 234.013 126.07C234.363 126.097 233.445 125.916 233.906 126.033C234.368 126.15 234.013 125.996 233.789 126.017C233.901 126.006 234.053 126.049 234.165 126.07C234.368 126.107 233.871 126.054 233.881 126.049C233.947 126.017 234.084 126.049 234.155 126.049C234.21 126.049 234.266 126.043 234.317 126.049C234.606 126.059 234.134 126.012 234.155 126.065C234.16 126.081 234.454 126.022 234.484 126.017C234.611 125.996 234.743 125.969 234.87 125.937C234.941 125.921 235.017 125.9 235.088 125.879C235.301 125.826 234.809 125.98 235.017 125.9C235.555 125.688 236.067 125.465 236.569 125.168C236.63 125.13 236.873 124.971 236.691 125.093C236.812 125.014 236.929 124.923 237.041 124.838C237.289 124.647 237.533 124.446 237.766 124.228C238.207 123.819 238.618 123.373 238.983 122.89C239.719 121.935 240.226 120.958 240.571 119.726C240.916 118.495 240.981 117.428 240.713 116.249C240.647 115.968 240.566 115.692 240.469 115.421C240.413 115.273 240.358 115.129 240.292 114.981C240.292 114.981 240.195 114.779 240.251 114.89C240.307 115.002 240.15 114.71 240.134 114.683C239.982 114.413 239.81 114.153 239.622 113.903C239.516 113.765 239.404 113.632 239.293 113.494C239.262 113.457 239.08 113.266 239.272 113.468C239.176 113.367 239.08 113.271 238.978 113.171C235.915 110.086 232.841 107.018 229.767 103.95C225.243 99.4376 220.709 94.9361 216.159 90.4451C212.558 86.8885 208.947 83.3425 205.346 79.7805C203.429 77.8854 201.517 75.9903 199.61 74.0899C199.366 73.8457 199.128 73.5962 198.864 73.3679C198.763 73.2777 198.651 73.1981 198.55 73.1131C198.935 73.4422 198.535 73.1131 198.408 73.0388C198.357 73.007 198.23 72.9592 198.185 72.9114C198.19 72.9167 198.6 73.0866 198.398 73.0282C198.377 73.0229 198.017 72.8371 197.992 72.8583C198.022 72.8212 198.606 73.0654 198.038 72.8955C198.545 72.9539 197.556 72.7522 198.038 72.8955C197.977 72.8902 197.916 72.8849 197.855 72.8689C197.551 72.8052 198.007 72.991 198.043 72.8796C198.043 72.8902 197.708 72.8689 197.677 72.8689C197.617 72.8689 197.125 72.8849 197.429 72.8689C197.713 72.853 197.221 72.8955 197.12 72.9114C196.83 72.9592 196.546 73.0282 196.262 73.0972C196.085 73.145 196.343 73.0707 196.359 73.0653C196.278 73.0919 196.196 73.1184 196.115 73.145C195.973 73.1981 195.836 73.2458 195.699 73.3042C193.706 74.1217 191.723 75.831 190.846 77.9226C190.643 78.4109 190.485 78.9312 190.414 79.462C190.399 79.5894 190.389 79.7168 190.379 79.8495C190.379 79.9026 190.379 79.961 190.374 80.0141C190.369 80.2052 190.364 79.8442 190.374 80.0353C190.384 80.2901 190.419 80.5396 190.475 80.7891C190.531 81.0386 190.617 81.2828 190.709 81.5217C190.82 81.8083 190.653 81.458 190.78 81.6597C190.861 81.7924 190.942 81.9251 191.033 82.0525C191.52 82.7267 192.23 83.3849 192.869 84.0697C197.961 89.5215 203.069 94.9626 208.212 100.361C211.331 103.637 214.465 106.896 217.646 110.113C219.852 112.342 222.078 114.545 224.325 116.738C226.643 118.999 228.971 121.25 231.279 123.522C231.969 124.201 232.664 124.881 233.353 125.566C233.576 125.789 233.901 126.134 233.805 126.505C233.708 126.877 233.262 127.025 232.963 127.084C231.999 127.275 230.574 126.93 229.844 126.208L229.849 126.213Z" fill="#DA9E30"/>
<path d="M243.047 114.195C230.038 101.333 229.825 101.911 200.829 70.8463C196.026 65.7024 206.737 56.0357 212.372 61.6414C224.996 74.2118 231.316 80.2103 252.359 101.333C259.095 108.09 248.51 119.599 243.047 114.195Z" fill="#FBF5EB"/>
<path d="M241.292 114.518C238.726 111.981 236.139 109.465 233.552 106.949C231.285 104.74 229.018 102.527 226.786 100.281C223.662 97.144 220.588 93.9643 217.525 90.7633C212.423 85.423 207.361 80.035 202.314 74.6363C201.467 73.7339 200.625 72.8261 199.778 71.9237C199.195 71.2973 198.541 70.7027 198.115 69.9436C197.501 68.8448 197.278 67.6451 197.486 66.387C197.917 63.7912 199.91 61.6997 201.964 60.3619C204.693 58.5783 208.005 58.2916 211.028 59.3905C212.58 59.9585 213.767 60.9724 214.938 62.1349C215.958 63.1489 216.972 64.1575 217.992 65.1661C221.73 68.8713 225.478 72.5607 229.226 76.25C233.715 80.6773 238.198 85.1151 242.666 89.5689C245.715 92.6053 248.753 95.647 251.791 98.6888C253.165 100.069 254.819 101.391 255.762 103.153C256.457 104.454 256.771 105.797 256.731 107.283C256.655 109.911 255.24 112.464 253.409 114.2C251.365 116.138 248.631 117.189 245.867 116.721C244.193 116.44 242.55 115.729 241.297 114.513C240.648 113.887 240.78 113.175 241.688 112.995C242.661 112.804 244.066 113.154 244.807 113.871C244.913 113.972 245.02 114.073 245.131 114.163C245.177 114.2 245.228 114.237 245.273 114.28C245.547 114.518 245.157 114.189 245.157 114.195C245.157 114.242 245.41 114.349 245.451 114.38C245.755 114.582 245.263 114.258 245.253 114.285C245.253 114.285 245.441 114.375 245.456 114.375C245.806 114.402 244.888 114.221 245.35 114.338C245.811 114.455 245.456 114.301 245.233 114.322C245.344 114.311 245.497 114.354 245.608 114.375C245.811 114.412 245.314 114.359 245.324 114.354C245.39 114.322 245.527 114.354 245.598 114.354C245.654 114.354 245.71 114.349 245.76 114.354C246.049 114.365 245.578 114.317 245.598 114.37C245.603 114.386 245.897 114.327 245.928 114.322C246.054 114.301 246.186 114.274 246.313 114.242C246.384 114.227 246.46 114.205 246.531 114.184C246.744 114.131 246.252 114.285 246.46 114.205C246.998 113.993 247.51 113.77 248.012 113.473C248.073 113.436 248.317 113.276 248.134 113.398C248.256 113.319 248.372 113.229 248.484 113.144C248.732 112.953 248.976 112.751 249.209 112.533C249.65 112.124 250.061 111.678 250.426 111.195C251.162 110.24 251.669 109.263 252.014 108.032C252.359 106.8 252.425 105.733 252.156 104.555C252.09 104.273 252.009 103.997 251.913 103.726C251.857 103.578 251.801 103.434 251.735 103.286C251.735 103.286 251.639 103.084 251.694 103.196C251.75 103.307 251.593 103.015 251.578 102.989C251.426 102.718 251.253 102.458 251.066 102.208C250.959 102.07 250.847 101.938 250.736 101.8C250.705 101.762 250.523 101.571 250.716 101.773C250.619 101.672 250.523 101.577 250.421 101.476C247.358 98.3915 244.284 95.3232 241.211 92.2549C236.687 87.7428 232.152 83.2412 227.603 78.7503C224.002 75.1937 220.391 71.6476 216.79 68.0857C214.872 66.1906 212.96 64.2955 211.053 62.3951C210.81 62.1509 210.571 61.9014 210.308 61.6731C210.206 61.5829 210.095 61.5032 209.993 61.4183C210.379 61.7474 209.978 61.4183 209.851 61.344C209.8 61.3121 209.674 61.2644 209.628 61.2166C209.633 61.2219 210.044 61.3918 209.841 61.3334C209.821 61.3281 209.461 61.1423 209.435 61.1635C209.466 61.1263 210.049 61.3705 209.481 61.2007C209.988 61.2591 208.999 61.0573 209.481 61.2007C209.42 61.1954 209.359 61.19 209.298 61.1741C208.994 61.1104 209.45 61.2962 209.486 61.1847C209.486 61.1954 209.151 61.1741 209.121 61.1741C209.06 61.1741 208.568 61.19 208.872 61.1741C209.156 61.1582 208.664 61.2007 208.563 61.2166C208.274 61.2644 207.99 61.3334 207.706 61.4024C207.528 61.4502 207.787 61.3758 207.802 61.3705C207.721 61.3971 207.64 61.4236 207.559 61.4502C207.417 61.5032 207.28 61.551 207.143 61.6094C205.149 62.4269 203.166 64.1362 202.289 66.2277C202.086 66.7161 201.929 67.2363 201.858 67.7672C201.843 67.8946 201.832 68.022 201.822 68.1547C201.822 68.2078 201.822 68.2662 201.817 68.3193C201.812 68.5104 201.807 68.1494 201.817 68.3405C201.827 68.5953 201.863 68.8448 201.919 69.0943C201.974 69.3438 202.061 69.588 202.152 69.8268C202.264 70.1135 202.096 69.7632 202.223 69.9649C202.304 70.0976 202.385 70.2303 202.477 70.3577C202.963 71.0319 203.674 71.6901 204.313 72.3749C209.405 77.8266 214.512 83.2678 219.655 88.6665C222.774 91.9418 225.909 95.2011 229.089 98.418C231.295 100.648 233.522 102.851 235.769 105.043C238.087 107.304 240.415 109.555 242.722 111.827C243.412 112.507 244.107 113.186 244.797 113.871C245.02 114.094 245.344 114.439 245.248 114.81C245.152 115.182 244.705 115.331 244.406 115.389C243.442 115.58 242.017 115.235 241.287 114.513L241.292 114.518Z" fill="#DA9E30"/>
<path d="M196.269 100.351C189.493 107.634 182.564 114.747 175.621 121.86C174.48 123.028 173.338 124.201 172.213 125.391C171.188 126.473 167.019 124.775 168.109 123.628C173.638 117.778 179.354 112.119 184.913 106.291C187.342 103.737 189.761 101.174 192.165 98.5883C193.18 97.5001 197.354 99.1882 196.269 100.351Z" fill="#DA9E30"/>
<path d="M220.684 259.168C197.054 259.508 146.259 258.833 118.937 259.661C115.493 259.768 117.968 245.849 117.968 245.849C119.266 239.081 126.342 230.253 130.435 230.232C153.852 230.115 182.488 229.977 211.428 230.253C214.522 230.279 218.488 237.435 221.126 244.246C223.646 250.743 222.749 259.136 220.684 259.168Z" fill="#FBF5EB"/>
<path d="M221.562 260.405C214.685 260.5 207.807 260.506 200.93 260.506C192.323 260.506 183.721 260.479 175.114 260.469C166.177 260.458 157.245 260.453 148.309 260.49C140.325 260.527 132.347 260.591 124.369 260.776C122.65 260.814 120.844 261.037 119.135 260.856C117.426 260.676 115.904 259.704 115.331 258C114.92 256.779 114.91 255.404 114.905 254.125C114.9 252.617 115.012 251.11 115.164 249.607C115.372 247.617 115.58 245.557 116.158 243.641C117.39 239.569 119.865 235.71 122.761 232.732C123.984 231.474 125.404 230.258 126.996 229.558C128.904 228.724 131.059 228.979 133.078 228.974C138.231 228.947 143.379 228.926 148.532 228.905C159.761 228.862 170.995 228.841 182.225 228.857C188.133 228.867 194.037 228.889 199.946 228.926C202.974 228.947 206.007 228.968 209.035 228.995C210.45 229.005 211.804 229.005 213.138 229.552C214.071 229.94 214.939 230.513 215.684 231.214C217.373 232.796 218.656 234.824 219.782 236.862C221.101 239.256 222.242 241.767 223.241 244.331C224.149 246.656 224.656 249.124 224.814 251.63C224.935 253.637 224.925 255.76 224.388 257.708C224.21 258.35 223.956 259.003 223.556 259.534C223.064 260.182 222.318 260.357 221.562 260.4C220.614 260.453 219.214 260.023 218.646 259.168C218.043 258.26 219.168 257.958 219.813 257.92C219.564 257.936 219.392 257.958 219.163 258.043C219.204 258.027 219.245 258.011 219.28 257.995C219.488 257.883 219.082 258.186 219.189 258.053C219.219 258.016 219.265 257.995 219.295 257.952C219.361 257.867 219.437 257.788 219.498 257.703C219.518 257.671 219.62 257.512 219.544 257.644C219.468 257.777 219.61 257.506 219.625 257.469C219.919 256.806 220.092 256.094 220.213 255.378C220.558 253.345 220.502 251.242 220.239 249.204C219.914 246.741 219.174 244.458 218.225 242.186C217.277 239.914 216.125 237.488 214.786 235.312C214.203 234.367 213.579 233.443 212.869 232.594C212.798 232.509 212.448 232.122 212.61 232.291C212.468 232.143 212.326 231.999 212.174 231.856C212.032 231.723 211.885 231.607 211.743 231.479C211.49 231.251 211.774 231.495 211.824 231.527C211.723 231.458 211.606 231.394 211.505 231.32C211.231 231.113 211.652 231.384 211.687 231.405C211.621 231.373 211.55 231.336 211.479 231.309C212.169 231.548 211.895 231.442 211.748 231.405C211.403 231.315 212.048 231.463 212.042 231.463C211.713 231.41 212.306 231.479 212.296 231.479C212.134 231.416 211.84 231.479 211.662 231.474C211.282 231.474 210.901 231.469 210.521 231.463C209.091 231.453 207.655 231.437 206.225 231.426C200.458 231.384 194.686 231.352 188.92 231.336C177.898 231.304 166.877 231.315 155.856 231.352C150.758 231.368 145.661 231.389 140.564 231.416C138.129 231.426 135.695 231.437 133.26 231.453C132.677 231.453 132.094 231.453 131.505 231.463C131.404 231.463 131.308 231.469 131.206 231.463C130.932 231.453 131.424 231.527 131.409 231.447C131.404 231.421 130.963 231.538 130.907 231.548C131.257 231.479 130.947 231.538 130.785 231.596C130.638 231.649 130.496 231.713 130.354 231.782C130.009 231.946 129.674 232.137 129.355 232.344C129.335 232.36 129.147 232.488 129.299 232.382C129.223 232.435 129.147 232.488 129.071 232.546C128.914 232.663 128.761 232.78 128.609 232.902C128.249 233.189 127.899 233.496 127.559 233.815C126.86 234.468 126.205 235.174 125.592 235.912C124.273 237.488 123.101 239.214 122.148 241.056C120.981 243.312 120.261 245.642 119.901 248.164C119.718 249.422 119.571 250.69 119.46 251.959C119.399 252.676 119.353 253.398 119.323 254.12C119.292 254.842 119.292 255.457 119.323 256.025C119.353 256.636 119.404 257.246 119.52 257.841C119.571 258.096 119.627 258.345 119.708 258.589C119.744 258.69 119.789 258.791 119.82 258.897C119.901 259.152 119.642 258.669 119.86 258.977C119.901 259.03 119.992 259.136 120.012 259.194C119.997 259.152 119.688 258.892 119.962 259.12C119.632 258.849 119.368 258.701 118.841 258.552C118.912 258.573 118.131 258.425 118.42 258.462C118.354 258.451 117.771 258.462 118.116 258.43C118.922 258.345 119.754 258.382 120.565 258.361C128.041 258.165 135.522 258.09 143.003 258.048C151.595 257.995 160.192 257.989 168.784 258C177.376 258.011 185.724 258.032 194.194 258.043C201.331 258.048 208.467 258.053 215.598 257.989C216.998 257.979 218.398 257.963 219.792 257.942C220.756 257.926 222.125 258.297 222.709 259.173C223.292 260.049 222.196 260.41 221.542 260.421L221.562 260.405Z" fill="#DA9E30"/>
<path d="M222.084 246.99H119.433C118.464 246.99 117.105 246.645 116.517 245.759C115.928 244.872 117.024 244.511 117.683 244.511H220.334C221.302 244.511 222.662 244.856 223.25 245.743C223.838 246.629 222.743 246.99 222.084 246.99Z" fill="#DA9E30"/>
<path d="M131.008 228.825V220.241H210.764V229.234" fill="#FBF5EB"/>
<path d="M128.801 228.209V219.625C128.801 219.089 129.826 219.004 130.13 219.004H209.886C210.89 219.004 212.965 219.498 212.965 220.862V229.855C212.965 230.2 212.331 230.391 212.123 230.433C211.611 230.534 210.977 230.46 210.485 230.311C209.709 230.078 208.552 229.616 208.552 228.618V219.625L211.631 221.483H131.875L133.204 220.862V229.446C133.204 229.791 132.57 229.982 132.362 230.025C131.85 230.126 131.216 230.051 130.724 229.903C129.948 229.669 128.791 229.207 128.791 228.209H128.801Z" fill="#DA9E30"/>
</svg>
