<svg width="114" height="92" viewBox="0 0 114 92" fill="none" xmlns="http://www.w3.org/2000/svg">
<path d="M50.7401 87.46C50.6201 87.56 50.4901 87.65 50.3701 87.75C50.9301 87.32 50.5401 87.65 50.3901 87.72C50.1901 87.82 49.7401 87.97 50.5001 87.69C50.3501 87.75 50.2101 87.83 50.0601 87.88C49.5201 88.06 50.6401 87.83 50.2601 87.81C50.1501 87.81 49.9401 87.89 49.8301 87.92C49.2101 88.11 50.5401 87.86 49.8601 87.91C49.5801 87.93 49.3001 87.98 49.0201 88.02C48.9301 88.02 48.1701 88.08 48.8001 88.04C48.5801 88.05 48.3601 88.06 48.1401 88.07C47.6001 88.09 47.0601 88.09 46.5201 88.09C45.0001 88.09 43.4701 88.03 41.9501 87.98C38.8401 87.86 35.7301 87.79 32.6201 87.72C31.7101 87.7 30.8001 87.68 29.8901 87.61C30.4301 87.65 29.3401 87.54 29.1601 87.52C28.8201 87.47 28.4801 87.4 28.1401 87.32C27.6101 87.19 28.5501 87.48 28.0501 87.29C27.9001 87.23 27.7601 87.18 27.6101 87.12C27.3701 87.02 27.1401 86.9 26.9201 86.78C26.5901 86.6 26.8101 86.58 26.3501 86.4C26.2301 86.35 25.9301 85.93 26.1401 86.4C26.1301 86.37 26.1401 86.34 26.1301 86.31C25.8801 85.58 25.9401 84.59 25.8501 83.82C25.4501 80.28 25.0601 76.73 24.6601 73.19C24.3701 70.62 24.3101 67.88 23.7701 65.35C23.5501 64.31 21.5601 64.56 20.9001 64.7C19.8701 64.91 18.3601 65.41 17.9801 66.52C17.1801 68.84 16.8101 71.41 16.2401 73.8C15.3301 77.63 14.4201 81.46 13.5101 85.29C13.3001 86.19 13.0801 87.09 12.8701 87.99L15.4001 86.25C14.5701 86.43 16.0401 86.15 15.1601 86.3C14.9801 86.33 14.8001 86.36 14.6201 86.39C14.1501 86.47 13.6701 86.53 13.2001 86.59C12.3301 86.69 11.5301 86.74 10.3801 86.71C9.23011 86.68 7.42011 86.62 6.60011 85.51C6.30011 85.1 6.29011 84.56 6.37011 84C6.63011 82.28 7.19011 80.56 7.60011 78.87C8.29011 75.98 8.98011 73.09 9.68011 70.21C11.4601 62.89 13.0801 55.38 15.7901 48.33C16.5901 46.24 17.0801 45.03 18.3501 43.31C18.5701 43.02 18.8101 42.75 19.0401 42.46C19.3801 42.04 18.6801 42.76 19.0901 42.41C19.2401 42.28 19.3801 42.14 19.5301 42C19.6501 41.89 19.7901 41.8 19.9101 41.69C20.3801 41.29 19.6501 41.82 19.8501 41.72C20.1201 41.59 20.4801 41.4 20.7201 41.21C20.4201 41.44 20.1101 41.47 20.6301 41.26C20.7501 41.21 20.8701 41.16 20.9901 41.11C21.0801 41.07 21.3201 41.04 21.3801 40.97C21.1801 41.21 20.5001 41.24 21.2001 41.04C21.5601 40.94 21.9101 40.84 22.2701 40.76C22.4701 40.71 22.6901 40.68 22.8901 40.62C22.3101 40.78 22.4601 40.7 23.0001 40.61C24.2001 40.4 25.4001 40.27 26.6101 40.17C27.4101 40.1 26.3001 40.17 27.1301 40.14C27.5001 40.12 27.8701 40.1 28.2501 40.09C29.1501 40.06 30.0601 40.04 30.9601 40.05C35.5301 40.06 40.0801 40.47 44.6101 41.05C50.7801 41.85 56.8701 43.23 63.0901 43.59C68.7101 43.91 74.3501 43.54 79.9201 42.83C83.9801 42.32 88.0001 41.51 92.0701 41.11C92.2601 41.09 93.4001 41.03 92.6201 41.06C92.9401 41.05 93.2701 41.03 93.5901 41.03C93.8801 41.03 94.1801 41.03 94.4701 41.05C93.7301 41.01 94.7101 41.11 94.9001 41.14C95.4101 41.21 94.7201 40.96 95.1401 41.22C95.2701 41.3 95.7601 41.63 95.3901 41.32C95.5401 41.44 95.6701 41.56 95.8001 41.7C96.0201 41.95 95.8401 41.61 95.9701 42.01C96.4601 43.54 96.1501 45.33 95.8001 46.86C95.3101 49.01 94.4301 51.07 93.0801 52.82C92.6101 53.43 91.8401 54.21 91.3501 54.55C90.8601 54.89 91.0101 54.82 90.4501 55.01C91.1601 54.76 89.7401 55.16 89.8901 55.12C89.4201 55.23 88.9501 55.33 88.4801 55.44C85.7801 56.03 83.0301 56.46 80.2801 56.73C75.9001 57.16 71.3201 56.95 66.8401 56.67C64.4501 56.52 62.0501 56.36 59.6501 56.26C57.7501 56.18 55.6801 56.58 54.2101 57.89C52.2601 59.62 52.1901 62.57 52.1301 64.98C52.0501 68.56 52.3101 72.13 52.4201 75.7C52.5201 78.83 52.6401 82.13 51.8301 85.18C51.7101 85.65 51.4301 86.44 51.3001 86.69C51.3301 86.63 51.0501 87.08 50.9601 87.21C50.6201 87.75 51.1101 87.15 50.7101 87.49C49.8201 88.26 50.0601 89.18 51.2201 89.4C52.5301 89.65 54.3001 89.18 55.3201 88.3C57.5901 86.33 58.0201 83.15 58.1801 80.31C58.4001 76.51 58.1501 72.7 58.0001 68.91C57.8801 65.92 57.5601 62.6 58.4301 59.69C58.5001 59.46 58.5801 59.23 58.6701 59.01C58.8301 58.61 58.5301 59.22 58.6701 59C58.7201 58.91 58.7801 58.83 58.8301 58.74C58.8901 58.64 58.9701 58.56 59.0401 58.47C58.7201 58.88 58.7701 58.74 58.9001 58.64C58.4501 58.99 57.5701 59.1 56.9001 59.34C56.5401 59.47 56.7301 59.36 57.1601 59.37C57.5401 59.38 57.9101 59.4 58.2901 59.42C58.9001 59.45 59.5001 59.48 60.1101 59.51C61.3701 59.58 62.6201 59.66 63.8801 59.74C68.8401 60.06 73.7501 60.24 78.7101 59.81C81.7801 59.55 84.8201 59.04 87.8401 58.42C90.8601 57.8 93.7001 57.15 96.1501 55.21C99.8201 52.3 101.91 47.31 101.98 42.68C102 41.44 101.94 40.21 101 39.29C100.16 38.46 98.8701 38.16 97.7401 38.03C94.0501 37.6 90.2201 38.43 86.5901 38.99C81.5001 39.77 76.4001 40.47 71.2501 40.58C68.1901 40.65 65.1201 40.55 62.0701 40.2C58.6901 39.81 55.3501 39.1 51.9801 38.59C46.6501 37.78 41.2701 37.18 35.8801 37C30.4901 36.82 24.1301 36.85 18.8101 38.92C15.0401 40.39 12.6501 43.2 10.9701 46.8C8.00011 53.14 6.53011 60.28 4.86011 67.03C4.17011 69.8 3.50011 72.58 2.83011 75.36C2.06011 78.54 1.01011 81.79 0.520111 85.03C-0.149889 89.48 6.03011 89.9 9.08011 89.84C11.4501 89.8 13.7901 89.48 16.1001 88.97C16.9101 88.79 18.4001 88.18 18.6301 87.23C20.1101 80.97 21.6001 74.72 23.0901 68.46C23.3001 67.57 23.4401 66.62 23.7401 65.76L17.9501 66.93C18.4501 69.27 18.5101 71.8 18.7701 74.18C19.2001 77.98 19.6201 81.77 20.0501 85.57C20.1301 86.29 20.0601 87.28 20.3201 87.97C20.5601 88.6 21.5701 89.12 22.1201 89.44C22.8001 89.84 23.5301 90.09 24.2901 90.29C26.0901 90.77 28.0101 90.81 29.8601 90.86C33.1101 90.95 36.3601 91.01 39.6001 91.13C44.8501 91.33 50.9601 91.86 55.3101 88.31C56.2401 87.55 55.9401 86.62 54.8001 86.4C53.4501 86.14 51.7601 86.64 50.7001 87.5L50.7401 87.46Z" fill="#E0A619"/>
<path d="M100.68 56.8598C103.52 66.9398 106 77.2698 107.37 87.6698L109.15 85.7998C108.21 86.2398 107.28 86.6998 106.35 87.1498C105.93 87.3498 105.5 87.5498 105.06 87.7298C104.88 87.7998 104.7 87.8798 104.51 87.9398C105.03 87.7698 104.21 87.9798 104.58 87.9098C104.91 87.8498 104.35 87.9498 104.3 87.9498C103.85 87.9798 104.66 87.9798 104.2 87.9498C104.01 87.9398 103.56 87.8798 103.21 87.7698C102.11 87.4498 101.07 86.8398 100.09 86.2598L100.67 86.8298C98.9803 81.3798 97.3703 75.8498 95.3203 70.5198C94.7403 69.0098 94.1803 68.3198 92.2703 68.5798C91.0503 68.7398 89.3403 69.3098 88.8903 70.5898C88.7803 70.9198 88.7503 71.2898 88.7003 71.6198C88.2503 74.8598 88.0403 78.1498 87.7803 81.4098C87.5603 84.1298 87.3603 86.8498 87.1703 89.5798L91.2103 87.6298C87.4303 87.8398 83.6503 87.7298 79.8703 87.6498C74.3903 87.5298 68.9103 87.4998 63.4303 87.6298C62.1803 87.6598 60.3403 88.0398 59.5903 89.1798C58.8403 90.3198 60.2103 90.7698 61.1203 90.7498C66.6003 90.6198 72.0803 90.6498 77.5603 90.7698C81.3403 90.8498 85.1203 90.9598 88.9003 90.7498C89.8303 90.6998 92.8403 90.2298 92.9403 88.7998C93.1603 85.7098 93.3903 82.6098 93.6403 79.5198C93.8103 77.3598 93.9903 75.1998 94.2103 73.0398C94.2903 72.2898 94.3603 71.5298 94.4703 70.7798C94.5003 70.5498 94.5703 70.3098 94.5803 70.0798C94.6103 69.7298 94.8303 69.7098 94.4903 70.0998L92.9203 71.1798H92.9303C91.9603 71.3098 90.9903 71.4498 90.0203 71.5798H90.0303C89.7303 71.4498 89.4303 71.3198 89.1303 71.1898C89.2503 71.2698 88.9903 70.7898 89.1403 71.2098C89.2303 71.4598 89.3503 71.6998 89.4503 71.9498C89.7703 72.7798 90.0703 73.6198 90.3603 74.4698C91.1503 76.7598 91.9003 79.0698 92.6403 81.3798C93.2603 83.2998 93.8703 85.2298 94.4703 87.1598C94.5903 87.5398 94.6603 88.0198 94.8503 88.3698C95.1703 88.9698 95.8703 89.2398 96.4503 89.5598C97.4103 90.0698 98.3903 90.4698 99.4403 90.7498C103.76 91.8798 107.58 89.7798 111.37 88.0098C112.08 87.6798 113.28 87.1098 113.15 86.1398C111.78 75.7398 109.3 65.4098 106.46 55.3298C105.93 53.4398 100.13 54.9998 100.66 56.8798L100.68 56.8598Z" fill="#E0A619"/>
<path d="M49.0196 29.4498C42.5796 35.4798 32.1296 32.7898 29.0596 24.4698C29.0296 24.3898 28.9996 24.3098 28.9796 24.2398C25.6996 14.9198 31.4396 2.4398 38.4796 1.6298C44.7096 0.909799 51.3096 9.3898 52.5696 16.9998C52.8396 18.6298 53.4996 22.5898 51.3396 26.5098C50.6996 27.6698 49.9096 28.6398 49.0396 29.4598L49.0196 29.4498Z" fill="#E0A619"/>
<path d="M90.45 29.1599C89.67 29.8699 88.61 30.6099 87.98 30.8699C87.95 30.8799 87.03 31.1999 87.61 31.0199C87.58 31.0299 86.63 31.2699 87.24 31.1399C86.44 31.3099 86.44 31.2999 85.63 31.2999C83.71 31.2799 81.43 30.4599 79.74 29.2299C75.39 26.0699 73.97 20.4699 74.63 15.3299C74.97 12.6699 75.8 10.0499 77.08 7.68992C78.07 5.87992 79.68 3.91992 81.22 3.07992C81.95 2.67992 80.73 3.26991 81.49 2.95991C80.61 3.31991 82.08 2.79991 81.14 3.02991C81.18 3.02991 81.92 2.97992 81.48 2.97992C82.14 2.97992 81.35 2.91991 82.01 3.01991C83.12 3.18991 84.18 3.70992 85.11 4.32992C87.51 5.93992 89.44 8.27991 90.85 10.7799C94.1 16.5799 95.31 24.4699 90.06 29.5099C89.06 30.4699 90.92 30.8599 91.53 30.8499C92.91 30.8199 94.38 30.3299 95.38 29.3599C100.84 24.1199 100.21 15.9499 96.91 9.72992C95.33 6.73992 93.14 3.84991 90.25 2.02991C87.36 0.209914 84.01 -0.270084 80.69 0.649916C74.37 2.38992 70.44 8.33992 69.16 14.4999C67.89 20.5899 69.08 27.6399 74.44 31.4399C80.52 35.7399 89.57 34.6399 94.99 29.7199C95.81 28.9799 95.74 28.2199 94.54 28.0499C93.34 27.8799 91.4 28.2799 90.44 29.1499L90.45 29.1599Z" fill="#E0A619"/>
</svg>
