<svg width="198" height="334" viewBox="0 0 198 334" fill="none" xmlns="http://www.w3.org/2000/svg">
<g clip-path="url(#clip0_205_2)">
<path d="M104.067 286.553C104.788 288.812 106.255 290.875 107.561 292.872C109.034 295.131 110.603 297.367 111.76 299.793C112.195 300.708 112.589 301.667 112.744 302.665C112.803 303.078 112.821 303.357 112.732 303.775C112.696 303.942 112.648 304.11 112.577 304.266C112.505 304.422 112.702 304.065 112.547 304.31C112.481 304.416 112.404 304.517 112.32 304.612C112.517 304.383 112.32 304.612 112.261 304.645C111.98 304.818 112.571 304.517 112.261 304.645C111.939 304.779 112.642 304.5 112.308 304.623C111.975 304.745 112.75 304.539 112.38 304.606C112.314 304.617 112.237 304.639 112.177 304.656C111.814 304.768 112.607 304.623 112.207 304.651C111.909 304.673 111.617 304.718 111.319 304.745C109.816 304.868 108.319 304.957 106.834 305.192C104.764 305.521 102.725 306.017 100.721 306.603C98.2522 307.328 95.6401 308.142 93.4991 309.542C92.1871 310.401 90.7022 311.772 91.5669 313.379C92.3124 314.762 93.9762 315.582 95.4373 316.167C97.8586 317.138 100.471 317.706 103.065 318.119C106.655 318.688 110.305 318.961 113.943 319.05C117.58 319.14 121.117 319.218 124.612 318.755C127.247 318.404 129.925 317.723 132.227 316.44C133.378 315.799 134.463 314.957 135.209 313.903C136.074 312.676 136.205 311.41 136.264 309.977C136.414 306.519 136.527 303.061 136.491 299.598C136.437 293.982 135.734 288.449 134.744 282.911C133.682 276.983 132.43 271.088 131.863 265.093C131.172 257.765 131.446 250.369 132.889 243.131C133.295 241.089 133.796 239.07 134.374 237.068C134.714 235.892 131.237 236.349 130.915 237.464C128.762 244.904 127.85 252.584 128.058 260.28C128.22 266.108 129.066 271.88 130.14 277.613C131.213 283.346 132.376 289.096 132.812 294.919C133.02 297.724 133.062 300.54 133.02 303.351C132.996 305.091 132.943 306.826 132.877 308.566C132.823 310.049 133.008 311.784 132.358 313.183C132.167 313.596 131.833 314.059 131.547 314.355C131.16 314.756 130.736 315.057 130.343 315.297C130.122 315.431 129.895 315.554 129.669 315.665C129.215 315.894 129.961 315.543 129.496 315.743C129.353 315.805 129.209 315.866 129.06 315.927C128.816 316.028 128.571 316.111 128.321 316.201C127.832 316.379 128.673 316.1 128.178 316.251C127.981 316.312 127.778 316.368 127.581 316.424C127.051 316.569 126.514 316.686 125.971 316.792C126.424 316.703 125.607 316.853 125.476 316.87C125.22 316.909 124.963 316.942 124.713 316.97C123.365 317.126 121.993 317.149 120.64 317.182C113.931 317.338 106.923 317.121 100.447 315.331C99.5045 315.068 98.5384 314.751 97.5783 314.316C96.7791 313.953 96.2007 313.641 95.6878 313.195C95.1749 312.748 94.99 312.542 94.8529 312.046C94.8231 311.929 94.8052 311.817 94.7932 311.7C94.8111 311.94 94.8052 311.644 94.8231 311.544C94.835 311.466 94.8648 311.388 94.8946 311.31C94.8111 311.527 94.9066 311.287 94.9364 311.243C94.99 311.165 95.0437 311.092 95.1034 311.014C95.2524 310.808 94.9423 311.153 95.157 310.953C95.324 310.796 95.497 310.657 95.6818 310.518C96.0039 310.278 95.4254 310.674 95.7832 310.451C95.8548 310.406 95.9323 310.356 96.0039 310.311C96.2424 310.166 96.4869 310.038 96.7314 309.91C96.7672 309.887 97.2026 309.681 96.8686 309.837C97.0296 309.765 97.1906 309.692 97.3516 309.62C97.9003 309.38 98.4609 309.162 99.0274 308.956C99.2779 308.867 99.5224 308.778 99.7729 308.694C99.922 308.644 100.071 308.594 100.22 308.543C100.423 308.476 100.417 308.476 100.214 308.543C100.31 308.51 100.411 308.482 100.506 308.454C102.17 307.941 103.87 307.489 105.587 307.144C107.114 306.837 108.671 306.703 110.221 306.597C111.402 306.513 112.613 306.424 113.71 305.972C115.761 305.13 116.584 303.452 116.161 301.438C115.678 299.129 114.265 296.982 113.006 294.986C111.629 292.794 110.108 290.675 108.832 288.427C108.331 287.54 107.86 286.631 107.55 285.672C107.186 284.529 103.733 285.41 104.091 286.536L104.067 286.553Z" fill="#E0A619"/>
<path d="M94.8172 101.368C94.3222 101.513 95.1571 101.284 95.2883 101.251C95.4315 101.218 95.5805 101.184 95.7237 101.151C95.3002 101.24 95.8251 101.134 95.8787 101.123C96.487 101.011 97.2802 100.883 97.7155 100.833C99.3376 100.632 100.972 100.526 102.606 100.493C106.607 100.409 110.621 100.677 114.563 101.335C122.035 102.589 130.456 105.372 134.44 111.881C136.521 115.283 137.821 118.869 138.358 122.75C139.103 128.182 139.234 133.687 139.777 139.141C140.857 149.95 142.825 160.635 144.679 171.343C146.313 180.768 147.894 190.204 149.098 199.685C149.814 205.34 150.47 211.057 150.404 216.762C150.369 219.813 150.148 222.986 148.955 225.858C148.031 228.089 146.319 229.902 144.912 231.876C144.536 232.406 144.28 232.746 143.886 233.103C143.797 233.181 143.701 233.259 143.612 233.337C143.552 233.382 143.493 233.426 143.433 233.471C143.218 233.627 143.654 233.337 143.421 233.477C143.284 233.56 143.147 233.638 143.004 233.711C142.288 234.023 143.588 233.404 143.004 233.711C142.866 233.772 142.318 233.912 142.896 233.755C142.759 233.789 142.043 233.951 142.61 233.839C141.888 233.984 141.829 233.99 141.334 234.04C139.908 234.179 138.477 234.218 137.046 234.213C131.744 234.202 126.454 233.778 121.177 233.426C115.284 233.036 109.374 232.975 103.476 233.259C94.9484 233.666 86.5933 235.01 78.1846 236.315C73.843 236.99 68.6129 238.105 64.486 235.735C58.0632 232.038 57.9141 223.332 58.4449 217.141C58.8206 212.78 59.6793 208.469 60.6335 204.192C61.3909 200.778 62.3153 197.365 62.7864 193.902C63.0488 191.961 63.3351 190.243 63.7525 188.342C66.5197 175.883 69.3882 163.451 72.048 150.976C73.2347 145.399 74.3678 139.81 75.6202 134.245C76.4909 130.38 77.4451 126.526 78.7869 122.778C79.3773 121.144 80.0393 119.538 80.7668 117.954C81.4944 116.37 82.2697 114.547 83.3133 113.046C84.2496 111.702 85.6391 110.615 86.9511 109.611C88.7044 108.272 90.5651 107.062 92.4675 105.919C95.5805 104.045 99.2005 102.021 102.433 100.838C102.671 100.749 103.775 100.403 103.524 100.013C103.274 99.6225 101.997 99.9571 101.711 100.035C101.496 100.097 101.407 100.124 101.013 100.124C100.53 100.124 100.053 100.046 99.5881 99.9404C98.5206 99.7006 97.5247 99.2544 96.5824 98.7302C94.2864 97.4475 92.3125 95.6572 90.6009 93.7499C86.9571 89.6954 84.0349 84.7263 82.705 79.562C81.2618 73.9515 81.566 67.8112 82.4605 62.1505C83.4147 56.1329 85.2813 50.2269 87.9172 44.6666C90.2729 39.6919 93.2786 34.8399 97.2325 30.8188C99.9161 28.0917 103.596 24.9407 107.639 24.6785C112.476 24.3606 117.175 26.8145 120.825 29.5417C125.619 33.1221 129.418 37.8068 132.4 42.7871C135.686 48.2861 138.024 54.3204 139.169 60.5332C140.314 66.746 138.573 73.4161 137.111 79.6624C136.783 81.051 136.467 82.4453 136.199 83.8451C136.068 84.5255 139.455 84.018 139.604 83.2595C140.845 76.7679 143.081 70.3264 143.033 63.6731C143.009 60.3659 142.181 57.0475 141.202 53.8854C140.224 50.7232 138.889 47.4885 137.29 44.4658C134.392 38.9724 130.534 33.7746 125.631 29.6755C121.689 26.3795 116.847 23.7081 111.462 23.407C99.9996 22.76 91.6266 32.4864 86.7543 40.9746C80.4448 51.9669 76.9918 65.2904 78.7392 77.755C79.5145 83.3042 82.2697 88.5744 85.8121 93.036C88.7581 96.7448 92.9923 101.017 98.2582 101.374C99.5106 101.457 100.781 101.296 101.98 100.972L101.258 100.169C97.3338 101.602 93.6245 103.61 90.0821 105.724C86.5396 107.837 82.8541 110.052 80.3136 113.113C79.1984 114.457 78.5066 116.153 77.7671 117.698C76.9382 119.415 76.1927 121.167 75.5367 122.951C74.1591 126.693 73.187 130.547 72.3104 134.412C68.4877 151.221 65.142 168.119 61.2597 184.917C60.6991 187.338 60.1028 189.758 59.6793 192.201C59.4825 193.339 59.3752 194.482 59.1903 195.62C58.5701 199.401 57.5622 203.121 56.7631 206.869C55.8507 211.18 55.0575 215.541 54.8488 219.935C54.6579 223.951 54.8905 228.245 56.7571 231.937C57.8843 234.162 59.6913 236.198 62.1006 237.274C64.1819 238.2 66.5316 238.429 68.8097 238.384C75.6381 238.245 82.4128 236.555 89.1517 235.668C94.0658 235.021 99.0156 234.586 103.977 234.43C110.37 234.229 116.716 234.581 123.085 234.993C127.671 235.295 132.293 235.607 136.891 235.468C139.568 235.389 142.359 235.172 144.834 234.14C147.578 233.002 148.967 230.376 150.661 228.201C152.229 226.182 153.011 223.806 153.422 221.363C154.138 217.102 153.893 212.691 153.559 208.408C152.044 188.877 147.548 169.675 144.715 150.306C143.606 142.711 142.908 135.098 142.342 127.452C142.037 123.353 141.709 119.215 140.123 115.344C139.229 113.164 138.066 110.944 136.521 109.103C134.088 106.203 130.706 104.173 127.11 102.746C119.513 99.7285 110.877 98.8863 102.689 99.3046C99.6299 99.4608 96.5645 99.8344 93.6364 100.704C93.3442 100.794 92.229 101.167 92.5927 101.58C92.9386 101.976 94.4594 101.48 94.8112 101.374L94.8172 101.368Z" fill="#E0A619"/>
<path d="M76.6703 241.675C75.3702 250.169 74.1954 258.757 74.2133 267.357C74.2252 273.179 74.9408 278.924 76.4616 284.573C76.8194 285.912 77.1772 287.273 77.6483 288.583C78.1612 290.005 78.9365 291.344 79.7058 292.66C81.4412 295.621 83.4569 298.51 84.7153 301.695C85.1506 302.793 85.5919 304.076 85.3355 305.214C85.3057 305.342 85.2699 305.47 85.2222 305.599C85.1685 305.755 85.2639 305.56 85.1506 305.755C85.091 305.855 85.0254 305.944 84.9538 306.039C84.918 306.089 84.7928 306.201 84.9717 306.028C84.924 306.073 84.8763 306.117 84.8286 306.156C84.6556 306.296 85.085 305.995 84.7511 306.201C85.1506 305.956 84.6437 306.24 84.918 306.128C85.2222 306.011 84.8226 306.14 84.7451 306.167C84.4648 306.251 84.8465 306.151 84.8882 306.145C84.7928 306.156 84.6914 306.173 84.596 306.184C82.8188 306.385 81.0417 306.435 79.2764 306.72C77.9525 306.937 76.6465 307.216 75.3464 307.551C72.3288 308.32 69.174 309.218 66.5082 310.78C65.4825 311.382 64.1645 312.263 63.9081 313.457C63.7411 314.232 64.081 314.979 64.5999 315.57C66.1206 317.31 68.9056 318.097 71.1062 318.688C75.0542 319.748 79.1989 320.188 83.284 320.428C85.8603 320.578 88.4426 320.618 91.0189 320.578C93.0226 320.545 95.0562 320.534 97.0481 320.277C100.364 319.853 104.002 318.917 106.524 316.753C107.753 315.699 108.641 314.299 108.767 312.72C108.952 310.333 108.969 307.919 109.023 305.526C109.101 301.879 109.071 298.226 108.749 294.584C108.099 287.211 106.316 279.989 105.189 272.677C103.835 263.927 103.608 255.065 105.141 246.315C105.594 243.71 106.202 241.134 106.942 238.585C107.282 237.408 103.805 237.866 103.483 238.981C100.823 248.166 100.084 257.703 100.948 267.173C101.622 274.607 103.37 281.885 104.527 289.252C105.051 292.582 105.415 295.928 105.546 299.297C105.701 303.401 105.558 307.517 105.391 311.622C105.326 313.206 105.224 314.778 104.085 315.911C103.495 316.496 103.173 316.691 102.451 317.076C102.38 317.115 101.944 317.322 102.213 317.199C102.046 317.277 101.879 317.349 101.712 317.416C101.545 317.483 101.372 317.55 101.199 317.617C101.08 317.662 100.561 317.835 100.907 317.729C100.179 317.963 99.4395 318.125 98.6881 318.292C98.3661 318.364 98.9386 318.253 98.5211 318.32C98.3601 318.348 98.2051 318.37 98.044 318.398C97.7101 318.448 97.3761 318.493 97.0362 318.526C94.9966 318.744 92.9213 318.733 90.8757 318.744C86.3613 318.76 81.8169 318.537 77.3681 317.801C74.4936 317.322 71.631 316.758 69.1382 315.342C68.685 315.085 68.5836 315.029 68.1542 314.645C68.017 314.522 67.8918 314.394 67.7785 314.26C67.7248 314.198 67.6771 314.131 67.6234 314.065C67.4863 313.886 67.6234 314.087 67.5698 313.986C67.5042 313.858 67.4445 313.724 67.4087 313.585C67.3909 313.507 67.3789 313.429 67.361 313.351C67.3133 313.139 67.3372 313.418 67.3491 313.295C67.361 313.178 67.4863 312.765 67.4028 312.932C67.4505 312.838 67.5101 312.754 67.5698 312.665C67.6056 312.615 67.6473 312.564 67.689 312.514C67.8023 312.375 67.4684 312.715 67.7129 312.486C67.9097 312.302 68.1125 312.135 68.3331 311.979C68.1005 312.146 68.4166 311.934 68.5001 311.884C68.6552 311.789 68.8102 311.7 68.9712 311.611C69.1144 311.533 69.2634 311.454 69.4125 311.382C69.657 311.254 69.2813 311.432 69.6213 311.282C69.997 311.114 70.3727 310.953 70.7603 310.802C71.47 310.523 72.1916 310.267 72.9192 310.032C72.5494 310.155 73.0384 309.993 73.1279 309.971C73.2949 309.921 73.4619 309.871 73.6288 309.82C73.9867 309.714 74.3504 309.608 74.7142 309.514C77.4396 308.766 80.165 308.326 83.0037 308.125C84.5125 308.019 86.0631 307.818 87.3095 306.954C88.3949 306.201 88.9018 305.119 88.8839 303.87C88.866 302.526 88.377 301.226 87.8223 299.999C87.1305 298.466 86.2778 296.993 85.413 295.543C83.8267 292.883 81.8945 290.217 80.9641 287.273C79.2824 281.958 78.1493 276.503 77.8153 270.965C77.3681 263.559 78.1254 256.114 79.0796 248.763C79.4017 246.27 79.7654 243.783 80.1412 241.301C80.338 240.018 76.8552 240.576 76.6822 241.697L76.6703 241.675Z" fill="#E0A619"/>
<path d="M105.576 301.237C105.684 306.435 105.642 306.206 105.469 310.322C105.272 315.096 105.839 315.47 100.877 317.723C98.0681 319 87.745 314.299 87.4409 311.571C86.7431 305.241 105.481 296.642 105.57 301.237H105.576Z" fill="#FBF5EB"/>
<path d="M42.241 96.0755C34.703 101.53 27.1113 106.917 19.5136 112.294C17.8974 113.437 16.5616 114.904 16.2157 116.828C15.8698 118.752 16.484 120.52 17.7185 121.97C18.5236 122.923 19.5434 123.743 20.4618 124.602C21.3802 125.461 22.3344 126.353 23.2707 127.229C24.9584 128.813 26.6521 130.397 28.3398 131.98C33.4387 136.765 38.5138 141.567 43.6008 146.358C45.7179 148.349 47.835 150.34 49.964 152.325C51.0613 153.352 52.1646 154.372 53.2619 155.393C54.55 156.586 55.7785 157.897 57.3887 158.711C61.2055 160.646 66.1672 160.089 69.5725 157.668C70.3955 157.088 71.2065 156.491 72.0235 155.906C76.1265 152.956 80.2295 150.005 84.3325 147.055C87.4933 144.78 90.654 142.51 93.8147 140.234C96.1048 138.589 97.4824 136.007 96.7369 133.285C96.1883 131.283 94.6079 129.984 93.0514 128.629C91.3517 127.14 89.6521 125.656 87.9584 124.167C81.0585 118.116 74.1764 112.048 67.2944 105.98C64.4736 103.487 61.6527 101 58.8319 98.5071C57.5796 97.4029 56.3749 96.1592 54.9138 95.2948C53.077 94.2072 50.8406 93.789 48.6878 93.8949C46.3321 94.0065 44.1256 94.7594 42.241 96.0811C41.6387 96.505 41.925 97.1073 42.575 97.2467C43.4278 97.4252 44.3462 97.1073 45.0201 96.6332C45.694 96.1592 46.2546 95.9696 47.0358 95.819C47.5606 95.7186 48.5148 95.6963 49.2662 95.819C51.103 96.1202 52.4806 97.0013 53.8105 98.1781C56.357 100.431 58.9035 102.684 61.4559 104.932C67.9146 110.637 74.3851 116.337 80.8617 122.025C84.1357 124.903 87.4157 127.781 90.7017 130.653C92.1628 131.93 93.3495 133.28 93.4688 135.226C93.5702 136.933 92.6816 138.478 91.2802 139.515C88.9245 141.249 86.5271 142.934 84.1536 144.64L71.624 153.653L67.5747 156.564C67.3242 156.742 67.0797 156.932 66.8232 157.105C65.7617 157.813 64.8314 158.036 63.5432 158.008C61.7124 157.964 59.9292 157.25 58.5994 156.073C57.4663 155.069 56.3749 154.021 55.2657 152.995C53.2142 151.087 51.1686 149.18 49.1291 147.261C44.5967 143.006 40.0882 138.734 35.5618 134.479C32.4785 131.579 29.3894 128.679 26.3002 125.784C25.3937 124.937 24.4873 124.089 23.5808 123.241C22.6743 122.394 21.7738 121.663 21.0045 120.782C19.8416 119.449 19.3346 117.681 19.7819 115.997C20.259 114.229 21.6903 113.281 23.1693 112.238C24.7974 111.089 26.4254 109.934 28.0475 108.78C31.8762 106.064 35.6989 103.337 39.5157 100.604C41.3584 99.2823 43.1952 97.9606 45.032 96.6332C45.6224 96.2038 45.3541 95.6071 44.6981 95.4677C43.8512 95.2892 42.9149 95.6015 42.253 96.0811L42.241 96.0755Z" fill="#E0A619"/>
<path d="M32.592 97.7094C36.2179 96.5104 41.7342 101.262 40.6548 104.842C39.635 108.233 32.7351 110.486 29.956 108.155C27.0935 105.757 29.0555 98.875 32.586 97.7094H32.592Z" fill="#FBF5EB"/>
<path d="M32.8064 98.4512C32.9138 98.4177 33.2835 98.3731 33.0151 98.3843C32.6871 98.401 33.4028 98.3731 32.9138 98.3843C33.0509 98.3843 33.1881 98.3843 33.3253 98.3843C33.4922 98.3843 33.2537 98.3843 33.2358 98.3787C33.3372 98.3898 33.4326 98.401 33.534 98.4177C33.6771 98.44 33.8143 98.4679 33.9514 98.5014C33.7725 98.4568 34.0707 98.5404 34.1184 98.5571C34.4226 98.6575 34.7208 98.7802 35.013 98.9141C36.1222 99.4439 37.0883 100.269 37.8338 101.201C38.5315 102.071 39.0921 103.192 39.0623 104.301C39.0504 104.759 38.9132 105.227 38.6985 105.64C38.7522 105.534 38.6031 105.796 38.5792 105.83C38.5077 105.936 38.4361 106.036 38.3526 106.136C38.2691 106.237 38.1856 106.337 38.0962 106.432C38.0604 106.477 38.0187 106.516 37.9769 106.555C37.8278 106.711 38.0067 106.532 37.9113 106.616C37.7145 106.789 37.5117 106.951 37.2971 107.101C37.2315 107.151 37.1599 107.196 37.0943 107.241C37.1122 107.229 37.2911 107.118 37.148 107.207C37.0048 107.296 36.8557 107.38 36.7067 107.464C36.5755 107.536 36.4383 107.603 36.3071 107.67C36.2355 107.709 36.0208 107.787 36.3429 107.653C36.2832 107.676 36.2236 107.709 36.164 107.731C36.0208 107.787 35.8777 107.848 35.7346 107.899C35.5795 107.954 35.168 108.072 35.5616 107.966C35.2873 108.038 35.007 108.099 34.7327 108.172C34.4882 108.239 35.0666 108.127 34.8162 108.155C34.7506 108.161 34.6909 108.178 34.6253 108.183C34.4584 108.205 34.2854 108.222 34.1184 108.244C33.8202 108.278 34.3749 108.25 33.9872 108.244C33.8441 108.244 33.701 108.244 33.5578 108.244C33.4982 108.244 33.4386 108.244 33.3789 108.239C33.1583 108.228 33.6175 108.267 33.4028 108.239C33.2477 108.217 33.0927 108.2 32.9376 108.172C32.878 108.161 32.5261 108.072 32.7527 108.138C32.6454 108.105 32.544 108.072 32.4367 108.032C32.3174 107.988 32.2041 107.938 32.0908 107.888C32.0252 107.86 31.9655 107.826 31.8999 107.793C31.7509 107.709 32.0013 107.86 31.8522 107.765C31.4706 107.514 31.1127 107.14 30.91 106.794C30.4031 105.919 30.248 104.842 30.3196 103.855C30.409 102.612 30.7788 101.307 31.393 100.225C31.6674 99.7395 32.049 99.232 32.4665 98.8137C32.5679 98.7133 32.4546 98.8304 32.4367 98.8416C32.5023 98.7802 32.5738 98.7245 32.6454 98.6631C32.711 98.6129 33.0271 98.3787 32.872 98.4846C32.717 98.5906 33.0569 98.3954 33.1165 98.3508C33.2656 98.2393 32.9436 98.4344 32.9555 98.4177C33.0032 98.3731 33.1821 98.3285 33.2418 98.3118C33.6413 98.1723 34.7029 97.5979 34.19 97.096C33.6771 96.594 32.4784 96.9175 31.9178 97.1127C29.0851 98.0943 27.4093 100.849 26.968 103.526C26.5625 105.958 27.1588 108.802 29.9797 109.639C35.1442 111.167 45.503 106.973 41.6505 100.833C39.8256 97.9269 35.991 95.8411 32.3711 96.9733C31.9178 97.1183 30.6655 97.4919 30.8563 98.15C31.0352 98.7691 32.383 98.5906 32.7945 98.4568L32.8064 98.4512Z" fill="#E0A619"/>
<path d="M38.6927 149.514C37.1421 148.154 34.9415 146.046 35.5797 143.843C35.854 142.889 36.7008 142.309 37.488 141.729C38.2752 141.149 39.0982 140.502 39.8795 139.872C41.4121 138.645 42.9448 137.351 44.1852 135.851C45.0619 134.786 45.9266 133.441 45.7238 132.036C45.4495 130.14 43.1237 129.192 41.424 128.673C40.4162 128.366 39.1579 128.712 38.4422 129.42C38.3587 129.504 38.2752 129.588 38.1858 129.671C38.0784 129.777 37.9711 129.883 37.8578 129.984C38.0904 129.761 37.6371 130.196 37.5715 130.251C36.8261 130.954 36.0687 131.646 35.2815 132.304C34.8938 132.627 34.5062 132.951 34.1007 133.252C33.9039 133.402 33.7011 133.542 33.4983 133.687C33.4387 133.726 33.2598 133.837 33.5341 133.67C33.4208 133.743 33.3015 133.81 33.1823 133.876C33.057 133.955 32.7946 134.01 33.2598 133.854C33.1644 133.888 32.9556 133.916 33.2777 133.86C33.5759 133.804 34.7626 133.57 34.7925 133.876C34.7686 133.631 34.0768 133.146 33.8741 132.951C33.4447 132.538 33.0093 132.136 32.562 131.74C31.2143 130.541 29.7889 129.409 28.5247 128.132C27.8985 127.496 27.4273 126.465 26.4374 126.303C24.4873 125.991 23.1753 127.251 22.4715 128.734C21.7678 130.218 21.2848 131.936 20.8733 133.57C20.3187 135.756 19.8952 137.97 19.5792 140.201C19.2631 142.432 19.0723 144.584 19.0723 146.787C19.0723 148.427 19.1259 150.223 19.7879 151.768C21.082 154.79 23.539 157.562 26.1153 159.715C27.8985 161.204 29.9142 162.57 32.1028 163.502C32.8304 163.814 33.8919 163.535 34.542 163.173C34.9833 162.927 35.6095 162.319 34.87 162.001C30.3018 160.061 26.3181 156.285 23.9386 152.208C21.9646 148.817 22.4238 144.662 22.8711 140.959C23.3542 136.983 24.0817 132.867 25.5726 129.097C25.6919 128.801 25.8172 128.506 25.9543 128.216C26.008 128.104 26.0676 127.993 26.1273 127.881C25.9961 128.121 26.2108 127.753 26.2525 127.686C26.3062 127.608 26.3777 127.53 26.4314 127.452C26.5984 127.206 26.3479 127.513 26.3897 127.485C26.0915 127.714 25.2625 127.993 24.6542 127.987C24.4515 127.987 24.2606 127.954 24.0698 127.898C24.1354 127.92 23.9028 127.697 23.9744 127.842C24.1831 128.272 24.6841 128.701 25.0121 129.047C25.5726 129.638 26.175 130.19 26.7892 130.737C28.2086 131.997 29.6876 133.196 31.0294 134.535C31.5721 135.076 31.8762 135.421 32.735 135.432C33.5938 135.444 34.3452 135.182 35.0549 134.836C36.0269 134.362 36.8857 133.681 37.7027 133.006C39.0803 131.874 40.3804 130.659 41.6387 129.409L38.6569 130.157C40.0643 130.586 41.9906 131.255 42.2589 132.834C42.4736 134.111 41.4181 135.382 40.5951 136.291C39.3606 137.669 37.8757 138.846 36.4086 140C34.864 141.21 32.6038 142.409 32.1088 144.372C31.4767 146.871 33.6832 149.163 35.4723 150.73C36.3013 151.461 39.5455 150.245 38.6927 149.503V149.514Z" fill="#E0A619"/>
<path d="M35.7349 134.395C37.0827 133.363 39.319 132.527 40.6012 133.737C41.6747 134.752 40.47 137.016 38.8777 138.188C33.743 141.946 36.1404 141.132 33.0751 137.635C31.8227 136.208 33.415 136.169 35.7409 134.401L35.7349 134.395Z" fill="#FBF5EB"/>
<path d="M81.703 116.198C85.4959 109.126 113.137 122.544 105.659 130.123C85.2514 150.808 69.5372 158.94 71.6543 153.24C79.5322 132.014 74.97 128.763 81.703 116.192V116.198Z" fill="#FBF5EB"/>
<path d="M91.6558 101.625C99.7127 99.1929 128.499 98.4735 136.085 110.86C142.872 121.936 138.327 125.12 144.744 161.048C153.857 212.061 153.827 222.406 148.495 228.585C144.142 233.627 147.726 235.585 120.878 233.655C83.0801 230.939 68.5109 243.024 60.2452 233.655C51.8782 224.163 60.1021 202.067 61.104 193.389C61.7123 188.152 62.8156 186.362 71.3794 145.878C74.9337 129.08 74.558 121.808 79.8657 112.065C82.1139 107.938 86.3064 103.56 91.6558 101.636" fill="#E0A619"/>
<path d="M61.1813 156.492C52.862 156.101 44.2147 150.853 41.8591 152.164C36.3427 155.242 35.2394 164.879 39.1396 169.469C42.2109 173.089 67.6936 170.428 71.737 169.246C81.0999 166.508 90.0096 162.855 105.145 153.168C116.16 146.118 124.032 145.22 124.796 139.889C125.314 136.236 122.875 131.239 118.617 129.253C105.372 123.074 89.2463 157.802 61.1873 156.492H61.1813Z" fill="#E0A619"/>
<path d="M61.8734 155.633C56.8401 155.371 52.2243 153.346 47.513 151.885C45.7835 151.35 43.9407 150.836 42.1218 151.26C40.3029 151.684 38.6152 153.162 37.5477 154.629C35.2696 157.758 34.6017 161.94 35.4008 165.621C35.7407 167.194 36.4146 168.979 37.6073 170.178C38.2932 170.864 39.3428 171.176 40.2791 171.416C43.1714 172.152 46.3083 172.18 49.2901 172.174C53.0413 172.163 56.7924 171.934 60.5257 171.605C63.4896 171.343 66.4655 171.031 69.3936 170.529C72.3218 170.027 75.1008 169.084 77.868 168.12C86.4914 165.119 94.5066 160.83 102.182 156.123C104.782 154.528 107.311 152.833 109.976 151.338C112.219 150.078 114.533 148.935 116.852 147.808C118.606 146.96 120.383 146.135 122.029 145.114C123.347 144.3 124.671 143.369 125.535 142.108C127.659 139.002 126.335 134.842 124.259 132.025C122.387 129.482 119.447 127.72 116.107 127.67C110.608 127.586 105.754 131.205 101.794 134.362C96.5223 138.567 91.6261 143.174 86.1097 147.117C83.2293 149.175 80.2952 150.987 76.9794 152.537C76.9436 152.554 76.6931 152.671 76.9257 152.565C76.8243 152.61 76.7289 152.655 76.6275 152.699C76.4248 152.788 76.228 152.878 76.0252 152.961C75.5958 153.145 75.1664 153.318 74.7311 153.486C74.3196 153.642 73.9081 153.798 73.4907 153.943C73.2819 154.015 73.0732 154.088 72.8645 154.155C72.7571 154.188 72.6557 154.222 72.5484 154.255C72.3516 154.317 72.775 154.188 72.447 154.289C71.5405 154.556 70.6341 154.802 69.7097 155.002C69.489 155.053 69.2743 155.097 69.0537 155.142C68.9941 155.153 68.7078 155.209 69.0239 155.148C68.9106 155.17 68.8032 155.187 68.6899 155.209C68.2188 155.293 67.7417 155.365 67.2646 155.426C65.4159 155.666 63.8534 155.728 61.8675 155.638C61.1399 155.605 60.0009 155.895 59.5774 156.497C59.1302 157.133 59.9651 157.334 60.4899 157.356C68.183 157.696 75.6614 155.426 82.2274 151.785C88.3163 148.405 93.6359 143.993 98.8481 139.554C101.126 137.613 103.398 135.65 105.784 133.821C106.332 133.397 106.893 132.984 107.46 132.583C107.71 132.41 107.955 132.237 108.211 132.064C108.342 131.975 108.473 131.886 108.605 131.802C108.67 131.758 108.736 131.718 108.801 131.674C108.634 131.78 108.7 131.735 108.831 131.657C109.338 131.339 109.851 131.032 110.382 130.742C110.614 130.614 110.853 130.492 111.097 130.369C111.223 130.307 111.348 130.246 111.473 130.185C111.682 130.079 111.151 130.319 111.598 130.129C111.831 130.034 112.064 129.934 112.296 129.85C112.421 129.806 112.541 129.761 112.666 129.716C112.726 129.694 112.791 129.677 112.851 129.655C113.137 129.549 112.505 129.739 112.72 129.694C112.946 129.649 113.173 129.566 113.399 129.51C113.519 129.482 113.644 129.465 113.763 129.432C113.197 129.588 113.62 129.46 113.793 129.432C113.912 129.415 114.032 129.404 114.151 129.387C114.527 129.337 114.187 129.382 114.163 129.382C114.395 129.393 114.634 129.371 114.866 129.371C114.926 129.371 114.986 129.376 115.039 129.376C115.23 129.376 114.729 129.348 114.92 129.365C115.039 129.376 115.153 129.387 115.266 129.404C115.517 129.437 115.755 129.488 116 129.538C116.22 129.582 115.773 129.465 116.071 129.555C116.184 129.588 116.298 129.621 116.411 129.661C116.656 129.744 116.9 129.839 117.133 129.945C118.075 130.369 118.91 130.971 119.649 131.663C121.182 133.096 122.255 134.931 122.786 136.894C123.192 138.4 123.311 140.056 122.643 141.517C122.142 142.616 121.26 143.33 120.192 144.055C120.114 144.111 120.037 144.161 119.953 144.211C120.138 144.094 119.93 144.222 119.9 144.239C119.727 144.345 119.554 144.445 119.381 144.546C119.011 144.758 118.636 144.964 118.26 145.165C117.413 145.611 116.554 146.035 115.695 146.453C113.549 147.496 111.396 148.533 109.29 149.66C104.293 152.342 99.6592 155.577 94.7451 158.388C90.994 160.529 86.9745 162.626 83.1518 164.288C81.476 165.019 79.7763 165.699 78.0528 166.335C77.2418 166.636 76.4188 166.921 75.5958 167.199C75.1903 167.333 74.7848 167.467 74.3792 167.601C74.2003 167.657 74.0274 167.713 73.8485 167.774C73.7471 167.807 73.6457 167.835 73.5443 167.869C73.3356 167.936 73.8008 167.791 73.4668 167.891C72.4112 168.214 71.3676 168.532 70.2822 168.761C70.0615 168.806 70.7533 168.677 70.3299 168.75C70.2106 168.772 70.0854 168.794 69.9661 168.817C69.6978 168.861 69.4354 168.906 69.167 168.951C68.5527 169.045 67.9325 169.135 67.3123 169.218C65.7916 169.425 64.2589 169.598 62.7322 169.748C61.8854 169.832 61.0445 169.91 60.1977 169.977C59.7862 170.01 59.3806 170.044 58.9691 170.072C58.7485 170.088 58.5278 170.105 58.3072 170.122C58.1939 170.127 58.0865 170.139 57.9732 170.144C57.687 170.166 57.9971 170.144 57.8241 170.155C54.3712 170.378 50.8884 170.512 47.4295 170.356C47.0717 170.339 46.7198 170.323 46.3679 170.3C46.0161 170.278 46.4037 170.306 46.0698 170.278C45.873 170.261 45.6762 170.244 45.4794 170.222C44.8353 170.161 44.1972 170.077 43.565 169.966C43.3026 169.921 43.0402 169.865 42.7778 169.809C42.7301 169.798 42.3484 169.704 42.5035 169.743C42.6407 169.782 42.2769 169.676 42.2113 169.653C42.0085 169.586 41.8117 169.519 41.6149 169.436C41.5195 169.397 41.43 169.352 41.3346 169.308C41.2392 169.263 41.0186 169.112 41.2213 169.252C40.1359 168.527 39.5575 167.133 39.1698 165.989C38.5913 164.288 38.4065 162.459 38.5735 160.685C38.7404 158.912 39.2175 157.077 40.124 155.488C40.5295 154.768 41.0424 154.066 41.6507 153.48C41.9191 153.223 42.2172 152.989 42.5214 152.772C42.6645 152.671 42.6645 152.71 42.8852 152.549C42.7063 152.682 42.4021 152.738 42.1815 152.772C42.3902 152.744 41.8236 152.772 42.0383 152.777C42.092 152.777 42.1457 152.772 42.1934 152.777C42.4558 152.805 42.1934 152.772 42.1457 152.766C42.2232 152.772 42.3067 152.783 42.3842 152.794C42.7659 152.844 43.1476 152.922 43.5233 153.012C44.3403 153.212 45.205 153.502 46.028 153.781C48.2644 154.528 50.4769 155.332 52.755 155.967C55.2776 156.67 57.8241 157.183 60.4601 157.323C61.1817 157.362 62.3267 157.06 62.7501 156.464C63.2033 155.822 62.3625 155.633 61.8377 155.605L61.8734 155.633Z" fill="#FBF5EB"/>
<path d="M41.5377 112.885C43.947 114.485 46.404 116.03 48.712 117.753C49.5648 118.389 50.4176 119.031 51.2704 119.666C51.4612 119.806 51.9443 119.767 52.147 119.75C52.5943 119.717 53.0714 119.611 53.4948 119.466C53.7095 119.387 54.9977 118.925 54.5385 118.584C52.481 117.051 50.4355 115.528 48.2885 114.112C47.1256 113.342 45.9627 112.572 44.7998 111.803C44.5911 111.663 44.1438 111.702 43.9232 111.719C43.4759 111.753 42.9988 111.858 42.5754 112.003C42.3786 112.07 41.0546 112.567 41.5317 112.885H41.5377Z" fill="#E0A619"/>
<path d="M44.9427 119.27C47.0658 117.508 49.2306 115.824 51.4193 114.14C52.3675 113.409 53.3097 112.662 54.2401 111.914C54.8305 111.44 53.7153 111.396 53.435 111.424C52.6657 111.496 51.7234 111.702 51.1211 112.188C49.0457 113.844 46.8869 115.4 44.8235 117.068C43.8156 117.882 42.8197 118.713 41.8237 119.538C41.2453 120.018 42.3366 120.057 42.6288 120.029C43.3862 119.956 44.3523 119.756 44.9427 119.265V119.27Z" fill="#E0A619"/>
<path d="M145.072 213.533C145.317 216.913 145.025 220.834 142.096 223.193C141.739 223.483 141.75 223.471 141.321 223.728C141.16 223.823 140.999 223.912 140.838 224.001C141.112 223.856 140.886 223.979 140.808 224.012C140.683 224.068 140.564 224.13 140.444 224.18C140.343 224.224 139.759 224.453 140.188 224.297C139.997 224.369 139.806 224.436 139.615 224.503C139.496 224.542 138.846 224.732 139.347 224.592C139.097 224.659 138.846 224.732 138.59 224.793C138.476 224.821 137.785 224.972 138.262 224.871C138.035 224.916 137.803 224.961 137.576 225.005C137.117 225.089 136.306 225.206 136.049 225.239C135.196 225.345 133.795 225.462 132.721 225.524C130.127 225.674 127.533 225.697 124.933 225.708C122.076 225.725 119.214 225.792 116.357 225.736C111.479 225.635 106.619 225.167 101.734 225.128C98.6034 225.1 95.4666 225.195 92.3655 225.641C89.7116 226.02 86.8729 226.673 84.6306 228.106C84.1058 228.446 84.1774 228.786 84.8334 228.82C85.6146 228.859 86.6284 228.625 87.2784 228.206C87.4693 228.084 87.6601 227.972 87.8629 227.861C88.0776 227.743 87.5587 228 87.9404 227.827C88.0597 227.771 88.1849 227.721 88.3042 227.665C88.3877 227.626 88.4712 227.593 88.5547 227.559C88.1909 227.704 88.6262 227.537 88.6799 227.52C88.7932 227.481 88.9065 227.448 89.0198 227.409C89.4671 227.258 88.8409 227.448 89.1987 227.353C90.2066 227.091 91.0415 226.924 92.2044 226.779C94.6555 226.477 97.4823 226.422 100.088 226.461C104.931 226.528 109.755 227.03 114.598 227.069C120.293 227.119 126.06 227.169 131.743 226.801C136.019 226.522 140.868 225.953 144.44 223.538C148.209 220.99 148.835 216.751 148.543 212.669C148.501 212.083 145.025 212.641 145.084 213.533H145.072Z" fill="#FBF5EB"/>
</g>
<defs>
<clipPath id="clip0_205_2">
<rect width="198" height="334" fill="white"/>
</clipPath>
</defs>
</svg>
