<svg width="308" height="354" viewBox="0 0 308 354" fill="none" xmlns="http://www.w3.org/2000/svg">
<path d="M52.045 81.1435C53.1531 84.7488 50.0809 88.4786 46.5163 90.2065C44.7457 91.063 42.9282 91.4116 40.7882 90.9236C38.0444 90.2962 35.9396 88.4238 34.5032 86.422C32.0115 82.9362 31.2435 78.7682 29.8129 74.9339C28.3824 71.0995 26.729 67.4146 24.7122 63.8292C21.9039 58.8296 18.3744 54.1836 14.2528 49.9011C11.7787 47.3316 8.73584 44.8616 7.00042 41.8489C5.16534 38.662 6.05064 35.6244 7.34633 32.4224C9.94945 25.9937 12.9923 18.9176 18.5855 13.8881C20.6492 12.0307 22.8244 10.8903 25.8437 10.8306C28.1185 10.7858 30.3992 10.726 32.674 10.6613C46.8387 10.2729 60.9976 9.76992 75.1565 9.33668C95.4479 8.70925 115.745 8.15152 136.043 7.72327C159.84 7.2253 183.643 6.90163 207.447 6.83689C213.661 6.82195 219.876 6.82195 226.091 6.84685C229.21 6.85681 232.329 6.87673 235.448 6.89665C236.919 6.90661 238.385 6.91656 239.857 6.9315C240.889 6.94146 241.733 6.82195 242.319 7.07591C245.456 8.44034 247.93 11.3883 249.982 13.7238C253.025 17.1896 255.446 20.9742 258.008 24.699C261.567 29.8878 265.296 35.0119 268.55 40.3451C271.575 45.3048 274.031 50.4737 275.849 55.8418C278.423 63.4458 279.918 71.2937 281.137 79.1267C281.6 82.1046 279.883 84.9729 277.678 87.2287C276.676 88.2545 275.274 89.4645 273.674 89.7583C272.073 90.0521 270.449 89.34 269.206 88.6529C265.296 86.4967 262.716 82.7619 260.887 79.2313C260.4 78.2852 257.064 79.1865 257.486 80.0032C260.711 86.2278 268.04 94.6086 277.063 90.0422C280.41 88.3491 282.914 85.3215 284.151 82.2191C284.714 80.8099 284.731 79.5998 284.503 78.1408C284.121 75.7107 283.711 73.2856 283.248 70.8705C281.882 63.7047 280.117 56.5539 277.215 49.7118C274.911 44.284 271.821 39.1649 268.456 34.1653C266.586 31.3867 264.657 28.6379 262.751 25.8791C260.254 22.2639 257.926 18.5341 255.176 15.0533C252.761 12.0008 250.011 8.70925 246.488 6.49827C245.333 5.77124 244.312 5.41768 242.87 5.39777C239.564 5.35295 236.257 5.34299 232.956 5.32307C207.247 5.17866 181.533 5.38781 155.83 5.82602C133.34 6.20447 110.861 6.76717 88.3831 7.42947C72.1136 7.90752 55.85 8.46524 39.5805 8.95325C36.7956 9.0379 34.0107 9.11758 31.2259 9.18729C28.6931 9.25203 25.9962 9.10264 23.5162 9.59065C15.5778 11.1592 11.0458 18.4096 7.95021 24.1761C6.17376 27.4876 4.66699 30.9136 3.34198 34.3745C2.72052 36.0078 2.33357 37.7108 2.52118 39.4338C2.86709 42.5859 5.35295 45.1704 7.6512 47.5108C11.339 51.2655 14.9857 54.9903 17.9406 59.2081C20.1098 62.3104 21.9625 65.5721 23.5572 68.9134C25.6268 73.2557 27.0398 77.7175 28.611 82.1942C30.452 87.4378 34.5267 92.8756 41.7263 92.6814C47.0088 92.537 52.2091 89.7434 54.5895 85.7298C55.5686 84.0765 56.0083 82.1892 55.4513 80.3766C55.164 79.4405 51.7636 80.2024 52.0508 81.1485L52.045 81.1435Z" fill="#E0A619"/>
<path d="M209.176 79.8042C208.273 82.6974 206.96 85.6951 204.491 87.9061C204.081 88.2746 203.624 88.6132 203.143 88.917C202.879 89.0863 202.949 89.0415 202.609 89.2208C202.486 89.2855 202.363 89.3403 202.24 89.4C202.181 89.4299 202.117 89.4548 202.052 89.4847C201.83 89.5843 202.287 89.395 202.064 89.4847C201.818 89.5793 201.566 89.6639 201.314 89.7486C201.126 89.8133 201.431 89.7187 201.443 89.7137C201.378 89.7287 201.32 89.7486 201.255 89.7635C201.179 89.7835 200.622 89.903 200.944 89.8432C201.366 89.7685 200.616 89.8681 201.009 89.8382C201.355 89.8133 200.757 89.7934 201.044 89.8382C201.273 89.8731 200.974 89.8233 200.921 89.8183C200.645 89.7835 201.026 89.8681 200.839 89.8034C200.123 89.5644 199.584 89.151 198.998 88.5535C198.318 87.8563 197.749 87.0795 197.21 86.2977C195.984 84.5349 194.864 82.6675 193.264 81.1238C192.537 80.4217 191.681 79.8042 190.696 79.3859C189.488 78.873 188.204 78.8282 186.879 78.8282C182.939 78.8332 179 78.873 175.066 78.9228C166.893 79.0324 158.714 79.2116 150.541 79.3859C143.599 79.5303 136.658 79.6897 129.71 79.7295C129.03 79.7295 128.356 79.7345 127.676 79.7345C126.949 79.7345 125.852 79.9436 125.424 80.5063C124.996 81.069 125.794 81.2881 126.321 81.2881C133.169 81.2881 140.017 81.1288 146.859 80.9894C155.202 80.8151 163.545 80.6258 171.888 80.5063C175.98 80.4466 180.078 80.4018 184.171 80.3868C184.657 80.3868 185.144 80.3868 185.636 80.3868C185.859 80.3868 186.082 80.3868 186.305 80.3868C186.387 80.3868 186.838 80.4067 186.545 80.3818C187.155 80.4316 187.325 80.4814 187.864 80.6956C188.791 81.069 189.588 81.7164 190.274 82.4086C191.845 83.9871 192.936 85.8595 194.19 87.6173C195.21 89.0514 196.418 90.7495 198.447 91.2375C201.056 91.865 204.175 90.4756 206.151 89.1261C208.76 87.3384 210.442 84.744 211.585 82.1098C211.967 81.2284 212.289 80.3271 212.57 79.4158C212.869 78.4497 209.475 78.873 209.182 79.8042H209.176Z" fill="#E0A619"/>
<path d="M233.208 79.8041C232.3 82.7222 230.963 85.7449 228.46 87.9608C228.161 88.2248 227.563 88.663 227.105 88.9618C226.841 89.1311 227.164 88.9369 226.959 89.0514C226.841 89.1161 226.718 89.1809 226.595 89.2456C226.472 89.3103 226.355 89.3651 226.232 89.4199C225.821 89.6191 226.384 89.3801 226.038 89.5045C225.798 89.5942 225.528 89.6639 225.294 89.7635C225.083 89.8531 225.645 89.6888 225.417 89.7286C225.364 89.7386 225.311 89.7585 225.258 89.7685C225.1 89.8033 224.936 89.8382 224.778 89.878C224.356 89.9776 225.059 89.8481 224.754 89.888C224.608 89.9029 224.467 89.9278 224.32 89.9477C224.197 89.9627 224.068 89.9726 223.945 89.9826C223.763 90.0025 224.103 89.9776 224.103 89.9776C224.015 89.9776 223.922 89.9876 223.834 89.9876C223.564 89.9926 223.294 89.9876 223.025 89.9826C222.972 89.9826 222.919 89.9776 222.866 89.9726C222.661 89.9627 223.124 89.9975 222.925 89.9726C222.784 89.9577 222.638 89.9477 222.497 89.9278C222.233 89.8979 221.969 89.8531 221.706 89.8033C221.582 89.7784 221.459 89.7535 221.342 89.7286C221.072 89.6739 221.401 89.7485 221.131 89.6788C220.076 89.395 219.067 89.0016 218.135 88.4887C216.564 87.6322 214.864 86.1781 213.896 84.7241C212.806 83.0808 212.255 81.1935 212.817 79.4108C213.122 78.4497 209.722 78.868 209.429 79.7992C208.227 83.6036 211.322 87.5177 214.916 89.5593C219.7 92.2782 226.026 92.1587 230.465 88.9169C233.765 86.5068 235.518 82.9015 236.603 79.4108C236.902 78.4447 233.508 78.868 233.214 79.7992L233.208 79.8041Z" fill="#E0A619"/>
<path d="M257.24 79.8041C256.331 82.7222 254.994 85.7449 252.491 87.9608C252.192 88.2248 251.594 88.663 251.136 88.9618C250.873 89.1311 251.195 88.9369 250.99 89.0514C250.873 89.1161 250.75 89.1809 250.626 89.2456C250.503 89.3103 250.386 89.3651 250.263 89.4199C249.852 89.6191 250.415 89.3801 250.069 89.5045C249.829 89.5942 249.559 89.6639 249.325 89.7635C249.114 89.8531 249.677 89.6888 249.448 89.7286C249.395 89.7386 249.342 89.7585 249.29 89.7685C249.131 89.8033 248.967 89.8382 248.809 89.878C248.387 89.9776 249.09 89.8481 248.785 89.888C248.639 89.9029 248.498 89.9278 248.352 89.9477C248.228 89.9627 248.099 89.9726 247.976 89.9826C247.795 90.0025 248.135 89.9776 248.135 89.9776C248.047 89.9776 247.953 89.9876 247.865 89.9876C247.595 89.9926 247.326 89.9876 247.056 89.9826C247.003 89.9826 246.95 89.9776 246.898 89.9726C246.692 89.9627 247.156 89.9975 246.956 89.9726C246.816 89.9577 246.669 89.9477 246.528 89.9278C246.264 89.8979 246.001 89.8531 245.737 89.8033C245.614 89.7784 245.491 89.7535 245.373 89.7286C245.104 89.6739 245.432 89.7485 245.162 89.6788C244.107 89.395 243.098 89.0016 242.166 88.4887C240.595 87.6322 238.895 86.1781 237.927 84.7241C236.837 83.0808 236.286 81.1935 236.849 79.4108C237.154 78.4497 233.753 78.868 233.46 79.7992C232.258 83.6036 235.354 87.5177 238.948 89.5593C243.732 92.2782 250.058 92.1587 254.496 88.9169C257.797 86.5068 259.55 82.9015 260.634 79.4108C260.933 78.4447 257.539 78.868 257.246 79.7992L257.24 79.8041Z" fill="#E0A619"/>
<path d="M100.355 81.1436C101.275 84.0915 102.647 87.0843 105.051 89.3999C106.622 90.9087 108.909 92.2731 111.324 92.5022C116.66 93.0101 118.846 87.8014 121.162 84.7439C121.52 84.2758 121.895 83.8127 122.3 83.3695C122.493 83.1554 122.698 82.9512 122.909 82.752C123.091 82.5777 123.156 82.5229 123.425 82.3188C123.548 82.2242 123.677 82.1296 123.812 82.0399C123.871 82.0001 124.17 81.8158 124.058 81.8806C123.947 81.9453 124.258 81.781 124.316 81.7461C124.369 81.7212 124.422 81.6963 124.475 81.6714C124.668 81.5718 124.205 81.771 124.416 81.6963C124.545 81.6515 124.674 81.6067 124.803 81.5619C124.481 81.6764 124.686 81.6067 124.879 81.5569C125.073 81.5071 124.721 81.5818 124.715 81.5818C124.791 81.5718 124.885 81.5718 124.955 81.5519C124.985 81.542 125.208 81.527 124.991 81.542C124.744 81.5619 125.143 81.542 125.155 81.542C125.888 81.532 126.972 81.3328 127.406 80.7701C127.84 80.2074 127.043 79.9833 126.509 79.9883C120.939 80.0481 118.348 84.226 115.88 87.7914C115.329 88.5882 114.766 89.3849 114.086 90.107C113.968 90.2365 113.839 90.3609 113.716 90.4805C113.693 90.5004 113.435 90.7245 113.634 90.5552C113.558 90.6199 113.482 90.6796 113.406 90.7394C113.318 90.8091 112.796 91.1228 113.165 90.9236C113.095 90.9635 113.001 91.0282 112.919 91.0531C112.643 91.1228 113.3 90.9187 112.884 91.0631C113.394 90.8888 113.124 90.9983 112.983 91.0282C113.517 90.9087 113.23 90.9834 113.089 91.0033L113.335 90.9884C113.271 90.9884 113.212 90.9884 113.153 90.9884C113.218 90.9137 113.464 91.0432 113.153 90.9784C112.696 90.8838 112.403 90.8141 111.881 90.6249C110.785 90.2315 109.818 89.6538 108.962 88.9567C106.177 86.686 104.729 83.479 103.761 80.3767C103.468 79.4405 100.068 80.2024 100.361 81.1486L100.355 81.1436Z" fill="#E0A619"/>
<path d="M76.3226 81.1437C77.3017 84.2809 78.8026 87.5326 81.5464 89.8781C83.5398 91.5811 86.1136 92.5571 88.9278 92.6766C94.1458 92.9007 99.5748 90.2167 102.196 86.4222C103.45 84.6096 104.154 82.4534 103.497 80.3719C103.204 79.4357 99.8035 80.2026 100.097 81.1437C100.607 82.7521 100.237 84.3456 99.3872 85.8744C99.2406 86.1383 98.9651 86.5467 98.6837 86.9002C98.3905 87.2787 98.068 87.6372 97.7221 87.9808C97.2941 88.409 97.2531 88.4439 96.743 88.8423C96.3385 89.156 95.9105 89.4398 95.4767 89.7187C95.1776 89.9079 95.6056 89.649 95.3828 89.7735C95.2597 89.8432 95.1366 89.9079 95.0135 89.9727C94.779 90.0972 94.5445 90.2117 94.3041 90.3212C94.1927 90.371 94.0813 90.4208 93.964 90.4706C94.3862 90.2814 93.9523 90.4706 93.8585 90.5105C93.6122 90.6051 93.3601 90.6897 93.108 90.7744C93.0436 90.7943 92.9673 90.8142 92.9028 90.8391C92.6918 90.9188 93.2663 90.7545 93.0377 90.7993C92.9146 90.8242 92.7973 90.864 92.6742 90.8939C92.5511 90.9238 92.4338 90.9487 92.3107 90.9786C92.1758 91.0084 91.6423 91.0682 92.1934 91.0084C91.9472 91.0333 91.7009 91.0831 91.4488 91.1031C91.3726 91.113 90.9798 91.1429 91.2319 91.123C91.484 91.1031 90.9857 91.1329 90.9095 91.1329C90.6574 91.1329 90.4053 91.1329 90.1532 91.118C89.901 91.1031 90.3818 91.1479 90.0418 91.108C89.8776 91.0881 89.7193 91.0732 89.5551 91.0483C89.303 91.0134 89.0509 90.9636 88.8047 90.9138C88.7636 90.9039 88.576 90.8591 88.793 90.9138C88.7226 90.8939 88.6522 90.879 88.5819 90.8591C88.4412 90.8192 88.2946 90.7794 88.1539 90.7296C87.0165 90.3611 86.0843 89.8532 85.1814 89.166C82.2148 86.9002 80.6963 83.5638 79.6996 80.3669C79.4065 79.4307 76.006 80.1926 76.2991 81.1387L76.3226 81.1437Z" fill="#E0A619"/>
<path d="M52.2914 81.1437C53.2705 84.2809 54.7714 87.5326 57.5152 89.8781C59.5086 91.5811 62.0824 92.5571 64.8966 92.6766C70.1145 92.9007 75.5436 90.2167 78.1643 86.4222C79.4189 84.6096 80.1225 82.4534 79.4658 80.3719C79.1727 79.4357 75.7722 80.2026 76.0654 81.1437C76.5754 82.7521 76.2061 84.3456 75.3559 85.8744C75.2094 86.1383 74.9338 86.5467 74.6524 86.9002C74.3593 87.2787 74.0368 87.6372 73.6909 87.9808C73.2629 88.409 73.2219 88.4439 72.7118 88.8423C72.3072 89.156 71.8793 89.4398 71.4454 89.7187C71.1464 89.9079 71.5744 89.649 71.3516 89.7735C71.2285 89.8432 71.1054 89.9079 70.9822 89.9727C70.7477 90.0972 70.5132 90.2117 70.2728 90.3212C70.1614 90.371 70.05 90.4208 69.9328 90.4706C70.3549 90.2814 69.921 90.4706 69.8272 90.5105C69.581 90.6051 69.3289 90.6897 69.0768 90.7744C69.0123 90.7943 68.9361 90.8142 68.8716 90.8391C68.6605 90.9188 69.2351 90.7545 69.0064 90.7993C68.8833 90.8242 68.7661 90.864 68.6429 90.8939C68.5198 90.9238 68.4026 90.9487 68.2794 90.9786C68.1446 91.0084 67.6111 91.0682 68.1622 91.0084C67.9159 91.0333 67.6697 91.0831 67.4176 91.1031C67.3414 91.113 66.9486 91.1429 67.2007 91.123C67.4528 91.1031 66.9544 91.1329 66.8782 91.1329C66.6261 91.1329 66.374 91.1329 66.1219 91.118C65.8698 91.1031 66.3505 91.1479 66.0105 91.108C65.8463 91.0881 65.688 91.0732 65.5239 91.0483C65.2718 91.0134 65.0197 90.9636 64.7734 90.9138C64.7324 90.9039 64.5448 90.8591 64.7617 90.9138C64.6914 90.8939 64.621 90.879 64.5506 90.8591C64.4099 90.8192 64.2634 90.7794 64.1227 90.7296C62.9853 90.3611 62.0531 89.8532 61.1502 89.166C58.1836 86.9002 56.6651 83.5638 55.6684 80.3669C55.3752 79.4307 51.9748 80.1926 52.2679 81.1387L52.2914 81.1437Z" fill="#E0A619"/>
<path d="M281.231 69.367C263.889 69.5064 246.546 69.6807 229.21 69.8749C211.873 70.0691 193.253 70.2932 175.271 70.5223C157.577 70.7464 139.883 70.9804 122.189 71.2095C105.984 71.4186 89.7727 71.6278 73.5677 71.822C59.784 71.9863 46.0004 72.1407 32.2167 72.2602C30.7393 72.2751 29.2618 72.2851 27.7844 72.295C27.0867 72.3 25.9259 72.4942 25.533 73.0669C25.1402 73.6396 25.8614 73.8487 26.4301 73.8487C39.8326 73.7392 53.2352 73.5947 66.6319 73.4354C82.5907 73.2462 98.5494 73.042 114.508 72.8378C132.085 72.6088 149.656 72.3797 167.233 72.1556C185.226 71.9266 203.22 71.7025 221.207 71.4983C238.696 71.2991 256.179 71.1149 273.668 70.9705C275.738 70.9505 277.801 70.9356 279.871 70.9207C280.569 70.9157 281.729 70.7215 282.122 70.1488C282.515 69.5761 281.794 69.367 281.225 69.367H281.231Z" fill="#E0A619"/>
<path d="M124.991 207.02C125.091 195.253 125.185 183.486 125.267 171.714C125.325 163.577 125.372 155.44 125.408 147.304C125.437 140.989 125.46 134.68 125.49 128.366C125.519 122.052 125.542 115.862 125.583 109.608C125.63 101.545 125.689 93.4833 125.759 85.4212C125.771 84.2112 125.777 83.0061 125.789 81.796C125.795 80.9893 122.4 81.4973 122.388 82.5679C122.318 90.9736 122.253 99.3842 122.201 107.79C122.16 114.199 122.13 120.608 122.101 127.016C122.072 133.425 122.048 139.451 122.019 145.665C121.984 153.439 121.937 161.217 121.89 168.99C121.814 180.214 121.726 191.433 121.632 202.658C121.62 204.371 121.603 206.079 121.591 207.792C121.585 208.598 124.98 208.09 124.991 207.02Z" fill="#E0A619"/>
<path d="M190.508 207.02C190.608 195.183 190.707 183.341 190.783 171.505C190.842 163.189 190.889 154.873 190.924 146.562C190.953 140.033 190.983 133.505 191.006 126.976C191.03 120.498 191.059 114.024 191.1 107.546C191.147 99.414 191.206 91.2822 191.276 83.1504C191.288 81.9503 191.294 80.7502 191.305 79.5451C191.311 78.7384 187.917 79.2463 187.905 80.3169C187.834 88.7973 187.764 97.2727 187.717 105.753C187.676 112.341 187.647 118.924 187.618 125.512C187.588 132.101 187.565 138.375 187.535 144.804C187.5 152.811 187.453 160.823 187.401 168.831C187.324 180.115 187.242 191.398 187.143 202.682C187.131 204.385 187.113 206.083 187.102 207.787C187.096 208.593 190.49 208.085 190.502 207.015L190.508 207.02Z" fill="#E0A619"/>
<path d="M123.408 206.631C110.504 206.736 97.5937 206.841 84.6895 206.94C77.3902 207 70.085 207.06 62.7857 207.114C58.1247 207.154 53.4579 207.189 48.7969 207.229C43.79 207.269 38.7831 207.309 33.7762 207.348C25.4392 207.413 17.1021 207.483 8.76511 207.548C7.36974 207.558 5.96851 207.568 4.57314 207.583C3.84614 207.587 2.75565 207.792 2.32179 208.354C1.88794 208.917 2.68529 209.136 3.21882 209.136C12.1714 209.066 21.1182 208.992 30.0708 208.922C35.3357 208.882 40.6064 208.837 45.8713 208.798C50.4209 208.763 54.9705 208.723 59.5143 208.688C66.3152 208.633 73.122 208.578 79.923 208.524C91.9829 208.429 104.037 208.329 116.097 208.235C118.084 208.22 120.072 208.205 122.06 208.185C122.787 208.18 123.877 207.976 124.311 207.413C124.745 206.851 123.947 206.631 123.414 206.631H123.408Z" fill="#E0A619"/>
<path d="M282.468 206.522C272.349 206.587 262.235 206.651 252.116 206.711C246.388 206.746 240.654 206.786 234.926 206.821C231.256 206.845 227.591 206.865 223.921 206.89C219.97 206.915 216.024 206.94 212.072 206.965C205.535 207.005 199.004 207.05 192.467 207.09C191.37 207.094 190.268 207.104 189.172 207.109C188.445 207.109 187.354 207.319 186.92 207.881C186.487 208.444 187.284 208.663 187.817 208.663C194.835 208.618 201.847 208.573 208.865 208.529C212.999 208.504 217.126 208.474 221.259 208.449C224.83 208.424 228.406 208.404 231.977 208.379C237.341 208.344 242.706 208.31 248.076 208.28C257.527 208.22 266.978 208.16 276.435 208.1C277.994 208.09 279.56 208.08 281.119 208.071C281.846 208.071 282.937 207.861 283.371 207.299C283.805 206.736 283.007 206.517 282.474 206.517L282.468 206.522Z" fill="#E0A619"/>
<path d="M283.899 206.905C283.998 195.069 284.098 183.227 284.174 171.39C284.233 163.074 284.28 154.758 284.315 146.447C284.344 139.919 284.373 133.391 284.397 126.862C284.42 120.384 284.45 113.91 284.491 107.432C284.538 99.2997 284.596 91.1679 284.667 83.0361C284.678 81.836 284.684 80.6359 284.696 79.4308C284.702 78.6241 281.307 79.1321 281.295 80.2027C281.225 88.6831 281.155 97.1585 281.108 105.639C281.067 112.227 281.037 118.81 281.008 125.398C280.979 131.827 280.955 138.261 280.926 144.689C280.891 152.697 280.844 160.709 280.791 168.716C280.715 180 280.633 191.284 280.533 202.568C280.521 204.271 280.504 205.969 280.492 207.672C280.486 208.479 283.881 207.971 283.893 206.9L283.899 206.905Z" fill="#E0A619"/>
<path d="M31.0206 207.498C31.1203 195.826 31.2199 184.148 31.2962 172.476C31.3548 164.274 31.4017 156.078 31.4369 147.876C31.4662 141.438 31.4955 135.004 31.5189 128.565C31.5424 122.126 31.5717 115.792 31.6128 109.408C31.6597 101.391 31.7183 93.3688 31.7886 85.3515C31.8004 84.1664 31.8062 82.9812 31.818 81.796C31.8238 80.9893 28.4292 81.4973 28.4175 82.5679C28.3471 90.9288 28.2768 99.2896 28.2299 107.65C28.1888 114.144 28.1595 120.637 28.1302 127.136C28.1009 133.634 28.0774 139.819 28.0481 146.158C28.0129 154.056 27.966 161.954 27.9133 169.852C27.8371 180.981 27.755 192.106 27.6553 203.235C27.6436 204.913 27.626 206.592 27.6143 208.27C27.6084 209.076 31.003 208.568 31.0147 207.498H31.0206Z" fill="#E0A619"/>
<path d="M5.18856 208.384C5.28823 192.698 5.3879 177.012 5.46412 161.321C5.52275 150.301 5.56965 139.286 5.60483 128.266C5.63414 119.617 5.66346 110.967 5.68691 102.317C5.71036 93.6676 5.73967 85.1524 5.78071 76.5724C5.82762 65.7964 5.88625 55.0204 5.9566 44.2444C5.96833 42.6509 5.97419 41.0624 5.98592 39.4689C5.98592 38.6622 2.59717 39.1701 2.58544 40.2407C2.51509 51.4748 2.44473 62.709 2.39783 73.9481C2.35679 82.6775 2.32748 91.4018 2.29816 100.131C2.26885 108.651 2.24539 117.172 2.21608 125.692C2.1809 136.304 2.134 146.92 2.08123 157.532C2.00502 172.486 1.92294 187.435 1.82327 202.389C1.81154 204.645 1.79395 206.895 1.78223 209.151C1.78223 209.958 5.17097 209.45 5.1827 208.379L5.18856 208.384Z" fill="#E0A619"/>
<path d="M154.998 221.346C154.734 222.043 154.054 222.8 153.497 223.453C152.77 224.294 152.002 225.111 151.339 225.987C150.835 226.66 150.26 227.461 150.331 228.293C150.401 229.125 151.234 229.483 152.072 229.623C153.239 229.817 154.423 229.792 155.59 230.031C156.364 230.19 157.155 230.384 157.847 230.604C158.316 230.753 158.791 230.917 159.231 231.126C159.541 231.276 159.84 231.49 159.934 231.634C159.958 231.664 159.969 231.744 159.969 231.774C159.963 231.55 159.958 231.714 159.952 231.769C159.952 231.789 159.934 231.848 159.917 231.868C160.139 231.57 159.911 231.853 159.911 231.853C159.887 231.853 159.846 231.933 159.823 231.953C160.122 231.729 159.846 231.883 159.823 231.938C159.752 232.063 159.834 231.938 159.917 231.888C159.805 231.953 159.688 232.008 159.576 232.073C159.354 232.202 159.618 232.058 159.664 232.038C159.553 232.083 159.448 232.127 159.336 232.167C159.225 232.207 158.586 232.396 159.02 232.282C158.451 232.436 157.876 232.561 157.29 232.665C157.554 232.62 157.243 232.67 157.208 232.675C157.02 232.705 156.827 232.73 156.639 232.755C156.299 232.8 155.965 232.839 155.625 232.874C154.863 232.949 154.089 233.009 153.321 233.039C151.691 233.103 150.026 233.118 148.402 232.989C148.765 233.019 148.115 232.949 148.032 232.939C147.792 232.904 147.558 232.859 147.323 232.81C146.825 232.705 146.373 232.561 145.904 232.331C144.72 231.754 144.708 230.853 144.661 229.797C144.603 228.487 144.556 227.178 144.591 225.868C144.65 223.622 145.025 221.406 145.476 219.195C146.01 216.596 146.59 214.006 146.766 211.362C146.995 207.876 146.614 204.391 145.529 201.019C145.201 199.998 141.8 200.77 142.129 201.791C143.149 204.963 143.571 208.245 143.377 211.526C143.231 213.957 142.744 216.347 142.24 218.742C141.736 221.137 141.284 223.493 141.196 225.908C141.149 227.242 141.179 228.577 141.232 229.911C141.278 231.136 141.155 232.366 142.351 233.238C144.444 234.767 147.634 234.737 150.225 234.732C153.35 234.727 156.627 234.557 159.612 233.716C160.831 233.372 164.12 232.317 163.253 230.738C162.825 229.951 161.576 229.543 160.69 229.254C159.747 228.945 158.767 228.691 157.788 228.487C157.038 228.328 156.282 228.223 155.514 228.154C155.168 228.124 154.822 228.099 154.476 228.079C154.341 228.069 154.2 228.064 154.065 228.049C154.312 228.074 154.106 228.069 153.995 228.029C153.714 227.934 154.153 228.168 153.942 228.009C154.118 228.144 153.907 227.984 153.872 227.949C153.708 227.78 153.901 228.074 153.807 227.875C153.766 227.795 153.749 227.705 153.737 227.616C153.737 227.606 153.796 227.322 153.848 227.173C153.919 226.978 153.989 226.854 154.095 226.685C155.302 224.703 157.595 223.169 158.404 221.008C158.638 220.375 157.349 220.33 156.932 220.375C156.246 220.445 155.238 220.734 155.003 221.366L154.998 221.346Z" fill="#E0A619"/>
<path d="M160.995 146.552C159.682 146.208 158.257 146.113 156.891 146.069C154.927 146.004 152.951 146.113 151.01 146.352C147.2 146.821 142.714 147.851 140.047 150.381C136.805 153.453 137.092 157.811 136.705 161.655C135.861 170.031 133.668 178.262 132.454 186.603C132.108 188.978 131.786 191.379 131.815 193.779C131.833 195.049 131.933 196.378 132.501 197.568C132.935 198.475 133.721 199.252 134.383 200.043C135.474 201.348 137.362 201.403 139.109 201.433C144.122 201.507 149.099 200.85 154.124 201.024C158.011 201.159 161.816 201.706 165.644 202.234C168.529 202.633 171.431 202.857 174.181 201.831C177.329 200.656 178.273 197.877 178.279 195.148C178.285 191.707 177.124 188.396 176.403 185.04C176.197 184.078 176.086 183.107 175.857 182.151C174.644 177.177 173.336 172.222 172.14 167.242C171.202 163.313 170.528 159.24 168.968 155.44C168.681 154.738 168.353 154.051 167.995 153.379C167.655 152.741 167.333 152.044 166.834 151.487C165.732 150.252 164.038 149.345 162.513 148.534C160.989 147.722 159.43 146.95 157.77 146.407L154.769 147.433C157.424 148.056 160.543 146.721 162.443 145.212C164.466 143.609 166.06 141.477 166.946 139.256C167.831 137.036 167.837 134.337 167.491 131.936C167.11 129.307 166.242 126.718 164.97 124.302C163.838 122.146 162.367 120.08 160.444 118.367C158.908 116.997 156.973 115.842 154.704 115.638C148.783 115.11 143.617 118.87 140.639 122.829C138.704 125.403 137.385 128.321 136.828 131.339C136.271 134.356 137.59 137.489 138.235 140.466C138.352 141.019 141.776 140.372 141.636 139.695C141.108 137.24 140.199 134.815 140.111 132.305C140.023 129.795 141.02 127.335 142.193 125.129C143.365 122.923 144.831 120.981 146.76 119.313C147.569 118.611 148.454 117.958 149.433 117.441C149.603 117.351 149.908 117.197 150.02 117.147C150.119 117.102 150.225 117.062 150.324 117.022C150.324 117.022 150.829 116.838 150.541 116.933C150.653 116.893 151.198 116.748 150.858 116.828C150.846 116.828 151.35 116.723 151.087 116.773C150.782 116.833 151.62 116.709 151.204 116.753C151.849 116.689 152.793 116.788 153.567 117.057C154.458 117.366 155.267 117.829 156.006 118.347C157.87 119.656 159.301 121.374 160.461 123.167C163.1 127.236 164.601 132.066 164.249 136.722C164.067 139.147 163.088 141.333 161.482 143.34C160.702 144.311 159.799 145.217 158.708 145.949C158.521 146.074 158.327 146.193 158.122 146.298C158.181 146.268 157.723 146.487 157.87 146.427C157.964 146.387 157.378 146.646 157.735 146.482C157.794 146.457 158.093 146.412 157.77 146.472C157.852 146.447 157.94 146.432 158.028 146.427C158.146 146.412 158.128 146.412 157.97 146.427C157.97 146.417 158.198 146.452 157.952 146.412C157.893 146.402 157.688 146.362 157.583 146.338C156.926 146.183 156 146.442 155.408 146.651C155.29 146.691 154.094 147.209 154.581 147.368C156.246 147.911 157.823 148.693 159.324 149.495C160.825 150.296 162.449 151.123 163.487 152.293C163.967 152.836 164.284 153.528 164.612 154.146C164.97 154.823 165.298 155.51 165.586 156.207C166.189 157.676 166.617 159.19 167.004 160.709C168.716 167.402 170.206 174.139 171.935 180.827C172.621 183.486 173.096 186.165 173.758 188.829C174.192 190.557 174.597 192.295 174.784 194.058C174.96 195.676 175.001 197.384 174.415 198.953C174.163 199.625 173.788 200.292 173.242 200.83C173.19 200.885 172.949 201.084 172.814 201.184C172.727 201.248 172.639 201.308 172.551 201.368C172.75 201.238 172.521 201.373 172.445 201.418C172.14 201.592 172.615 201.363 172.404 201.438C172.029 201.577 172.668 201.358 172.416 201.438C172.017 201.567 172.703 201.373 172.463 201.428C172.222 201.482 172.949 201.368 172.463 201.428C172.087 201.472 172.768 201.418 172.486 201.428C172.363 201.428 172.246 201.448 172.123 201.457C171.882 201.477 172.17 201.457 172.205 201.457C172.14 201.457 172.076 201.457 172.011 201.457C171.865 201.457 171.712 201.457 171.566 201.457C170.417 201.428 169.221 201.258 167.919 201.074C166.26 200.84 164.606 200.591 162.941 200.397C158.046 199.829 153.127 199.72 148.202 200.028C146.033 200.163 143.858 200.307 141.683 200.297C141.354 200.297 141.026 200.292 140.698 200.277C140.545 200.272 140.393 200.262 140.246 200.252C139.93 200.233 140.229 200.257 139.988 200.232C139.765 200.208 139.543 200.178 139.326 200.138C139.244 200.123 139.162 200.103 139.079 200.083C139.038 200.073 138.992 200.063 138.95 200.048C138.745 199.993 139.109 200.103 138.915 200.038C137.848 199.66 137.403 198.768 136.693 197.967C134.846 195.885 135.14 192.848 135.327 190.408C135.913 182.888 137.801 175.479 139.109 168.039C139.677 164.807 140.076 161.56 140.346 158.299C140.481 156.626 140.545 154.908 141.155 153.304C141.917 151.307 143.383 149.51 145.488 148.568C145.681 148.484 145.88 148.404 146.08 148.324C146.179 148.285 146.631 148.125 146.455 148.185C146.666 148.115 146.877 148.051 147.088 147.986C147.194 147.956 147.305 147.926 147.411 147.896C147.229 147.946 147.329 147.916 147.452 147.886C147.674 147.831 147.891 147.782 148.114 147.732C148.173 147.717 148.818 147.587 148.495 147.652C148.976 147.563 149.457 147.488 149.938 147.423C150.237 147.383 150.055 147.403 150.283 147.378C150.512 147.353 150.735 147.333 150.964 147.314C151.433 147.274 151.907 147.239 152.382 147.219C153.021 147.189 153.918 147.189 154.681 147.214C155.865 147.254 157.02 147.338 158.198 147.652C158.902 147.836 159.934 147.523 160.573 147.274C160.901 147.144 161.71 146.751 161.001 146.562L160.995 146.552Z" fill="#E0A619"/>
<path d="M165.234 153.19C163.528 150.346 151.075 155.739 154.44 158.787C163.633 167.098 170.71 170.365 169.76 168.074C166.213 159.544 168.265 158.239 165.234 153.19Z" fill="#FBF5EB"/>
<path d="M160.233 146.861C156.603 145.885 143.635 145.596 140.223 150.57C137.168 155.022 139.214 156.302 136.324 170.733C132.22 191.229 132.231 195.387 134.635 197.867C136.599 199.894 134.981 200.681 147.076 199.904C164.102 198.813 170.669 203.669 174.391 199.904C178.161 196.09 174.456 187.216 174.004 183.725C173.729 181.624 173.236 180.902 169.373 164.638C167.772 157.891 167.942 154.967 165.55 151.053C164.536 149.395 162.648 147.637 160.238 146.861" fill="#E0A619"/>
<path d="M160.18 187.046C158.691 184.875 157.876 181.593 159.289 180.727C160.567 179.94 163.932 180.961 164.999 182.749C165.586 183.73 165.375 184.765 166.283 185.184C166.793 185.418 167.262 185.298 168.242 185.099C171.026 184.536 174.316 183.954 173.776 186.269C173.682 186.673 173.284 186.971 172.809 187.026C171.689 187.156 169.684 187.435 169.76 187.778C169.883 188.361 170.815 188.963 170.845 190.368C170.845 190.527 170.868 191.403 170.358 191.807C168.957 192.927 162.889 191.005 160.18 187.051V187.046Z" fill="#E0A619"/>
<path d="M161.03 186.857C160.127 185.512 159.412 183.894 159.406 182.325C159.406 181.952 159.435 181.076 159.904 180.861C160.286 180.687 161.112 180.966 161.464 181.081C162.226 181.325 162.936 181.698 163.504 182.196C164.155 182.769 164.401 183.446 164.624 184.203C164.818 184.855 165.128 185.438 165.961 185.627C166.793 185.816 167.72 185.552 168.541 185.393C169.361 185.234 170.118 185.084 170.921 185.009C171.466 184.96 172.199 184.895 172.65 185.224C173.102 185.552 173.178 186.508 172.615 186.693C172.269 186.807 171.783 186.802 171.419 186.867C170.991 186.937 170.569 187.016 170.153 187.131C169.737 187.245 168.945 187.464 168.916 187.923C168.886 188.381 169.514 188.938 169.707 189.347C169.995 189.949 170.112 190.681 169.889 191.314C169.836 191.458 169.707 191.593 169.66 191.722C169.637 191.787 169.778 191.667 169.643 191.737C169.813 191.647 169.561 191.737 169.414 191.737C167.984 191.737 166.471 191.08 165.287 190.462C163.575 189.571 162.056 188.326 161.024 186.857C160.708 186.404 159.084 186.902 159.324 187.245C161.106 189.79 164.472 192.091 168.025 192.464C169.244 192.594 170.95 192.444 171.49 191.334C171.812 190.661 171.742 189.77 171.46 189.103C171.325 188.774 171.12 188.48 170.915 188.182C170.845 188.077 170.786 187.943 170.704 187.848C170.704 187.848 170.634 187.674 170.622 187.669C170.587 187.659 170.352 187.728 170.481 187.758C170.704 187.808 171.372 187.569 171.624 187.534C172.152 187.455 172.709 187.43 173.219 187.29C174.181 187.026 174.749 186.394 174.679 185.527C174.562 184.058 172.305 184.153 171.067 184.277C170.077 184.377 169.103 184.576 168.13 184.77C167.696 184.855 167.251 185.039 166.864 184.79C166.406 184.497 166.342 183.914 166.213 183.476C165.738 181.872 164.243 180.777 162.408 180.304C160.807 179.89 158.427 179.99 157.841 181.603C157.19 183.406 158.28 185.707 159.318 187.25C159.623 187.708 161.253 187.215 161.018 186.862L161.03 186.857Z" fill="#FBF5EB"/>
<path d="M156.832 174.801C159.212 177.266 163.527 178.671 163.662 179.711C163.979 182.146 160.619 184.796 157.834 184.696C155.636 184.616 149.802 176.141 149.163 174.612C147.686 171.077 146.677 167.461 146.285 160.485C145.997 155.411 144.221 152.771 146.038 151.257C147.281 150.222 149.832 149.779 151.731 150.61C157.629 153.205 148.8 166.485 156.832 174.801Z" fill="#E0A619"/>
<path d="M156.041 175.075C157.254 176.305 158.814 177.221 160.374 178.108C161.177 178.566 162.801 179.183 162.83 180.135C162.877 181.713 161.411 183.227 159.846 183.939C159.5 184.093 159.136 184.223 158.75 184.278C158.591 184.303 158.427 184.313 158.263 184.308C158.116 184.303 158.275 184.322 158.187 184.293C157.829 184.173 157.53 183.954 157.249 183.74C155.255 182.196 153.766 180.085 152.377 178.143C151.198 176.499 150.155 174.881 149.469 173.049C148.443 170.32 147.85 167.501 147.505 164.653C147.27 162.676 147.229 160.684 146.994 158.712C146.807 157.153 146.414 155.62 146.18 154.071C146.039 153.145 145.922 152.019 146.783 151.307C148.003 150.296 150.272 150.331 151.556 151.233C153.291 152.453 153.139 154.863 153.033 156.576C152.687 162.123 151.192 168.119 154.575 173.243C155.003 173.89 155.496 174.503 156.047 175.085C156.387 175.444 158.023 174.946 157.63 174.537C152.664 169.319 154.347 162.517 154.728 156.382C154.845 154.519 155.015 151.92 153.063 150.63C151.585 149.654 149.439 149.624 147.716 150.072C146.297 150.441 144.79 151.203 144.468 152.527C144.169 153.767 144.597 155.122 144.837 156.342C145.247 158.403 145.4 160.46 145.564 162.546C145.828 165.898 146.326 169.249 147.428 172.486C147.762 173.467 148.097 174.478 148.618 175.399C149.14 176.32 149.785 177.271 150.424 178.178C151.913 180.294 153.508 182.614 155.672 184.293C156.604 185.015 157.471 185.194 158.732 184.99C160.649 184.676 162.449 183.665 163.557 182.301C164.302 181.384 165.122 179.791 164.032 178.855C162.865 177.854 161.241 177.207 159.928 176.355C159.09 175.812 158.304 175.22 157.624 174.532C157.272 174.179 155.648 174.682 156.041 175.08V175.075Z" fill="#FBF5EB"/>
<path d="M164.307 181.638C163.692 182.779 162.566 183.77 161.452 184.457C161.511 184.422 161.346 184.522 161.329 184.532C161.264 184.572 161.2 184.606 161.135 184.641C160.989 184.726 160.836 184.806 160.678 184.88C161.006 184.716 160.279 185.035 160.537 184.94C160.737 184.865 160.485 184.955 160.443 184.97C160.144 185.06 160.35 184.94 160.473 184.97C160.449 184.965 160.238 185.01 160.227 185.025C160.297 184.95 160.567 184.965 160.238 185.02C160.203 185.025 159.922 185.069 160.121 185.04C160.32 185.01 160.033 185.05 159.998 185.05C159.887 185.06 159.769 185.065 159.652 185.074C159.582 185.074 159.447 185.084 159.593 185.079C159.353 185.089 159.107 185.079 158.866 185.079C158.069 185.06 157.143 185.259 156.463 185.627C156.316 185.707 156.005 185.866 156.064 186.045C156.123 186.225 156.509 186.235 156.656 186.24C159.083 186.309 161.686 185.876 163.733 184.716C165.327 183.81 166.846 182.639 167.661 181.136C167.913 180.672 166.494 180.842 166.306 180.877C165.867 180.951 165.415 181.051 165.011 181.22C164.776 181.32 164.424 181.439 164.313 181.653L164.307 181.638Z" fill="#E0A619"/>
<path d="M134.213 192.509C134.102 193.953 134.283 195.497 135.608 196.533C136.933 197.568 138.874 197.768 140.551 197.907C145.276 198.295 150.025 197.957 154.751 197.827C156.07 197.792 157.407 197.797 158.72 197.912C159.752 198.007 160.842 198.171 161.722 198.664C162.285 198.978 163.346 198.679 163.909 198.505C164.096 198.445 165.421 197.962 164.923 197.678C163.146 196.687 160.661 196.647 158.603 196.627C156.228 196.607 153.865 196.777 151.497 196.861C151.385 196.861 151.274 196.871 151.163 196.871C150.916 196.881 151.479 196.871 151.098 196.871C150.875 196.871 150.647 196.871 150.424 196.871C149.685 196.871 148.946 196.866 148.214 196.861C146.947 196.861 145.681 196.856 144.414 196.811C142.744 196.752 140.815 196.697 139.361 195.905C137.696 194.999 137.49 193.276 137.608 191.732C137.637 191.319 134.278 191.643 134.207 192.504L134.213 192.509Z" fill="#FBF5EB"/>
<path d="M167.479 202.867C168.429 208.444 169.256 214.126 167.614 219.668C167.297 220.744 166.94 221.74 166.307 222.716C165.527 223.921 164.653 225.086 164.014 226.351C163.586 227.207 163.158 228.413 164.09 229.15C165.093 229.941 166.963 229.697 168.218 229.911C169.238 230.086 170.282 230.335 171.19 230.628C171.736 230.803 172.398 231.027 172.832 231.301C172.879 231.331 173.225 231.639 173.172 231.57C173.213 231.619 173.236 231.714 173.242 231.774C173.236 231.58 173.26 231.749 173.213 231.819C173.119 231.953 173.319 231.654 173.225 231.804C173.201 231.844 173.014 232.028 173.16 231.893C173.307 231.759 173.102 231.928 173.066 231.958C172.943 232.043 173.201 231.878 173.195 231.883C173.143 231.913 173.09 231.948 173.031 231.978C172.967 232.008 172.638 232.167 172.85 232.073C173.061 231.978 172.726 232.117 172.668 232.142C172.55 232.187 172.427 232.227 172.31 232.267C171.923 232.396 172.498 232.227 172.081 232.332C170.522 232.725 169.15 232.879 167.35 232.994C166.33 233.059 165.31 233.073 164.29 233.064C163.692 233.064 163.1 233.044 162.502 233.024C162.314 233.019 162.126 233.009 161.939 232.999C161.886 232.999 161.839 232.994 161.786 232.989C161.429 232.969 161.991 233.014 161.763 232.989C160.596 232.849 159.289 232.63 158.474 231.829C157.946 231.316 157.981 230.663 157.952 230.016C157.911 229.095 157.876 228.178 157.864 227.257C157.846 225.888 157.905 224.518 158.069 223.154C158.427 220.251 159.218 217.407 159.681 214.519C160.238 211.048 160.297 207.508 159.605 204.052C159.4 203.026 159.13 202.015 158.808 201.014C158.485 200.013 155.079 200.765 155.407 201.786C156.633 205.591 156.955 209.515 156.48 213.439C156.111 216.496 155.267 219.489 154.798 222.537C154.581 223.946 154.469 225.365 154.452 226.789C154.44 227.621 154.452 228.452 154.481 229.284C154.51 230.16 154.376 231.201 154.68 232.038C155.149 233.327 156.738 233.955 158.145 234.308C159.822 234.732 161.628 234.732 163.363 234.732C167.039 234.732 171.237 234.582 174.579 233.128C175.447 232.75 176.66 232.107 176.643 231.161C176.625 230.111 174.919 229.558 173.963 229.249C172.902 228.901 171.8 228.622 170.686 228.408C169.689 228.218 168.681 228.134 167.667 228.064C167.579 228.059 167.139 227.999 167.467 228.054C167.368 228.039 167.25 227.999 167.157 227.999C167.25 227.999 167.338 228.099 167.204 227.999C167.221 228.014 167.315 228.104 167.239 228.024C167.209 227.994 167.028 227.835 167.086 227.91C166.488 227.088 167.608 225.619 168.071 224.892C168.845 223.697 169.76 222.541 170.346 221.267C171.313 219.17 171.741 216.755 171.911 214.524C172.146 211.452 171.823 208.359 171.384 205.312C171.231 204.241 171.055 203.176 170.874 202.105C170.704 201.119 167.291 201.786 167.473 202.877L167.479 202.867Z" fill="#E0A619"/>
<path d="M157.852 228.637C157.857 229.822 157.887 229.767 157.875 230.703C157.846 233.039 159.487 232.531 160.742 232.81C167.367 234.274 161.938 229.269 161.774 229.209C158.842 228.154 157.84 228.174 157.846 228.637H157.852Z" fill="#FBF5EB"/>
<path d="M55.6908 72.2353C52.6128 62.2909 49.5114 52.3514 46.3571 42.4269C44.3696 36.1775 42.3645 29.928 40.3887 23.6735C38.9347 19.0623 37.4983 14.4512 36.0678 9.83501C35.7805 8.89883 32.3741 9.66072 32.6673 10.6069C34.9597 18.0116 37.2814 25.4064 39.6383 32.7963C41.8603 39.7628 44.0823 46.7244 46.2692 53.7009C48.2919 60.1347 50.2911 66.5734 52.2845 73.0121C52.5718 73.9483 55.9781 73.1864 55.685 72.2402L55.6908 72.2353Z" fill="#E0A619"/>
<path d="M79.7231 71.7222C76.6451 61.7778 73.5436 51.8384 70.3894 41.9139C68.4018 35.6644 66.3967 29.4149 64.4209 23.1604C62.9669 18.5493 61.5305 13.9381 60.1 9.32193C59.8127 8.38576 56.4064 9.14765 56.6995 10.0938C58.9919 17.4986 61.3136 24.8934 63.6705 32.2832C65.8925 39.2498 68.1146 46.2113 70.3014 53.1878C72.3241 59.6216 74.3233 66.0603 76.3167 72.499C76.604 73.4352 80.0103 72.6733 79.7172 71.7272L79.7231 71.7222Z" fill="#E0A619"/>
<path d="M104.044 71.5182C100.936 61.4792 97.7996 51.4451 94.6102 41.426C92.5757 35.0222 90.512 28.6283 88.4893 22.2194C87.0236 17.5734 85.5696 12.9274 84.1332 8.27637C83.8459 7.34019 80.4396 8.10208 80.7327 9.04822C83.0544 16.5476 85.4113 24.037 87.8034 31.5215C90.0782 38.6374 92.353 45.7534 94.5926 52.8743C96.627 59.3429 98.638 65.8165 100.643 72.29C100.93 73.2262 104.337 72.4643 104.044 71.5182Z" fill="#E0A619"/>
<path d="M125.465 70.781C122.364 60.7669 119.239 50.7528 116.067 40.7536C114.044 34.3846 112.004 28.0206 109.993 21.6516C108.533 17.0155 107.085 12.3745 105.649 7.73343C105.362 6.79726 101.955 7.55915 102.248 8.50528C104.564 15.9798 106.909 23.4493 109.29 30.9138C111.67 38.3783 113.804 45.076 116.026 52.167C118.055 58.6257 120.066 65.0893 122.065 71.5579C122.352 72.494 125.759 71.7322 125.465 70.786V70.781Z" fill="#E0A619"/>
<path d="M149.621 71.2192C146.484 61.1006 143.318 50.9868 140.076 40.8931C137.977 34.3697 135.849 27.8513 133.774 21.318C132.284 16.647 130.824 11.9711 129.376 7.29024C129.089 6.35406 125.683 7.11595 125.976 8.06209C128.327 15.6411 130.719 23.2102 133.164 30.7694C135.609 38.3285 137.842 45.2453 140.135 52.4907C142.187 58.9842 144.215 65.4876 146.232 71.9911C146.519 72.9273 149.926 72.1654 149.633 71.2192H149.621Z" fill="#E0A619"/>
<path d="M173.301 68.9087C170.223 58.9643 167.122 49.0248 163.967 39.1004C161.98 32.8509 159.975 26.6014 157.999 20.3469C156.545 15.7358 155.109 11.1246 153.678 6.50843C153.391 5.57225 149.984 6.33414 150.278 7.28028C152.57 14.685 154.892 22.0799 157.249 29.4697C159.471 36.4362 161.693 43.3978 163.88 50.3743C165.902 56.8081 167.901 63.2468 169.895 69.6855C170.182 70.6217 173.588 69.8598 173.295 68.9137L173.301 68.9087Z" fill="#E0A619"/>
<path d="M195.345 70.054C192.226 59.9801 189.113 49.9013 186.011 39.8224C184.024 33.3488 182.042 26.8753 180.043 20.4017C178.607 15.7358 177.164 11.0748 175.722 6.40883C175.435 5.47266 172.028 6.23455 172.322 7.18068C174.655 14.7149 176.977 22.2492 179.293 29.7884C181.497 36.979 183.707 44.1697 185.923 51.3603C187.923 57.8488 189.934 64.3373 191.939 70.8258C192.226 71.762 195.632 71.0001 195.339 70.054H195.345Z" fill="#E0A619"/>
<path d="M220.62 70.3478C217.472 60.1843 214.259 50.0358 210.911 39.9171C208.73 33.334 206.497 26.7708 204.351 20.1777C202.826 15.4968 201.349 10.8109 199.889 6.11509C199.602 5.17891 196.195 5.9408 196.489 6.88694C198.851 14.5108 201.302 22.1148 203.841 29.6988C206.28 36.989 208.719 44.2743 211.07 51.5844C213.163 58.0879 215.203 64.6013 217.226 71.1197C217.513 72.0559 220.919 71.294 220.626 70.3478H220.62Z" fill="#E0A619"/>
<path d="M244.342 69.7551C241.205 59.6215 238.045 49.4929 234.855 39.3692C232.786 32.816 230.704 26.2627 228.647 19.7045C227.175 15.0236 225.721 10.3427 224.267 5.65683C223.98 4.72066 220.573 5.48255 220.867 6.42868C223.218 14.0227 225.592 21.6117 227.996 29.1908C230.4 36.7698 232.598 43.7314 234.873 51.0067C236.907 57.5101 238.93 64.0186 240.947 70.527C241.234 71.4632 244.641 70.7013 244.347 69.7551H244.342Z" fill="#E0A619"/>
<path d="M268.578 69.7553C265.541 59.9603 262.481 50.1702 259.338 40.4001C257.404 34.3847 255.44 28.3792 253.522 22.3638C252.074 17.8123 250.65 13.251 249.237 8.6896C248.949 7.75342 245.543 8.51531 245.836 9.46144C248.082 16.7168 250.374 23.9622 252.713 31.1977C254.889 37.9252 257.07 44.6478 259.198 51.3853C261.215 57.7642 263.202 64.1482 265.184 70.5321C265.471 71.4683 268.877 70.7064 268.584 69.7603L268.578 69.7553Z" fill="#E0A619"/>
<path d="M112.755 271.626C112.492 272.323 111.811 273.08 111.254 273.732C110.528 274.574 109.759 275.391 109.097 276.267C108.593 276.939 108.018 277.741 108.089 278.573C108.159 279.404 108.991 279.763 109.83 279.902C110.997 280.096 112.181 280.072 113.348 280.311C114.121 280.47 114.913 280.664 115.605 280.883C116.074 281.033 116.549 281.197 116.988 281.406C117.299 281.555 117.598 281.77 117.692 281.914C117.715 281.944 117.727 282.024 117.727 282.053C117.721 281.829 117.715 281.994 117.71 282.049C117.71 282.068 117.692 282.128 117.674 282.148C117.897 281.849 117.668 282.133 117.668 282.133C117.645 282.133 117.604 282.213 117.581 282.233C117.88 282.009 117.604 282.163 117.581 282.218C117.51 282.342 117.592 282.218 117.674 282.168C117.563 282.233 117.446 282.288 117.334 282.352C117.112 282.482 117.375 282.337 117.422 282.317C117.311 282.362 117.205 282.407 117.094 282.447C116.983 282.487 116.343 282.676 116.777 282.561C116.209 282.716 115.634 282.84 115.048 282.945C115.312 282.9 115.001 282.95 114.966 282.955C114.778 282.985 114.585 283.01 114.397 283.034C114.057 283.079 113.723 283.119 113.383 283.154C112.621 283.229 111.847 283.288 111.079 283.318C109.449 283.383 107.784 283.398 106.16 283.268C106.523 283.298 105.872 283.229 105.79 283.219C105.55 283.184 105.315 283.139 105.081 283.089C104.583 282.985 104.131 282.84 103.662 282.611C102.478 282.034 102.466 281.132 102.419 280.077C102.361 278.767 102.314 277.457 102.349 276.148C102.407 273.902 102.783 271.686 103.234 269.475C103.768 266.875 104.348 264.286 104.524 261.642C104.753 258.156 104.371 254.67 103.287 251.299C102.959 250.278 99.558 251.05 99.8864 252.071C100.907 255.243 101.329 258.525 101.135 261.806C100.989 264.236 100.502 266.626 99.9978 269.022C99.4935 271.417 99.0421 273.772 98.9542 276.187C98.9073 277.522 98.9366 278.857 98.9893 280.191C99.0362 281.416 98.9131 282.646 100.109 283.517C102.202 285.046 105.392 285.016 107.983 285.011C111.108 285.006 114.385 284.837 117.369 283.996C118.589 283.652 121.878 282.596 121.01 281.018C120.582 280.231 119.334 279.823 118.448 279.534C117.504 279.225 116.525 278.971 115.546 278.767C114.796 278.608 114.039 278.503 113.271 278.433C112.925 278.403 112.58 278.378 112.234 278.359C112.099 278.349 111.958 278.344 111.823 278.329C112.069 278.354 111.864 278.349 111.753 278.309C111.471 278.214 111.911 278.448 111.7 278.289C111.876 278.423 111.665 278.264 111.63 278.229C111.466 278.06 111.659 278.354 111.565 278.154C111.524 278.075 111.507 277.985 111.495 277.895C111.495 277.885 111.554 277.602 111.606 277.452C111.677 277.258 111.747 277.134 111.853 276.964C113.06 274.982 115.353 273.449 116.162 271.287C116.396 270.655 115.106 270.61 114.69 270.655C114.004 270.725 112.996 271.014 112.761 271.646L112.755 271.626Z" fill="#E0A619"/>
<path d="M118.753 196.831C117.439 196.488 116.015 196.393 114.649 196.348C112.685 196.284 110.709 196.393 108.768 196.632C104.957 197.1 100.472 198.131 97.8046 200.661C94.5625 203.733 94.8497 208.09 94.4628 211.935C93.6185 220.311 91.4258 228.542 90.2122 236.883C89.8663 239.258 89.5438 241.658 89.5731 244.059C89.5907 245.328 89.6904 246.658 90.2591 247.848C90.693 248.754 91.4786 249.531 92.1411 250.323C93.2316 251.628 95.1194 251.682 96.8666 251.712C101.879 251.787 106.857 251.13 111.881 251.304C115.769 251.438 119.574 251.986 123.402 252.514C126.287 252.912 129.189 253.137 131.938 252.111C135.087 250.936 136.031 248.157 136.037 245.428C136.042 241.987 134.882 238.676 134.16 235.319C133.955 234.358 133.844 233.387 133.615 232.431C132.402 227.456 131.094 222.502 129.898 217.522C128.96 213.593 128.286 209.52 126.726 205.72C126.439 205.018 126.111 204.331 125.753 203.659C125.413 203.021 125.091 202.324 124.592 201.766C123.49 200.531 121.796 199.625 120.271 198.813C118.747 198.002 117.187 197.23 115.528 196.687L112.526 197.713C115.182 198.335 118.301 197.001 120.201 195.492C122.224 193.888 123.818 191.757 124.704 189.536C125.589 187.315 125.595 184.616 125.249 182.216C124.868 179.587 124 176.997 122.728 174.582C121.596 172.426 120.125 170.359 118.202 168.646C116.666 167.277 114.731 166.122 112.462 165.918C106.54 165.39 101.375 169.149 98.3968 173.108C96.462 175.683 95.1429 178.601 94.5859 181.619C94.0289 184.636 95.3481 187.768 95.993 190.746C96.1103 191.299 99.5342 190.652 99.3935 189.974C98.8658 187.519 97.9571 185.094 97.8691 182.585C97.7812 180.075 98.7779 177.615 99.9505 175.409C101.123 173.203 102.589 171.261 104.518 169.593C105.327 168.89 106.212 168.238 107.191 167.72C107.361 167.631 107.666 167.476 107.777 167.426C107.877 167.382 107.983 167.342 108.082 167.302C108.082 167.302 108.586 167.118 108.299 167.212C108.411 167.173 108.956 167.028 108.616 167.108C108.604 167.108 109.108 167.003 108.844 167.053C108.54 167.113 109.378 166.988 108.962 167.033C109.607 166.968 110.551 167.068 111.324 167.337C112.216 167.646 113.025 168.109 113.763 168.627C115.628 169.936 117.058 171.654 118.219 173.447C120.858 177.515 122.358 182.346 122.007 187.002C121.825 189.427 120.846 191.613 119.239 193.62C118.46 194.591 117.557 195.497 116.466 196.229C116.279 196.353 116.085 196.473 115.88 196.577C115.939 196.548 115.481 196.767 115.628 196.707C115.722 196.667 115.135 196.926 115.493 196.762C115.552 196.737 115.851 196.692 115.528 196.752C115.61 196.727 115.698 196.712 115.786 196.707C115.903 196.692 115.886 196.692 115.727 196.707C115.727 196.697 115.956 196.732 115.71 196.692C115.651 196.682 115.446 196.642 115.341 196.617C114.684 196.463 113.758 196.722 113.165 196.931C113.048 196.971 111.852 197.489 112.339 197.648C114.004 198.191 115.581 198.973 117.082 199.774C118.583 200.576 120.207 201.403 121.244 202.573C121.725 203.116 122.042 203.808 122.37 204.425C122.728 205.103 123.056 205.79 123.343 206.487C123.947 207.956 124.375 209.47 124.762 210.989C126.474 217.681 127.963 224.419 129.693 231.106C130.379 233.766 130.854 236.445 131.516 239.109C131.95 240.837 132.355 242.575 132.542 244.337C132.718 245.956 132.759 247.664 132.173 249.232C131.921 249.905 131.546 250.572 131 251.11C130.948 251.165 130.707 251.364 130.572 251.463C130.484 251.528 130.396 251.588 130.308 251.648C130.508 251.518 130.279 251.653 130.203 251.697C129.898 251.872 130.373 251.643 130.162 251.717C129.787 251.857 130.426 251.638 130.174 251.717C129.775 251.847 130.461 251.653 130.221 251.707C129.98 251.762 130.707 251.648 130.221 251.707C129.845 251.752 130.525 251.697 130.244 251.707C130.121 251.707 130.004 251.727 129.88 251.737C129.64 251.757 129.927 251.737 129.963 251.737C129.898 251.737 129.834 251.737 129.769 251.737C129.623 251.737 129.47 251.737 129.324 251.737C128.174 251.707 126.978 251.538 125.677 251.354C124.018 251.12 122.364 250.871 120.699 250.677C115.804 250.109 110.885 249.999 105.96 250.308C103.791 250.443 101.616 250.587 99.4404 250.577C99.1121 250.577 98.7837 250.572 98.4554 250.557C98.303 250.552 98.1506 250.542 98.004 250.532C97.6874 250.512 97.9864 250.537 97.746 250.512C97.5232 250.487 97.3004 250.457 97.0835 250.418C97.0014 250.403 96.9193 250.383 96.8373 250.363C96.7962 250.353 96.7493 250.343 96.7083 250.328C96.5031 250.273 96.8666 250.383 96.6731 250.318C95.6061 249.94 95.1605 249.048 94.4511 248.246C92.6043 246.165 92.8974 243.127 93.085 240.687C93.6713 233.168 95.5592 225.758 96.8666 218.319C97.4353 215.087 97.834 211.84 98.1036 208.578C98.2385 206.905 98.303 205.187 98.9127 203.584C99.6749 201.587 101.141 199.789 103.245 198.848C103.439 198.764 103.638 198.684 103.838 198.604C103.937 198.564 104.389 198.405 104.213 198.465C104.424 198.395 104.635 198.33 104.846 198.266C104.951 198.236 105.063 198.206 105.168 198.176C104.987 198.226 105.086 198.196 105.209 198.166C105.432 198.111 105.649 198.061 105.872 198.012C105.931 197.997 106.576 197.867 106.253 197.932C106.734 197.842 107.215 197.768 107.695 197.703C107.994 197.663 107.813 197.683 108.041 197.658C108.27 197.633 108.493 197.613 108.721 197.593C109.19 197.553 109.665 197.519 110.14 197.499C110.779 197.469 111.676 197.469 112.438 197.494C113.623 197.534 114.778 197.618 115.956 197.932C116.66 198.116 117.692 197.802 118.331 197.553C118.659 197.424 119.468 197.031 118.759 196.841L118.753 196.831Z" fill="#E0A619"/>
<path d="M122.998 203.469C121.292 200.626 108.839 206.019 112.204 209.066C121.397 217.378 128.474 220.644 127.524 218.354C123.977 209.823 126.029 208.519 122.998 203.469Z" fill="#FBF5EB"/>
<path d="M117.99 197.145C114.361 196.169 101.393 195.88 97.9803 200.855C94.9258 205.307 96.9719 206.586 94.0815 221.018C89.9775 241.514 89.9892 245.672 92.393 248.152C94.3571 250.178 92.7389 250.965 104.834 250.188C121.86 249.098 128.426 253.953 132.149 250.188C135.919 246.374 132.214 237.5 131.762 234.009C131.487 231.908 130.994 231.186 127.131 214.922C125.53 208.175 125.7 205.252 123.308 201.338C122.294 199.68 120.406 197.922 117.996 197.145" fill="#E0A619"/>
<path d="M117.938 237.331C116.449 235.16 115.634 231.878 117.047 231.012C118.325 230.225 121.69 231.246 122.757 233.033C123.344 234.014 123.132 235.05 124.041 235.469C124.551 235.703 125.02 235.583 125.999 235.384C128.784 234.821 132.073 234.239 131.534 236.554C131.44 236.957 131.041 237.256 130.567 237.311C129.447 237.44 127.442 237.719 127.518 238.063C127.641 238.646 128.573 239.248 128.603 240.652C128.603 240.812 128.626 241.688 128.116 242.091C126.715 243.212 120.647 241.29 117.938 237.336V237.331Z" fill="#E0A619"/>
<path d="M118.788 237.137C117.885 235.792 117.17 234.174 117.164 232.605C117.164 232.232 117.193 231.355 117.662 231.141C118.043 230.967 118.87 231.246 119.222 231.36C119.984 231.604 120.693 231.978 121.262 232.476C121.913 233.048 122.159 233.726 122.382 234.483C122.575 235.135 122.886 235.718 123.719 235.907C124.551 236.096 125.478 235.832 126.298 235.673C127.119 235.513 127.875 235.364 128.679 235.289C129.224 235.239 129.957 235.175 130.408 235.503C130.86 235.832 130.936 236.788 130.373 236.972C130.027 237.087 129.541 237.082 129.177 237.147C128.749 237.216 128.327 237.296 127.911 237.411C127.494 237.525 126.703 237.744 126.674 238.202C126.644 238.66 127.272 239.218 127.465 239.627C127.752 240.229 127.87 240.961 127.647 241.594C127.594 241.738 127.465 241.872 127.418 242.002C127.395 242.067 127.535 241.947 127.401 242.017C127.571 241.927 127.318 242.017 127.172 242.017C125.741 242.017 124.229 241.359 123.044 240.742C121.332 239.851 119.814 238.606 118.782 237.137C118.466 236.684 116.842 237.182 117.082 237.525C118.864 240.07 122.23 242.37 125.782 242.744C127.002 242.873 128.708 242.724 129.247 241.613C129.57 240.941 129.499 240.05 129.218 239.383C129.083 239.054 128.878 238.76 128.673 238.461C128.602 238.357 128.544 238.222 128.462 238.128C128.462 238.128 128.391 237.953 128.38 237.948C128.344 237.938 128.11 238.008 128.239 238.038C128.462 238.088 129.13 237.849 129.382 237.814C129.91 237.734 130.467 237.709 130.977 237.57C131.938 237.306 132.507 236.674 132.437 235.807C132.32 234.338 130.062 234.433 128.825 234.557C127.834 234.657 126.861 234.856 125.888 235.05C125.454 235.135 125.009 235.319 124.622 235.07C124.164 234.776 124.1 234.194 123.971 233.756C123.496 232.152 122.001 231.057 120.166 230.583C118.565 230.17 116.185 230.27 115.599 231.883C114.948 233.686 116.038 235.986 117.076 237.53C117.381 237.988 119.011 237.495 118.776 237.142L118.788 237.137Z" fill="#FBF5EB"/>
<path d="M114.59 225.081C116.97 227.546 121.285 228.95 121.42 229.991C121.737 232.426 118.377 235.075 115.592 234.976C113.394 234.896 107.56 226.421 106.921 224.892C105.444 221.356 104.435 217.741 104.042 210.765C103.755 205.69 101.979 203.051 103.796 201.537C105.039 200.501 107.589 200.058 109.489 200.89C115.387 203.484 106.558 216.765 114.59 225.081Z" fill="#E0A619"/>
<path d="M113.799 225.355C115.012 226.585 116.572 227.501 118.131 228.388C118.935 228.846 120.559 229.463 120.588 230.414C120.635 231.993 119.169 233.507 117.604 234.219C117.258 234.373 116.894 234.503 116.507 234.557C116.349 234.582 116.185 234.592 116.021 234.587C115.874 234.582 116.032 234.602 115.945 234.572C115.587 234.453 115.288 234.234 115.006 234.02C113.013 232.476 111.524 230.364 110.134 228.422C108.956 226.779 107.912 225.161 107.226 223.328C106.2 220.599 105.608 217.781 105.262 214.932C105.028 212.956 104.987 210.964 104.752 208.992C104.565 207.433 104.172 205.899 103.937 204.351C103.797 203.424 103.679 202.299 104.541 201.587C105.761 200.576 108.03 200.611 109.314 201.512C111.049 202.732 110.897 205.142 110.791 206.855C110.445 212.403 108.95 218.398 112.333 223.522C112.761 224.17 113.253 224.782 113.805 225.365C114.145 225.723 115.78 225.225 115.388 224.817C110.422 219.598 112.104 212.796 112.485 206.661C112.603 204.799 112.773 202.199 110.82 200.91C109.343 199.934 107.197 199.904 105.473 200.352C104.055 200.721 102.548 201.482 102.225 202.807C101.926 204.047 102.354 205.401 102.595 206.621C103.005 208.683 103.158 210.74 103.322 212.826C103.586 216.177 104.084 219.529 105.186 222.766C105.52 223.747 105.854 224.757 106.376 225.679C106.898 226.6 107.543 227.551 108.182 228.457C109.671 230.574 111.266 232.894 113.429 234.572C114.362 235.294 115.229 235.474 116.49 235.269C118.407 234.956 120.207 233.945 121.315 232.58C122.06 231.664 122.88 230.071 121.79 229.135C120.623 228.134 118.999 227.486 117.686 226.635C116.847 226.092 116.062 225.499 115.382 224.812C115.03 224.459 113.406 224.962 113.799 225.36V225.355Z" fill="#FBF5EB"/>
<path d="M122.065 231.918C121.449 233.059 120.324 234.05 119.21 234.737C119.268 234.702 119.104 234.801 119.087 234.811C119.022 234.851 118.958 234.886 118.893 234.921C118.747 235.006 118.594 235.085 118.436 235.16C118.764 234.996 118.037 235.314 118.295 235.22C118.494 235.145 118.242 235.235 118.201 235.25C117.902 235.339 118.107 235.22 118.231 235.25C118.207 235.245 117.996 235.289 117.984 235.304C118.055 235.23 118.324 235.245 117.996 235.299C117.961 235.304 117.68 235.349 117.879 235.319C118.078 235.289 117.791 235.329 117.756 235.329C117.644 235.339 117.527 235.344 117.41 235.354C117.339 235.354 117.205 235.364 117.351 235.359C117.111 235.369 116.865 235.359 116.624 235.359C115.827 235.339 114.901 235.538 114.22 235.907C114.074 235.987 113.763 236.146 113.822 236.325C113.88 236.504 114.267 236.514 114.414 236.519C116.841 236.589 119.444 236.156 121.49 234.996C123.085 234.089 124.604 232.919 125.419 231.415C125.671 230.952 124.252 231.121 124.064 231.156C123.624 231.231 123.173 231.331 122.768 231.5C122.534 231.6 122.182 231.719 122.071 231.933L122.065 231.918Z" fill="#E0A619"/>
<path d="M91.9709 242.789C91.8595 244.233 92.0412 245.777 93.3662 246.812C94.6912 247.848 96.6319 248.047 98.3086 248.187C103.034 248.575 107.783 248.237 112.509 248.107C113.828 248.072 115.164 248.077 116.478 248.192C117.51 248.286 118.6 248.451 119.48 248.944C120.042 249.257 121.104 248.959 121.666 248.784C121.854 248.725 123.179 248.242 122.681 247.958C120.904 246.967 118.418 246.927 116.36 246.907C113.986 246.887 111.623 247.056 109.255 247.141C109.143 247.141 109.032 247.151 108.92 247.151C108.674 247.161 109.237 247.151 108.856 247.151C108.633 247.151 108.405 247.151 108.182 247.151C107.443 247.151 106.704 247.146 105.971 247.141C104.705 247.141 103.439 247.136 102.172 247.091C100.501 247.031 98.5725 246.977 97.1185 246.185C95.4534 245.279 95.2482 243.556 95.3655 242.012C95.3948 241.599 92.0354 241.922 91.965 242.784L91.9709 242.789Z" fill="#FBF5EB"/>
<path d="M125.237 253.147C126.187 258.724 127.013 264.406 125.372 269.948C125.055 271.024 124.698 272.019 124.064 272.995C123.285 274.201 122.411 275.366 121.772 276.631C121.344 277.487 120.916 278.692 121.848 279.429C122.851 280.221 124.721 279.977 125.976 280.191C126.996 280.365 128.039 280.614 128.948 280.908C129.493 281.082 130.156 281.307 130.59 281.58C130.637 281.61 130.983 281.919 130.93 281.849C130.971 281.899 130.994 281.994 131 282.054C130.994 281.859 131.018 282.029 130.971 282.098C130.877 282.233 131.076 281.934 130.983 282.083C130.959 282.123 130.771 282.307 130.918 282.173C131.065 282.039 130.859 282.208 130.824 282.238C130.701 282.322 130.959 282.158 130.953 282.163C130.9 282.193 130.848 282.228 130.789 282.258C130.725 282.288 130.396 282.447 130.607 282.352C130.818 282.258 130.484 282.397 130.426 282.422C130.308 282.467 130.185 282.507 130.068 282.547C129.681 282.676 130.256 282.507 129.839 282.611C128.28 283.005 126.908 283.159 125.108 283.274C124.088 283.338 123.068 283.353 122.047 283.343C121.449 283.343 120.857 283.323 120.259 283.303C120.072 283.298 119.884 283.288 119.696 283.279C119.644 283.279 119.597 283.274 119.544 283.269C119.186 283.249 119.749 283.293 119.521 283.269C118.354 283.129 117.046 282.91 116.232 282.108C115.704 281.595 115.739 280.943 115.71 280.296C115.669 279.374 115.634 278.458 115.622 277.537C115.604 276.168 115.663 274.798 115.827 273.434C116.185 270.531 116.976 267.687 117.439 264.799C117.996 261.328 118.055 257.788 117.363 254.332C117.158 253.306 116.888 252.295 116.566 251.294C116.243 250.293 112.837 251.045 113.165 252.066C114.391 255.87 114.713 259.794 114.238 263.718C113.869 266.776 113.025 269.769 112.555 272.816C112.339 274.225 112.227 275.645 112.21 277.069C112.198 277.9 112.21 278.732 112.239 279.564C112.268 280.44 112.133 281.481 112.438 282.317C112.907 283.607 114.496 284.235 115.903 284.588C117.58 285.011 119.386 285.011 121.121 285.011C124.797 285.011 128.995 284.862 132.337 283.408C133.205 283.03 134.418 282.387 134.401 281.441C134.383 280.39 132.677 279.838 131.721 279.529C130.66 279.18 129.558 278.901 128.444 278.687C127.447 278.498 126.439 278.413 125.425 278.344C125.337 278.339 124.897 278.279 125.225 278.334C125.126 278.319 125.008 278.279 124.914 278.279C125.008 278.279 125.096 278.379 124.961 278.279C124.979 278.294 125.073 278.384 124.997 278.304C124.967 278.274 124.785 278.115 124.844 278.189C124.246 277.368 125.366 275.899 125.829 275.172C126.603 273.977 127.518 272.821 128.104 271.546C129.071 269.45 129.499 267.035 129.669 264.804C129.904 261.732 129.581 258.639 129.142 255.592C128.989 254.521 128.813 253.455 128.632 252.385C128.461 251.399 125.049 252.066 125.231 253.157L125.237 253.147Z" fill="#E0A619"/>
<path d="M115.609 278.916C115.615 280.102 115.645 280.047 115.633 280.983C115.604 283.318 117.245 282.811 118.5 283.089C125.125 284.553 119.696 279.549 119.532 279.489C116.6 278.433 115.598 278.453 115.604 278.916H115.609Z" fill="#FBF5EB"/>
<path d="M66.2144 312.38C65.9506 313.077 65.2705 313.834 64.7135 314.486C63.9865 315.328 63.2184 316.144 62.5559 317.021C62.0517 317.693 61.4772 318.495 61.5475 319.326C61.6179 320.158 62.4504 320.517 63.2888 320.656C64.4555 320.85 65.6398 320.825 66.8065 321.064C67.5804 321.224 68.3719 321.418 69.0637 321.637C69.5328 321.786 70.0077 321.951 70.4474 322.16C70.7581 322.309 71.0571 322.523 71.1509 322.668C71.1744 322.698 71.1861 322.777 71.1861 322.807C71.1802 322.583 71.1744 322.747 71.1685 322.802C71.1685 322.822 71.1509 322.882 71.1333 322.902C71.3561 322.603 71.1275 322.887 71.1275 322.887C71.104 322.887 71.063 322.967 71.0395 322.986C71.3385 322.762 71.063 322.917 71.0395 322.971C70.9692 323.096 71.0513 322.971 71.1333 322.922C71.022 322.986 70.9047 323.041 70.7933 323.106C70.5705 323.235 70.8343 323.091 70.8812 323.071C70.7698 323.116 70.6643 323.161 70.5529 323.201C70.4415 323.24 69.8025 323.43 70.2363 323.315C69.6676 323.469 69.0931 323.594 68.5068 323.699C68.7706 323.654 68.4599 323.704 68.4247 323.708C68.2371 323.738 68.0436 323.763 67.856 323.788C67.5159 323.833 67.1818 323.873 66.8417 323.908C66.0795 323.982 65.3056 324.042 64.5376 324.072C62.9077 324.137 61.2427 324.152 59.6186 324.022C59.9821 324.052 59.3314 323.982 59.2493 323.972C59.0089 323.938 58.7744 323.893 58.5399 323.843C58.0415 323.738 57.5901 323.594 57.121 323.365C55.9367 322.787 55.925 321.886 55.8781 320.83C55.8195 319.521 55.7726 318.211 55.8078 316.901C55.8664 314.655 56.2416 312.439 56.6931 310.229C57.2266 307.629 57.807 305.04 57.9829 302.396C58.2115 298.91 57.8305 295.424 56.7458 292.053C56.4175 291.032 53.017 291.804 53.3453 292.825C54.3655 295.997 54.7876 299.278 54.5941 302.56C54.4476 304.99 53.961 307.38 53.4567 309.775C52.9525 312.171 52.5011 314.526 52.4131 316.941C52.3662 318.276 52.3956 319.61 52.4483 320.945C52.4952 322.17 52.3721 323.4 53.5681 324.271C55.6612 325.8 58.8506 325.77 61.442 325.765C64.5669 325.76 67.8443 325.591 70.8285 324.749C72.048 324.406 75.337 323.35 74.4693 321.771C74.0413 320.985 72.7925 320.576 71.9072 320.287C70.9633 319.979 69.9842 319.725 69.0051 319.521C68.2547 319.361 67.4984 319.257 66.7303 319.187C66.3844 319.157 66.0385 319.132 65.6926 319.112C65.5577 319.102 65.417 319.097 65.2822 319.082C65.5284 319.107 65.3232 319.102 65.2118 319.062C64.9304 318.968 65.3701 319.202 65.1591 319.043C65.3349 319.177 65.1239 319.018 65.0887 318.983C64.9245 318.813 65.118 319.107 65.0242 318.908C64.9832 318.828 64.9656 318.739 64.9539 318.649C64.9539 318.639 65.0125 318.355 65.0653 318.206C65.1356 318.012 65.206 317.887 65.3115 317.718C66.5193 315.736 68.8116 314.202 69.6207 312.041C69.8552 311.409 68.5654 311.364 68.1491 311.409C67.4632 311.478 66.4548 311.767 66.2202 312.4L66.2144 312.38Z" fill="#E0A619"/>
<path d="M72.2185 237.585C70.9053 237.241 69.4806 237.147 68.1145 237.102C66.1505 237.037 64.1747 237.147 62.2341 237.386C58.4232 237.854 53.9381 238.885 51.2705 241.414C48.0283 244.487 48.3156 248.844 47.9286 252.688C47.0844 261.064 44.8916 269.296 43.678 277.636C43.3321 280.012 43.0097 282.412 43.039 284.812C43.0566 286.082 43.1562 287.412 43.7249 288.602C44.1588 289.508 44.9444 290.285 45.6069 291.077C46.6974 292.381 48.5853 292.436 50.3324 292.466C55.3452 292.541 60.3228 291.883 65.3472 292.058C69.2343 292.192 73.0394 292.74 76.8678 293.268C79.7524 293.666 82.6545 293.89 85.4042 292.864C88.5525 291.689 89.4965 288.91 89.5023 286.182C89.5082 282.741 88.3474 279.429 87.6262 276.073C87.421 275.112 87.3096 274.141 87.081 273.185C85.8673 268.21 84.5599 263.255 83.3639 258.276C82.4258 254.347 81.7516 250.273 80.1921 246.474C79.9048 245.772 79.5765 245.084 79.2188 244.412C78.8788 243.775 78.5563 243.078 78.058 242.52C76.9558 241.285 75.2614 240.379 73.737 239.567C72.2127 238.755 70.6532 237.983 68.994 237.441L65.9922 238.466C68.6481 239.089 71.7671 237.754 73.6667 236.245C75.6894 234.642 77.2841 232.511 78.1694 230.29C79.0547 228.069 79.0605 225.37 78.7146 222.97C78.3335 220.34 77.4658 217.751 76.1936 215.336C75.0621 213.18 73.5905 211.113 71.6674 209.4C70.1314 208.031 68.1966 206.875 65.9277 206.671C60.0062 206.143 54.841 209.903 51.8626 213.862C49.9279 216.436 48.6087 219.354 48.0517 222.372C47.4948 225.39 48.8139 228.522 49.4588 231.5C49.5761 232.053 53 231.405 52.8593 230.728C52.3316 228.273 51.4229 225.848 51.3349 223.338C51.247 220.828 52.2437 218.368 53.4163 216.162C54.5889 213.956 56.0546 212.014 57.9835 210.346C58.7925 209.644 59.6778 208.992 60.6569 208.474C60.827 208.384 61.1318 208.23 61.2432 208.18C61.3429 208.135 61.4484 208.095 61.5481 208.056C61.5481 208.056 62.0523 207.871 61.765 207.966C61.8764 207.926 62.4217 207.782 62.0816 207.861C62.0699 207.861 62.5741 207.757 62.3103 207.807C62.0054 207.866 62.8438 207.742 62.4275 207.787C63.0724 207.722 64.0164 207.822 64.7903 208.09C65.6814 208.399 66.4905 208.862 67.2292 209.38C69.0936 210.69 70.5242 212.408 71.685 214.2C74.3233 218.269 75.8242 223.099 75.4724 227.755C75.2907 230.18 74.3116 232.366 72.7052 234.373C71.9254 235.344 71.0225 236.25 69.932 236.982C69.7444 237.107 69.5509 237.226 69.3457 237.331C69.4044 237.301 68.9471 237.52 69.0936 237.46C69.1874 237.421 68.6011 237.68 68.9588 237.515C69.0174 237.49 69.3164 237.446 68.994 237.505C69.076 237.48 69.164 237.465 69.2519 237.46C69.3692 237.446 69.3516 237.446 69.1933 237.46C69.1933 237.451 69.422 237.485 69.1757 237.446C69.1171 237.436 68.9119 237.396 68.8063 237.371C68.1497 237.216 67.2234 237.475 66.6312 237.685C66.514 237.724 65.3179 238.242 65.8046 238.402C67.4696 238.944 69.0467 239.726 70.5476 240.528C72.0485 241.33 73.6725 242.156 74.7103 243.327C75.191 243.869 75.5076 244.561 75.836 245.179C76.1936 245.856 76.5219 246.543 76.8092 247.241C77.4131 248.71 77.8411 250.223 78.228 251.742C79.94 258.435 81.4291 265.172 83.1587 271.86C83.8447 274.519 84.3195 277.198 84.9821 279.862C85.4159 281.59 85.8204 283.328 86.0081 285.091C86.1839 286.709 86.225 288.417 85.6387 289.986C85.3866 290.658 85.0114 291.326 84.4661 291.863C84.4134 291.918 84.173 292.117 84.0381 292.217C83.9502 292.282 83.8622 292.341 83.7743 292.401C83.9736 292.272 83.745 292.406 83.6688 292.451C83.3639 292.625 83.8388 292.396 83.6277 292.471C83.2525 292.61 83.8916 292.391 83.6395 292.471C83.2408 292.6 83.9267 292.406 83.6864 292.461C83.446 292.516 84.173 292.401 83.6864 292.461C83.3111 292.506 83.9912 292.451 83.7098 292.461C83.5867 292.461 83.4694 292.481 83.3463 292.491C83.1059 292.511 83.3932 292.491 83.4284 292.491C83.3639 292.491 83.2994 292.491 83.2349 292.491C83.0883 292.491 82.9359 292.491 82.7893 292.491C81.6402 292.461 80.4442 292.292 79.1426 292.107C77.4834 291.873 75.8301 291.624 74.165 291.43C69.2695 290.862 64.3506 290.753 59.4257 291.062C57.2565 291.196 55.0813 291.341 52.9062 291.331C52.5779 291.331 52.2496 291.326 51.9212 291.311C51.7688 291.306 51.6164 291.296 51.4698 291.286C51.1532 291.266 51.4522 291.291 51.2118 291.266C50.989 291.241 50.7662 291.211 50.5493 291.171C50.4672 291.156 50.3852 291.136 50.3031 291.116C50.262 291.106 50.2151 291.097 50.1741 291.082C49.9689 291.027 50.3324 291.136 50.1389 291.072C49.0719 290.693 48.6263 289.802 47.9169 289C46.0701 286.919 46.3632 283.881 46.5508 281.441C47.1371 273.922 49.025 266.512 50.3324 259.072C50.9011 255.84 51.2998 252.594 51.5695 249.332C51.7043 247.659 51.7688 245.941 52.3785 244.337C53.1407 242.341 54.6064 240.543 56.7112 239.602C56.9047 239.517 57.104 239.437 57.3034 239.358C57.403 239.318 57.8545 239.159 57.6786 239.218C57.8897 239.149 58.1007 239.084 58.3118 239.019C58.4173 238.989 58.5287 238.959 58.6342 238.929C58.4525 238.979 58.5522 238.949 58.6753 238.92C58.8981 238.865 59.115 238.815 59.3378 238.765C59.3964 238.75 60.0413 238.621 59.7189 238.685C60.1996 238.596 60.6804 238.521 61.1611 238.456C61.4602 238.417 61.2784 238.437 61.5071 238.412C61.7357 238.387 61.9585 238.367 62.1872 238.347C62.6562 238.307 63.1311 238.272 63.606 238.252C64.245 238.222 65.142 238.222 65.9042 238.247C67.0885 238.287 68.2435 238.372 69.422 238.685C70.1255 238.87 71.1574 238.556 71.7964 238.307C72.1247 238.178 72.9338 237.784 72.2244 237.595L72.2185 237.585Z" fill="#E0A619"/>
<path d="M76.4576 244.223C74.7515 241.38 62.2988 246.773 65.6641 249.82C74.8571 258.131 81.9336 261.398 80.9838 259.107C77.4367 250.577 79.4887 249.272 76.4576 244.223Z" fill="#FBF5EB"/>
<path d="M71.4562 237.894C67.8271 236.918 54.8584 236.629 51.4462 241.604C48.3916 246.056 50.4377 247.335 47.5473 261.766C43.4433 282.263 43.455 286.421 45.8588 288.901C47.8229 290.927 46.2047 291.714 58.2999 290.937C75.3257 289.847 81.8921 294.702 85.6151 290.937C89.3849 287.123 85.6795 278.249 85.2281 274.758C84.9525 272.657 84.4601 271.935 80.5964 255.671C78.9959 248.924 79.1659 246.001 76.7738 242.087C75.7595 240.429 73.8717 238.671 71.4621 237.894" fill="#E0A619"/>
<path d="M71.3979 278.08C69.9087 275.908 69.0938 272.627 70.5067 271.76C71.7848 270.974 75.1501 271.994 76.2172 273.782C76.8035 274.763 76.5924 275.799 77.5012 276.217C78.0112 276.451 78.4803 276.332 79.4594 276.132C82.2442 275.57 85.5333 274.987 84.9939 277.303C84.9001 277.706 84.5014 278.005 84.0266 278.06C82.9067 278.189 80.9016 278.468 80.9778 278.812C81.101 279.394 82.0332 279.997 82.0625 281.401C82.0625 281.56 82.0859 282.437 81.5759 282.84C80.1746 283.96 74.1065 282.038 71.3979 278.084V278.08Z" fill="#E0A619"/>
<path d="M72.248 277.89C71.3451 276.546 70.6298 274.927 70.6239 273.359C70.6239 272.985 70.6532 272.109 71.1223 271.895C71.5034 271.72 72.33 271.999 72.6818 272.114C73.444 272.358 74.1534 272.731 74.7221 273.229C75.3729 273.802 75.6191 274.479 75.8419 275.236C76.0354 275.888 76.3461 276.471 77.1786 276.66C78.0112 276.85 78.9375 276.586 79.7583 276.426C80.5791 276.267 81.3354 276.118 82.1386 276.043C82.6839 275.993 83.4168 275.928 83.8682 276.257C84.3196 276.586 84.3959 277.542 83.833 277.726C83.4871 277.84 83.0005 277.835 82.637 277.9C82.209 277.97 81.7869 278.05 81.3706 278.164C80.9543 278.279 80.1628 278.498 80.1335 278.956C80.1042 279.414 80.7315 279.972 80.925 280.38C81.2123 280.983 81.3296 281.715 81.1068 282.347C81.054 282.491 80.925 282.626 80.8781 282.755C80.8547 282.82 80.9954 282.701 80.8605 282.77C81.0306 282.681 80.7785 282.77 80.6319 282.77C79.2013 282.77 77.6887 282.113 76.5044 281.496C74.7924 280.604 73.274 279.359 72.2421 277.89C71.9255 277.437 70.3015 277.935 70.5419 278.279C72.3242 280.823 75.6895 283.124 79.2424 283.497C80.4619 283.627 82.168 283.477 82.7073 282.367C83.0298 281.695 82.9594 280.803 82.678 280.136C82.5432 279.807 82.338 279.514 82.1328 279.215C82.0624 279.11 82.0038 278.976 81.9217 278.881C81.9217 278.881 81.8514 278.707 81.8396 278.702C81.8045 278.692 81.5699 278.762 81.6989 278.792C81.9217 278.841 82.5901 278.602 82.8422 278.567C83.3698 278.488 83.9268 278.463 84.4369 278.323C85.3984 278.06 85.9671 277.427 85.8967 276.561C85.7795 275.092 83.5223 275.186 82.2852 275.311C81.2944 275.41 80.3211 275.61 79.3479 275.804C78.9141 275.888 78.4685 276.073 78.0815 275.824C77.6242 275.53 77.5597 274.947 77.4307 274.509C76.9559 272.906 75.4608 271.81 73.6257 271.337C72.0252 270.924 69.6448 271.023 69.0585 272.637C68.4078 274.439 69.4983 276.74 70.536 278.284C70.8409 278.742 72.4707 278.249 72.2362 277.895L72.248 277.89Z" fill="#FBF5EB"/>
<path d="M68.0497 265.835C70.43 268.3 74.7451 269.704 74.8799 270.745C75.1965 273.18 71.8371 275.829 69.0522 275.729C66.8536 275.65 61.0201 267.174 60.381 265.645C58.9036 262.11 57.8951 258.495 57.5023 251.518C57.2151 246.444 55.4386 243.805 57.2561 242.291C58.499 241.255 61.0494 240.812 62.949 241.643C68.847 244.238 60.0175 257.519 68.0497 265.835Z" fill="#E0A619"/>
<path d="M67.2587 266.109C68.4723 267.339 70.0318 268.255 71.5913 269.141C72.3945 269.599 74.0186 270.217 74.0479 271.168C74.0948 272.746 72.6291 274.26 71.0637 274.972C70.7178 275.127 70.3543 275.256 69.9673 275.311C69.809 275.336 69.6449 275.346 69.4807 275.341C69.3341 275.336 69.4924 275.356 69.4045 275.326C69.0468 275.206 68.7478 274.987 68.4664 274.773C66.473 273.229 64.9839 271.118 63.5944 269.176C62.4159 267.533 61.3723 265.914 60.6864 264.082C59.6604 261.353 59.0682 258.534 58.7223 255.686C58.4878 253.709 58.4467 251.717 58.2122 249.745C58.0246 248.187 57.6318 246.653 57.3973 245.104C57.2566 244.178 57.1393 243.053 58.0012 242.341C59.2206 241.33 61.4896 241.365 62.7736 242.266C64.509 243.486 64.3565 245.896 64.251 247.609C63.9051 253.156 62.4101 259.152 65.7929 264.276C66.2209 264.923 66.7134 265.536 67.2645 266.118C67.6046 266.477 69.2403 265.979 68.8475 265.571C63.8816 260.352 65.5643 253.55 65.9454 247.415C66.0626 245.552 66.2327 242.953 64.2803 241.663C62.8029 240.687 60.657 240.657 58.9334 241.106C57.5145 241.474 56.0078 242.236 55.6853 243.561C55.3863 244.801 55.8143 246.155 56.0547 247.375C56.4651 249.437 56.6175 251.493 56.7817 253.58C57.0455 256.931 57.5439 260.282 58.6461 263.519C58.9803 264.5 59.3144 265.511 59.8362 266.432C60.358 267.353 61.003 268.305 61.642 269.211C63.1312 271.327 64.7259 273.648 66.8893 275.326C67.8215 276.048 68.6892 276.227 69.9497 276.023C71.8669 275.709 73.6668 274.698 74.7749 273.334C75.5195 272.418 76.3403 270.824 75.2498 269.888C74.0831 268.887 72.459 268.24 71.1458 267.388C70.3074 266.846 69.5217 266.253 68.8416 265.566C68.4899 265.212 66.8658 265.715 67.2587 266.114V266.109Z" fill="#FBF5EB"/>
<path d="M75.5308 272.672C74.9152 273.812 73.7895 274.803 72.6755 275.49C72.7342 275.455 72.57 275.555 72.5524 275.565C72.4879 275.605 72.4234 275.64 72.3589 275.675C72.2124 275.759 72.0599 275.839 71.9016 275.914C72.23 275.749 71.503 276.068 71.7609 275.973C71.9603 275.899 71.7082 275.988 71.6671 276.003C71.3681 276.093 71.5733 275.973 71.6964 276.003C71.673 275.998 71.4619 276.043 71.4502 276.058C71.5206 275.983 71.7902 275.998 71.4619 276.053C71.4267 276.058 71.1453 276.103 71.3447 276.073C71.544 276.043 71.2567 276.083 71.2215 276.083C71.1102 276.093 70.9929 276.098 70.8756 276.108C70.8053 276.108 70.6704 276.118 70.817 276.113C70.5766 276.123 70.3304 276.113 70.09 276.113C69.2927 276.093 68.3663 276.292 67.6862 276.661C67.5397 276.74 67.2289 276.9 67.2875 277.079C67.3462 277.258 67.7331 277.268 67.8797 277.273C70.3069 277.343 72.9101 276.91 74.9562 275.749C76.5509 274.843 78.0694 273.673 78.8843 272.169C79.1364 271.706 77.7176 271.875 77.53 271.91C77.0903 271.985 76.6389 272.084 76.2343 272.254C75.9998 272.353 75.648 272.473 75.5366 272.687L75.5308 272.672Z" fill="#E0A619"/>
<path d="M45.4367 283.542C45.3253 284.987 45.507 286.53 46.832 287.566C48.1571 288.602 50.0977 288.801 51.7745 288.94C56.4999 289.329 61.2489 288.99 65.9744 288.861C67.2935 288.826 68.6303 288.831 69.9436 288.945C70.9754 289.04 72.0659 289.204 72.9453 289.697C73.5082 290.011 74.5694 289.712 75.1322 289.538C75.3198 289.478 76.6448 288.995 76.1465 288.711C74.37 287.72 71.8842 287.68 69.8263 287.661C67.4518 287.641 65.0891 287.81 62.7205 287.895C62.6091 287.895 62.4977 287.905 62.3863 287.905C62.14 287.915 62.7029 287.905 62.3218 287.905C62.099 287.905 61.8704 287.905 61.6476 287.905C60.9088 287.905 60.1701 287.9 59.4373 287.895C58.1709 287.895 56.9045 287.89 55.6381 287.845C53.9672 287.785 52.0383 287.73 50.5843 286.939C48.9192 286.032 48.714 284.309 48.8313 282.766C48.8606 282.352 45.5012 282.676 45.4308 283.537L45.4367 283.542Z" fill="#FBF5EB"/>
<path d="M78.7027 293.9C79.6525 299.477 80.4792 305.159 78.8376 310.702C78.521 311.777 78.1633 312.773 77.5302 313.749C76.7504 314.954 75.8768 316.119 75.2378 317.384C74.8098 318.241 74.3818 319.446 75.314 320.183C76.3165 320.975 78.1868 320.731 79.4415 320.945C80.4616 321.119 81.5052 321.368 82.4139 321.662C82.9592 321.836 83.6217 322.06 84.0555 322.334C84.1024 322.364 84.4484 322.673 84.3956 322.603C84.4366 322.653 84.4601 322.747 84.4659 322.807C84.4601 322.613 84.4835 322.782 84.4366 322.852C84.3428 322.986 84.5422 322.688 84.4484 322.837C84.4249 322.877 84.2373 323.061 84.3839 322.927C84.5304 322.792 84.3252 322.962 84.2901 322.991C84.1669 323.076 84.4249 322.912 84.419 322.917C84.3663 322.947 84.3135 322.981 84.2549 323.011C84.1904 323.041 83.8621 323.201 84.0731 323.106C84.2842 323.011 83.95 323.151 83.8914 323.176C83.7741 323.22 83.651 323.26 83.5337 323.3C83.1468 323.43 83.7214 323.26 83.3051 323.365C81.7456 323.758 80.3737 323.913 78.5737 324.027C77.5536 324.092 76.5335 324.107 75.5133 324.097C74.9153 324.097 74.3232 324.077 73.7251 324.057C73.5375 324.052 73.3499 324.042 73.1623 324.032C73.1095 324.032 73.0626 324.027 73.0099 324.022C72.6522 324.002 73.2151 324.047 72.9864 324.022C71.8197 323.883 70.5123 323.664 69.6973 322.862C69.1697 322.349 69.2048 321.697 69.1755 321.049C69.1345 320.128 69.0993 319.212 69.0876 318.291C69.07 316.921 69.1286 315.552 69.2928 314.187C69.6504 311.284 70.4419 308.441 70.9051 305.553C71.4621 302.082 71.5207 298.541 70.8289 295.085C70.6237 294.06 70.354 293.049 70.0315 292.048C69.7091 291.047 66.3027 291.799 66.631 292.82C67.8564 296.624 68.1788 300.548 67.704 304.472C67.3346 307.53 66.4903 310.522 66.0213 313.57C65.8044 314.979 65.693 316.398 65.6754 317.822C65.6637 318.654 65.6754 319.486 65.7047 320.317C65.734 321.194 65.5992 322.234 65.904 323.071C66.3731 324.361 67.9619 324.988 69.369 325.342C71.0458 325.765 72.8516 325.765 74.587 325.765C78.263 325.765 82.4608 325.616 85.8027 324.162C86.6704 323.783 87.884 323.141 87.8664 322.195C87.8488 321.144 86.1427 320.591 85.1871 320.282C84.1259 319.934 83.0237 319.655 81.9097 319.441C80.913 319.252 79.9046 319.167 78.8903 319.097C78.8024 319.092 78.3627 319.033 78.691 319.087C78.5913 319.072 78.4741 319.033 78.3803 319.033C78.4741 319.033 78.562 319.132 78.4272 319.033C78.4448 319.047 78.5386 319.137 78.4623 319.057C78.433 319.028 78.2513 318.868 78.3099 318.943C77.7119 318.121 78.8317 316.652 79.2949 315.925C80.0688 314.73 80.9834 313.575 81.5697 312.3C82.5371 310.204 82.965 307.788 83.1351 305.558C83.3696 302.485 83.0471 299.393 82.6074 296.345C82.455 295.275 82.2791 294.209 82.0973 293.138C81.9273 292.152 78.5151 292.82 78.6969 293.91L78.7027 293.9Z" fill="#E0A619"/>
<path d="M69.0703 319.67C69.0762 320.855 69.1055 320.8 69.0938 321.736C69.0645 324.072 70.7061 323.564 71.9607 323.843C78.5858 325.307 73.1568 320.302 72.9926 320.243C70.0612 319.187 69.0586 319.207 69.0645 319.67H69.0703Z" fill="#FBF5EB"/>
</svg>
