<svg width="104" height="80" viewBox="0 0 104 80" fill="none" xmlns="http://www.w3.org/2000/svg">
<path d="M4.35392 2.0577C7.45856 28.4476 15.7621 45.9937 29.116 54.769C39.4061 61.531 56.1511 65.3742 79.335 66.2171L79.2792 58.3402C79.274 57.6307 79.9179 57.0517 80.7173 57.0471C80.942 57.0458 81.164 57.091 81.3656 57.179L102.806 66.5399C103.523 66.8531 103.819 67.6231 103.466 68.2598C103.328 68.5093 103.102 68.7122 102.823 68.8381L81.5213 78.4455C80.8086 78.7669 79.9372 78.5147 79.5751 77.8821C79.4733 77.7043 79.4195 77.5079 79.418 77.3084L79.3584 69.2974C55.4565 68.4442 38.0267 64.453 27.0532 57.2419C12.768 47.8547 4.10181 29.5421 0.905996 2.37725C0.806577 1.53218 1.49783 0.775578 2.44994 0.687336C3.40206 0.599095 4.2545 1.21263 4.35392 2.0577Z" fill="#E0A619"/>
</svg>
