<svg width="22" height="109" viewBox="0 0 22 109" fill="none" xmlns="http://www.w3.org/2000/svg">
<path d="M8.71134 106.01C8.72964 101.615 8.73028 101.46 8.81103 81.7938C8.87115 67.1532 9.18332 48.2383 9.60679 24.8306L1.73284 25.104C1.02355 25.1288 0.433104 24.4953 0.41404 23.6891C0.408681 23.4624 0.449816 23.2373 0.534187 23.0315L9.50513 1.1477C9.80528 0.415506 10.5698 0.0962408 11.2127 0.434622C11.4646 0.567189 11.6716 0.789213 11.8025 1.06738L21.7926 22.2883C22.1269 22.9983 21.8905 23.8842 21.2646 24.2669C21.0887 24.3745 20.8933 24.4341 20.6939 24.4411L12.6859 24.722C12.5863 48.982 12.5242 64.1173 12.4413 84.2976C12.3584 104.478 12.3879 97.4149 12.3527 105.992C12.3919 106.496 12.0411 108.011 10.8862 108.017C9.38631 108.024 8.70811 106.75 8.71134 106.01Z" fill="#E0A619"/>
</svg>
