<svg width="89" height="116" viewBox="0 0 89 116" fill="none" xmlns="http://www.w3.org/2000/svg">
<path d="M55.7419 26.2726C55.5964 27.1174 56.3626 27.9173 56.8379 28.5734C57.7787 29.8496 58.8068 31.0719 59.8059 32.3031C63.0842 36.3205 66.2947 40.3917 69.2044 44.6428C76.8959 55.8949 83.1423 68.7738 83.2974 82.3177C83.3362 85.9576 82.8901 89.5884 81.9492 93.1295C81.4546 94.9809 80.8241 96.8053 80.0773 98.5758C79.7184 99.4206 79.3304 100.256 78.9134 101.074C78.7291 101.443 78.5448 101.802 78.3411 102.162C78.3023 102.234 78.2635 102.297 78.215 102.368C78.0016 102.71 78.3993 102.117 78.1568 102.449C77.6816 103.123 77.119 103.717 76.508 104.283C76.4401 104.346 76.3625 104.409 76.2946 104.48C76.0715 104.678 76.6535 104.184 76.2752 104.489C76.12 104.615 75.9551 104.75 75.7999 104.867C75.3732 105.19 74.9367 105.505 74.4808 105.802C74.2965 105.927 74.1025 106.044 73.9086 106.161C73.346 106.521 74.1219 106.053 73.5206 106.386C73.0356 106.655 72.5507 106.916 72.0657 107.159C71.5517 107.419 71.0182 107.662 70.4944 107.905C70.378 107.959 70.252 108.013 70.1259 108.066C69.5245 108.336 70.5041 107.914 70.1162 108.066C69.767 108.21 69.4178 108.354 69.0589 108.489C67.8465 108.965 66.6147 109.37 65.3732 109.774C64.8592 109.936 65.3732 109.774 65.4605 109.747C65.2762 109.801 65.092 109.855 64.9174 109.909C64.5876 110.008 64.2481 110.098 63.9183 110.187C63.2006 110.385 62.4731 110.565 61.7457 110.736C61.0183 110.906 60.3296 111.059 59.6216 111.212C59.4664 111.248 59.3015 111.275 59.1463 111.311C58.6614 111.41 59.8447 111.185 59.059 111.329C58.6516 111.401 58.2443 111.482 57.8369 111.554C56.2947 111.823 54.7429 112.039 53.191 112.219C52.803 112.264 52.4247 112.299 52.0368 112.344C51.8816 112.362 50.9795 112.443 51.4451 112.398C50.5819 112.47 49.7089 112.524 48.8457 112.569C47.2744 112.65 45.6935 112.686 44.1125 112.668C41.1736 112.641 37.9438 112.389 34.8109 111.904C28.8847 110.978 22.9875 109.109 18.0797 105.829C13.1719 102.548 9.53465 97.9647 7.76939 92.5812C3.99638 81.0595 8.11856 68.3424 13.007 57.6654C17.4395 47.9591 23.23 38.774 29.7382 30.1462C30.5529 29.0677 31.3774 27.9982 32.2212 26.9467C32.551 26.5423 33.0165 26.1109 33.2493 25.6435C33.6373 24.8616 32.9486 23.4147 32.7159 22.6058C32.3667 21.4015 31.9593 20.2062 31.5228 19.0198C30.7663 16.9797 29.9031 14.9755 29.001 12.9893C27.6431 9.99656 25.7906 6.89593 25.1795 3.66048C25.1019 3.23808 25.0341 2.82466 25.1117 2.45618C25.131 2.35732 25.2377 1.91694 25.228 2.06972C25.2086 2.29441 25.228 1.95289 25.2959 2.00681C25.325 2.02479 24.3357 2.56403 23.9574 2.68086C23.3561 2.8696 22.7935 2.98643 22.4347 2.88757C22.6286 2.9415 22.8808 2.93251 23.0845 2.95947C23.4822 3.02238 22.9584 2.89656 23.4822 3.04934C23.7829 3.13922 24.0932 3.2201 24.3939 3.31896C27.2843 4.26263 30.0098 5.66466 32.7159 6.9858C35.228 8.21706 37.7304 9.58314 40.3977 10.5178C43.065 11.4525 45.4898 10.9402 48.0116 10.0685C50.9989 9.0439 53.8311 7.61491 56.673 6.29377C57.3616 5.97023 58.06 5.64668 58.7486 5.33213C59.1463 5.15238 59.5537 4.96365 59.9513 4.79289C60.1065 4.72099 60.2714 4.64909 60.4266 4.58618C60.4557 4.57719 61.2122 4.25365 60.7176 4.46036C61.3771 4.18175 62.0367 3.91213 62.7156 3.66048C62.9872 3.56162 63.2685 3.46276 63.5401 3.3639C63.705 3.30998 63.8698 3.25605 64.0347 3.20213C64.3936 3.08529 63.4334 3.34592 63.9571 3.22909C64.1026 3.19314 64.2578 3.15719 64.4033 3.11225C64.8398 2.98643 64.607 3.24706 64.2287 3.13922C64.4809 3.21111 64.9368 3.12124 64.2772 3.10327C64.9271 3.12124 63.8504 3.17516 64.413 3.10327C64.1414 3.13921 64.2384 2.98643 64.219 3.0763C64.2093 3.13023 64.0929 2.97744 64.1996 3.05833C64.6749 3.41782 64.6652 4.19972 64.4906 4.93668C63.7438 8.10023 61.8039 11.102 60.3684 14.0229C58.4286 17.9593 56.6633 22.0036 55.7128 26.2547C55.3539 27.8454 60.9504 27.0006 61.2995 25.4728C62.3955 20.5657 64.5682 15.9731 66.8475 11.4525C67.7398 9.682 68.671 7.92048 69.4178 6.09605C69.8834 4.97263 70.4459 3.58858 70.2132 2.35732C69.6797 -0.473695 64.8592 0.667697 62.9775 1.21593C59.3112 2.28542 55.8777 3.97504 52.4538 5.57478C51.6585 5.95225 50.8535 6.32074 50.0484 6.68922C49.6604 6.86896 49.2822 7.03972 48.8942 7.21048C48.7487 7.27339 48.5935 7.34529 48.448 7.4082C48.3025 7.47111 48.1571 7.53403 48.0019 7.59694C48.2444 7.49808 48.2831 7.4801 48.0989 7.552C47.4393 7.83061 46.7798 8.09124 46.1105 8.3339C45.965 8.38782 45.8098 8.43276 45.6644 8.48668C45.0824 8.71137 46.1978 8.38783 45.8098 8.44175C45.4025 8.50466 44.7914 8.65744 45.5965 8.52264C44.9563 8.63048 46.1008 8.5496 46.0523 8.54061C46.0135 8.54061 45.8098 8.54061 45.7904 8.50466C45.6644 8.31593 46.0038 8.55858 45.868 8.52264C45.3249 8.36985 44.8011 8.1901 44.2871 7.99238C42.8419 7.42618 41.4452 6.74314 40.0485 6.06909C36.838 4.51428 33.6761 2.84263 30.3395 1.53947C27.3134 0.362128 23.4628 -0.446732 20.6403 1.68327C19.4279 2.59998 19.3115 3.8582 19.6025 5.21529C20.0098 7.14757 20.9313 8.99896 21.746 10.7964C24.0835 15.9372 26.5277 21.06 27.7498 26.5512L27.9826 25.9221C25.4414 28.9509 23.1136 32.1504 20.8634 35.3768C15.8392 42.5667 11.2902 50.0801 7.6433 57.962C3.7345 66.4011 0.66954 75.5233 0.737435 84.7892C0.79563 93.3452 4.33586 101.506 11.6685 106.916C19.0011 112.326 28.8556 114.609 38.1668 115.077C48.0504 115.58 58.0794 114.367 67.4683 111.437C74.054 109.379 81.5031 106.278 84.568 100.122C89.5729 90.0828 89.9608 78.7857 87.0317 68.1716C84.3935 58.6091 79.4274 49.7206 73.6176 41.5062C71.3189 38.2438 68.865 35.0802 66.3432 31.9616C65.4314 30.8292 64.51 29.7148 63.5983 28.5824C63.2491 28.151 62.9096 27.7196 62.5701 27.2882C62.4247 27.0995 62.2792 26.9107 62.1337 26.713C62.0755 26.6411 62.027 26.5602 61.9688 26.4883C61.8524 26.3266 62.0755 26.6501 61.9106 26.3985C61.7554 26.1648 61.5808 25.9311 61.4644 25.6705C61.3383 25.3919 61.3674 25.0953 61.3092 25.4638C61.5905 23.8101 55.9843 24.7358 55.7225 26.2457L55.7419 26.2726Z" fill="#E0A619"/>
<path d="M58.0318 23.8189C51.9116 24.3581 45.7429 24.6547 39.6032 24.3222C38.0999 24.2413 36.6062 24.1065 35.1125 23.9267C36.0242 24.0346 34.8603 23.8818 34.5693 23.8369C34.4432 23.8189 34.3075 23.7919 34.1814 23.765C32.8623 23.4864 31.1843 23.8638 30.2047 24.7536C29.3608 25.5265 29.5839 26.5241 30.7963 26.7847C32.969 27.2431 35.2677 27.3869 37.4888 27.5037C44.1037 27.8632 50.7574 27.5397 57.3432 26.9555C58.4101 26.8656 60.3208 26.2634 60.5148 25.0951C60.7088 23.9267 58.9144 23.738 58.0415 23.8189H58.0318Z" fill="#E0A619"/>
<path d="M53.5115 53.1983C46.2177 52.1647 38.371 54.2948 34.3555 60.3432C31.9695 63.9382 31.3584 69.5553 36.5378 71.182C40.5242 72.4312 44.5203 73.9411 47.8763 76.3587C49.0305 77.1855 49.7385 77.7966 50.6309 78.947C50.8151 79.1897 50.9897 79.4324 51.1546 79.684C51.2128 79.7829 51.271 79.8817 51.3389 79.9806C51.6202 80.4389 51.2322 79.7469 51.3777 80.0345C51.5911 80.4749 51.7754 80.9332 51.9015 81.4096C51.9596 81.6432 51.9984 81.8859 52.0469 82.1196C52.1536 82.6588 52.0857 81.9398 52.0663 82.3802C52.0469 82.8206 52.0081 83.234 51.9402 83.6654C51.9208 83.7732 51.8821 83.8811 51.8627 83.9979C51.8045 84.2855 52.0469 83.5306 51.8821 83.953C51.8045 84.1417 51.7366 84.3394 51.6493 84.5192C51.562 84.6989 51.465 84.8967 51.368 85.0764C51.2516 85.2741 50.9024 85.7774 51.2419 85.3101C50.9703 85.6786 50.6793 86.0291 50.3496 86.3616C50.1944 86.5234 50.0198 86.6672 49.8646 86.8289C50.4078 86.3077 49.8161 86.8559 49.6415 86.9907C49.2439 87.2963 48.8171 87.5569 48.3903 87.8265C48.0703 88.0243 49.0305 87.512 48.5164 87.7546C48.4194 87.7996 48.3224 87.8535 48.2254 87.9074C47.983 88.0332 47.7308 88.1501 47.4786 88.2579C47.1682 88.3927 46.8578 88.5006 46.5475 88.6264C47.2458 88.3478 46.6542 88.5904 46.3147 88.6893C46.0431 88.7702 45.7715 88.8421 45.4902 88.905C45.2575 88.9589 44.0839 89.1297 45.0829 89.0039C44.5106 89.0758 43.9481 89.1387 43.3661 89.1567C43.2206 89.1567 43.0751 89.1567 42.9393 89.1567C42.3089 89.1746 43.24 89.1836 42.9781 89.1567C42.6678 89.1297 42.3477 89.1207 42.0373 89.0848C41.756 89.0488 41.4651 89.0039 41.1838 88.9589C41.1353 88.9589 40.5824 88.8331 40.9995 88.932C41.4166 89.0308 40.8152 88.887 40.7376 88.8601C40.1557 88.6893 39.5931 88.4916 39.0402 88.2489C39.6028 88.4916 38.7202 88.0692 38.5844 87.9973C38.3031 87.8355 38.0315 87.6648 37.7696 87.476C37.5272 87.3053 37.2944 87.1255 37.0713 86.9368C36.6251 86.5683 37.2653 87.1255 37.0131 86.8829C36.8579 86.7301 36.7124 86.5863 36.5572 86.4245C35.6164 85.4359 33.9384 85.4718 32.7357 86.0201C31.8143 86.4335 30.4661 87.7366 31.4166 88.7342C35.1315 92.6437 40.7861 93.6773 46.1304 92.6078C50.6308 91.7091 55.626 88.932 57.2263 84.7079C59.1662 79.5851 55.2962 75.1813 50.9218 72.4492C49.1663 71.3527 47.2749 70.445 45.3448 69.6361C44.239 69.1688 43.1139 68.7464 41.9791 68.351C41.3875 68.1442 40.8055 67.9555 40.2042 67.7668C39.9326 67.6769 39.6513 67.596 39.3797 67.5061C39.2924 67.4792 38.7978 67.2545 39.1857 67.4522C39.5737 67.6499 39.0402 67.3264 38.9433 67.2725C38.5941 67.0837 39.1954 67.5601 39.0402 67.3713C38.982 67.2994 38.8948 67.2365 38.8463 67.1556C38.759 67.0298 38.662 66.895 38.5747 66.7692C38.3322 66.4277 38.7299 67.1916 38.5941 66.7961C38.5553 66.6793 38.4971 66.5715 38.4583 66.4456C38.4001 66.2839 38.3613 66.1221 38.3225 65.9513C38.2934 65.8075 38.2449 65.1155 38.2643 65.6637C38.2449 65.1784 38.274 64.6931 38.3613 64.2078C38.4098 63.9202 38.4777 63.6416 38.5553 63.363C38.6426 63.0484 38.3807 63.8213 38.5747 63.318C38.6329 63.1563 38.6911 63.0035 38.759 62.8417C39.0112 62.2396 39.3215 61.6644 39.6707 61.1072C39.7192 61.0263 39.9132 60.7567 39.6513 61.1161C39.7677 60.9634 39.8841 60.8106 40.0005 60.6578C40.2236 60.3792 40.466 60.1006 40.7182 59.8399C40.8346 59.7141 40.9607 59.5973 41.0771 59.4804C41.1644 59.3906 41.6396 58.9951 41.2032 59.3546C41.4748 59.1299 41.756 58.9053 42.047 58.7075C42.1925 58.5997 42.3477 58.5008 42.5029 58.402C42.6193 58.3301 43.3273 57.9346 42.7551 58.2312C43.0945 58.0515 43.4437 57.8717 43.8026 57.7189C43.9869 57.638 44.1712 57.5661 44.3554 57.4853C44.4718 57.4403 44.5785 57.3954 44.6949 57.3594C44.3942 57.4583 44.3457 57.4763 44.5591 57.4134C45.015 57.2785 45.4612 57.1527 45.9267 57.0539C46.1013 57.0179 46.2759 56.982 46.4505 56.946C47.11 56.8112 46.1401 56.955 46.7705 56.9011C47.3525 56.8561 47.9248 56.7932 48.5067 56.7753C49.0887 56.7573 49.0208 56.7573 49.6318 56.7932C50.2914 56.8382 50.9509 56.9101 51.6105 57.0089C52.9296 57.1977 54.6948 56.5865 55.2671 55.4002C55.8394 54.2139 54.7336 53.3421 53.5406 53.1713L53.5115 53.1983Z" fill="#E0A619"/>
<path d="M42.0186 46.5747V54.9509C42.0186 55.4453 42.1446 55.7508 42.6296 56.0115C43.1437 56.2901 43.939 56.335 44.5016 56.2721C45.2387 56.1822 46.0146 55.9845 46.6257 55.5891C47.0137 55.3284 47.6635 54.888 47.6635 54.3937V46.0175C47.6635 45.5232 47.5374 45.2177 47.0525 44.957C46.5384 44.6784 45.7431 44.6335 45.1805 44.6964C44.4434 44.7863 43.6674 44.984 43.0564 45.3794C42.6684 45.6401 42.0186 46.0804 42.0186 46.5747Z" fill="#E0A619"/>
<path d="M42.2607 91.8081V100.184C42.2607 100.679 42.3868 100.984 42.8718 101.245C43.3859 101.523 44.1812 101.568 44.7437 101.505C45.4809 101.416 46.2568 101.218 46.8679 100.822C47.2559 100.562 47.9057 100.121 47.9057 99.6271V91.2509C47.9057 90.7566 47.7796 90.451 47.2946 90.1904C46.7806 89.9118 45.9852 89.8669 45.4227 89.9298C44.6855 90.0197 43.9096 90.2174 43.2986 90.6128C42.9106 90.8735 42.2607 91.3138 42.2607 91.8081Z" fill="#E0A619"/>
<path d="M59.4869 28.6631C50.0205 29.4899 40.2242 29.9033 30.7481 28.8788C29.5357 28.744 27.6734 29.3102 27.0527 30.3527C26.3737 31.4761 27.6443 31.9614 28.6336 32.0693C38.5754 33.1388 48.876 32.6714 58.7983 31.8087C59.8652 31.7188 61.776 31.1166 61.9699 29.9483C62.1639 28.7799 60.3696 28.5912 59.4966 28.6721L59.4869 28.6631Z" fill="#E0A619"/>
</svg>
