<svg width="673" height="349" viewBox="0 0 673 349" fill="none" xmlns="http://www.w3.org/2000/svg">
<path d="M94.8714 42.2883C95.2814 42.793 95.7614 43.2552 96.238 43.7082C96.5814 44.0366 96.9353 44.3589 97.2857 44.6812C97.566 44.9366 97.1595 44.5687 97.3978 44.7816C97.5064 44.8789 97.615 44.9762 97.7237 45.0735C97.9479 45.2741 98.1757 45.4718 98.4035 45.6725C100.744 47.7188 103.151 49.7073 105.569 51.6867C108.775 54.3108 112.013 56.9044 115.265 59.4858C119.056 62.4991 122.865 65.494 126.681 68.4799C130.749 71.6603 134.828 74.8317 138.913 77.9969C142.95 81.1226 146.994 84.2392 151.041 87.3528C154.783 90.2292 158.525 93.0995 162.275 95.9668C165.411 98.3658 168.554 100.765 171.697 103.158C173.933 104.86 176.168 106.563 178.407 108.263C179.462 109.066 180.534 109.856 181.578 110.668C181.624 110.704 181.67 110.738 181.715 110.771C181.908 110.917 182.22 111.252 181.922 111.462C180.478 112.471 179.034 113.481 177.591 114.49C174.125 116.916 170.66 119.34 167.194 121.766C163.004 124.7 158.809 127.634 154.618 130.566C150.995 133.101 147.372 135.637 143.749 138.173C141.993 139.402 140.269 140.679 138.475 141.861C138.451 141.88 138.423 141.898 138.398 141.916C137.68 142.418 135.763 142.016 135.462 141.232C134.887 139.745 134.313 138.255 133.738 136.768C132.364 133.217 130.994 129.666 129.621 126.114C127.988 121.885 126.352 117.655 124.719 113.426C123.342 109.865 121.964 106.305 120.591 102.741C119.995 101.203 119.403 99.6641 118.807 98.1286C116.284 91.6066 113.436 85.1849 110.286 78.8696C109.21 76.7108 108.131 74.555 107.055 72.3962C105.131 68.5437 103.207 64.6883 101.284 60.8359C99.346 56.953 97.4083 53.0672 95.4671 49.1843C94.3458 46.9343 93.221 44.6843 92.0997 42.4342C92.0472 42.3278 91.9911 42.2214 91.9385 42.1119C91.6687 41.5707 92.9477 41.5707 93.235 41.6042C93.8657 41.6771 94.6997 41.9173 94.9765 42.4677C95.7719 44.0609 96.5674 45.6512 97.3593 47.2444C99.1814 50.8962 101.003 54.551 102.829 58.2027C104.833 62.2163 106.834 66.2299 108.838 70.2434C110.194 72.9587 111.551 75.677 112.907 78.3922C115.3 83.1872 117.563 88.0308 119.617 92.9444C120.77 95.6992 121.842 98.4753 122.914 101.251C124.155 104.456 125.391 107.664 126.632 110.869C128.251 115.062 129.873 119.252 131.492 123.445C132.974 127.276 134.453 131.107 135.935 134.938C136.755 137.054 137.571 139.173 138.391 141.29C138.43 141.387 138.468 141.487 138.507 141.585L135.571 140.901C137.014 139.891 138.458 138.882 139.902 137.872C143.367 135.446 146.833 133.022 150.298 130.596C154.489 127.662 158.683 124.728 162.874 121.797C166.497 119.261 170.12 116.725 173.743 114.189C174.935 113.356 176.123 112.523 177.314 111.69C177.854 111.313 178.411 110.793 179.017 110.498C179.045 110.486 179.07 110.461 179.094 110.443L179.301 111.133C178.568 110.58 177.836 110.023 177.104 109.467C175.12 107.962 173.141 106.457 171.161 104.949C168.193 102.69 165.229 100.427 162.264 98.1651C158.645 95.4012 155.028 92.6313 151.419 89.8582C147.39 86.7629 143.364 83.6646 139.348 80.5601C135.332 77.4557 131.17 74.2296 127.094 71.0492C123.019 67.8687 119.263 64.9254 115.366 61.8423C111.964 59.1483 108.572 56.4452 105.205 53.7178C102.559 51.5712 99.9242 49.4154 97.3452 47.2079C95.7159 45.8154 94.0585 44.4197 92.5903 42.8934C92.4011 42.6988 92.2189 42.4981 92.0507 42.2913C91.6442 41.7896 92.4011 41.5829 92.8566 41.5768C93.5083 41.5707 94.4684 41.7835 94.8714 42.2822V42.2883Z" fill="#E0A619"/>
<path d="M227.383 83.8592C225.631 85.2821 223.784 86.62 221.934 87.9457C216.969 91.5032 211.814 94.86 206.534 98.0526C202.469 100.509 198.324 102.863 194.109 105.116C193.436 105.478 192.223 105.025 191.677 104.684C190.79 104.131 189.904 103.574 189.021 103.021C186.61 101.513 184.199 100.005 181.788 98.4965C178.221 96.2647 174.658 94.033 171.091 91.8042C166.739 89.0829 162.387 86.3585 158.038 83.6372C153.273 80.6544 148.504 77.6746 143.738 74.6918C138.973 71.709 134.116 68.6714 129.305 65.6612C124.82 62.8548 120.331 60.0483 115.846 57.2419C112.055 54.8702 108.264 52.4986 104.472 50.1269C101.746 48.4211 99.02 46.7154 96.2938 45.0096C95.0043 44.2038 93.6833 43.4224 92.4184 42.5862C92.3658 42.5498 92.3063 42.5163 92.2537 42.4829C91.8823 42.2518 91.8192 41.8717 92.2467 41.6832C92.7688 41.4491 93.5502 41.6285 94.0548 41.8018C106.294 45.9674 118.593 50.0053 130.931 53.955C142.613 57.6949 154.331 61.3558 166.073 64.9528C176.01 67.9964 185.965 70.9944 195.934 73.9529C199.894 75.1266 203.857 76.2942 207.823 77.4526C208.254 77.5773 208.685 77.705 209.113 77.8297C209.323 77.8905 209.533 77.9513 209.744 78.0151C209.849 78.0456 210.584 78.2614 210.213 78.152C211.001 78.3831 211.79 78.6111 212.578 78.8392C214.018 79.2588 215.455 79.6753 216.895 80.0919C219.944 80.9736 222.992 81.8433 226.044 82.7159C226.083 82.7281 226.121 82.7372 226.163 82.7493C226.587 82.8679 227.642 83.172 227.498 83.7193C227.362 84.2331 226.142 84.0811 225.785 83.9808C223.29 83.2754 220.799 82.5578 218.311 81.8402C211.548 79.8912 204.796 77.9179 198.051 75.9232C188.32 73.0468 178.603 70.1309 168.904 67.1755C157.313 63.6393 145.746 60.0453 134.211 56.3753C121.887 52.4529 109.595 48.4485 97.3591 44.3194C95.8663 43.8146 94.3771 43.3099 92.8844 42.8021L94.682 42.118C95.5685 42.6714 96.455 43.2278 97.338 43.7812C99.7488 45.2893 102.16 46.7975 104.57 48.3056C108.137 50.5374 111.701 52.7692 115.268 54.9979C119.62 57.7192 123.972 60.4436 128.321 63.1649C133.086 66.1477 137.855 69.1275 142.62 72.1103C147.432 75.1205 152.243 78.1307 157.054 81.1409C161.539 83.9473 166.027 86.7538 170.512 89.5603C174.304 91.9319 178.095 94.3036 181.887 96.6752C184.613 98.381 187.339 100.087 190.065 101.793C191.354 102.601 192.668 103.386 193.94 104.216C193.996 104.252 194.053 104.286 194.105 104.319L191.673 103.888C198.562 100.202 205.251 96.2404 211.706 92.0049C215.501 89.5146 219.222 86.9362 222.799 84.2149C223.388 83.7679 223.977 83.3179 224.548 82.8527C225.287 82.2507 228.143 83.245 227.383 83.8622V83.8592Z" fill="#E0A619"/>
<path d="M182.122 138.17C180.415 137.149 178.758 136.066 177.125 134.962C173.821 132.725 170.614 130.359 167.671 127.768C165.958 126.26 164.314 124.682 162.906 122.949C162.503 122.453 163.252 122.228 163.711 122.234C164.37 122.244 165.316 122.435 165.726 122.94C168.19 125.974 171.168 128.449 174.374 130.891C177.006 132.895 179.749 134.789 182.57 136.586C182.973 136.841 183.376 137.097 183.782 137.346C183.898 137.416 184.014 137.489 184.129 137.559C184.368 137.705 183.965 137.462 183.982 137.471C184.347 137.69 184.928 138.173 184.27 138.438C183.674 138.678 182.637 138.486 182.118 138.173L182.122 138.17Z" fill="#E0A619"/>
<path d="M181.536 137.641C181.319 135.498 181.109 133.354 180.895 131.211C180.461 126.79 180.033 122.369 179.627 117.948C179.406 115.558 179.192 113.171 178.992 110.781C178.947 110.221 179.833 110.212 180.289 110.273C180.692 110.328 181.091 110.428 181.442 110.608C181.645 110.711 182.009 110.912 182.027 111.137C182.395 115.558 182.812 119.973 183.232 124.388C183.593 128.176 183.965 131.962 184.343 135.747C184.417 136.498 184.494 137.246 184.567 137.997C184.623 138.557 183.719 138.566 183.271 138.505C182.868 138.45 182.468 138.35 182.118 138.17C181.915 138.064 181.554 137.866 181.533 137.641H181.536Z" fill="#E0A619"/>
<path d="M181.533 137.465C182.531 134.74 183.474 132.001 184.396 129.258C186.246 123.764 188.008 118.242 189.49 112.663C190.24 109.847 190.934 107.013 191.369 104.146C191.4 103.942 191.775 103.845 191.95 103.815C192.304 103.757 192.742 103.799 193.082 103.885C193.548 104.003 194.501 104.298 194.417 104.855C193.597 110.267 191.992 115.606 190.377 120.875C188.898 125.707 187.293 130.511 185.612 135.291C185.272 136.255 184.932 137.215 184.581 138.176C184.392 138.693 183.299 138.544 182.868 138.438C182.493 138.344 181.344 137.988 181.533 137.468V137.465Z" fill="#E0A619"/>
<path d="M204.181 143.565C209.369 146.423 214.59 149.226 219.798 152.048C220.511 152.435 221.568 153.655 220.904 154.576C220.198 155.561 218.693 154.925 218.003 154.551C212.798 151.723 207.574 148.926 202.387 146.068C201.675 145.676 200.614 144.467 201.28 143.54C201.984 142.56 203.493 143.186 204.181 143.565Z" fill="#E0A619"/>
<path d="M238.184 160.566C243.694 162.883 249.232 165.142 254.758 167.422C255.515 167.734 256.705 168.835 256.138 169.808C255.534 170.848 253.957 170.366 253.225 170.064C247.7 167.779 242.161 165.526 236.652 163.209C235.896 162.891 234.702 161.801 235.271 160.823C235.874 159.788 237.454 160.259 238.184 160.566Z" fill="#E0A619"/>
<path d="M274.977 173.575C280.817 175.163 286.676 176.691 292.526 178.241C293.328 178.453 294.672 179.385 294.236 180.41C293.773 181.505 292.126 181.228 291.351 181.023C285.502 179.468 279.642 177.945 273.802 176.357C273.002 176.139 271.656 175.218 272.093 174.188C272.555 173.098 274.203 173.364 274.977 173.575Z" fill="#E0A619"/>
<path d="M307.87 180.715C313.962 181.448 320.066 182.12 326.163 182.814C326.999 182.909 328.489 183.632 328.21 184.694C327.916 185.829 326.224 185.789 325.417 185.697C319.319 184.997 313.215 184.331 307.123 183.598C306.288 183.498 304.798 182.786 305.076 181.719C305.37 180.589 307.062 180.618 307.87 180.715Z" fill="#E0A619"/>
<path d="M342.443 183.631C348.638 183.718 354.838 183.743 361.034 183.791C361.883 183.797 363.46 184.353 363.303 185.429C363.139 186.577 361.437 186.714 360.616 186.708C354.419 186.655 348.221 186.635 342.025 186.549C341.176 186.537 339.6 185.992 339.756 184.911C339.921 183.767 341.622 183.619 342.443 183.631Z" fill="#E0A619"/>
<path d="M377.507 181.997C383.725 181.214 389.936 180.371 396.148 179.55C396.999 179.437 398.665 179.759 398.674 180.832C398.686 181.977 397.003 182.35 396.18 182.458C389.966 183.274 383.756 184.123 377.539 184.906C376.687 185.013 375.024 184.702 375.014 183.624C375.003 182.483 376.683 182.101 377.507 181.997Z" fill="#E0A619"/>
<path d="M414.61 175.088C420.703 173.399 426.781 171.652 432.863 169.927C433.696 169.69 435.415 169.756 435.6 170.801C435.8 171.916 434.177 172.529 433.372 172.758C427.287 174.478 421.212 176.23 415.119 177.919C414.283 178.151 412.569 178.094 412.382 177.045C412.184 175.935 413.802 175.312 414.61 175.088Z" fill="#E0A619"/>
<path d="M441.716 164.106C445.181 158.924 448.591 153.713 452.02 148.514C452.49 147.802 453.868 146.696 454.78 147.259C455.756 147.857 454.953 149.345 454.499 150.034C451.065 155.231 447.66 160.443 444.195 165.626C443.72 166.336 442.353 167.445 441.436 166.881C440.465 166.284 441.257 164.793 441.716 164.106Z" fill="#E0A619"/>
<path d="M455.224 137.577C453.308 132.105 451.332 126.659 449.378 121.204C449.111 120.457 449.139 118.81 450.228 118.437C451.391 118.036 452.072 119.463 452.331 120.185C454.28 125.643 456.261 131.086 458.176 136.558C458.439 137.308 458.421 138.949 457.327 139.325C456.169 139.723 455.477 138.302 455.224 137.577Z" fill="#E0A619"/>
<path d="M443.886 114.517C438.214 112.528 432.518 110.597 426.833 108.645C426.054 108.378 424.791 107.352 425.3 106.353C425.84 105.286 427.453 105.675 428.206 105.934C433.89 107.891 439.587 109.816 445.259 111.806C446.036 112.078 447.302 113.094 446.792 114.098C446.252 115.16 444.637 114.781 443.886 114.517Z" fill="#E0A619"/>
<path d="M395.397 125.586C393.155 131.276 390.975 136.981 388.772 142.679C388.47 143.459 387.358 144.808 386.321 144.461C385.212 144.094 385.665 142.5 385.956 141.746C388.165 136.048 390.34 130.343 392.582 124.653C392.889 123.873 393.99 122.524 395.033 122.871C396.136 123.238 395.695 124.832 395.397 125.586Z" fill="#E0A619"/>
<path d="M417.427 107.587C411.951 110.827 406.507 114.118 401.052 117.389C400.305 117.837 398.596 118.244 398.101 117.318C397.569 116.331 398.979 115.315 399.702 114.881C405.16 111.614 410.6 108.32 416.077 105.079C416.828 104.635 418.529 104.22 419.028 105.15C419.556 106.134 418.154 107.158 417.427 107.587Z" fill="#E0A619"/>
<path d="M392.411 154.11C395.129 159.213 397.904 164.282 400.658 169.363C401.035 170.059 401.248 171.674 400.211 172.184C399.104 172.73 398.213 171.424 397.848 170.751C395.099 165.667 392.32 160.602 389.602 155.499C389.229 154.799 389.007 153.191 390.049 152.678C391.151 152.135 392.051 153.434 392.411 154.11Z" fill="#E0A619"/>
<path d="M411.978 186.029C416.643 189.576 421.348 193.071 426.037 196.585C426.679 197.066 427.537 198.428 426.754 199.263C425.919 200.157 424.538 199.321 423.917 198.856C419.231 195.338 414.523 191.847 409.859 188.301C409.219 187.814 408.355 186.463 409.142 185.622C409.974 184.733 411.36 185.559 411.978 186.029Z" fill="#E0A619"/>
<path d="M434.657 202.231C439.79 205.17 444.958 208.054 450.111 210.958C450.817 211.356 451.853 212.593 451.175 213.505C450.453 214.481 448.961 213.821 448.278 213.437C443.127 210.528 437.957 207.648 432.824 204.709C432.12 204.306 431.08 203.08 431.761 202.162C432.481 201.191 433.977 201.841 434.657 202.231Z" fill="#E0A619"/>
<path d="M462.34 215.253C468.181 216.836 474.042 218.359 479.895 219.903C480.696 220.115 482.041 221.046 481.606 222.071C481.144 223.166 479.497 222.891 478.722 222.686C472.87 221.136 467.008 219.618 461.167 218.036C460.366 217.818 459.02 216.899 459.455 215.868C459.916 214.778 461.566 215.043 462.34 215.253Z" fill="#E0A619"/>
<path d="M498.186 224.58C504 226.233 509.835 227.826 515.662 229.44C516.46 229.661 517.791 230.609 517.344 231.63C516.868 232.721 515.226 232.426 514.455 232.212C508.629 230.592 502.793 229.005 496.979 227.352C496.182 227.125 494.848 226.189 495.297 225.163C495.771 224.077 497.415 224.361 498.186 224.58Z" fill="#E0A619"/>
<path d="M532.223 235.624C536.92 238.968 541.664 242.255 546.39 245.562C547.037 246.015 547.856 247.373 546.975 248.313C546.037 249.318 544.633 248.552 544.007 248.114C539.285 244.802 534.538 241.52 529.841 238.177C529.197 237.718 528.371 236.371 529.255 235.426C530.19 234.426 531.601 235.181 532.223 235.624Z" fill="#E0A619"/>
<path d="M556.774 255.535C560.955 259.584 565.181 263.587 569.39 267.607C569.967 268.157 570.653 269.613 569.785 270.369C568.858 271.177 567.596 270.193 567.039 269.661C562.833 265.637 558.603 261.639 554.423 257.589C553.849 257.034 553.156 255.587 554.028 254.827C554.951 254.023 556.22 254.998 556.774 255.535Z" fill="#E0A619"/>
<path d="M578.66 276.249C583.338 279.78 588.057 283.26 592.759 286.757C593.404 287.236 594.267 288.595 593.486 289.433C592.654 290.329 591.27 289.498 590.647 289.035C585.947 285.532 581.226 282.057 576.548 278.527C575.906 278.043 575.038 276.694 575.821 275.852C576.651 274.96 578.04 275.781 578.66 276.249Z" fill="#E0A619"/>
<path d="M601.932 293.004C607.215 295.714 612.53 298.369 617.832 301.044C618.558 301.411 619.654 302.599 619.016 303.536C618.338 304.538 616.812 303.943 616.11 303.589C610.81 300.909 605.493 298.259 600.21 295.548C599.485 295.176 598.386 293.999 599.025 293.057C599.702 292.06 601.232 292.644 601.932 293.004Z" fill="#E0A619"/>
<path d="M632.139 306.886C637.982 307.939 643.84 308.929 649.692 309.942C650.493 310.081 651.888 310.898 651.551 311.98C651.194 313.136 649.561 313.012 648.786 312.878C642.935 311.86 637.077 310.875 631.233 309.822C630.432 309.678 629.037 308.872 629.373 307.785C629.73 306.634 631.364 306.747 632.139 306.886Z" fill="#E0A619"/>
<path d="M669.72 313.832C675.655 314 681.595 314.104 687.532 314.232C688.346 314.249 689.847 314.849 689.675 315.969C689.495 317.165 687.862 317.287 687.075 317.27C681.138 317.137 675.198 317.039 669.263 316.87C668.449 316.847 666.949 316.259 667.12 315.133C667.3 313.943 668.933 313.81 669.72 313.832Z" fill="#E0A619"/>
</svg>
