<svg width="207" height="181" viewBox="0 0 207 181" fill="none" xmlns="http://www.w3.org/2000/svg">
<path d="M170.679 178.903C171.243 176.889 203.58 60.073 203.88 59.0006L101.068 28.5337L68.4663 146.564L170.685 178.903H170.679Z" fill="#FBF5EB"/>
<path d="M173.289 178.587C173.63 177.366 173.966 176.145 174.302 174.924C175.13 171.942 175.952 168.961 176.78 165.973C177.973 161.658 179.167 157.344 180.361 153.03C181.8 147.835 183.234 142.647 184.674 137.452C186.245 131.768 187.823 126.078 189.394 120.393C190.978 114.666 192.567 108.932 194.151 103.204C195.627 97.8794 197.096 92.5608 198.572 87.2361C199.825 82.7048 201.079 78.1735 202.333 73.6422C203.245 70.3569 204.15 67.0715 205.062 63.7862C205.506 62.1807 206.01 60.5752 206.4 58.9511C206.424 58.8582 206.448 58.7714 206.472 58.6784C206.664 57.9841 205.944 57.6184 205.44 57.4696C204.522 57.1969 203.604 56.9241 202.687 56.6576L195.201 54.4384C191.512 53.3475 187.823 52.2503 184.128 51.1593C179.623 49.8266 175.124 48.4938 170.619 47.1549C165.713 45.6982 160.806 44.2477 155.899 42.791C150.992 41.3342 145.942 39.8404 140.969 38.3651C136.326 36.9889 131.684 35.6128 127.041 34.2367C123.118 33.0713 119.195 31.9121 115.272 30.7468L106.808 28.2363C105.471 27.8395 104.139 27.4056 102.795 27.0461C102.735 27.0275 102.681 27.0151 102.621 26.9965C101.302 26.606 98.8483 27.3126 98.4284 28.8375C98.1405 29.8851 97.8465 30.9389 97.5586 31.9865C96.7668 34.8441 95.981 37.7018 95.1893 40.5656C94.0196 44.7932 92.8559 49.0207 91.6862 53.2545C90.2526 58.4366 88.8249 63.625 87.3913 68.8072C85.8317 74.4604 84.2662 80.1199 82.7066 85.7732C81.147 91.4265 79.5514 97.1913 77.9738 102.894C76.5042 108.219 75.0346 113.537 73.565 118.862C72.3233 123.362 71.0816 127.857 69.84 132.357C68.9462 135.593 68.0524 138.828 67.1587 142.064C66.7388 143.589 66.2289 145.12 65.887 146.67C65.875 146.738 65.851 146.806 65.833 146.868C65.6411 147.569 66.3609 147.916 66.8648 148.077C67.7765 148.368 68.6883 148.653 69.6 148.945L77.0441 151.3C80.7151 152.459 84.3801 153.625 88.0512 154.784C92.526 156.197 97.0008 157.617 101.482 159.03C106.358 160.574 111.241 162.117 116.118 163.661C120.994 165.204 126.015 166.791 130.964 168.359C135.577 169.822 140.195 171.279 144.808 172.742L156.511 176.443L164.927 179.108C166.252 179.529 167.578 179.988 168.916 180.373C168.976 180.391 169.03 180.41 169.09 180.428C170.253 180.794 171.915 180.261 172.779 179.406C173.642 178.55 173.307 177.713 172.257 177.385C171.345 177.093 170.433 176.808 169.522 176.517L162.078 174.161C158.406 173.002 154.741 171.837 151.07 170.678C146.596 169.264 142.121 167.845 137.64 166.431C132.763 164.888 127.881 163.344 123.004 161.801C118.127 160.258 113.106 158.671 108.158 157.102C103.545 155.639 98.9263 154.183 94.3135 152.72C90.4145 151.486 86.5096 150.253 82.6106 149.019C79.8033 148.133 77.0021 147.246 74.1948 146.354C72.8752 145.938 71.5495 145.43 70.2059 145.089C70.1459 145.077 70.0919 145.052 70.0319 145.033L71.0637 146.242C71.3516 145.195 71.6455 144.141 71.9334 143.093C72.7252 140.236 73.511 137.378 74.3028 134.514C75.4725 130.287 76.6362 126.059 77.8059 121.825C79.2395 116.643 80.6671 111.455 82.1007 106.272C83.6603 100.619 85.2259 94.9598 86.7855 89.3065C88.3451 83.6532 89.9406 77.8884 91.5182 72.1855C92.9878 66.8608 94.4575 61.5422 95.9271 56.2175C97.1687 51.7172 98.4104 47.2231 99.6521 42.7228C100.546 39.487 101.44 36.2513 102.333 33.0155C102.759 31.4844 103.227 29.9533 103.605 28.4098C103.623 28.3417 103.641 28.2735 103.659 28.2115L99.4661 30.0525C100.384 30.3253 101.302 30.598 102.219 30.8645L109.705 33.0837C113.394 34.1747 117.083 35.2719 120.778 36.3628L134.287 40.3672C139.194 41.8239 144.1 43.2745 149.007 44.7312C153.914 46.1879 158.964 47.6818 163.937 49.1571C168.58 50.5332 173.223 51.9093 177.865 53.2855C181.788 54.4508 185.711 55.61 189.634 56.7754L198.098 59.2859C199.424 59.6826 200.761 60.1661 202.111 60.476C202.171 60.4884 202.225 60.5132 202.285 60.5256L201.253 59.3169C200.935 60.4574 200.623 61.5918 200.305 62.7324C199.496 65.652 198.692 68.5654 197.882 71.485C196.7 75.7498 195.519 80.0207 194.337 84.2855C192.909 89.4491 191.476 94.6126 190.048 99.7762C188.476 105.454 186.905 111.126 185.333 116.804C183.744 122.544 182.154 128.278 180.571 134.018C179.089 139.362 177.607 144.711 176.132 150.054C174.866 154.629 173.6 159.204 172.335 163.778C171.411 167.126 170.481 170.473 169.558 173.82C169.09 175.513 168.622 177.199 168.154 178.891C168.124 179.003 168.094 179.114 168.058 179.226C167.728 180.416 169.647 180.583 170.337 180.484C171.405 180.329 172.947 179.815 173.283 178.593L173.289 178.587Z" fill="#E0A619"/>
<path d="M169.516 147.773C170.349 144.847 171.177 141.915 172.005 138.99C173.889 132.351 175.766 125.712 177.65 119.073C179.893 111.145 182.142 103.223 184.386 95.2945C186.329 88.4386 188.267 81.589 190.21 74.7332C190.858 72.452 191.506 70.1647 192.148 67.8835C192.466 66.7678 192.844 65.6458 193.101 64.5114C193.113 64.4432 193.137 64.3812 193.155 64.3131C193.353 63.625 192.628 63.2531 192.124 63.1043C189.382 62.3108 186.647 61.5112 183.906 60.7178C177.332 58.8086 170.757 56.8993 164.183 54.9901C156.259 52.6904 148.329 50.3844 140.405 48.0847C133.555 46.0949 126.699 44.1051 119.849 42.1153C116.514 41.1483 113.191 40.0697 109.826 39.2081C109.778 39.1957 109.736 39.1833 109.688 39.1647C108.356 38.7803 105.927 39.4746 105.495 41.0057C104.721 43.7332 103.953 46.4606 103.179 49.1881C101.326 55.7402 99.4783 62.2922 97.6248 68.8381C95.3934 76.7354 93.162 84.6326 90.9306 92.5298C88.9991 99.3609 87.0736 106.186 85.1421 113.017L83.2286 119.798C82.9287 120.858 82.5448 121.937 82.3169 123.015C82.3049 123.065 82.2929 123.108 82.2749 123.158C82.0769 123.852 82.8087 124.212 83.3066 124.367C86.0239 125.204 88.7352 126.04 91.4524 126.877C97.9727 128.886 104.499 130.894 111.019 132.902C118.913 135.332 126.807 137.762 134.701 140.192C141.545 142.3 148.389 144.407 155.234 146.515C158.539 147.531 161.838 148.672 165.173 149.577C165.221 149.589 165.263 149.608 165.311 149.62C166.481 149.98 168.136 149.453 169 148.598C169.864 147.742 169.534 146.899 168.478 146.577C165.761 145.74 163.049 144.903 160.332 144.066C153.812 142.058 147.286 140.05 140.765 138.041C132.871 135.611 124.978 133.181 117.084 130.751C110.239 128.644 103.395 126.536 96.5511 124.429L89.8089 122.352C88.7532 122.03 87.6854 121.608 86.6117 121.366C86.5637 121.354 86.5157 121.335 86.4738 121.323L87.5055 122.532C88.2793 119.804 89.0471 117.077 89.8209 114.349C91.6744 107.797 93.5219 101.245 95.3754 94.6994C97.6068 86.8022 99.8382 78.9049 102.07 71.0077C104.001 64.1767 105.927 57.3518 107.858 50.5208C108.8 47.1983 109.874 43.8819 110.683 40.5222C110.695 40.4726 110.707 40.4292 110.725 40.3796L106.532 42.2207C109.274 43.0141 112.009 43.8137 114.75 44.6072C121.325 46.5164 127.899 48.4256 134.473 50.3348C142.397 52.6346 150.327 54.9405 158.251 57.2403C165.101 59.2301 171.957 61.2199 178.807 63.2097L185.621 65.1871C186.677 65.497 187.751 65.8937 188.831 66.1169C188.879 66.1293 188.927 66.1417 188.969 66.1603L187.937 64.9515C187.133 67.772 186.335 70.6048 185.537 73.4252C183.672 80.0083 181.806 86.5976 179.941 93.1807C177.698 101.103 175.454 109.025 173.205 116.947C171.249 123.846 169.294 130.751 167.338 137.651C166.349 141.141 165.203 144.63 164.357 148.164C164.339 148.244 164.309 148.325 164.291 148.405C163.949 149.596 165.887 149.757 166.57 149.664C167.644 149.509 169.174 148.994 169.516 147.773Z" fill="#E0A619"/>
<path d="M137.52 88.2959C135.367 87.6574 132.919 84.3039 131.726 82.3885C131.504 82.0352 130.442 80.2933 129.638 77.7146C128.594 74.3487 127.887 72.0675 128.966 69.8608C130.238 67.2635 133.675 65.3667 136.35 66.0795C139.368 66.8854 141.989 72.8424 141.989 72.8424C141.989 72.8424 144.892 69.4269 147.195 69.4083C149.793 69.3835 152.732 71.4415 153.722 74.1007C154.963 77.4481 152.66 80.5164 151.322 82.3017C148.479 86.0891 139.038 88.7422 137.52 88.2959Z" fill="#E0A619"/>
<path d="M103.539 128.861C108.554 126.48 113.574 124.106 118.589 121.726C126.525 117.963 134.461 114.201 142.391 110.438C144.208 109.576 146.026 108.715 147.849 107.853C148.353 107.611 149.241 107.004 148.761 106.341C148.305 105.715 146.991 106.012 146.452 106.266C141.437 108.647 136.416 111.021 131.402 113.401C123.466 117.164 115.53 120.926 107.6 124.689C105.782 125.551 103.965 126.412 102.141 127.274C101.638 127.516 100.75 128.123 101.23 128.786C101.686 129.412 102.999 129.115 103.539 128.861Z" fill="#E0A619"/>
<path d="M168.478 146.329C166.264 141.835 164.045 137.335 161.832 132.84C158.328 125.724 154.819 118.614 151.316 111.498C150.507 109.855 149.697 108.219 148.893 106.576C148.539 105.857 147.561 105.919 146.907 106.105C146.512 106.217 145.072 106.843 145.414 107.543C147.627 112.037 149.847 116.538 152.06 121.032C155.563 128.148 159.072 135.258 162.575 142.374C163.385 144.017 164.195 145.653 164.999 147.296C165.353 148.015 166.33 147.953 166.984 147.767C167.38 147.655 168.82 147.029 168.478 146.329Z" fill="#E0A619"/>
<path d="M129.428 115.701C127.677 112.378 125.931 109.062 124.18 105.739C121.378 100.421 118.577 95.1085 115.776 89.79C115.134 88.575 114.498 87.3601 113.856 86.1513C113.479 85.4384 112.543 85.4942 111.871 85.6802C111.493 85.7856 110.017 86.4302 110.377 87.1183C112.129 90.4408 113.874 93.7572 115.626 97.0797C118.427 102.398 121.228 107.711 124.03 113.029C124.672 114.244 125.307 115.459 125.949 116.668C126.327 117.381 127.263 117.325 127.935 117.139C128.313 117.034 129.788 116.389 129.428 115.701Z" fill="#E0A619"/>
<path d="M93.5338 98.3567C99.1543 95.0713 104.781 91.7798 110.401 88.4945C111.199 88.0234 112.003 87.5584 112.801 87.0873C113.341 86.7712 113.766 86.0212 113.089 85.612C112.369 85.1781 111.277 85.5438 110.623 85.9282C105.003 89.2135 99.3763 92.5051 93.7557 95.7904C92.958 96.2615 92.1542 96.7264 91.3564 97.1975C90.8165 97.5136 90.3907 98.2637 91.0685 98.6728C91.7883 99.1067 92.88 98.741 93.5338 98.3567Z" fill="#E0A619"/>
<path d="M36.8008 166.462C36.237 164.448 3.89953 47.6321 3.59961 46.5597L106.412 16.0928L139.014 134.123L36.7948 166.462H36.8008Z" fill="#FBF5EB"/>
<path d="M39.41 165.737C39.0681 164.516 38.7322 163.295 38.3963 162.073C37.5685 159.092 36.7467 156.11 35.9189 153.122C34.7252 148.808 33.5316 144.494 32.3379 140.179C30.8983 134.985 29.4646 129.796 28.025 124.602C26.4534 118.918 24.8759 113.227 23.3043 107.543C21.7207 101.815 20.1311 96.0814 18.5475 90.3538C17.0719 85.029 15.6023 79.7105 14.1267 74.3857C12.873 69.8544 11.6194 65.3231 10.3657 60.7918C9.45394 57.5065 8.54818 54.2212 7.63642 50.9358C7.19254 49.3303 6.79665 47.6939 6.29878 46.1008C6.26879 46.014 6.25079 45.921 6.2268 45.828L3.98939 47.979C4.90715 47.7062 5.82491 47.4335 6.74266 47.167C9.238 46.4293 11.7333 45.6855 14.2287 44.9478C17.9177 43.8568 21.6067 42.7596 25.3017 41.6687L38.8102 37.6643C43.7169 36.2076 48.6235 34.757 53.5302 33.3003C58.5089 31.825 63.4876 30.3497 68.4603 28.8744C73.1031 27.4983 77.7458 26.1222 82.3886 24.746L94.1575 21.2561L102.621 18.7456C103.959 18.3489 105.308 17.9894 106.634 17.5555C106.688 17.5369 106.748 17.5245 106.808 17.5059L103.827 16.7992C104.115 17.8468 104.409 18.9006 104.697 19.9482C105.488 22.8058 106.274 25.6634 107.066 28.5273C108.236 32.7548 109.399 36.9824 110.569 41.2161C112.003 46.3983 113.43 51.5867 114.864 56.7689C116.424 62.4221 117.989 68.0816 119.549 73.7349C121.108 79.3881 122.704 85.153 124.281 90.8559C125.751 96.1806 127.221 101.499 128.69 106.824C129.932 111.324 131.174 115.818 132.415 120.319C133.309 123.554 134.203 126.79 135.097 130.026C135.516 131.551 135.87 133.125 136.368 134.632C136.392 134.7 136.404 134.768 136.422 134.83L138.66 132.679C137.748 132.97 136.836 133.255 135.924 133.547L128.48 135.902C124.809 137.061 121.144 138.227 117.473 139.386C112.998 140.799 108.524 142.219 104.043 143.632C99.1661 145.176 94.2834 146.719 89.4067 148.263L74.5607 152.961C69.9479 154.424 65.3291 155.881 60.7163 157.344C56.8174 158.577 52.9124 159.811 49.0134 161.044C46.2062 161.931 43.4049 162.817 40.5977 163.71C39.266 164.131 37.9344 164.547 36.6087 164.974C36.5488 164.993 36.4948 165.012 36.4348 165.03C35.637 165.284 33.8975 166.01 34.1974 167.181C34.4973 168.353 36.4228 168.13 37.1786 167.888C38.0904 167.597 39.0021 167.311 39.9139 167.02L47.3579 164.665C51.0289 163.505 54.6939 162.34 58.365 161.181C62.8398 159.768 67.3146 158.348 71.7954 156.935C76.6721 155.391 81.5548 153.848 86.4315 152.304L101.278 147.606L115.122 143.223C119.021 141.989 122.926 140.756 126.825 139.522C129.632 138.636 132.433 137.749 135.241 136.857C136.572 136.435 137.904 136.02 139.229 135.592C139.289 135.574 139.343 135.555 139.403 135.537C140.171 135.295 141.959 134.545 141.641 133.386C141.353 132.338 141.059 131.284 140.771 130.237C139.979 127.379 139.194 124.521 138.402 121.658C137.232 117.43 136.068 113.202 134.899 108.969C133.465 103.786 132.037 98.5981 130.604 93.4159C129.044 87.7627 127.479 82.1032 125.919 76.4499C124.359 70.7967 122.764 65.0318 121.186 59.3289C119.717 54.0042 118.247 48.6857 116.777 43.3609C115.536 38.8606 114.294 34.3665 113.052 29.8662C112.159 26.6305 111.265 23.3947 110.371 20.1589C109.951 18.6279 109.585 17.0658 109.099 15.5533C109.076 15.4851 109.064 15.4169 109.046 15.3549C108.734 14.2205 106.838 14.4189 106.064 14.6482C105.147 14.921 104.229 15.1937 103.311 15.4603C100.816 16.1979 98.3204 16.9418 95.825 17.6794C92.136 18.7704 88.447 19.8676 84.752 20.9586C80.2472 22.2913 75.7483 23.6241 71.2435 24.963C66.3368 26.4197 61.4302 27.8702 56.5235 29.3269C51.6168 30.7836 46.5661 32.2775 41.5934 33.7528C36.9506 35.129 32.3079 36.5051 27.6651 37.8812L15.8962 41.3711C13.077 42.2079 10.2517 43.0448 7.43248 43.8816C6.09483 44.2783 4.75719 44.6627 3.41954 45.0718C3.35956 45.0904 3.30558 45.1028 3.24559 45.1214C2.4778 45.3507 0.690263 46.1256 1.00818 47.2723C1.32609 48.4191 1.63801 49.5473 1.95593 50.6879C2.76571 53.6075 3.56951 56.5209 4.37929 59.4405C5.56098 63.7053 6.74266 67.9762 7.92434 72.241C9.35196 77.4045 10.7856 82.5681 12.2132 87.7317C13.7848 93.4097 15.3564 99.0816 16.928 104.76C18.5175 110.5 20.1071 116.234 21.6907 121.974C23.1723 127.317 24.6539 132.667 26.1295 138.01C27.3952 142.585 28.6608 147.159 29.9265 151.734C30.8503 155.081 31.78 158.429 32.7038 161.776C33.1716 163.468 33.6395 165.154 34.1074 166.846C34.1374 166.958 34.1674 167.07 34.2034 167.181C34.5213 168.316 36.3688 168.136 37.1846 167.888C37.9464 167.659 39.7459 166.89 39.422 165.737H39.41Z" fill="#E0A619"/>
<path d="M43.1831 134.929C42.3493 132.003 41.5215 129.071 40.6937 126.145C38.8102 119.506 36.9327 112.867 35.0492 106.229C32.8058 98.3003 30.5564 90.3783 28.313 82.4501C26.3695 75.5943 24.432 68.7446 22.4886 61.8888C21.8407 59.6076 21.1929 57.3203 20.5511 55.0392C20.2332 53.9172 19.9692 52.7704 19.5973 51.667C19.5733 51.605 19.5613 51.5369 19.5433 51.4687L17.3059 53.6196C20.0472 52.8262 22.7825 52.0266 25.5238 51.2331C32.098 49.3239 38.6723 47.4147 45.2465 45.5055C53.1704 43.2057 61.1003 40.8998 69.0242 38.6C75.8744 36.6102 82.7306 34.6204 89.5808 32.6306C92.9159 31.6636 96.305 30.8082 99.6041 29.7234C99.6521 29.711 99.6941 29.6986 99.7421 29.68L96.7608 28.9733C97.5346 31.7008 98.3025 34.4283 99.0762 37.1557C100.93 43.7078 102.777 50.2599 104.631 56.8058C106.862 64.703 109.094 72.6003 111.325 80.4975C113.256 87.3285 115.182 94.1534 117.113 100.984L119.027 107.766C119.327 108.832 119.567 109.942 119.939 110.983C119.957 111.026 119.963 111.076 119.981 111.126L122.218 108.975C119.501 109.811 116.79 110.648 114.072 111.485C107.552 113.493 101.026 115.502 94.5054 117.51C86.6115 119.94 78.7176 122.37 70.8237 124.8C63.9796 126.908 57.1354 129.015 50.2912 131.123C46.9801 132.146 43.6569 133.137 40.3518 134.185C40.3038 134.197 40.2618 134.216 40.2139 134.228C39.4161 134.476 37.6765 135.214 37.9764 136.379C38.2764 137.545 40.1959 137.322 40.9577 137.086C43.6749 136.249 46.3862 135.412 49.1035 134.575C55.6238 132.567 62.15 130.559 68.6703 128.55C76.5642 126.12 84.4581 123.69 92.352 121.261C99.1962 119.153 106.04 117.045 112.885 114.938C116.196 113.915 119.519 112.923 122.824 111.876C122.872 111.863 122.914 111.845 122.962 111.832C123.724 111.597 125.523 110.834 125.199 109.681C124.426 106.954 123.658 104.226 122.884 101.499C121.03 94.9468 119.183 88.3947 117.329 81.8488C115.098 73.9516 112.867 66.0544 110.635 58.1571C108.704 51.3261 106.778 44.5012 104.847 37.6702L102.933 30.8888C102.633 29.8226 102.381 28.7192 102.021 27.6716C102.003 27.6282 101.997 27.5786 101.979 27.529C101.656 26.3885 99.7781 26.593 98.9983 26.8224C96.257 27.6158 93.5217 28.4155 90.7804 29.2089C84.2062 31.1181 77.6319 33.0274 71.0577 34.9366C63.1338 37.2363 55.2039 39.5422 47.28 41.842C40.4298 43.8318 33.5736 45.8216 26.7234 47.8114C23.3823 48.7784 20.0292 49.7144 16.7001 50.7186C16.6521 50.731 16.6101 50.7434 16.5621 50.762C15.8003 50.9852 14.0008 51.7724 14.3247 52.913C15.1285 55.7334 15.9263 58.5663 16.7241 61.3867C18.5896 67.9698 20.4551 74.5591 22.3206 81.1421C24.564 89.0642 26.8074 96.9862 29.0568 104.908C31.0123 111.807 32.9678 118.713 34.9233 125.612C35.913 129.108 36.8008 132.66 37.9045 136.125C37.9285 136.206 37.9524 136.286 37.9704 136.367C38.2944 137.501 40.1299 137.328 40.9517 137.074C41.7075 136.844 43.519 136.076 43.1891 134.923L43.1831 134.929Z" fill="#E0A619"/>
<path d="M69.9661 75.855C72.1195 75.2165 74.5668 71.863 75.7605 69.9476C75.9825 69.5942 77.0442 67.8524 77.848 65.2737C78.8917 61.9078 79.5995 59.6266 78.5198 57.4199C77.2481 54.8226 73.8111 52.9258 71.1358 53.6386C68.1186 54.4445 65.4973 60.4015 65.4973 60.4015C65.4973 60.4015 62.594 56.9859 60.2906 56.9674C57.6933 56.9426 54.7541 59.0005 53.7644 61.6598C52.5227 65.0072 54.8261 68.0755 56.1637 69.8608C59.007 73.6482 68.4485 76.3013 69.9661 75.855Z" fill="#E0A619"/>
<path d="M106.022 114.727C101.008 112.347 95.9869 109.973 90.9722 107.592C83.0363 103.83 75.1004 100.067 67.1705 96.3045C65.353 95.4428 63.5355 94.5812 61.712 93.7196C60.9502 93.36 59.9304 93.5832 59.2466 94.0357C58.7847 94.3395 58.1909 95.1453 58.9587 95.511C63.9734 97.8913 68.994 100.265 74.0087 102.646C81.9446 106.408 89.8805 110.171 97.8104 113.934C99.6279 114.795 101.445 115.657 103.269 116.519C104.031 116.878 105.05 116.655 105.734 116.202C106.196 115.899 106.79 115.093 106.022 114.727Z" fill="#E0A619"/>
<path d="M42.3673 134.433C44.5807 129.939 46.8001 125.439 49.0135 120.945C52.5166 113.829 56.0257 106.719 59.5287 99.6023C60.3385 97.9597 61.1483 96.3232 61.9521 94.6805C62.7559 93.0378 59.2468 93.4346 58.7009 94.5503C56.4875 99.0444 54.2681 103.545 52.0547 108.039C48.5516 115.155 45.0426 122.265 41.5395 129.381C40.7297 131.024 39.9199 132.66 39.1161 134.303C38.3124 135.946 41.8214 135.549 42.3673 134.433Z" fill="#E0A619"/>
<path d="M81.4168 103.805C83.1684 100.482 84.9139 97.1662 86.6654 93.8436C89.4667 88.5251 92.2679 83.2127 95.0692 77.8942C95.711 76.6792 96.3469 75.4643 96.9887 74.2555C97.3726 73.5241 96.6528 73.1521 96.0289 73.1211C95.3031 73.0839 94.1214 73.3939 93.7375 74.1192C91.986 77.4417 90.2405 80.758 88.4889 84.0806C85.6877 89.3991 82.8864 94.7114 80.0852 100.03C79.4433 101.245 78.8075 102.46 78.1657 103.669C77.7818 104.4 78.5016 104.772 79.1254 104.803C79.8512 104.84 81.0329 104.53 81.4168 103.805Z" fill="#E0A619"/>
<path d="M116.417 84.4338C110.797 81.1485 105.17 77.8569 99.55 74.5716C98.7522 74.1005 97.9484 73.6356 97.1506 73.1645C96.4368 72.7492 95.3271 73.0529 94.6853 73.4806C94.1754 73.8215 93.6775 74.5344 94.3973 74.9559C100.018 78.2413 105.644 81.5328 111.265 84.8182C112.063 85.2893 112.866 85.7542 113.664 86.2253C114.378 86.6406 115.488 86.3368 116.13 85.9091C116.639 85.5682 117.137 84.8553 116.417 84.4338Z" fill="#E0A619"/>
<path d="M44.7247 151.245C44.7187 148.74 44.6408 3.50949 44.6348 2.17676H172.719V148.889L44.7247 151.245Z" fill="#FBF5EB"/>
<path d="M47.34 150.934C47.34 149.416 47.34 147.891 47.34 146.372C47.34 142.659 47.34 138.946 47.334 135.227C47.334 129.877 47.328 124.528 47.322 119.178C47.322 112.713 47.316 106.248 47.31 99.7823C47.31 92.7033 47.304 85.6305 47.298 78.5515C47.292 71.4725 47.292 64.344 47.286 57.2402C47.286 50.5889 47.28 43.9376 47.274 37.2925C47.274 31.6765 47.268 26.0604 47.262 20.4505C47.262 16.3779 47.262 12.2991 47.256 8.22655C47.256 6.21815 47.256 4.21595 47.256 2.20755C47.256 2.09597 47.256 1.9844 47.256 1.87282L43.645 3.78823H166.534C168.19 3.78823 169.863 3.86262 171.519 3.78823C171.591 3.78823 171.663 3.78823 171.735 3.78823L170.115 2.50509V131.216C170.115 135.233 170.115 139.244 170.115 143.26C170.115 145.163 170.055 147.073 170.115 148.976C170.115 149.056 170.115 149.143 170.115 149.224L173.726 147.308C172.587 147.327 171.447 147.352 170.307 147.37L161.004 147.544C156.415 147.631 151.826 147.711 147.243 147.798C141.647 147.903 136.05 148.002 130.448 148.108C124.318 148.219 118.181 148.331 112.051 148.449C105.836 148.56 99.6221 148.678 93.4018 148.79C87.6313 148.895 81.8548 149 76.0844 149.106C71.2076 149.193 66.3309 149.286 61.4482 149.372C57.9392 149.434 54.4301 149.503 50.927 149.565C49.2655 149.596 47.6039 149.62 45.9424 149.658C45.8704 149.658 45.7984 149.658 45.7264 149.658C44.5447 149.682 42.9611 150.023 42.2893 151.158C41.6655 152.218 42.8232 152.875 43.7349 152.856C44.8746 152.837 46.0143 152.813 47.154 152.794L56.4576 152.621C61.0463 152.534 65.6351 152.453 70.2179 152.366C75.8144 152.261 81.4109 152.162 87.0135 152.056C93.1438 151.945 99.2802 151.833 105.411 151.716C111.625 151.604 117.839 151.486 124.06 151.375C129.83 151.269 135.607 151.164 141.377 151.058C146.254 150.972 151.13 150.879 156.013 150.792C159.522 150.73 163.031 150.662 166.534 150.6C168.196 150.569 169.857 150.544 171.519 150.507C171.591 150.507 171.663 150.507 171.735 150.507C172.569 150.494 173.331 150.339 174.074 149.936C174.506 149.701 175.346 149.199 175.346 148.591V7.83602C175.346 5.933 175.346 4.02998 175.346 2.12076C175.346 2.04018 175.346 1.9534 175.346 1.87282C175.346 0.955401 174.548 0.589669 173.726 0.589669H50.8371C49.1755 0.589669 47.5139 0.58347 45.8524 0.589669C45.7804 0.589669 45.7084 0.589669 45.6364 0.589669C44.8086 0.589669 44.0349 0.763233 43.2971 1.15995C42.8712 1.38931 42.0254 1.89762 42.0254 2.50509C42.0254 3.92461 42.0254 5.33793 42.0254 6.75745C42.0254 10.3899 42.0254 14.0224 42.0314 17.6611C42.0314 22.9548 42.0374 28.2424 42.0434 33.5361C42.0434 39.9642 42.0494 46.3923 42.0554 52.8267C42.0554 59.887 42.0614 66.9536 42.0674 74.014C42.0734 81.0744 42.0734 88.2402 42.0794 95.3564C42.0794 102.039 42.0854 108.715 42.0914 115.397C42.0914 121.063 42.0974 126.734 42.1034 132.4C42.1034 136.547 42.1034 140.7 42.1094 144.847C42.1094 146.949 42.1094 149.056 42.1094 151.158C42.1094 151.294 42.1094 151.437 42.1094 151.573C42.1094 152.769 43.447 152.961 44.3888 152.831C45.0786 152.732 45.7684 152.521 46.3622 152.131C46.7162 151.895 47.34 151.43 47.34 150.947V150.934Z" fill="#E0A619"/>
<path d="M61.4841 116.816C61.4541 113.159 61.4361 109.508 61.4121 105.851C61.3582 97.6187 61.3042 89.3868 61.2502 81.1548C61.1842 71.243 61.1182 61.3312 61.0582 51.4193C61.0043 42.896 60.9443 34.3665 60.8903 25.8432C60.8603 21.6095 60.9862 17.3385 60.8063 13.1048C60.8063 13.0304 60.8063 12.9498 60.8063 12.8754L57.1953 14.7908C58.107 14.7908 59.0188 14.8032 59.9305 14.8032L67.4165 14.8466C71.0876 14.8652 74.7646 14.8838 78.4356 14.9086C82.9164 14.9334 87.3973 14.9582 91.8781 14.983C96.7848 15.0078 101.691 15.0388 106.598 15.0636C111.505 15.0884 116.555 15.1194 121.534 15.1442L135.397 15.2186L147.117 15.2806L155.587 15.3239C156.913 15.3301 158.256 15.4169 159.576 15.3487C159.636 15.3487 159.69 15.3487 159.75 15.3487L158.13 14.0656C158.148 17.4749 158.172 20.8842 158.19 24.2936C158.238 32.4263 158.286 40.5529 158.334 48.6857C158.394 58.5665 158.448 68.4473 158.508 78.322C158.556 86.8143 158.61 95.3066 158.658 103.793C158.676 106.601 158.694 109.415 158.706 112.223C158.712 113.537 158.664 114.87 158.73 116.184C158.73 116.24 158.73 116.302 158.73 116.364L162.341 114.448C161.43 114.461 160.524 114.467 159.612 114.479C157.117 114.504 154.627 114.529 152.132 114.56C148.461 114.597 144.79 114.634 141.119 114.678L127.689 114.82C122.788 114.87 117.881 114.926 112.98 114.975C108.08 115.025 103.029 115.081 98.0564 115.13C93.4376 115.18 88.8249 115.229 84.2061 115.279C80.3011 115.322 76.4022 115.36 72.4972 115.403C69.6779 115.434 66.8587 115.465 64.0334 115.49C62.7018 115.502 61.3762 115.508 60.0445 115.533C59.9845 115.533 59.9305 115.533 59.8705 115.533C58.6889 115.546 57.1053 115.905 56.4335 117.033C55.8036 118.099 56.9673 118.744 57.8791 118.732C58.7908 118.719 59.6966 118.713 60.6084 118.701C63.1037 118.676 65.593 118.651 68.0884 118.62C71.7594 118.583 75.4304 118.546 79.1014 118.502L92.5319 118.36C97.4326 118.31 102.339 118.254 107.24 118.205C112.141 118.155 117.191 118.099 122.164 118.05C126.783 118 131.396 117.951 136.014 117.901C139.919 117.858 143.818 117.82 147.723 117.777C150.542 117.746 153.362 117.715 156.187 117.69C157.519 117.678 158.844 117.672 160.176 117.647C160.236 117.647 160.29 117.647 160.35 117.647C161.178 117.641 161.951 117.473 162.689 117.077C163.115 116.847 163.961 116.339 163.961 115.732C163.943 112.322 163.919 108.913 163.901 105.504C163.853 97.3708 163.805 89.2442 163.757 81.1114C163.697 71.2306 163.643 61.3498 163.583 51.4751C163.535 42.9828 163.481 34.4905 163.433 26.0044C163.409 21.876 163.391 17.7477 163.361 13.6131C163.361 13.5511 163.361 13.4953 163.361 13.4333C163.361 12.5159 162.569 12.1564 161.742 12.1502C160.83 12.1502 159.918 12.1378 159.006 12.1378L151.52 12.0944C147.849 12.0758 144.172 12.0572 140.501 12.0324C136.02 12.0076 131.54 11.9828 127.059 11.958C122.152 11.9332 117.245 11.9022 112.339 11.8774C107.432 11.8526 102.381 11.8216 97.4026 11.7968L83.5403 11.7225L71.8194 11.6605L63.3496 11.6171C62.018 11.6109 60.6863 11.5923 59.3607 11.5923C59.3007 11.5923 59.2467 11.5923 59.1867 11.5923C58.359 11.5923 57.5791 11.7658 56.8473 12.1626C56.4215 12.3919 55.5757 12.9064 55.5757 13.5077C55.6057 17.0348 55.6237 20.5619 55.6477 24.0828C55.7016 32.2466 55.7556 40.4165 55.8096 48.5803C55.8756 58.4859 55.9416 68.3978 56.0016 78.3034C56.0556 86.8887 56.1155 95.4739 56.1695 104.059C56.1995 108.423 56.2235 112.793 56.2595 117.157C56.2595 117.25 56.2595 117.349 56.2595 117.442C56.2715 118.639 57.5912 118.837 58.5389 118.701C59.2287 118.602 59.9185 118.391 60.5124 118C60.8663 117.765 61.4901 117.294 61.4901 116.816H61.4841Z" fill="#E0A619"/>
<path d="M111.733 58.4305C114.414 58.4305 118.301 55.4117 120.287 53.614C120.653 53.2793 122.434 51.649 124.174 48.9526C126.447 45.4379 127.989 43.0638 127.443 40.1565C126.807 36.741 123.454 33.3937 120.143 33.3007C116.412 33.2015 111.493 39.1523 111.493 39.1523C111.493 39.1523 109.238 34.2429 106.592 33.4371C103.611 32.5259 99.5683 33.8834 97.5828 36.6046C95.0875 40.0264 96.761 44.3345 97.7388 46.845C99.8082 52.1697 109.832 58.4243 111.727 58.4305H111.733Z" fill="#E0A619"/>
<path d="M140.627 115.223C139.158 113.921 137.688 112.62 136.219 111.324C132.691 108.2 129.158 105.082 125.631 101.958C121.36 98.1828 117.09 94.4016 112.819 90.6266C109.13 87.3598 105.435 84.0931 101.746 80.8263C99.9522 79.2394 98.1886 77.6091 96.3651 76.0656C96.3411 76.047 96.3171 76.0223 96.2871 75.9975C95.6693 75.452 94.6676 75.6131 93.9778 75.9231C93.5999 76.0905 92.4482 76.8839 93.066 77.4356C94.5356 78.7373 96.0052 80.0391 97.4748 81.3346C101.002 84.4588 104.535 87.5768 108.062 90.7009C112.333 94.476 116.604 98.2572 120.875 102.032C124.564 105.299 128.259 108.566 131.948 111.833C133.741 113.419 135.505 115.05 137.328 116.593C137.352 116.612 137.376 116.637 137.406 116.661C138.024 117.207 139.026 117.046 139.716 116.736C140.094 116.568 141.245 115.775 140.627 115.223Z" fill="#E0A619"/>
<path d="M60.8724 116.048C62.0421 114.752 63.2118 113.457 64.3755 112.161C67.1827 109.055 69.99 105.944 72.7913 102.838C76.1684 99.094 79.5455 95.3562 82.9226 91.6121C85.8558 88.3578 88.795 85.1096 91.7282 81.8552C93.1559 80.2746 94.6075 78.7125 96.0111 77.107C96.0291 77.0822 96.0531 77.0636 96.0711 77.0388C96.5629 76.4933 96.467 75.8796 95.7232 75.6875C94.9794 75.4953 93.8097 75.7619 93.2638 76.3693C92.0941 77.6649 90.9244 78.9604 89.7607 80.256C86.9535 83.3615 84.1462 86.4733 81.345 89.5789C77.9679 93.323 74.5908 97.0608 71.2137 100.805C68.2805 104.059 65.3412 107.307 62.408 110.562C60.9804 112.142 59.5288 113.704 58.1251 115.31C58.1071 115.335 58.0831 115.353 58.0652 115.378C57.5733 115.924 57.6693 116.537 58.4131 116.729C59.1569 116.922 60.3266 116.655 60.8724 116.048Z" fill="#E0A619"/>
<path d="M115.584 94.154C118.655 90.9306 121.732 87.7135 124.804 84.4901C129.71 79.3513 134.611 74.2064 139.518 69.0676C140.651 67.8774 141.785 66.6935 142.919 65.5033C143.429 64.9702 143.303 64.3379 142.571 64.152C141.797 63.9598 140.681 64.2388 140.112 64.8338C137.04 68.0572 133.963 71.2744 130.892 74.4977C125.985 79.6365 121.085 84.7815 116.178 89.9202C115.044 91.1104 113.911 92.2944 112.777 93.4845C112.267 94.0176 112.393 94.6499 113.125 94.8358C113.899 95.028 115.014 94.7491 115.584 94.154Z" fill="#E0A619"/>
<path d="M162.233 83.957C160.146 81.7689 158.058 79.5807 155.977 77.3925C152.63 73.884 149.283 70.3755 145.936 66.8608C145.168 66.055 144.4 65.2492 143.632 64.4433C142.739 63.5073 139.439 64.8586 140.411 65.8814C142.499 68.0696 144.586 70.2578 146.668 72.4459C150.015 75.9544 153.362 79.4629 156.709 82.9776C157.477 83.7835 158.244 84.5893 159.012 85.3951C159.906 86.3312 163.205 84.9798 162.233 83.957Z" fill="#E0A619"/>
</svg>
