<svg width="82" height="106" viewBox="0 0 82 106" fill="none" xmlns="http://www.w3.org/2000/svg">
<path d="M7.45336 102.711C7.38786 89.923 7.32234 77.1484 7.26776 64.3609C7.21317 54.2805 7.00574 44.2129 6.86382 34.1324C6.7874 28.9246 6.71097 23.7168 6.63455 18.509L2.26758 21.7316H16.0781C17.5301 21.7316 19.9975 21.0613 20.456 19.0762C20.6853 18.0965 20.9473 17.4519 20.5652 16.498C20.1831 15.5441 19.659 14.6031 19.2988 13.5848C19.0149 12.7855 18.7747 11.9734 18.6001 11.1355C18.5127 10.723 18.4472 10.3105 18.3926 9.89804C18.3708 9.73046 18.3162 8.841 18.3162 9.09881C18.3162 8.4285 18.3817 7.7453 18.5236 7.10077C18.5564 6.94608 18.7747 6.24999 18.6765 6.52069C18.5891 6.76561 18.9057 6.01795 18.9931 5.87616C19.1132 5.65702 19.6481 5.02537 19.1241 5.63123C19.2551 5.47654 19.4298 5.33476 19.528 5.16718C19.8228 4.70312 18.9603 5.541 19.4079 5.2703C19.4953 5.21873 19.5608 5.1285 19.6481 5.08983C20.3359 4.69022 18.9385 5.4121 19.7682 5.01249C20.5979 4.61288 19.2333 5.11561 19.6918 5.01249C19.8119 4.98671 19.932 4.92225 20.0521 4.89647C20.6198 4.76756 19.7573 4.79335 19.7027 4.96092C19.7245 4.88358 20.3141 4.8578 20.3687 4.8578C21.2421 4.70311 19.7901 4.78045 20.5543 4.8578C20.8054 4.88358 21.0674 4.90936 21.3185 4.90936C20.7071 4.88358 21.0565 4.84491 21.4386 4.94803C21.6569 5.01248 21.8862 5.07694 22.1046 5.14139C22.705 5.29608 21.7989 4.92225 22.4539 5.28319C22.8906 5.52811 23.3055 5.77303 23.7203 6.06952C24.2116 6.43046 23.5893 5.86327 24.0042 6.34022C24.1898 6.54647 24.3645 6.73983 24.5391 6.94608C24.7138 7.15233 24.8557 7.39725 25.0086 7.62928C25.1833 7.89999 25.2597 8.10624 25.2051 7.96444C25.4562 8.54452 25.6309 9.15038 25.7401 9.79491C25.9584 11.1484 25.7728 12.5535 25.2815 14.1519C25.0304 14.9898 24.5719 15.8148 24.1679 16.743C23.633 17.9289 24.1352 18.6379 24.5719 19.7336C24.9322 20.623 25.7182 20.9582 26.5261 20.9453C32.225 20.9324 37.9239 20.9195 43.6228 20.9066L71.0256 20.8293C73.1217 20.8293 75.2069 20.8293 77.3031 20.8164L75.3379 19.0375C75.3379 28.5894 75.3379 38.1414 75.3379 47.6933C75.3379 62.8527 75.3379 77.9992 75.3379 93.1586V103.6L79.7158 100.945H54.6822C41.3302 100.945 27.989 100.945 14.637 100.945H5.48822C4.09079 100.945 2.08198 101.46 1.31776 103.02C0.55354 104.58 1.94005 105.379 3.06455 105.379H28.0982C41.4502 105.379 54.7913 105.379 68.1434 105.379H77.2922C78.3511 105.379 81.6701 104.683 81.6701 102.723C81.6701 93.1715 81.6701 83.6195 81.6701 74.0676C81.6701 58.9082 81.6701 43.7617 81.6701 28.6023V18.1609C81.6701 16.8976 80.6984 16.382 79.7049 16.382C74.006 16.3949 68.3071 16.4078 62.6082 16.4207L35.2055 16.498C33.1093 16.498 31.0241 16.498 28.9279 16.5109L30.8822 17.7226L30.1944 16.0082L29.9869 17.1426C31.5263 14.2164 32.8036 10.5297 31.8975 7.06209C31.2097 4.4324 29.3756 2.43436 27.2357 1.44178C22.2028 -0.904315 14.3095 0.694125 12.3116 7.43592C11.0889 11.548 12.9121 16.0211 14.6807 19.4758L14.4405 18.4187L14.0912 19.9527L18.469 17.2973H4.65849C3.05363 17.2973 0.24785 18.1223 0.291519 20.5199C0.455281 32.0699 0.629959 43.6199 0.79372 55.1828L0.881062 61.4992C0.881062 61.6926 0.881062 61.8988 0.881062 62.0922C0.881062 62.5949 0.881062 61.4219 0.881062 61.8215C0.881062 62.4789 0.881062 63.1234 0.881062 63.7808C0.913814 70.5742 0.946571 77.3676 0.979323 84.148C1.01208 90.9285 1.04482 97.1031 1.07758 103.574C1.07758 105.25 2.69335 105.469 3.83968 105.314C4.77858 105.186 7.4206 104.309 7.4206 102.698L7.45336 102.711Z" fill="#E0A619"/>
<path d="M3.85015 61.9642C17.4205 62.0029 30.9909 62.0931 44.5613 62.0674C47.3779 62.0674 50.2056 61.9642 53.0223 61.9642C53.2079 61.9642 53.3389 62.0158 52.6947 61.9256C53.3716 62.0158 53.9612 62.0416 54.638 61.8998C55.828 61.6291 57.1054 60.9459 57.8478 59.7728C58.35 58.9736 58.8958 57.3881 58.9504 56.3568C59.005 55.2224 57.9679 54.2299 57.5639 53.3662C57.1818 52.5541 56.9089 51.6517 56.7888 50.7365C56.6796 49.9373 56.6687 49.7568 56.8761 48.79C56.9089 48.6095 56.9634 48.442 57.0071 48.2744C57.16 47.7072 56.7997 48.7256 57.029 48.1841C57.1927 47.8103 57.3892 47.4752 57.5857 47.14C57.8805 46.6373 57.1927 47.5783 57.5857 47.1658C57.6622 47.0884 57.7277 46.9982 57.8041 46.9209C57.9133 46.792 58.0443 46.6888 58.1425 46.5728C57.6185 47.2045 57.8368 46.8177 58.0552 46.6631C58.1753 46.5857 58.3281 46.4826 58.4373 46.3795C58.874 45.967 57.7277 46.6759 58.2626 46.4826C58.3936 46.4439 58.5683 46.3537 58.6775 46.2763C59.1579 45.967 57.7713 46.5728 58.5683 46.3279C59.3653 46.083 57.7277 46.3537 58.743 46.2892C59.4854 46.2377 58.0115 46.1603 58.9723 46.2892C59.6928 46.3923 58.4264 46.0572 59.1142 46.315C59.2452 46.3666 59.3871 46.4052 59.529 46.4439C59.8893 46.547 59.0705 46.1088 59.5946 46.4955C59.7365 46.5986 60.4461 47.1787 59.9985 46.7404C60.2169 46.9595 60.4243 47.1916 60.6099 47.4494C60.7081 47.5912 60.7846 47.733 60.8719 47.8748C61.1448 48.3646 60.73 47.4752 60.9374 48.0166C61.1012 48.442 61.2322 48.8802 61.3086 49.3314C61.5051 50.3884 61.4833 51.1103 61.3632 52.2189C61.2758 52.9408 61.1448 53.6627 60.9811 54.3717C60.7955 55.158 60.3697 56.0345 60.2823 56.8209C60.1732 57.8006 60.7955 59.0896 61.123 59.9662C61.7016 61.5131 62.7934 62.0029 64.1799 62.0802C67.6735 62.2736 71.2216 62.0802 74.7261 62.0802C76.1236 62.0802 78.1323 61.5646 78.8966 60.0048C79.6608 58.4451 78.2743 57.6459 77.1498 57.6459H67.4442C67.204 57.6459 66.9311 57.6072 66.6909 57.6459C65.9594 57.7619 67.6625 57.5943 67.5097 58.0841C67.7062 57.4525 66.6472 56.1248 66.6581 55.4287C66.6581 56.0088 66.9966 54.8486 66.9856 54.8615C67.0839 54.5134 67.1822 54.1783 67.2586 53.8302C67.4114 53.1986 67.5424 52.567 67.6407 51.9353C67.8154 50.7881 67.87 49.6021 67.7935 48.442C67.1276 38.8384 55.5879 41.2232 51.8868 46.5986C49.3213 50.324 50.4894 54.8615 52.8803 58.2517L52.6402 57.1947L52.3345 58.4322C52.1598 59.1283 52.1598 59.2056 51.9524 59.515L52.924 58.4451L52.6511 58.6256L56.5595 57.7232C54.9001 57.2978 53.0769 57.5685 51.3956 57.5943C49.9981 57.6072 48.6007 57.633 47.2033 57.6459C45.0853 57.6459 42.9673 57.6459 40.8602 57.633C32.1809 57.6072 23.5015 57.5814 14.8222 57.5685C11.9727 57.5685 9.13419 57.5556 6.28474 57.5427C4.88731 57.5427 2.8785 58.0584 2.11428 59.6181C1.35006 61.1779 2.73658 61.9642 3.86107 61.9771L3.85015 61.9642Z" fill="#E0A619"/>
<path d="M44.1582 101.59V84.8319L42.2585 86.9202C43.1647 86.5077 44.0708 86.1081 44.977 85.6956L41.1995 85.9147C44.0272 88.3768 47.2696 89.7561 50.796 88.7764C53.6017 88.003 55.7852 85.76 56.746 82.5632C58.1434 77.9096 57.0298 71.1292 53.2961 68.3964C50.0645 66.0245 45.763 67.494 42.7717 69.6596L47.2587 69.0022C46.0032 68.435 44.7368 67.8549 43.4813 67.2878L44.1363 68.1514C44.0053 60.3397 43.7324 52.528 43.6014 44.7034C43.6014 44.0717 42.7061 43.7366 42.3568 43.5948C40.6537 42.9245 39.1361 42.0866 37.302 42.6667C36.516 42.9116 35.8937 43.3757 35.2059 43.8655C35.0312 43.9944 34.8456 44.1233 34.66 44.2393C34.7583 44.1749 35.2386 43.9428 34.7364 44.1878C34.5836 44.2651 33.601 44.7034 34.136 44.51C34.7037 44.3038 34.0377 44.5487 33.9613 44.5487C33.4482 44.5745 34.4416 44.162 34.0705 44.5358C33.863 44.7421 33.1752 44.6003 33.9831 44.5745C33.8521 44.5745 33.6883 44.5745 33.5573 44.5487C33.1861 44.4585 34.2233 44.7807 33.6993 44.5745C33.5027 44.4971 33.2844 44.4585 33.0879 44.394C33.7538 44.6132 32.935 44.278 32.7604 44.1749C32.6294 44.0975 32.0726 43.6206 32.4983 44.0073C32.3237 43.8397 32.149 43.6721 31.9852 43.4788C31.6359 43.0792 31.352 42.628 31.0791 42.151C30.9372 41.8932 30.8389 41.687 30.6205 41.0167C30.4349 40.4495 30.293 39.8565 30.2057 39.2506C30.162 38.9542 30.1402 38.6577 30.1074 38.3483C30.0638 37.8456 30.0856 38.3096 30.0856 38.0131C30.0965 37.4331 30.1511 36.853 30.2712 36.2858C30.3258 36.0409 30.3913 35.796 30.4568 35.551C30.5987 35.0225 30.2712 35.8604 30.555 35.2932C30.6533 35.087 30.7952 34.8807 30.8826 34.6745C30.959 34.4811 31.2538 34.2491 30.7843 34.7905C30.8826 34.6745 30.959 34.5327 31.0791 34.4425C31.4284 34.1717 30.4786 34.8549 31.0572 34.4553C31.2974 34.3006 30.3039 34.7905 31.1228 34.4553C31.1228 34.4553 30.2384 34.7905 30.7297 34.6358C31.221 34.4811 30.3476 34.7132 30.3367 34.7132C30.4459 34.6874 30.6642 34.7132 30.7516 34.6616C30.8389 34.61 30.0747 34.5585 30.6642 34.6874C30.8171 34.726 30.9808 34.7132 31.1337 34.726C30.6751 34.6745 30.9153 34.6745 31.2319 34.7647C31.6031 34.8678 31.9634 34.971 32.3237 35.0999C32.7604 35.2674 33.8739 35.8862 34.6054 36.3632C36.7452 37.7553 38.6558 36.8014 40.7956 36.0022C41.5489 35.7186 43.514 34.8807 43.514 33.5788V18.9479C43.514 17.2721 41.8983 17.053 40.7519 17.2077C39.8021 17.3366 37.171 18.2131 37.171 19.8245V34.4553L39.8895 32.0319C39.0379 32.3542 38.1972 32.6635 37.3457 32.9858L40.3043 33.1018C37.2256 30.962 33.7211 29.5956 30.1402 30.5881C27.4545 31.3229 25.1072 33.2436 24.1356 36.3632C22.7491 40.8104 24.736 46.5725 28.5135 48.2999C32.2909 50.0272 36.5378 48.3901 39.7257 45.8507L35.8172 46.753L38.5029 47.81L37.2583 46.7014C37.3894 54.5131 37.6623 62.3249 37.7933 70.1495C37.9025 70.5491 38.1317 70.8327 38.4483 71.0131C39.682 71.5674 40.9048 72.1475 42.1384 72.6889C43.8743 73.4495 45.5665 72.8952 47.095 71.7995C47.7063 71.3612 46.6364 72.0315 47.0404 71.8381C47.1932 71.7608 47.357 71.6964 47.4989 71.6061C48.0994 71.2452 46.8766 71.8639 47.2915 71.6964C47.5753 71.5803 48.2194 71.5803 47.1932 71.6964C48.012 71.6061 46.5382 71.6319 47.3461 71.6706C48.0666 71.7092 46.8002 71.5803 47.5207 71.7092C48.0994 71.8253 47.2369 71.4385 47.7391 71.8124C47.8701 71.9026 48.4596 72.3151 48.2631 72.1475C48.0339 71.9542 48.5688 72.4698 48.6561 72.5729C48.8308 72.7792 48.9946 72.9983 49.1474 73.2303C49.6169 73.9264 49.6387 73.978 49.8461 74.5452C50.3265 75.8085 50.6431 77.1362 50.785 78.5026C50.8178 78.8378 50.8396 79.16 50.8615 79.4952C50.8833 80.0882 50.8833 79.5468 50.8615 80.1268C50.8287 80.8358 50.7741 81.5319 50.6431 82.228C50.5885 82.5245 50.523 82.8338 50.4466 83.1174C50.4029 83.2979 50.1082 84.1358 50.3374 83.5428C50.1409 84.0585 49.8898 84.5225 49.595 84.9866C50.0427 84.2647 49.6169 84.9866 49.4313 85.1284C48.9837 85.4506 49.999 84.6385 49.5732 84.9995C49.4968 85.0639 49.4204 85.1026 49.3439 85.167C50.0754 84.587 49.8352 84.8577 49.5623 84.9995C50.4684 84.5612 50.2283 84.7288 49.9881 84.8061C49.4204 84.9995 50.8724 84.6514 50.2719 84.7288C49.6715 84.8061 51.058 84.7288 50.4575 84.7288C50.3811 84.7288 49.8461 84.6772 50.3156 84.7288C50.785 84.7803 50.0754 84.6643 49.9772 84.6385C49.8571 84.5999 49.737 84.5612 49.6169 84.5225C49.3658 84.4323 49.3658 84.4323 49.6387 84.5483C49.5077 84.4967 49.3767 84.4323 49.2457 84.3678C48.416 83.9296 47.6299 83.4139 46.8766 82.8081C44.5512 80.9389 42.0183 82.6018 39.6711 83.646C39.0706 83.9167 37.7715 84.7932 37.7715 85.7342V102.492C37.7715 104.168 39.3872 104.387 40.5336 104.232C41.4834 104.103 44.1145 103.227 44.1145 101.616L44.1582 101.59Z" fill="#E0A619"/>
</svg>
