<svg width="223" height="190" viewBox="0 0 223 190" fill="none" xmlns="http://www.w3.org/2000/svg">
<g clip-path="url(#clip0_300_14)">
<path d="M148.61 65.967C136.037 47.0763 136.518 39.2645 116.792 31.2065C100.376 24.5019 82.5361 33.6328 77.8615 35.854C32.5854 57.3623 54.2157 107.904 53.7346 108.232C29.5882 124.744 20.7072 133.964 9.79126 143.908C10.1488 148.624 13.4386 155.93 19.1534 158.466C24.114 160.666 27.2997 157.673 34.7569 157.235C46.57 156.538 49.3266 163.421 58.7472 164.207C72.4003 165.348 74.3637 151.549 92.2948 145.548C111.663 139.069 127.253 149.287 144.553 141.905C156.88 136.643 156.867 125.974 163.486 121.149C175.247 112.578 179.609 114.875 188.256 107.001C192.196 103.413 200.382 95.7655 203.86 82.8073C204.38 80.8799 204.412 54.2252 201.909 54.1022C187.327 53.3709 151.348 70.0677 148.617 65.967H148.61Z" fill="#E0A619"/>
<path d="M143.663 63.069C138.279 72.1111 110.154 83.6683 100.155 87.5503C97.9639 88.3978 95.7404 89.1291 93.4844 89.7442L73.928 96.4489C68.7724 98.219 63.4737 99.4697 58.097 100.187L51.6475 101.055C52.6032 104.896 53.3249 108.232 53.7605 108.232C72.6342 107.992 141.179 80.2852 148.188 69.7464C149.319 68.0446 149.624 66.5205 149.624 66.5205C148.649 66.5068 147.225 63.1442 145.405 60.9435C145.308 60.8273 143.962 62.5838 143.669 63.069H143.663Z" fill="#EFE0BD"/>
<path d="M184.836 56.2005C185.955 61.135 186.13 66.1994 185.474 71.216C184.954 75.1527 183.952 78.9732 182.815 82.7527C181.761 86.2383 180.819 89.7717 178.92 92.8814C177.301 95.5401 175.143 97.6588 172.705 99.135C172.406 99.3127 172.1 99.4904 171.795 99.6545C171.645 99.7365 171.489 99.8185 171.333 99.9005C171.613 99.757 171.346 99.9005 171.294 99.921C170.618 100.256 169.935 100.57 169.239 100.871C167.946 101.425 166.632 101.924 165.326 102.429C162.458 103.536 159.598 104.705 156.952 106.339C149.924 110.665 145.145 118.005 140.1 124.505C139.157 125.715 138.195 126.924 137.096 127.984C136.849 128.223 136.596 128.448 136.336 128.667C136.212 128.77 136.082 128.872 135.952 128.975C135.542 129.289 136.206 128.811 135.789 129.091C135.536 129.255 135.282 129.419 135.016 129.556C135.425 129.344 134.996 129.556 134.925 129.583C134.385 129.795 135.074 129.508 134.756 129.651C134.645 129.699 134.19 129.754 134.73 129.672C134.593 129.692 134.457 129.713 134.32 129.733C134.775 129.665 134.093 129.733 133.956 129.726C134.45 129.747 133.403 129.672 133.442 129.672C133.124 129.638 132.805 129.603 132.487 129.569C131.759 129.494 131.037 129.412 130.309 129.33C127.981 129.063 125.654 128.783 123.326 128.503C115.316 127.533 107.248 126.542 99.1798 127.286C90.9814 128.045 82.3865 130.444 75.5665 135.406C72.7514 137.449 70.2938 139.91 67.7907 142.343C66.5945 143.505 65.3787 144.639 64.0784 145.665C63.5323 146.095 63.0642 146.43 62.4596 146.82C62.115 147.045 61.7639 147.257 61.4063 147.462C61.3998 147.462 60.8277 147.824 61.1528 147.612C61.0682 147.653 60.9772 147.694 60.8862 147.729C61.1593 147.64 61.1918 147.626 60.9837 147.688C61.6729 147.469 60.9772 147.742 60.9772 147.674C60.9772 147.517 61.3673 147.783 60.9382 147.653C61.3933 147.79 60.5221 147.544 60.6326 147.578C60.2751 147.476 59.5794 147.113 59.1373 146.84C57.9996 146.129 56.9593 145.234 55.8736 144.441C54.4953 143.436 53.0454 142.493 51.4656 141.878C49.6647 141.174 47.8183 140.928 45.9133 140.88C39.0348 140.71 31.3631 142.623 25.2062 138.399C23.4573 137.203 21.988 135.604 20.7332 133.868C20.005 132.863 16.3707 134.203 17.2224 135.379C19.7645 138.885 23.1192 141.345 27.1826 142.459C30.817 143.457 34.6463 143.32 38.3651 143.156C41.8044 142.999 45.5753 142.486 48.8455 143.888C51.6931 145.111 53.8386 147.421 56.5172 148.925C59.6314 150.674 62.7196 149.328 65.4502 147.428C68.1808 145.528 70.5669 143.108 72.9854 140.764C75.677 138.153 78.5052 135.754 81.7819 133.998C85.3837 132.071 89.5966 130.84 93.439 130.095C101.059 128.619 108.763 129.152 116.454 130.027C121.239 130.567 126.018 131.196 130.803 131.702C132.669 131.9 134.353 131.893 136.134 131.196C137.454 130.676 138.663 129.856 139.729 128.893C142.395 126.494 144.462 123.391 146.634 120.52C149.488 116.741 152.472 113.023 155.964 109.872C158.298 107.767 160.762 106.421 163.473 105.259C166.184 104.097 168.979 103.174 171.665 101.944C174.506 100.645 177.249 98.9983 179.466 96.7019C182.067 94.0091 183.868 90.6807 185.103 87.0789C186.273 83.6685 187.294 80.1214 188.133 76.6084C189.212 72.1045 189.797 67.4775 189.628 62.83C189.537 60.2397 189.192 57.6699 188.614 55.148C188.321 53.8699 184.544 54.8883 184.843 56.2073L184.836 56.2005Z" fill="#EFE0BD"/>
<path d="M192.209 54.8949C194.355 64.3333 193.054 74.6056 190.655 83.8528C189.582 87.9876 188.276 92.2524 186.28 96.0114C184.81 98.7725 182.249 100.577 179.746 102.128C172.958 106.332 165.404 109.161 159.201 114.389C155.612 117.41 153.096 121.47 150.06 125.051C147.486 128.086 144.612 131.093 141.368 133.239C139.95 134.175 139.131 134.606 137.603 135.214C137.46 135.269 137.135 135.385 137.473 135.269C137.317 135.324 137.161 135.371 137.005 135.426C136.674 135.535 136.336 135.631 135.997 135.72C135.841 135.761 135.685 135.795 135.529 135.836C135.451 135.857 135.373 135.87 135.295 135.891C135.315 135.891 135.64 135.823 135.412 135.864C135.074 135.932 134.736 135.993 134.398 136.041C134.086 136.089 133.767 136.13 133.455 136.164C133.273 136.185 133.085 136.198 132.903 136.219C132.695 136.239 132.948 136.219 132.981 136.219C132.877 136.226 132.766 136.233 132.662 136.239C131.986 136.274 131.303 136.287 130.627 136.28C129.288 136.267 127.689 136.157 126.551 136.055C121.922 135.631 117.306 135.043 112.677 134.592C109.075 134.244 105.454 133.943 101.839 134.169C98.224 134.394 94.8302 135.057 91.4625 136.212C87.087 137.709 82.7245 139.67 78.7911 142.179C75.1763 144.482 72.1336 147.441 68.9609 150.339C67.7061 151.487 66.4514 152.547 65.0145 153.394C64.2669 153.838 63.5842 154.16 62.6935 154.474C62.8235 154.426 62.3749 154.57 62.3034 154.597C62.0759 154.665 61.8418 154.734 61.6078 154.795C61.3737 154.857 61.1267 154.925 60.8861 154.973C61.1787 154.918 60.4895 155 60.7041 154.987C60.6195 154.987 60.2295 154.966 60.0279 154.932C59.6703 154.87 59.3127 154.788 58.9682 154.679C58.11 154.412 57.2843 154.023 56.4781 153.633C54.5732 152.704 52.7333 151.624 50.8218 150.694C48.7999 149.71 46.6739 148.876 44.4764 148.473C42.4935 148.104 40.478 148.138 38.4756 148.289C35.1728 148.542 31.9481 149.246 28.8274 149.191C25.3556 149.129 22.0854 147.783 19.4263 145.288C17.5799 143.552 16.0715 141.454 14.7453 139.267C14.1211 138.235 10.4543 139.486 11.2345 140.778C13.6595 144.789 16.8387 148.542 21.1947 150.209C24.647 151.528 28.3203 151.453 31.9221 151.05C35.5239 150.647 38.5666 149.895 42.0059 150.51C46.3358 151.275 50.0287 153.893 53.9685 155.738C55.6264 156.511 57.4273 157.16 59.2607 157.119C61.3607 157.071 63.5582 156.326 65.4696 155.431C68.9674 153.797 71.711 151.111 74.5392 148.473C78.076 145.172 81.8663 142.534 86.1768 140.484C87.9712 139.629 90.0061 138.741 91.7485 138.126C92.4117 137.887 93.4194 137.572 94.2321 137.347C94.6222 137.237 95.0122 137.135 95.4023 137.046C95.5974 136.998 95.7859 136.957 95.981 136.909C96.2085 136.861 95.994 136.909 95.9485 136.909C96.1045 136.875 96.267 136.848 96.4231 136.814C97.2097 136.663 98.0029 136.54 98.7961 136.444C99.7128 136.335 100.213 136.301 100.994 136.26C102.736 136.185 104.485 136.226 106.227 136.321C110.544 136.567 114.842 137.135 119.146 137.593C125.901 138.317 132.773 139.253 139.281 136.636C147.238 133.444 153.135 125.988 158.226 119.139C163.128 112.544 171.001 109.277 177.893 105.573C181.072 103.864 184.349 102.046 187.014 99.5107C189.68 96.9751 191.071 93.5509 192.339 90.0585C195.7 80.8045 197.514 70.4913 196.91 60.5812C196.773 58.319 196.48 56.0704 195.973 53.8628C195.681 52.5848 191.903 53.6031 192.203 54.9222L192.209 54.8949Z" fill="#EFE0BD"/>
<path d="M25.9637 128.754L14.7531 116.054L-8.19849 138.443L3.01216 151.143L25.9637 128.754Z" fill="#FBF5EB"/>
<path d="M207.056 51.9555L203.55 35.0264L172.956 42.0271L176.461 58.9562L207.056 51.9555Z" fill="#FBF5EB"/>
</g>
<defs>
<clipPath id="clip0_300_14">
<rect width="223" height="190" fill="white"/>
</clipPath>
</defs>
</svg>
