<svg width="104" height="80" viewBox="0 0 104 80" fill="none" xmlns="http://www.w3.org/2000/svg">
<path d="M99.6461 2.05752C96.5414 28.4474 88.2379 45.9935 74.884 54.7688C64.5939 61.5309 47.8489 65.374 24.665 66.2169L24.7208 58.34C24.726 57.6305 24.0821 57.0515 23.2827 57.0469C23.058 57.0456 22.836 57.0908 22.6344 57.1788L1.19412 66.5397C0.476761 66.8529 0.181282 67.6229 0.534157 68.2597C0.672401 68.5091 0.898071 68.712 1.17729 68.838L22.4787 78.4453C23.1914 78.7667 24.0628 78.5145 24.4249 77.8819C24.5267 77.7041 24.5805 77.5077 24.582 77.3082L24.6416 69.2972C48.5435 68.444 65.9733 64.4529 76.9468 57.2418C91.232 47.8545 99.8982 29.5419 103.094 2.37707C103.193 1.532 102.502 0.775395 101.55 0.687153C100.598 0.598912 99.7455 1.21245 99.6461 2.05752Z" fill="#E0A619"/>
</svg>
