<svg width="158" height="244" viewBox="0 0 158 244" fill="none" xmlns="http://www.w3.org/2000/svg">
<g clip-path="url(#clip0_291_248)">
<path d="M40.9738 178.258C59.9673 184.212 96.1119 186.578 95.6653 186.954C94.8222 187.658 93.9513 198.667 90.3279 211.952C89.0326 216.705 35.8821 208.591 37.0936 202.203C37.4956 200.075 40.5886 178.131 40.9738 178.252V178.258Z" fill="#F4EAD1"/>
<path d="M40.2538 178.549C40.3654 176.13 42.3921 153.402 42.5261 152.053C43.2519 144.611 46.4119 115.659 48.137 98.8013C50.1413 79.1913 50.1469 70.0135 51.2244 55.7969C52.3634 40.7547 52.7989 34.5038 53.3404 28.1154C53.5581 25.5536 60.5034 27.4485 77.6155 30.8571C87.7878 32.8789 102.343 35.3666 113.743 36.8856C131.492 39.2515 139.068 40.1566 137.862 44.5179C136.237 50.3929 126.595 78.0639 119.812 99.9075C115.48 113.865 113.447 120.872 111.432 129.225C103.186 163.363 99.032 173.954 95.8273 187.313C94.5042 192.818 39.6564 181.857 40.2593 178.564" fill="#E0A619"/>
<path d="M72.4567 212.614C66.6224 212.201 57.3155 210.205 51.2747 208.93C50.895 208.85 56.4557 201.477 62.6082 202.044C71.0219 202.816 72.9257 212.645 72.4567 212.614Z" fill="#EFE0BD"/>
<path d="M70.8321 100.231C58.5215 110.054 38.5398 105.672 32.6497 92.1167C32.5939 91.9897 32.5436 91.8626 32.4878 91.7356C26.2125 76.5399 36.4071 63.4877 49.8678 62.1592C61.7764 60.9895 75.1813 67.5367 77.5876 79.9273C78.1068 82.5896 79.3574 89.0362 75.226 95.4194C74.0033 97.3142 72.4959 98.8968 70.8321 100.225V100.231Z" fill="#EFE0BD"/>
<path d="M59.9542 46.3272C59.3135 46.7285 59.1049 47.4466 59.0155 50.8045C58.9112 54.796 59.3657 56.4151 59.388 56.936C59.4178 57.6893 62.9045 51.5577 63.2248 50.7834C64.1784 48.4603 64.1188 47.7141 63.7538 47.165C63.0311 46.0668 61.0345 45.6514 59.9468 46.3272H59.9542Z" fill="#EFE0BD"/>
<path d="M53.5241 119.419C54.0971 118.928 54.1823 118.201 53.617 114.933C52.9511 111.05 52.1767 109.555 52.0528 109.057C51.8747 108.33 49.4897 114.837 49.3116 115.64C48.785 118.042 48.9864 118.754 49.4665 119.232C50.4189 120.18 52.5406 120.257 53.5163 119.426L53.5241 119.419Z" fill="#EFE0BD"/>
<path d="M95.5889 86.8452C95.1564 86.0868 94.4309 85.8833 91.1031 86.059C87.1475 86.2625 85.5709 86.9655 85.0616 87.0302C84.3151 87.1319 90.5869 90.9425 91.3752 91.2662C93.7332 92.2466 94.4587 92.1171 94.9889 91.6176C96.0354 90.628 96.3284 88.1215 95.5889 86.836V86.8452Z" fill="#EFE0BD"/>
<path d="M79.9712 112.923C80.1346 112.2 79.6703 111.549 76.7902 109.108C73.3684 106.209 71.5802 105.379 71.1159 105.028C70.4281 104.513 73.0073 111.262 73.4372 112.028C74.7096 114.326 75.406 114.813 76.1884 114.956C77.7359 115.235 79.7047 114.147 79.9712 112.923Z" fill="#EFE0BD"/>
<path d="M88.9145 61.4438C88.6945 62.3746 88.0755 62.8971 84.9323 64.2174C81.1976 65.7942 79.5607 65.8227 79.0724 65.9937C78.3502 66.2311 83.2541 59.715 83.9075 59.0501C85.8539 57.0364 86.5692 56.8369 87.1813 57.0839C88.3987 57.5778 89.2859 59.8765 88.9145 61.4533V61.4438Z" fill="#EFE0BD"/>
<path d="M-7.78839 46.5084C-28.3898 62.2599 -27.2899 97.4043 -5.72825 114.617C13.6114 130.056 43.6761 141.896 46.2275 117.586C49.4936 86.4164 50.9396 72.3851 51.5705 51.0443C52.045 35.0441 9.17288 33.5409 -7.78839 46.5084Z" fill="#FBF5EB"/>
</g>
<defs>
<clipPath id="clip0_291_248">
<rect width="158" height="244" fill="white"/>
</clipPath>
</defs>
</svg>
