<svg width="104" height="80" viewBox="0 0 104 80" fill="none" xmlns="http://www.w3.org/2000/svg">
<path d="M4.35393 2.05752C7.45857 28.4474 15.7621 45.9935 29.116 54.7688C39.4061 61.5309 56.1511 65.374 79.335 66.2169L79.2792 58.34C79.274 57.6305 79.9179 57.0515 80.7173 57.0469C80.942 57.0456 81.164 57.0908 81.3656 57.1788L102.806 66.5397C103.523 66.8529 103.819 67.6229 103.466 68.2597C103.328 68.5091 103.102 68.712 102.823 68.838L81.5213 78.4453C80.8086 78.7667 79.9372 78.5145 79.5751 77.8819C79.4733 77.7041 79.4195 77.5077 79.4181 77.3082L79.3585 69.2972C55.4565 68.444 38.0267 64.4529 27.0532 57.2418C12.7681 47.8545 4.10182 29.5419 0.906011 2.37707C0.806593 1.532 1.49784 0.775395 2.44996 0.687153C3.40208 0.598912 4.25451 1.21245 4.35393 2.05752Z" fill="#E0A619"/>
</svg>
