<svg width="128" height="92" viewBox="0 0 128 92" fill="none" xmlns="http://www.w3.org/2000/svg">
<path d="M66.0017 46.4213C71.2272 46.4213 78.7953 40.8763 82.6599 37.5701C83.3768 36.9572 86.8362 33.9574 90.2385 29.0104C94.6745 22.561 97.6716 18.202 96.6223 12.8695C95.3913 6.60296 88.8672 0.469836 82.4262 0.306748C75.1593 0.123891 65.5861 11.0558 65.5861 11.0558C65.5861 11.0558 61.1969 2.05625 56.0545 0.578564C50.2524 -1.08198 42.3882 1.41377 38.5184 6.40528C33.6513 12.6817 36.9081 20.5891 38.7989 25.1901C42.8141 34.9508 62.3189 46.4115 66.0017 46.4115V46.4213Z" fill="#E0A619"/>
<path d="M102.045 63.7681C104.3 61.3069 106.486 58.7914 108.575 56.2018C109.899 54.556 111.172 52.8658 112.507 51.2251C113.052 50.553 113.701 49.9302 114.21 49.2334C114.808 48.4229 114.829 47.4592 114.325 46.6092C113.063 44.4791 110.284 43.214 107.858 42.7494C104.736 42.1514 101.391 43.1497 99.2664 45.4181C98.5028 46.2336 97.9418 47.2072 97.36 48.1462C96.6328 49.3224 95.8744 50.4739 94.9499 51.5216C92.9968 53.7455 90.4411 55.0799 87.7661 56.4637C85.3039 57.7387 83.4859 59.9923 82.5977 62.5079C82.1614 63.7483 81.8965 65.0333 81.3926 66.254C80.7018 67.9244 79.6161 69.4218 78.5253 70.8699C77.5228 72.2042 76.4528 73.4892 75.3256 74.7346C74.9153 75.1893 74.4945 75.639 74.0686 76.0838C73.9127 76.2469 73.7517 76.4099 73.5907 76.573C73.5128 76.6521 73.4349 76.7312 73.3569 76.8053C73.1284 77.0376 73.4141 76.7509 73.4089 76.7559C73.305 76.8547 73.2063 76.9536 73.1024 77.0475C72.8427 77.2946 72.3388 77.8234 72.796 78.1693C78.3539 82.3553 83.9067 86.5462 89.527 90.653C90.6541 91.4734 92.8877 90.8062 93.7188 89.8376C100.123 82.4096 106.305 74.8087 112.72 67.3857C115.13 64.5984 117.55 61.8259 119.883 58.9842C121.077 57.5262 122.251 56.0535 123.404 54.561C124.049 53.7258 124.687 52.8856 125.321 52.0405C125.851 51.3338 126.589 50.5974 126.911 49.782C127.202 49.0506 127.207 48.1758 127.259 47.4049C127.363 45.8876 127.378 44.3605 127.373 42.8384C127.363 38.8649 127.15 34.8915 126.755 30.9378C126.376 27.1374 125.887 23.2628 124.734 19.5908C124.288 18.1724 123.784 16.3438 122.246 15.6816C121.062 15.1726 119.602 15.217 118.35 15.4197C116.792 15.6767 115.306 16.1906 113.914 16.9023C111.998 17.8808 110.133 19.3931 109.769 21.538C109.432 23.5494 110.06 25.6152 110.626 27.5377C111.296 29.8061 112.039 32.0794 112.211 34.4467C112.382 36.814 111.743 39.3591 110.123 41.3211C109.421 42.1761 108.569 42.8779 107.567 43.5451C107.318 43.7082 107.016 44.1035 107.105 44.4198C107.198 44.7559 107.66 44.9042 107.967 44.9585C109.078 45.1611 110.263 44.7411 111.161 44.1431C113.452 42.6209 115.343 40.4909 116.221 37.9407C116.995 35.6822 116.865 33.226 116.387 30.9279C115.909 28.6299 115.135 26.6086 114.605 24.4241C114.382 23.5148 114.19 22.5709 114.205 21.6368C114.205 21.4589 114.273 20.9252 114.346 20.6187C114.392 20.4309 114.449 20.2481 114.517 20.0702C114.543 19.996 114.574 19.9268 114.605 19.8577C114.673 19.7242 114.673 19.7193 114.605 19.8428C114.642 19.7736 114.683 19.7094 114.73 19.6402C114.844 19.4722 114.964 19.319 115.094 19.1608C115.145 19.0966 115.208 19.0373 115.265 18.978C114.99 19.2646 115.306 18.9533 115.353 18.9088C115.535 18.7556 115.722 18.6172 115.914 18.4739C116.195 18.2663 115.93 18.464 115.873 18.4986C116.049 18.3948 116.221 18.2861 116.402 18.1872C116.496 18.1378 116.589 18.0933 116.678 18.039C117.145 17.777 116.241 18.2119 116.74 18.0044C116.984 17.9055 117.228 17.8067 117.478 17.7128C117.909 17.5497 117.337 17.7672 117.337 17.7573C117.337 17.7375 117.753 17.6436 117.784 17.6337C117.857 17.614 118.298 17.4558 117.924 17.5991C117.478 17.7672 118.179 17.4953 118.2 17.5744C118.21 17.6041 117.717 17.5794 118.054 17.5843C118.189 17.5843 118.324 17.5843 118.459 17.5892C117.93 17.5892 118.262 17.5942 118.345 17.5892C118.459 17.5794 118.787 17.7375 118.413 17.5892C118.506 17.6288 118.948 17.866 118.74 17.7128C118.927 17.8462 119.093 18.0044 119.218 18.1922C119.15 18.0933 119.311 18.3997 119.337 18.4541C119.405 18.5875 119.467 18.721 119.524 18.8594C119.67 19.1806 119.794 19.5117 119.919 19.8428C121.14 23.2035 121.644 26.8211 122.054 30.3398C122.516 34.2935 122.766 38.2719 122.843 42.2453C122.875 43.8713 122.875 45.3687 122.818 46.8266C122.776 47.8348 122.745 48.8726 122.542 49.8709C122.516 50.0044 122.475 50.1378 122.444 50.2713C122.433 50.3059 122.386 50.375 122.392 50.4047C122.371 50.296 122.656 49.9846 122.35 50.4047C121.68 51.314 121.005 52.2135 120.324 53.113C119.176 54.6302 118.008 56.1276 116.813 57.6103C114.61 60.3383 112.32 63.0021 110.024 65.656C103.375 73.3459 96.9393 81.1988 90.3217 88.9134C90.062 89.2149 89.8074 89.5164 89.5477 89.8129L93.7396 88.9974C88.1193 84.8905 82.5665 80.6997 77.0086 76.5137L76.7021 77.6356C78.0734 76.3408 79.3564 74.9471 80.5771 73.5238C82.8055 70.9193 85.091 68.0677 86.2078 64.8455C86.6077 63.689 86.8519 62.4832 87.3245 61.3465C87.5427 60.8177 87.8128 60.3383 88.1401 59.8688C88.3426 59.5772 88.5608 59.2906 88.7893 59.0138C88.888 58.8952 88.9867 58.7815 89.0906 58.6679C89.1426 58.6135 89.5685 58.2033 89.2672 58.4751C89.4438 58.317 89.6308 58.1638 89.8178 58.0155C89.9373 57.9167 90.1347 57.6696 89.7711 58.0353C89.8386 57.9661 89.9685 57.9117 90.0516 57.8623C90.4515 57.63 90.8723 57.4274 91.2878 57.2248C92.7422 56.5181 94.1136 55.7125 95.4433 54.8031C98.0249 53.0339 99.952 50.7358 101.552 48.1511C102.102 47.2615 102.632 46.3472 103.334 45.5565C103.411 45.4675 103.495 45.3786 103.578 45.2946C103.287 45.5911 103.567 45.3094 103.63 45.26C103.77 45.1463 104.398 44.7806 103.895 45.0376C104.004 44.9832 104.118 44.919 104.217 44.8547C104.596 44.6225 103.733 45.0277 104.175 44.8844C104.466 44.7905 104.565 44.8844 104.097 44.8992C104.18 44.8745 104.263 44.8547 104.352 44.835C103.941 44.9091 103.858 44.9239 104.107 44.8844C104.481 44.8201 104.305 45.003 104.05 44.8794C104.118 44.914 104.367 44.8794 104.45 44.8794C104.565 44.8794 104.788 44.9338 104.362 44.8696C104.502 44.8893 104.642 44.8992 104.783 44.9239C105.068 44.9684 105.354 45.0277 105.635 45.1018C105.287 45.0129 105.759 45.1463 105.796 45.1562C105.988 45.2155 106.175 45.2847 106.362 45.3588C107.479 45.7888 108.268 46.2237 109.125 47.0144C109.307 47.1825 109.478 47.3604 109.634 47.5482C109.707 47.6371 109.78 47.7261 109.842 47.82C110.039 48.1017 109.764 47.647 109.91 47.9435C109.998 48.1215 110.076 48.2994 110.117 48.4921C110.138 48.5811 110.149 48.67 110.159 48.7639C110.18 48.9616 110.211 48.6255 110.143 48.8776C110.107 49.011 109.899 49.3866 110.076 49.1346C109.956 49.3026 109.821 49.4509 109.681 49.6041C109.385 49.9352 109.094 50.2663 108.814 50.6073C107.432 52.258 106.144 53.9828 104.804 55.6631C102.591 58.4356 100.258 61.1241 97.8535 63.7533C97.1523 64.5193 98.4508 64.9196 99.0482 64.9147C100.123 64.8998 101.313 64.5588 102.035 63.7681H102.045Z" fill="#E0A619"/>
<path d="M30.3377 62.9382C26.7484 59.0191 23.4864 54.8925 20.1776 50.7659C19.6373 50.0937 19.0867 49.4315 18.5102 48.789C18.1985 48.4431 18.1518 48.4974 18.0531 48.0576C18.0323 47.9686 18.0219 47.8797 18.0167 47.7907C18.0323 48.0477 18.0219 47.771 18.0375 47.7166C18.0635 47.6227 18.079 47.5337 18.1102 47.4448C18.131 47.3805 18.3128 46.9951 18.157 47.2817C18.266 47.089 18.4011 46.9061 18.5413 46.7331C18.6037 46.654 18.6764 46.5849 18.7387 46.5058C18.9049 46.318 18.4426 46.7578 18.7543 46.486C18.9569 46.3081 19.1543 46.1351 19.3724 45.977C19.4867 45.893 19.601 45.8139 19.7153 45.7348C19.2841 46.0264 19.8295 45.6755 19.9178 45.6261C20.0477 45.552 20.1776 45.4828 20.3074 45.4136C20.4736 45.3246 20.723 45.0775 20.3334 45.3938C20.536 45.2258 20.9204 45.1517 21.1697 45.0578C21.6683 44.865 20.6347 45.1961 21.1489 45.0578C21.2424 45.033 21.3411 45.0034 21.4346 44.9787C21.5541 44.949 21.7566 44.9391 21.8605 44.8798C21.4865 44.949 21.4242 44.9638 21.6735 44.9194C21.767 44.9045 21.8605 44.8897 21.954 44.8798C22.3852 44.8304 22.1047 44.9836 21.9384 44.8749C21.9852 44.9045 22.2761 44.8749 22.3384 44.8749C22.7747 44.8699 21.9384 44.7711 22.3488 44.8749C22.4631 44.9045 22.5981 44.9194 22.7124 44.9391C22.3228 44.8699 22.7436 44.949 22.8163 44.9737C22.941 45.0182 23.0656 45.0627 23.1851 45.1171C23.3046 45.1714 23.4136 45.2258 23.5331 45.2801C23.5539 45.29 23.8967 45.4927 23.663 45.3444C24.5408 45.8979 25.1849 46.7282 25.7407 47.5634C27.1588 49.6934 28.4677 51.9964 30.4727 53.7954C31.7921 54.9765 33.3089 55.9699 34.8724 56.8347C35.3918 57.1214 35.9268 57.3882 36.4618 57.6502C36.68 57.754 36.8982 57.8577 37.1111 57.9714C37.2098 58.0208 37.3137 58.0752 37.4124 58.1296C37.4643 58.1592 37.8747 58.3964 37.5942 58.2235C39.6667 59.5133 40.7835 61.7175 41.4172 63.9167C41.864 65.4587 42.3574 66.9462 43.1833 68.3547C44.2014 70.0845 45.4221 71.7154 46.6947 73.2771C48.0816 74.9771 49.5516 76.6476 51.1618 78.1598L51.4683 77.038C45.9104 81.2239 40.3576 85.4148 34.7373 89.5217L38.6331 89.0028C32.3739 81.7429 26.3329 74.3149 20.0685 67.055C17.6791 64.2874 15.2689 61.5297 12.9366 58.7177C11.7991 57.3438 10.6823 55.9501 9.5811 54.5466C8.2877 52.891 7.08781 51.1662 5.77883 49.5254C5.53989 49.2239 5.79441 49.7231 5.77883 49.5402C5.77883 49.4957 5.73727 49.4463 5.72688 49.4068C5.69052 49.2635 5.64897 49.13 5.623 48.9867C5.53989 48.5716 5.49834 48.1515 5.46198 47.7364C5.3425 46.4168 5.31653 45.0924 5.30614 43.7728C5.28017 40.0564 5.46197 36.3103 5.79441 32.5394C6.12685 28.7686 6.58915 24.8891 7.56569 21.1776C7.75788 20.4412 7.97604 19.7049 8.24095 18.9833C8.35003 18.6818 8.4695 18.3804 8.59936 18.0839C8.66169 17.9455 8.71883 17.812 8.78635 17.6737C8.82271 17.5946 8.85907 17.5155 8.90063 17.4414C9.00452 17.2437 8.70844 17.5946 8.94219 17.387L9.00971 17.2931C9.12399 17.1597 9.10322 17.1745 8.94738 17.3376C8.97855 17.3327 9.10841 17.2091 9.12399 17.1992C9.09282 17.219 8.32406 17.5847 8.70844 17.4463C8.69286 17.4513 8.09551 17.6193 8.46431 17.5303C7.75268 17.6984 8.16823 17.5847 8.35523 17.5699C8.30329 17.5699 7.8254 17.5699 8.18901 17.5896C8.2877 17.5946 8.75 17.6391 8.24614 17.5798C8.39159 17.5946 8.53703 17.6144 8.68247 17.6391C8.9318 17.6786 9.18113 17.733 9.42526 17.7972C9.09802 17.7083 9.59148 17.8565 9.61226 17.8664C9.71095 17.901 9.80964 17.9356 9.90833 17.9702C10.4537 18.1728 10.9784 18.415 11.4822 18.7016C13.0094 19.5714 13.934 20.8317 13.9703 22.6652C14.0067 24.4987 13.2379 26.5793 12.6977 28.398C12.0276 30.6516 11.4303 32.92 11.4095 35.2774C11.3887 37.8621 12.2614 40.2985 13.9807 42.3099C14.7599 43.2242 15.6948 44.0001 16.7025 44.6723C17.5388 45.2258 18.7907 45.033 19.6789 44.6624C20.0321 44.5141 21.7463 43.585 20.91 43.0315C18.6556 41.539 16.8999 39.4979 16.2402 36.928C15.6533 34.63 16.0013 32.2825 16.5779 30.019C17.1233 27.8791 17.9284 25.7886 18.3128 23.614C18.64 21.7657 18.5881 19.8482 17.2739 18.3458C15.8351 16.705 13.3054 15.6326 11.1134 15.3707C9.46162 15.173 7.71112 15.3855 6.24632 16.1663C5.20745 16.7198 4.63608 17.4908 4.17378 18.5039C2.74533 21.6669 2.23629 25.2499 1.78958 28.6352C1.24417 32.7322 0.958477 36.8638 0.844201 40.9954C0.766286 43.8964 0.626041 46.9061 1.05717 49.7923C1.23897 51.0179 2.09604 51.8729 2.83883 52.8613C4.0595 54.4922 5.30614 56.1083 6.57876 57.7046C8.82271 60.5215 11.1654 63.2594 13.5236 65.9875C20.3178 73.8503 26.9042 81.8713 33.6673 89.754C33.927 90.0554 34.1815 90.3569 34.4412 90.6534C34.8048 91.0784 35.7294 91.0093 36.2125 90.95C36.9813 90.8561 37.7189 90.5842 38.337 90.1345C43.9573 86.0276 49.51 81.8367 55.068 77.6508C55.4056 77.3988 55.764 76.8996 55.3744 76.5289C53.9616 75.1946 52.6578 73.7416 51.4164 72.2639C49.2036 69.6249 47.131 66.8622 46.1649 63.5757C45.4325 61.075 44.4611 58.5249 42.212 56.8693C41.3341 56.2219 40.3212 55.787 39.3447 55.2928C37.8228 54.5218 36.3735 53.6026 35.0853 52.5104C33.8854 51.4973 32.8466 50.331 31.9531 49.0608C31.2415 48.0428 30.6338 46.9654 29.9481 45.9325C28.5664 43.8568 26.525 42.5323 23.8603 42.5719C20.8009 42.6164 17.3726 43.8469 15.1546 45.893C14.3859 46.5997 13.56 47.5041 13.4976 48.5666C13.4353 49.6292 14.1521 50.2519 14.8014 51.0031C16.0688 52.4758 17.2376 54.0276 18.4374 55.5498C20.2711 57.8775 22.1722 60.1509 24.1408 62.3748C24.7953 63.1161 25.4602 63.8476 26.1303 64.579C27.0964 65.6317 31.4129 64.1144 30.3325 62.9382H30.3377Z" fill="#E0A619"/>
</svg>
