<svg width="123" height="102" viewBox="0 0 123 102" fill="none" xmlns="http://www.w3.org/2000/svg">
<path d="M28.6388 14.7101C32.1731 14.5251 35.7129 14.4425 39.2526 14.5023C41.4626 14.5393 43.6698 14.6532 45.8798 14.6845C46.7928 14.6959 47.7196 14.7129 48.6326 14.6418C48.9589 14.6162 48.3173 14.5677 48.6244 14.6361C48.6518 14.6418 48.7587 14.6816 48.7834 14.6702C48.7533 14.6816 48.5147 14.5507 48.6463 14.6332C48.7121 14.6731 48.8108 14.7215 48.8849 14.75C49.0439 14.8069 48.745 14.5962 48.852 14.73C48.8849 14.7699 48.937 14.8012 48.9753 14.8354C49.1152 14.9635 49.2249 15.1143 49.3318 15.2709C49.4387 15.4275 49.2715 15.1513 49.329 15.2652C49.351 15.3108 49.3757 15.3563 49.3976 15.4047C49.4524 15.5214 49.5018 15.641 49.5457 15.7634C49.7184 16.2474 49.8061 16.7626 49.85 17.275C49.9048 17.9241 49.8939 18.2913 49.8363 18.9205C49.7211 20.1446 49.436 21.3659 48.9726 22.4989C48.9178 22.6327 48.8602 22.7665 48.7999 22.8974C48.7889 22.9231 48.6628 23.1793 48.7642 22.9771C48.7395 23.0284 48.7121 23.0768 48.6874 23.1252C48.5476 23.3899 48.3941 23.6461 48.2241 23.8881C48.15 23.9934 48.0733 24.0988 47.9938 24.1984C47.9142 24.2981 47.6921 24.5286 47.9088 24.3123C47.7223 24.5002 47.4481 24.6568 47.2836 24.856C47.4783 24.6197 47.4262 24.7535 47.2973 24.8361C47.2507 24.8646 47.2041 24.893 47.1575 24.9215C47.0889 24.9614 47.0176 24.9984 46.9491 25.0411C46.7736 25.1464 46.9984 24.93 47.0999 24.9642C47.0533 24.9471 46.812 25.0866 46.7489 25.1151C46.472 25.2432 47.1739 24.9927 46.8833 25.0695C46.812 25.0895 46.7407 25.1122 46.6694 25.1322C46.6091 25.1492 46.5488 25.1606 46.4912 25.1777C46.291 25.2346 46.9573 25.098 46.6694 25.1379C46.5488 25.1549 46.4281 25.1777 46.3075 25.1919C46.2472 25.1976 46.1841 25.2033 46.1238 25.209C45.9291 25.2318 46.546 25.1948 46.2636 25.1976C46.1128 25.1976 45.962 25.2062 45.814 25.2033C45.6851 25.2033 45.559 25.1976 45.4301 25.1891C45.378 25.1891 45.3259 25.1834 45.2738 25.1806C44.9941 25.1663 45.2436 25.2432 45.3122 25.1863C45.2738 25.2176 44.964 25.1492 44.9119 25.1435C44.7474 25.1236 44.5829 25.1037 44.4211 25.0809C43.8096 24.9955 43.1982 24.8959 42.5868 24.8076C41.1034 24.5941 39.6009 24.4575 38.1038 24.5315C36.0255 24.634 34.0047 25.0553 32.0305 25.7357C30.5527 26.2453 29.1598 26.8886 27.7532 27.5747C27.5366 27.68 27.3173 27.7825 27.0979 27.8765C26.991 27.922 26.8813 27.9619 26.7744 28.0074C26.5111 28.1127 27.1582 27.885 26.9581 27.9448C26.8786 27.9676 26.8018 27.996 26.7223 28.0188C26.6071 28.053 26.4782 28.0643 26.3713 28.1099C26.7579 27.9533 26.7195 28.0444 26.5797 28.0643C26.5029 28.0757 26.4261 28.0928 26.3466 28.1042C26.2095 28.1241 26.0724 28.1384 25.9353 28.1526C25.6858 28.1811 26.0478 28.1412 26.0697 28.1441C25.9545 28.127 25.8092 28.1554 25.6913 28.1583C25.3294 28.164 24.9675 28.1497 24.6055 28.1327C24.548 28.1327 24.3423 28.107 24.6138 28.1327C24.5041 28.1213 24.3917 28.1099 24.282 28.0957C24.0901 28.07 23.8981 28.0387 23.7062 28.0017C23.5417 27.9704 23.3772 27.9334 23.2154 27.8935C23.1359 27.8736 23.0591 27.8508 22.9796 27.8309C22.678 27.754 23.1277 27.8793 22.9467 27.8224C22.6232 27.717 22.3051 27.6032 21.9925 27.4722C20.7587 26.9626 19.5797 26.3193 18.3157 25.8894C16.3251 25.2147 14.2632 24.9927 12.1821 24.8503C8.93845 24.6283 5.65916 24.7137 2.42649 25.0638C2.25649 25.0809 2.0865 25.1009 1.9165 25.1236L3.27373 25.5393C3.27373 19.1625 3.26824 12.7828 3.32034 6.40603C3.33405 4.78336 3.3505 3.1607 3.37244 1.53804L1.15152 2.86463C5.97722 2.77354 10.8057 2.73938 15.6314 2.74792C21.4332 2.75646 27.2323 2.68529 33.0341 2.56287C37.029 2.48032 41.0266 2.38353 45.0216 2.42908C47.0972 2.45185 49.17 2.51448 51.2456 2.60558C52.4575 2.65967 53.6722 2.72514 54.8841 2.79631C55.183 2.81339 55.4846 2.83332 55.7834 2.85325C56.2112 2.87887 55.5367 2.81908 55.6436 2.83901C55.7889 2.86463 55.66 2.91872 55.4462 2.77638C55.5476 2.84471 55.6984 2.87887 55.8108 2.9358C55.9836 3.0269 56.1536 3.12938 56.3181 3.23471C56.3647 3.26603 56.4141 3.29734 56.4607 3.32866C56.6499 3.45107 56.2715 3.19771 56.4387 3.31442C56.5539 3.39413 56.669 3.471 56.7815 3.55355C57.3216 3.93787 57.8453 4.34211 58.3635 4.7549C59.7975 5.89361 61.1849 7.09495 62.5504 8.32191C66.0051 11.4192 69.3365 14.6788 72.4897 18.1063C74.0361 19.7887 75.5441 21.5196 76.9562 23.3273C77.5759 24.1215 78.1763 24.93 78.7467 25.7613C79.0071 26.1428 79.2621 26.5328 79.5089 26.9256C79.6158 27.0964 79.72 27.2701 79.8215 27.4409C79.9366 27.6345 79.7639 27.3413 79.8324 27.4608C79.8599 27.5092 79.89 27.5605 79.9174 27.6089C79.9723 27.7057 80.0271 27.8024 80.0792 27.9021C80.4411 28.5682 80.9484 29.4621 80.921 30.1539C80.9182 30.2393 80.8579 30.5781 80.8058 30.7546C80.7702 30.8741 80.7235 30.9908 80.6769 31.1047C80.6577 31.1503 80.5727 31.3182 80.6605 31.1474C80.6194 31.2243 80.5755 31.3011 80.5316 31.3752C80.3973 31.5972 80.2437 31.8079 80.0792 32.0043C80.0298 32.0641 79.9778 32.1239 79.9257 32.1836C79.9531 32.1523 80.0957 32.0128 79.9366 32.1694C79.8187 32.2861 79.7036 32.4 79.5829 32.511C79.3581 32.716 79.1195 32.9039 78.8755 33.0832C79.1223 32.901 78.8454 33.1003 78.7412 33.1658C78.5821 33.2711 78.4204 33.3679 78.2559 33.4647C78.1818 33.5074 77.9296 33.6981 77.8473 33.6896C77.861 33.6896 78.1955 33.5245 77.9323 33.644C77.8693 33.6725 77.8089 33.7038 77.7486 33.7323C77.6115 33.7949 77.4717 33.8547 77.3318 33.9116C77.2551 33.943 77.1783 33.9714 77.0988 34.0027C76.8027 34.1223 77.4689 33.8889 77.1454 33.9885C77.0248 34.0255 76.9041 34.0654 76.7807 34.0995C76.7039 34.1223 76.2351 34.2276 76.5477 34.1622C76.8602 34.0967 76.4078 34.1821 76.3283 34.1935C76.2735 34.202 76.2159 34.2049 76.1611 34.2134C75.8567 34.2561 76.5312 34.2134 76.2351 34.2077C76.1309 34.2077 76.0267 34.2077 75.9225 34.2077C75.5633 34.202 76.1227 34.2447 75.9417 34.2105C75.7607 34.1764 75.5908 34.1508 75.4153 34.1109C75.1164 34.0397 75.6511 34.2049 75.3632 34.0938C75.2891 34.0654 75.2151 34.0397 75.1411 34.0084C74.9656 33.9344 74.7929 33.8519 74.6256 33.7579C74.5461 33.7124 74.4666 33.664 74.3871 33.6156C74.1568 33.4761 74.4885 33.701 74.3075 33.5615C74.1458 33.4362 73.9813 33.3167 73.825 33.1829C73.1669 32.6249 72.5966 31.9616 72.0674 31.2755C70.8062 29.6443 69.7451 27.8565 68.5715 26.157C67.3404 24.3692 65.9914 22.6298 64.3134 21.2719C62.2076 19.5696 59.718 18.6387 57.0419 18.5732C55.3584 18.5333 53.653 18.8294 52.0517 19.3617C51.6267 19.5041 50.4889 19.8998 50.6616 20.5716C50.8343 21.2435 52.0572 21.0271 52.4493 20.8962C52.7564 20.7937 53.0662 20.6997 53.3761 20.62C53.4693 20.5944 53.5652 20.5716 53.6585 20.5488C53.716 20.5346 53.971 20.4748 53.738 20.5289C53.4638 20.5944 53.8641 20.5061 53.886 20.5004C54.0122 20.4777 54.1383 20.4577 54.2644 20.4378C54.4372 20.4122 54.6126 20.3894 54.7881 20.3723C54.7772 20.3723 55.2159 20.341 54.9938 20.3524C54.7717 20.3638 55.2241 20.3439 55.2104 20.3467C55.3996 20.341 55.5915 20.341 55.7807 20.3467C55.9041 20.3496 56.0247 20.3553 56.1454 20.361C56.2386 20.3666 56.2441 20.3666 56.1645 20.361L56.3154 20.3752C56.7157 20.4207 57.116 20.4862 57.5108 20.5773C57.6616 20.6115 57.8097 20.6513 57.9577 20.6912C58.0098 20.7054 58.1661 20.7624 57.9331 20.6826C58.0181 20.7111 58.1058 20.7367 58.1935 20.768C58.7118 20.9445 59.219 21.1666 59.7043 21.4285C59.9374 21.5538 60.1649 21.6847 60.3898 21.827C60.4391 21.8584 60.4885 21.8897 60.5378 21.921C60.6804 22.0121 60.3541 21.7929 60.5845 21.9523C60.7051 22.0349 60.823 22.1203 60.9409 22.2085C61.3741 22.533 61.7909 22.8832 62.1857 23.2561C62.9946 24.0162 63.7239 24.8646 64.4066 25.7499C65.72 27.458 66.8442 29.3055 68.0643 31.0848C69.109 32.6107 70.2359 34.128 71.7932 35.1187C73.8414 36.4225 76.3283 36.0325 78.4697 35.1898C79.794 34.6689 81.0855 33.9059 82.1521 32.9323C83.0185 32.1409 83.9288 31.0677 84.0796 29.8294C84.2002 28.8586 83.8191 28.0672 83.3832 27.2416C82.9472 26.4161 82.4756 25.6417 81.9684 24.8788C80.7976 23.1166 79.4815 21.4598 78.1215 19.8542C75.0067 16.1762 71.6233 12.7401 68.1274 9.45494C65.4677 6.95261 62.7451 4.43036 59.7811 2.31521C59.3451 2.00491 58.9009 1.69176 58.4321 1.43555C57.9002 1.14518 57.3792 1.09963 56.7815 1.06262C54.4235 0.914586 52.0654 0.79787 49.7074 0.726701C45.7372 0.607136 41.7669 0.638451 37.7967 0.718161C32.6338 0.817798 27.4681 0.931669 22.3024 0.962984C16.1249 0.999992 9.9502 0.968676 3.77275 1.06831C3.32034 1.07685 2.86793 1.08255 2.41826 1.09109C1.68344 1.10532 0.21105 1.4327 0.197341 2.41769C0.117826 8.33615 0.101375 14.2575 0.0986328 20.1788C0.0986328 22.2598 0.0986328 24.3408 0.0986328 26.4189C0.0986328 26.9285 1.20909 26.8659 1.45586 26.8345C2.15504 26.7406 2.85696 26.6865 3.55888 26.6324C3.89613 26.6068 3.19147 26.6552 3.53969 26.6324C3.6055 26.6296 3.6713 26.6239 3.73985 26.6182C3.93178 26.6068 4.12645 26.5954 4.31838 26.584C4.76805 26.5612 5.21772 26.5413 5.66739 26.5271C6.61608 26.4986 7.56751 26.4929 8.5162 26.51C9.01248 26.5185 9.50876 26.5356 10.005 26.5612C10.5013 26.5869 11.2087 26.6324 11.5871 26.6666C12.6318 26.7605 13.6819 26.8801 14.7074 27.1192C15.4093 27.2843 15.9823 27.4694 16.7638 27.7911C17.4081 28.0558 18.0333 28.3633 18.6666 28.6536C21.3866 29.9062 24.5781 30.4073 27.4626 29.4365C28.6909 29.0237 29.8096 28.3689 30.9941 27.848C31.3725 27.68 31.7564 27.5235 32.1457 27.3783C32.2499 27.3384 32.3541 27.3014 32.4583 27.2616C32.5104 27.2416 32.9491 27.0907 32.5762 27.2189C32.8668 27.1192 33.1575 27.0253 33.4508 26.9342C33.906 26.7947 34.3639 26.678 34.8245 26.5698C35.1343 26.4986 34.8465 26.5612 34.7916 26.5755C34.9177 26.5413 35.0521 26.5242 35.181 26.5015C35.4332 26.4559 35.6855 26.4189 35.9377 26.3847C36.1406 26.3591 36.3435 26.3363 36.5464 26.3164C36.615 26.3107 37.0153 26.2566 36.6204 26.3079C36.6972 26.2993 36.7767 26.2993 36.8535 26.2936C37.2648 26.2737 37.6761 26.268 38.0873 26.2766C38.4739 26.2851 38.8578 26.3079 39.2444 26.3363C38.9044 26.3107 39.387 26.3506 39.4912 26.362C39.6859 26.3819 39.8778 26.4047 40.0725 26.4303C41.3913 26.6011 42.6992 26.8516 44.0263 26.9427C46.7517 27.1306 49.7376 26.1342 51.3114 23.6917C52.6741 21.5765 53.2911 18.7468 53.0224 16.2217C52.9209 15.2738 52.6385 14.1692 51.9064 13.5258C51.0153 12.7401 49.8939 12.8739 48.8081 12.8967C46.7489 12.9394 44.6898 12.8284 42.6334 12.7686C39.4528 12.6746 36.2722 12.6775 33.0917 12.7885C32.0333 12.8255 30.9749 12.8711 29.9166 12.928C29.2092 12.965 28.2522 13.1558 27.8135 13.8077C27.3995 14.4226 28.1672 14.7243 28.6553 14.6987L28.6388 14.7101Z" fill="#E0A619"/>
<path d="M57.4484 65.4881C60.119 65.4881 63.9851 62.2684 65.9592 60.3496C66.3239 59.9938 68.0924 58.2516 69.8307 55.3763C72.0955 51.63 73.6255 49.0963 73.0881 45.9962C72.4575 42.3551 69.1206 38.7853 65.8303 38.6913C62.1178 38.5832 57.2263 44.9343 57.2263 44.9343C57.2263 44.9343 54.9835 39.7019 52.3513 38.8451C49.3846 37.8772 45.3677 39.329 43.3908 42.227C40.9067 45.8738 42.571 50.4713 43.5389 53.1444C45.5925 58.8181 55.5648 65.4852 57.4457 65.4852L57.4484 65.4881Z" fill="#E0A619"/>
<path d="M94.1538 87.7784C90.6195 87.9634 87.0798 88.046 83.54 87.9862C81.33 87.9492 79.1228 87.8353 76.9129 87.804C75.9998 87.7926 75.0731 87.7755 74.16 87.8467C73.8337 87.8723 74.4753 87.9207 74.1682 87.8524C74.1408 87.8467 74.0339 87.8068 74.0092 87.8182C74.0394 87.8068 74.2779 87.9378 74.1463 87.8552C74.0805 87.8154 73.9818 87.767 73.9078 87.7385C73.7487 87.6816 74.0476 87.8922 73.9407 87.7584C73.9078 87.7186 73.8557 87.6873 73.8173 87.6531C73.6775 87.525 73.5678 87.3741 73.4608 87.2175C73.3539 87.061 73.5212 87.3371 73.4636 87.2232C73.4417 87.1777 73.417 87.1322 73.395 87.0838C73.3402 86.967 73.2909 86.8475 73.247 86.7251C73.0742 86.2411 72.9865 85.7258 72.9426 85.2134C72.8878 84.5644 72.8988 84.1971 72.9563 83.568C73.0715 82.3439 73.3567 81.1226 73.82 79.9896C73.8749 79.8558 73.9324 79.722 73.9928 79.591C74.0037 79.5654 74.1299 79.3092 74.0284 79.5113C74.0531 79.4601 74.0805 79.4117 74.1052 79.3633C74.245 79.0985 74.3986 78.8423 74.5686 78.6003C74.6426 78.495 74.7194 78.3897 74.7989 78.29C74.8784 78.1904 75.1005 77.9598 74.8839 78.1762C75.0703 77.9883 75.3445 77.8317 75.509 77.6324C75.3144 77.8687 75.3664 77.7349 75.4953 77.6524C75.5419 77.6239 75.5885 77.5954 75.6352 77.567C75.7037 77.5271 75.775 77.4901 75.8435 77.4474C76.019 77.3421 75.7942 77.5584 75.6927 77.5243C75.7393 77.5413 75.9806 77.4018 76.0437 77.3734C76.3206 77.2453 75.6187 77.4958 75.9093 77.4189C75.9806 77.399 76.0519 77.3762 76.1232 77.3563C76.1835 77.3392 76.2438 77.3278 76.3014 77.3108C76.5016 77.2538 75.8353 77.3905 76.1232 77.3506C76.2439 77.3335 76.3645 77.3108 76.4851 77.2965C76.5455 77.2908 76.6085 77.2851 76.6688 77.2794C76.8635 77.2567 76.2466 77.2937 76.529 77.2908C76.6798 77.2908 76.8306 77.2823 76.9787 77.2851C77.1075 77.2851 77.2337 77.2908 77.3625 77.2994C77.4146 77.2994 77.4667 77.3051 77.5188 77.3079C77.7985 77.3221 77.549 77.2453 77.4804 77.3022C77.5188 77.2709 77.8287 77.3392 77.8808 77.3449C78.0453 77.3648 78.2098 77.3848 78.3716 77.4075C78.983 77.4929 79.5944 77.5926 80.2059 77.6808C81.6892 77.8943 83.1918 78.031 84.6888 77.957C86.7672 77.8545 88.7879 77.4332 90.7621 76.7528C92.24 76.2432 93.6328 75.5998 95.0394 74.9138C95.256 74.8084 95.4754 74.706 95.6947 74.612C95.8017 74.5665 95.9113 74.5266 96.0183 74.481C96.2815 74.3757 95.6344 74.6035 95.8346 74.5437C95.9141 74.5209 95.9909 74.4924 96.0704 74.4697C96.1855 74.4355 96.3144 74.4241 96.4213 74.3786C96.0347 74.5351 96.0731 74.444 96.213 74.4241C96.2897 74.4127 96.3665 74.3956 96.446 74.3843C96.5831 74.3643 96.7202 74.3501 96.8573 74.3359C97.1068 74.3074 96.7449 74.3473 96.7229 74.3444C96.8381 74.3615 96.9834 74.333 97.1013 74.3302C97.4632 74.3245 97.8252 74.3387 98.1871 74.3558C98.2447 74.3558 98.4503 74.3814 98.1789 74.3558C98.2885 74.3672 98.401 74.3786 98.5106 74.3928C98.7026 74.4184 98.8945 74.4497 99.0864 74.4867C99.2509 74.5181 99.4155 74.5551 99.5772 74.5949C99.6567 74.6149 99.7335 74.6376 99.813 74.6576C100.115 74.7344 99.665 74.6092 99.8459 74.6661C100.169 74.7714 100.488 74.8853 100.8 75.0162C102.034 75.5258 103.213 76.1692 104.477 76.5991C106.468 77.2737 108.529 77.4958 110.611 77.6381C113.854 77.8602 117.133 77.7748 120.366 77.4246C120.536 77.4075 120.706 77.3876 120.876 77.3648C120.424 77.2253 119.971 77.0887 119.519 76.9492C119.519 83.326 119.524 89.7056 119.472 96.0824C119.459 97.7051 119.442 99.3278 119.42 100.95C120.161 100.509 120.901 100.065 121.641 99.6238C116.815 99.7149 111.987 99.7491 107.161 99.7406C101.359 99.732 95.5604 99.8032 89.7586 99.9256C85.7637 100.008 81.766 100.105 77.7711 100.059C75.6955 100.037 73.6226 99.974 71.547 99.8829C70.3351 99.8288 69.1205 99.7633 67.9085 99.6922C67.6097 99.6751 67.3081 99.6551 67.0092 99.6352C66.5815 99.6096 67.256 99.6694 67.149 99.6495C67.0037 99.6238 67.1326 99.5697 67.3465 99.7121C67.245 99.6438 67.0942 99.6096 66.9818 99.5527C66.8091 99.4616 66.6391 99.3591 66.4745 99.2537C66.4279 99.2224 66.3786 99.1911 66.332 99.1598C66.1428 99.0374 66.5212 99.2907 66.3539 99.174C66.2387 99.0943 66.1236 99.0175 66.0112 98.9349C65.471 98.5506 64.9473 98.1463 64.4291 97.7336C62.9951 96.5948 61.6077 95.3935 60.2423 94.1666C56.7875 91.0693 53.4561 87.8097 50.3029 84.3822C48.7565 82.6997 47.2485 80.9689 45.8364 79.1612C45.2168 78.3669 44.6163 77.5584 44.046 76.7272C43.7855 76.3457 43.5305 75.9557 43.2837 75.5628C43.1768 75.392 43.0726 75.2184 42.9712 75.0476C42.856 74.854 43.0287 75.1472 42.9602 75.0276C42.9328 74.9792 42.9026 74.928 42.8752 74.8796C42.8204 74.7828 42.7655 74.686 42.7134 74.5864C42.3515 73.9202 41.8443 73.0263 41.8717 72.3346C41.8744 72.2492 41.9347 71.9104 41.9868 71.7339C42.0225 71.6143 42.0691 71.4976 42.1157 71.3838C42.1349 71.3382 42.2199 71.1702 42.1321 71.341C42.1733 71.2642 42.2171 71.1873 42.261 71.1133C42.3954 70.8913 42.5489 70.6806 42.7134 70.4842C42.7628 70.4244 42.8149 70.3646 42.867 70.3048C42.8396 70.3361 42.697 70.4756 42.856 70.3191C42.9739 70.2023 43.0891 70.0885 43.2097 69.9774C43.4345 69.7725 43.6731 69.5846 43.9171 69.4052C43.6703 69.5874 43.9473 69.3882 44.0515 69.3227C44.2105 69.2174 44.3723 69.1206 44.5368 69.0238C44.6108 68.9811 44.8631 68.7903 44.9453 68.7989C44.9316 68.7989 44.5971 68.964 44.8603 68.8444C44.9234 68.816 44.9837 68.7846 45.044 68.7562C45.1811 68.6935 45.321 68.6338 45.4608 68.5768C45.5376 68.5455 45.6143 68.517 45.6939 68.4857C45.99 68.3662 45.3237 68.5996 45.6472 68.5C45.7679 68.463 45.8885 68.4231 46.0119 68.3889C46.0887 68.3662 46.5575 68.2608 46.245 68.3263C45.9324 68.3918 46.3848 68.3064 46.4643 68.295C46.5192 68.2865 46.5767 68.2836 46.6316 68.2751C46.9359 68.2324 46.2614 68.2751 46.5575 68.2808C46.6617 68.2808 46.7659 68.2808 46.8701 68.2808C47.2293 68.2865 46.67 68.2438 46.8509 68.2779C47.0319 68.3121 47.2019 68.3377 47.3774 68.3775C47.6762 68.4487 47.1416 68.2836 47.4295 68.3946C47.5035 68.4231 47.5775 68.4487 47.6516 68.48C47.827 68.5541 47.9998 68.6366 48.167 68.7306C48.2465 68.7761 48.3261 68.8245 48.4056 68.8729C48.6359 69.0124 48.3041 68.7875 48.4851 68.927C48.6469 69.0522 48.8114 69.1718 48.9676 69.3056C49.6257 69.8636 50.196 70.5269 50.7252 71.2129C51.9865 72.8442 53.0476 74.6319 54.2211 76.3315C55.4522 78.1192 56.8012 79.8586 58.4792 81.2165C60.585 82.9189 63.0746 83.8498 65.7507 83.9153C67.4342 83.9551 69.1396 83.6591 70.7409 83.1267C71.1659 82.9844 72.3038 82.5887 72.131 81.9169C71.9583 81.245 70.7354 81.4614 70.3433 81.5923C70.0362 81.6948 69.7264 81.7887 69.4166 81.8685C69.3234 81.8941 69.2274 81.9168 69.1342 81.9396C69.0766 81.9539 68.8216 82.0136 69.0546 81.9596C69.3288 81.8941 68.9285 81.9823 68.9066 81.988C68.7805 82.0108 68.6543 82.0307 68.5282 82.0506C68.3555 82.0763 68.18 82.099 68.0045 82.1161C68.0155 82.1161 67.5768 82.1474 67.7989 82.136C68.021 82.1247 67.5686 82.1446 67.5823 82.1417C67.3931 82.1474 67.2011 82.1474 67.012 82.1417C66.8886 82.1389 66.7679 82.1332 66.6473 82.1275C66.5541 82.1218 66.5486 82.1218 66.6281 82.1275L66.4773 82.1133C66.077 82.0677 65.6767 82.0022 65.2818 81.9112C65.131 81.877 64.983 81.8371 64.8349 81.7973C64.7828 81.783 64.6265 81.7261 64.8596 81.8058C64.7746 81.7774 64.6868 81.7517 64.5991 81.7204C64.0809 81.5439 63.5736 81.3219 63.0883 81.06C62.8553 80.9347 62.6277 80.8038 62.4029 80.6614C62.3535 80.6301 62.3041 80.5988 62.2548 80.5675C62.1122 80.4764 62.4385 80.6956 62.2082 80.5362C62.0875 80.4536 61.9696 80.3682 61.8517 80.28C61.4185 79.9554 61.0018 79.6053 60.6069 79.2323C59.7981 78.4722 59.0687 77.6239 58.386 76.7386C57.0726 75.0305 55.9485 73.1829 54.7283 71.4037C53.6837 69.8778 52.5568 68.3605 50.9994 67.3698C48.9512 66.066 46.4643 66.456 44.3229 67.2986C42.9986 67.8196 41.7072 68.5825 40.6406 69.5561C39.7741 70.3475 38.8638 71.4208 38.713 72.6591C38.5924 73.6299 38.9735 74.4213 39.4095 75.2468C39.8454 76.0724 40.317 76.8467 40.8243 77.6097C41.9951 79.3718 43.3112 81.0287 44.6711 82.6342C47.7859 86.3123 51.1694 89.7483 54.6653 93.0335C57.3249 95.5358 60.0476 98.0581 63.0115 100.173C63.4475 100.484 63.8917 100.797 64.3606 101.053C64.8925 101.343 65.4134 101.389 66.0112 101.426C68.3692 101.574 70.7272 101.691 73.0852 101.762C77.0555 101.881 81.0257 101.85 84.9959 101.77C90.1589 101.671 95.3246 101.557 100.49 101.525C106.668 101.488 112.842 101.52 119.02 101.42C119.472 101.412 119.925 101.406 120.374 101.397C121.109 101.383 122.582 101.056 122.595 100.071C122.675 94.1523 122.691 88.231 122.694 82.3097C122.694 80.2287 122.694 78.1477 122.694 76.0696C122.694 75.56 121.584 75.6226 121.337 75.6539C120.638 75.7479 119.936 75.802 119.234 75.856C118.897 75.8817 119.601 75.8333 119.253 75.856C119.187 75.8589 119.121 75.8646 119.053 75.8703C118.861 75.8817 118.666 75.8931 118.474 75.9044C118.025 75.9272 117.575 75.9471 117.125 75.9614C116.177 75.9898 115.225 75.9955 114.276 75.9785C113.78 75.9699 113.284 75.9528 112.788 75.9272C112.291 75.9016 111.584 75.8561 111.206 75.8219C110.161 75.7279 109.111 75.6084 108.085 75.3693C107.383 75.2041 106.81 75.0191 106.029 74.6974C105.385 74.4327 104.759 74.1252 104.126 73.8348C101.406 72.5822 98.2145 72.0812 95.3301 73.052C94.1017 73.4648 92.983 74.1195 91.7985 74.6405C91.4201 74.8084 91.0363 74.965 90.6469 75.1102C90.5427 75.15 90.4386 75.1871 90.3344 75.2269C90.2823 75.2468 89.8436 75.3977 90.2165 75.2696C89.9258 75.3693 89.6352 75.4632 89.3418 75.5543C88.8866 75.6938 88.4288 75.8105 87.9681 75.9187C87.6583 75.9898 87.9462 75.9272 88.001 75.913C87.8749 75.9471 87.7405 75.9642 87.6117 75.987C87.3594 76.0325 87.1072 76.0696 86.8549 76.1037C86.652 76.1293 86.4491 76.1521 86.2462 76.172C86.1777 76.1777 85.7774 76.2318 86.1722 76.1806C86.0954 76.1891 86.0159 76.1891 85.9391 76.1948C85.5279 76.2147 85.1166 76.2204 84.7053 76.2119C84.3187 76.2034 83.9348 76.1806 83.5482 76.1521C83.8882 76.1777 83.4056 76.1379 83.3014 76.1265C83.1068 76.1066 82.9148 76.0838 82.7202 76.0582C81.4013 75.8874 80.0934 75.6368 78.7664 75.5458C76.041 75.3579 73.055 76.3542 71.4812 78.7968C70.1185 80.9119 69.5016 83.7416 69.7703 86.2667C69.8717 87.2147 70.1541 88.3193 70.8862 88.9626C71.7773 89.7483 72.8988 89.6145 73.9845 89.5918C76.0437 89.5491 78.1028 89.6601 80.1593 89.7199C83.3398 89.8138 86.5204 89.811 89.701 89.7C90.7594 89.6629 91.8177 89.6174 92.8761 89.5605C93.5835 89.5235 94.5404 89.3327 94.9791 88.6808C95.3931 88.0659 94.6254 87.7641 94.1373 87.7898L94.1538 87.7784Z" fill="#E0A619"/>
</svg>
