<svg width="615" height="144" viewBox="0 0 615 144" fill="none" xmlns="http://www.w3.org/2000/svg">
<path d="M248.384 38.7966C253.504 37.4952 258.633 36.257 263.757 34.9959C264.459 34.8231 265.709 33.9363 265.47 32.8479C265.218 31.6846 263.795 31.8746 263.116 32.0417C257.992 33.3086 252.863 34.5409 247.743 35.8424C247.041 36.0209 245.791 36.8963 246.03 37.9904C246.283 39.1479 247.705 38.9694 248.384 38.7966Z" fill="#E0A619"/>
<path d="M281.382 31.9545C286.587 31.2731 291.796 30.6558 297.003 30.015C297.716 29.9272 299.035 29.1946 298.891 28.0832C298.739 26.8957 297.307 26.9143 296.618 26.9992C291.411 27.6457 286.203 28.2572 280.998 28.9387C280.284 29.0322 278.966 29.7533 279.11 30.8704C279.262 32.0523 280.692 32.0451 281.382 31.9545Z" fill="#E0A619"/>
<path d="M315.345 29.8039C320.581 29.9271 325.813 30.1146 331.046 30.2784C331.763 30.3008 333.151 29.7769 333.13 28.6528C333.11 27.4521 331.689 27.2508 330.996 27.2291C325.762 27.0709 320.531 26.8778 315.295 26.7545C314.577 26.7377 313.191 27.2504 313.21 28.3801C313.231 29.5753 314.651 29.7878 315.345 29.8039Z" fill="#E0A619"/>
<path d="M344.254 32.2587C349.418 33.2882 354.571 34.3807 359.727 35.4497C360.433 35.5961 361.871 35.3186 361.99 34.203C362.12 33.0117 360.738 32.5662 360.056 32.4247C354.898 31.361 349.747 30.2632 344.583 29.2337C343.875 29.0926 342.44 29.3595 342.319 30.4804C342.192 31.6663 343.57 32.1225 344.254 32.2587Z" fill="#E0A619"/>
<path d="M373.156 39.3146C378.194 41.004 383.215 42.7545 388.241 44.482C388.93 44.7187 390.385 44.6283 390.606 43.5347C390.845 42.3672 389.513 41.7462 388.847 41.5174C383.819 39.795 378.8 38.0394 373.762 36.35C373.071 36.1185 371.62 36.1987 371.397 37.2973C371.16 38.4597 372.488 39.0909 373.156 39.3146Z" fill="#E0A619"/>
<path d="M400.983 50.9479C405.757 53.4915 410.507 56.0927 415.265 58.6721C415.917 59.0255 417.368 59.1881 417.722 58.1446C418.103 57.031 416.862 56.1861 416.232 55.8445C411.471 53.2697 406.724 50.6639 401.95 48.1202C401.295 47.7715 399.85 47.5996 399.493 48.6477C399.115 49.7567 400.35 50.6109 400.983 50.9479Z" fill="#E0A619"/>
<path d="M428.751 68.3083C433.132 71.6999 437.481 75.1439 441.841 78.5677C442.438 79.0367 443.85 79.4645 444.338 78.499C444.86 77.469 443.746 76.406 443.169 75.9526C438.805 72.5328 434.459 69.0847 430.078 65.6931C429.478 65.2282 428.073 64.7923 427.582 65.7619C427.063 66.7878 428.17 67.8589 428.751 68.3083Z" fill="#E0A619"/>
<path d="M447.118 86.779C448.243 92.8249 449.314 98.8822 450.405 104.934C450.555 105.763 451.311 107.236 452.231 106.949C453.213 106.644 453.046 104.963 452.901 104.162C451.806 98.1105 450.739 92.0532 449.614 86.0072C449.46 85.1782 448.713 83.7053 447.789 83.9926C446.811 84.2968 446.968 85.9777 447.118 86.779Z" fill="#E0A619"/>
<path d="M449.457 116.517C446.137 121.305 442.777 126.05 439.432 130.809C438.974 131.462 438.464 133.075 439.224 133.751C440.035 134.475 441.048 133.279 441.491 132.649C444.832 127.884 448.196 123.144 451.515 118.356C451.97 117.699 452.487 116.094 451.723 115.414C450.916 114.695 449.897 115.882 449.457 116.517Z" fill="#E0A619"/>
<path d="M432.827 135.758C427.597 136.074 422.367 136.325 417.137 136.601C416.421 136.639 415.068 137.278 415.156 138.397C415.248 139.593 416.678 139.675 417.37 139.638C422.6 139.357 427.83 139.111 433.06 138.795C433.777 138.752 435.129 138.124 435.042 136.999C434.949 135.808 433.521 135.715 432.827 135.758Z" fill="#E0A619"/>
<path d="M397.197 111.08C397.225 104.889 397.308 98.7019 397.37 92.5147C397.379 91.6672 396.915 90.0337 395.965 90.0747C394.949 90.1158 394.8 91.799 394.791 92.6183C394.734 98.8067 394.647 104.993 394.619 111.183C394.615 112.032 395.069 113.663 396.024 113.623C397.035 113.581 397.194 111.9 397.197 111.08Z" fill="#E0A619"/>
<path d="M409.189 134.94C405.809 130.212 402.471 125.445 399.118 120.693C398.659 120.042 397.409 119.156 396.709 119.917C395.96 120.728 396.771 122.122 397.215 122.752C400.572 127.501 403.905 132.271 407.285 136.999C407.749 137.647 408.99 138.539 409.695 137.775C410.44 136.967 409.637 135.567 409.189 134.94Z" fill="#E0A619"/>
<path d="M404.012 82.4089C407.861 78.2112 411.745 74.0625 415.616 69.8967C416.146 69.326 416.84 67.8114 416.167 67.0176C415.449 66.1678 414.305 67.1865 413.793 67.7381C409.925 71.9088 406.038 76.0526 402.189 80.2503C401.661 80.8259 400.962 82.3306 401.638 83.1294C402.354 83.9743 403.502 82.9655 404.012 82.4089Z" fill="#E0A619"/>
<path d="M430.163 56.8858C435.082 54.763 440.018 52.7014 444.947 50.6177C445.622 50.3323 446.757 49.2504 446.393 48.2112C446.007 47.1002 444.62 47.5201 443.968 47.7961C439.04 49.8854 434.103 51.9413 429.184 54.0641C428.509 54.3553 427.374 55.4257 427.737 56.4706C428.123 57.5759 429.511 57.1674 430.163 56.8858Z" fill="#E0A619"/>
<path d="M453.745 47.5801C458.846 46.1837 463.959 44.8505 469.066 43.4943C469.765 43.3085 471.003 42.3986 470.75 41.3147C470.482 40.1563 469.062 40.3727 468.385 40.5523C463.278 41.9143 458.166 43.2418 453.064 44.6382C452.365 44.8297 451.127 45.7281 451.38 46.8177C451.648 47.9704 453.068 47.7655 453.745 47.5801Z" fill="#E0A619"/>
<path d="M480.344 42.8074C485.58 42.9362 490.812 43.1293 496.045 43.2987C496.762 43.3219 498.15 42.7995 498.13 41.6754C498.111 40.4746 496.69 40.2718 495.997 40.2494C490.763 40.0856 485.532 39.8869 480.296 39.758C479.578 39.7404 478.192 40.2516 478.211 41.3813C478.231 42.5765 479.65 42.7905 480.344 42.8074Z" fill="#E0A619"/>
<path d="M512.349 43.9753C517.586 44.0286 522.82 44.1462 528.054 44.24C528.771 44.2529 530.154 43.7105 530.123 42.5867C530.091 41.3863 528.668 41.204 527.975 41.1916C522.74 41.1033 517.507 40.9802 512.27 40.9268C511.552 40.9196 510.171 41.4508 510.202 42.5802C510.234 43.775 511.655 43.9685 512.349 43.9753Z" fill="#E0A619"/>
<path d="M543.048 33.8141C548.004 32.215 552.976 30.6651 557.94 29.0975C558.62 28.8827 559.774 28.0405 559.429 27.2028C559.063 26.3072 557.669 26.6153 557.011 26.8229C552.047 28.3951 547.075 29.9404 542.119 31.5395C541.44 31.7588 540.285 32.5919 540.631 33.4342C540.996 34.3252 542.391 34.0263 543.048 33.8141Z" fill="#E0A619"/>
<path d="M569.744 30.565C574.435 27.8131 579.148 25.1198 583.852 22.4055C584.496 22.0337 585.523 20.8104 585.065 19.825C584.577 18.7712 583.238 19.3695 582.615 19.729C577.912 22.4488 573.198 25.1365 568.507 27.8884C567.864 28.2658 566.835 29.478 567.294 30.4689C567.781 31.5172 569.122 30.93 569.744 30.565Z" fill="#E0A619"/>
<path d="M594.145 16.6311C599.07 14.5277 604.012 12.4855 608.947 10.4212C609.622 10.1384 610.76 9.06105 610.399 8.02047C610.017 6.90794 608.629 7.32239 607.975 7.59574C603.041 9.66571 598.099 11.7022 593.173 13.8056C592.498 14.0941 591.36 15.1601 591.721 16.2064C592.103 17.3132 593.492 16.9102 594.145 16.6311Z" fill="#E0A619"/>
<path d="M124.23 89.27C123.866 90.9937 123.328 92.6885 122.632 94.3255C122.458 94.7444 122.268 95.1585 122.073 95.5677C121.978 95.77 121.878 95.9674 121.783 96.1648C121.914 95.9048 121.819 96.0877 121.751 96.2274C121.693 96.3381 121.635 96.4489 121.577 96.5596C121.144 97.3685 120.68 98.1581 120.184 98.9333C119.156 100.532 118.001 102.063 116.735 103.517C116.408 103.893 116.081 104.258 115.738 104.624C115.575 104.803 115.406 104.981 115.237 105.154C115.153 105.241 115.068 105.327 114.984 105.419C115.242 105.149 115.073 105.327 114.926 105.477C114.219 106.189 113.486 106.883 112.732 107.557C111.176 108.948 109.53 110.253 107.816 111.481C107.605 111.635 107.389 111.784 107.172 111.933C106.982 112.063 106.608 112.227 106.481 112.41C106.487 112.4 106.909 112.126 106.65 112.294C106.597 112.333 106.539 112.367 106.487 112.405C106.376 112.477 106.265 112.55 106.154 112.627C105.917 112.781 105.68 112.935 105.442 113.089C104.525 113.676 103.586 114.24 102.636 114.784C101.687 115.328 100.669 115.877 99.6668 116.392C99.1762 116.642 98.6804 116.888 98.1846 117.128C97.9367 117.249 97.6835 117.369 97.4357 117.485C97.1614 117.615 97.9631 117.239 97.4778 117.466C97.3354 117.533 97.193 117.596 97.0506 117.663C94.9567 118.616 92.8152 119.478 90.6369 120.244C90.083 120.441 89.5292 120.629 88.9701 120.812C88.717 120.894 88.4638 120.976 88.2053 121.057C88.1368 121.077 88.0682 121.101 87.9996 121.12C87.6515 121.231 88.3003 121.028 88.2897 121.028C88.1157 121.077 87.9469 121.134 87.7781 121.187C86.6652 121.524 85.5417 121.837 84.413 122.131C83.2843 122.425 82.1397 122.69 80.9951 122.93C80.415 123.056 79.8295 123.171 79.244 123.282C79.1016 123.311 78.9592 123.335 78.8168 123.359C78.2999 123.455 79.4234 123.253 78.9065 123.344C78.6058 123.397 78.2999 123.45 77.9993 123.498C75.6679 123.879 73.3155 124.158 70.9526 124.322C70.6625 124.341 70.3777 124.36 70.0876 124.38C69.8608 124.394 68.8164 124.428 69.6392 124.404C69.0643 124.418 68.4894 124.447 67.9092 124.461C66.7225 124.486 65.5357 124.481 64.3489 124.447C63.1622 124.413 61.986 124.346 60.8098 124.25C60.5408 124.226 60.2771 124.201 60.0081 124.177C59.9395 124.173 59.4068 124.12 59.7865 124.158C60.1663 124.197 59.6019 124.139 59.5123 124.129C58.9268 124.067 58.3466 123.99 57.7611 123.913C55.4562 123.59 53.1776 123.142 50.936 122.56C50.3716 122.41 49.8125 122.256 49.2534 122.093C49.0583 122.035 48.9159 121.991 49.2218 122.083C49.0847 122.04 48.9528 122.001 48.8157 121.958C48.515 121.861 48.2144 121.765 47.9137 121.664C46.8272 121.303 45.7565 120.908 44.7016 120.48C42.5601 119.608 40.482 118.597 38.5041 117.446C38.0136 117.162 37.5336 116.868 37.0536 116.57C36.9323 116.493 36.8162 116.421 36.6949 116.344C36.9903 116.531 36.6316 116.3 36.5578 116.252C36.2888 116.079 36.0251 115.901 35.7666 115.718C34.812 115.058 33.8784 114.365 32.9817 113.643C31.1146 112.136 29.3793 110.494 27.7916 108.741C26.1091 106.887 24.5953 104.908 23.2398 102.848C23.0763 102.602 22.918 102.357 22.7651 102.106C22.8547 102.251 22.6596 101.933 22.6174 101.866C22.5119 101.697 22.4117 101.528 22.3115 101.36C21.9845 100.811 21.6627 100.257 21.3568 99.694C20.7028 98.5048 20.0962 97.2914 19.5371 96.0588C17.037 90.5603 15.4494 84.7344 14.5105 78.8507C14.02 75.7885 13.6403 72.654 13.7563 69.64C13.8776 66.4333 14.3787 63.2459 15.1435 60.1211C16.8208 53.2744 19.7164 46.7166 23.5404 40.6596C25.5025 37.554 27.7125 34.5737 30.181 31.7811C31.4785 30.3174 32.4859 29.2677 33.9047 27.9292C35.2497 26.6677 36.658 25.4592 38.1296 24.3229C38.8311 23.7788 39.5537 23.254 40.2868 22.7437C40.366 22.6859 40.8987 22.3296 40.5611 22.5559C40.7457 22.4307 40.9303 22.3103 41.1149 22.19C41.5105 21.9348 41.9061 21.6844 42.307 21.4388C43.0823 20.967 43.8682 20.5192 44.6699 20.0907C45.055 19.8837 45.4453 19.6863 45.8409 19.4888C46.036 19.3925 46.2364 19.2963 46.4316 19.2048C46.4791 19.1807 46.7322 19.0651 46.4685 19.1855C46.1679 19.3251 46.5951 19.1277 46.6584 19.0988C48.4253 18.2996 50.2556 17.6207 52.1122 17.014C52.2282 16.9755 52.9878 16.7396 52.3865 16.9225C52.6185 16.8503 52.8506 16.7781 53.0827 16.7107C53.5732 16.5662 54.069 16.4266 54.5648 16.2918C55.5142 16.0366 56.4689 15.8055 57.4289 15.5937C57.8614 15.5022 58.2939 15.4107 58.7264 15.3288C58.8108 15.3144 59.5439 15.1796 59.1905 15.2422C58.8371 15.3048 59.2274 15.2374 59.3118 15.2229C59.4542 15.1988 59.5967 15.1748 59.7443 15.1507C60.6832 14.9966 61.6273 14.8666 62.5715 14.7607C63.5156 14.6548 64.4386 14.5729 65.3775 14.52C65.6043 14.5055 65.8311 14.4959 66.0526 14.4814C65.5515 14.5055 66.1475 14.4814 66.3163 14.4718C66.7646 14.4574 67.213 14.4477 67.6613 14.4429C69.4915 14.4285 71.3165 14.5007 73.1362 14.6692C73.2628 14.6788 73.8799 14.7462 73.4421 14.6981C73.6584 14.7222 73.8799 14.7463 74.0962 14.7703C74.555 14.8233 75.0192 14.8859 75.4781 14.9533C76.3642 15.0833 77.2503 15.2325 78.1311 15.4059C81.723 16.1088 84.5501 16.9611 87.8889 18.314C91.2276 19.667 94.3132 21.28 97.2563 23.1674C103.069 26.894 108.349 31.887 112.515 37.294C116.909 43.0044 120.221 49.3792 122.426 56.0574C124.763 63.14 125.86 70.5788 125.612 77.9696C125.485 81.7685 125.021 85.5529 124.24 89.2844C123.903 90.8925 128.523 90.2185 128.829 88.7692C130.443 81.0318 130.691 73.0537 129.489 65.2488C128.365 57.9592 125.971 50.8333 122.373 44.2418C118.945 37.9681 114.467 32.1566 108.987 27.2407C103.723 22.5174 97.5201 18.5837 90.716 15.9451C83.9119 13.3066 76.2851 11.8911 68.7742 12.0548C60.5672 12.2329 52.2177 14.0144 44.8493 17.3511C37.5916 20.6348 31.4416 25.5411 26.3201 31.2274C21.1669 36.9522 17.0898 43.4763 14.0833 50.347C11.3406 56.6159 9.44706 63.3181 9.18333 70.0829C9.05675 73.3522 9.40486 76.5877 9.91649 79.8233C10.4281 83.0589 11.0927 86.0777 11.9894 89.14C13.5717 94.5181 15.8608 99.7085 18.9991 104.49C21.6785 108.582 25.012 112.318 28.952 115.453C32.6441 118.395 36.8321 120.821 41.3206 122.622C45.767 124.404 50.4982 125.612 55.298 126.253C60.3404 126.927 65.4355 127.033 70.5148 126.667C75.5941 126.301 80.4255 125.468 85.22 124.226C89.9934 122.988 94.656 121.366 99.0866 119.334C103.517 117.302 107.679 114.952 111.566 112.169C115.079 109.656 118.296 106.791 121.065 103.594C123.65 100.609 125.786 97.3011 127.279 93.7429C127.954 92.1251 128.481 90.4592 128.84 88.7596C129.183 87.1514 124.557 87.8255 124.251 89.2748L124.23 89.27Z" fill="#E0A619"/>
<path d="M107.009 82.5964C106.719 83.8723 106.318 85.1242 105.795 86.3375C105.674 86.6216 105.548 86.9009 105.416 87.1801C105.347 87.3246 105.273 87.4738 105.199 87.6183C105.379 87.2572 105.115 87.7772 105.068 87.859C104.756 88.4368 104.424 89.0049 104.071 89.5586C103.332 90.7142 102.499 91.8168 101.592 92.8664C101.386 93.1023 101.18 93.3383 100.964 93.5694C100.837 93.709 100.706 93.8486 100.574 93.9834C100.532 94.0316 100.484 94.0749 100.442 94.1183C100.241 94.3301 100.727 93.8342 100.405 94.1568C99.9039 94.6527 99.3975 95.1438 98.8701 95.6157C97.7677 96.5979 96.6021 97.5175 95.3837 98.3794C95.2465 98.4757 95.1094 98.572 94.9723 98.6683C94.9248 98.702 94.7771 98.8368 94.7244 98.8416C94.7296 98.8416 95.1516 98.5575 94.8879 98.7309C94.545 98.9523 94.2075 99.1786 93.8646 99.3953C93.2264 99.7949 92.5777 100.185 91.9184 100.556C91.2591 100.926 90.5734 101.288 89.8877 101.634C89.5449 101.808 89.1915 101.971 88.8433 102.14C88.4689 102.323 89.355 101.904 88.9752 102.077C88.9119 102.106 88.8486 102.135 88.7801 102.164C88.5849 102.25 88.395 102.337 88.1999 102.424C86.7336 103.074 85.2303 103.656 83.7007 104.172C83.532 104.229 83.3579 104.287 83.1891 104.34C83.0731 104.379 82.3927 104.59 82.8674 104.446C83.3421 104.302 82.6564 104.509 82.5404 104.542C82.3294 104.605 82.1237 104.668 81.9127 104.725C81.1426 104.947 80.3673 105.149 79.5867 105.337C78.806 105.525 77.9832 105.703 77.1762 105.857C76.9811 105.895 76.7807 105.924 76.5802 105.968C77.4452 105.78 76.7437 105.939 76.5486 105.968C76.1161 106.04 75.6783 106.107 75.2458 106.17C73.6476 106.401 72.0442 106.545 70.4302 106.642C70.003 106.666 70.9998 106.618 70.5673 106.637C70.4777 106.637 70.3827 106.646 70.2931 106.646C70.0926 106.656 69.8922 106.661 69.6865 106.666C69.2856 106.675 68.8795 106.68 68.4786 106.68C67.64 106.68 66.7961 106.661 65.9575 106.618C65.1663 106.579 64.3382 106.565 63.5628 106.435C64.2274 106.545 63.5681 106.435 63.4257 106.415C63.2253 106.391 63.0301 106.367 62.8297 106.343C62.4183 106.29 62.0016 106.232 61.5902 106.165C60.0026 105.915 58.4308 105.578 56.8854 105.149C56.6955 105.096 56.5056 105.043 56.3157 104.985C55.8463 104.85 56.5847 105.072 56.1206 104.928C55.7092 104.798 55.303 104.663 54.8969 104.523C54.1532 104.263 53.4148 103.979 52.6922 103.676C51.2311 103.059 49.8176 102.352 48.4726 101.557C48.1298 101.355 47.7975 101.148 47.4599 100.936C47.1487 100.739 47.7078 101.1 47.4019 100.898C47.3439 100.859 47.2806 100.82 47.2226 100.777C47.0116 100.638 46.8059 100.493 46.5949 100.349C45.9409 99.8912 45.3027 99.4097 44.6855 98.909C43.4197 97.8786 42.2382 96.7568 41.1516 95.5675C38.699 92.876 36.969 90.1653 35.4922 86.9827C33.778 83.2849 32.6756 79.3657 32.0163 75.4031C31.684 73.3953 31.4097 71.2816 31.473 69.3412C31.5469 67.1649 31.9002 65.0031 32.433 62.8846C33.5986 58.272 35.5976 53.9146 38.2454 49.8749C41.0251 45.6379 44.2056 42.0557 48.3618 38.9742C48.5886 38.8057 48.8154 38.642 49.0475 38.4783C49.1425 38.4109 49.8018 37.9679 49.4695 38.1846C50.0286 37.8138 50.5982 37.4575 51.1837 37.1157C51.69 36.822 52.2017 36.5379 52.7238 36.2683C52.9981 36.1286 53.2724 35.9938 53.5466 35.859C54.0372 35.6183 53.2407 35.9794 53.5625 35.8542C53.7418 35.782 53.9158 35.6953 54.0952 35.6183C54.6754 35.3679 55.2661 35.1368 55.8674 34.9201C56.1628 34.8142 56.4634 34.7083 56.7588 34.6072C56.9381 34.5446 57.1174 34.4868 57.2915 34.429C57.3759 34.4001 57.993 34.2123 57.4075 34.3905C58.7209 33.9957 60.0448 33.6442 61.395 33.3649C61.7168 33.2975 62.0385 33.2301 62.3655 33.1772C61.6957 33.2831 62.6715 33.129 62.798 33.1097C63.4943 33.0038 64.1958 32.9123 64.8973 32.8401C65.4722 32.7823 66.0524 32.7342 66.6326 32.7005C66.7275 32.6957 67.313 32.6716 66.7433 32.6909C66.9174 32.686 67.0862 32.6764 67.2602 32.6716C67.6031 32.662 67.9459 32.6572 68.2888 32.6572C69.5335 32.6572 70.773 32.7101 72.0125 32.8209C72.0758 32.8257 72.6349 32.8883 72.1655 32.8353C72.3026 32.8497 72.445 32.8642 72.5822 32.8835C72.8881 32.922 73.1887 32.9605 73.4947 33.0038C74.0959 33.0905 74.6972 33.1916 75.2985 33.3072C76.5433 33.5431 77.767 33.8512 78.9801 34.1979C79.0223 34.2123 79.2913 34.2894 79.0276 34.2123C79.1858 34.2605 79.3388 34.3086 79.497 34.3568C79.7554 34.4386 80.0139 34.5253 80.2723 34.612C80.8895 34.8238 81.5013 35.0501 82.1079 35.2909C84.3337 36.1768 86.4646 37.2553 88.4741 38.4975C92.43 40.9435 96.1063 44.2994 98.9914 47.9201C105.189 55.6912 108.369 65.4605 107.984 75.0612C107.884 77.589 107.547 80.1072 106.998 82.5868C106.645 84.1853 111.265 83.5209 111.587 82.0716C113.828 71.946 112.367 61.2331 107.14 52.0416C102.367 43.6446 94.6505 36.5716 84.9877 32.9557C74.5548 29.0509 62.4552 29.4794 52.2702 33.8705C42.0958 38.2568 34.6957 46.909 30.4023 56.2257C28.456 60.4483 27.1005 64.9886 26.8895 69.582C26.6785 74.1753 27.5646 78.422 28.8252 82.6109C30.8823 89.4479 34.7063 95.9671 40.5926 100.69C45.7668 104.841 52.2227 107.46 59.0004 108.495C66.0735 109.579 73.3892 109.102 80.3093 107.426C87.2294 105.751 93.5218 102.992 99.06 99.0727C103.986 95.5916 108.148 91.0657 110.405 85.7212C110.906 84.532 111.302 83.309 111.582 82.062C111.94 80.4683 107.32 81.1279 106.993 82.5772L107.009 82.5964Z" fill="#E0A619"/>
<path d="M87.5715 75.861C87.3922 76.5447 87.1548 77.2188 86.8647 77.8736C86.7856 78.0518 86.7012 78.2251 86.6168 78.3984C86.7645 78.0903 86.5588 78.5092 86.5061 78.6055C86.3373 78.9184 86.1527 79.2266 85.9575 79.5299C85.5672 80.1366 85.1294 80.7144 84.66 81.2681C84.5281 81.4221 84.3963 81.5714 84.2591 81.7158C84.1748 81.8073 83.7792 82.2118 84.1378 81.8507C83.8741 82.1155 83.6104 82.3707 83.3308 82.6258C82.7718 83.1314 82.181 83.6081 81.5586 84.051C81.4057 84.1618 80.9257 84.6192 81.3687 84.1907C81.2527 84.3062 81.0681 84.3881 80.9257 84.4795C80.5987 84.6866 80.2611 84.8888 79.9235 85.0814C79.586 85.274 79.2379 85.457 78.8845 85.6351C78.7262 85.717 78.5627 85.794 78.3992 85.871C78.0195 86.0588 78.9108 85.6447 78.5258 85.8132C78.4256 85.8566 78.3307 85.8999 78.2304 85.9481C77.4973 86.2707 76.7536 86.5547 75.9888 86.8051C75.8833 86.8388 75.7778 86.8677 75.6776 86.9062C76.3896 86.627 76.0415 86.7955 75.8569 86.8484C75.6829 86.9014 75.5035 86.9495 75.3295 87.0025C74.9392 87.1084 74.5489 87.2096 74.1533 87.2962C73.937 87.3444 73.7208 87.3925 73.5045 87.4358C73.2883 87.4792 72.629 87.5321 73.4729 87.4455C73.072 87.484 72.6712 87.5755 72.2703 87.6284C71.8694 87.6814 71.4633 87.7199 71.0572 87.7536C70.8726 87.7681 70.688 87.7777 70.5033 87.7921C70.0761 87.8258 71.073 87.7729 70.6405 87.7873C70.5297 87.7873 70.419 87.7969 70.3082 87.7969C69.5012 87.8162 68.6889 87.797 67.8872 87.7392C67.7765 87.7295 67.6657 87.7199 67.5602 87.7103C67.3545 87.6958 67.1488 87.7681 67.634 87.7199C67.4653 87.7392 67.2543 87.6766 67.0908 87.6525C66.6952 87.5995 66.2943 87.537 65.904 87.4599C65.5137 87.3829 65.1181 87.301 64.7331 87.1999C64.559 87.1566 64.3797 87.1084 64.2056 87.0603C64.1001 87.0314 63.9947 86.9977 63.8944 86.9688C64.3533 87.0988 64.0052 87.0025 63.8997 86.9688C62.3701 86.4584 60.9144 85.8036 59.5799 84.9466C59.8753 85.1392 59.332 84.7732 59.2476 84.7155C59.1 84.6095 58.947 84.5036 58.8046 84.3929C58.4776 84.1473 58.1664 83.8921 57.8605 83.6225C57.2328 83.0736 56.6473 82.4814 56.1146 81.8555C54.9068 80.4399 54.1525 79.1832 53.4141 77.5029C51.7474 73.6895 50.9826 69.5007 52.0269 65.5284C52.6176 63.2703 53.5829 61.1951 54.8857 59.221C56.2887 57.0977 57.7286 55.4799 59.7804 53.9488C59.9175 53.8477 60.0546 53.7514 60.1918 53.6503C60.6401 53.3229 59.8648 53.8477 60.3342 53.554C60.5715 53.4047 60.8036 53.2555 61.0462 53.1158C61.2889 52.9762 61.5315 52.8414 61.7794 52.7114C61.9271 52.6344 62.0748 52.5621 62.2277 52.4899C61.7372 52.7307 62.2013 52.5044 62.3174 52.4562C62.6391 52.3166 62.9661 52.1914 63.2932 52.0758C63.4567 52.0181 64.3586 51.7388 63.7731 51.9073C64.4219 51.7195 65.0759 51.5462 65.7458 51.4114C65.8724 51.3873 66.4262 51.214 65.8407 51.3921C66.0042 51.344 66.2047 51.3344 66.3734 51.3103C66.6688 51.267 66.9642 51.2333 67.2596 51.2044C67.5549 51.1755 67.845 51.1562 68.1404 51.137C67.5813 51.1755 68.1668 51.137 68.2617 51.137C68.4358 51.137 68.6098 51.1321 68.7839 51.137C69.4168 51.137 70.0497 51.1707 70.6721 51.2332C70.2133 51.1899 70.7776 51.2525 70.8356 51.2573C70.9464 51.2718 71.0624 51.2862 71.1732 51.3055C71.5108 51.3536 71.8431 51.4114 72.1754 51.4788C73.5151 51.7436 74.1955 51.9507 75.435 52.4466C76.569 52.8992 77.6502 53.4481 78.6788 54.0788C80.5828 55.2536 82.45 56.9629 83.8741 58.7347C86.9122 62.5192 88.4945 67.3436 88.2044 72.0332C88.1253 73.3284 87.9091 74.6092 87.5873 75.8707C87.1865 77.4355 91.8016 76.7999 92.1761 75.3555C93.4947 70.2229 92.8354 64.7292 90.1402 60.0492C87.619 55.6629 83.5365 52.0181 78.4625 50.1692C72.7872 48.0988 66.2996 48.3395 60.735 50.617C55.1705 52.8944 51.357 57.1844 48.9677 62.0425C47.9128 64.1899 47.1533 66.4962 46.9634 68.8555C46.7841 71.1088 47.1797 73.4103 47.7757 75.5962C48.7673 79.2121 50.6766 82.7221 53.662 85.3173C59.274 90.1899 67.5127 91.0855 74.7968 89.434C81.8065 87.8451 88.6106 83.7188 91.4324 77.4595C91.7383 76.7758 91.9862 76.0777 92.1761 75.3603C92.5875 73.8051 87.9724 74.431 87.5873 75.8755L87.5715 75.861Z" fill="#E0A619"/>
<path d="M69.849 75.3452C71.2098 75.2875 73.1667 73.8719 74.1635 73.0341C74.3482 72.8801 75.2395 72.1193 76.1098 70.8964C77.2438 69.3026 78.0086 68.2241 77.7133 66.953C77.3704 65.4652 75.6457 64.0689 73.9631 64.1026C72.0696 64.1412 69.6117 66.8712 69.6117 66.8712C69.6117 66.8712 68.4355 64.7623 67.0852 64.4686C65.5662 64.1364 63.525 64.8249 62.5334 66.0623C61.2886 67.6223 62.1641 69.4808 62.6758 70.5593C63.7623 72.8512 68.8891 75.3789 69.849 75.3404V75.3452Z" fill="#E0A619"/>
<path d="M74.797 70.7281C77.2022 70.2995 79.6126 69.871 82.0178 69.4425C85.7679 68.7732 89.5128 68.1088 93.2629 67.4395C97.9888 66.5969 102.715 65.7543 107.441 64.9118C112.778 63.9584 118.121 63.0051 123.459 62.0518C128.797 61.0984 134.641 60.0536 140.232 59.0569C145.707 58.0795 151.187 57.1021 156.662 56.1247C161.662 55.234 166.662 54.3384 171.657 53.4477C175.814 52.7062 179.975 51.9647 184.131 51.2184C187.085 50.6888 190.039 50.164 192.987 49.6343C194.369 49.3888 195.756 49.1432 197.138 48.8929C197.196 48.8832 197.254 48.8736 197.312 48.864C198.125 48.7195 198.91 48.5462 199.628 48.1562C200.044 47.9299 200.683 47.5158 200.804 47.0392C201.11 45.8692 198.905 45.8403 198.198 45.9655C197.249 46.134 196.3 46.3025 195.35 46.4758C192.745 46.9429 190.139 47.4051 187.528 47.8721C183.63 48.5703 179.727 49.2636 175.829 49.9618C170.998 50.8236 166.172 51.6855 161.34 52.5473C155.945 53.5103 150.549 54.4732 145.158 55.4362C139.562 56.4377 133.966 57.4343 128.37 58.4358C122.937 59.4036 117.499 60.3762 112.066 61.344C107.156 62.2203 102.251 63.0966 97.3401 63.9729C93.3209 64.6903 89.3018 65.4077 85.2879 66.1203C82.5241 66.6114 79.7603 67.1073 76.9965 67.5936C76.5587 67.6706 76.1156 67.7477 75.6779 67.8295C74.8709 67.974 74.0797 68.1473 73.3624 68.5373C72.9457 68.7636 72.3075 69.1777 72.1862 69.6543C71.8802 70.8243 74.085 70.8532 74.7917 70.7281H74.797Z" fill="#E0A619"/>
<path d="M159.68 46.3124C163.277 45.6335 166.874 44.9594 170.471 44.3046C172.375 43.9579 174.285 43.6113 176.194 43.279C177.143 43.1105 178.093 42.9468 179.037 42.7831C179.464 42.7109 179.897 42.6339 180.324 42.5616C180.424 42.5472 180.519 42.5279 180.619 42.5135C180.118 42.6001 180.472 42.5376 180.577 42.5183C180.83 42.475 181.089 42.4316 181.342 42.3931C182.956 42.1235 184.57 41.8683 186.189 41.6276C186.527 41.5794 186.864 41.5264 187.207 41.4783C187.381 41.4542 187.555 41.435 187.729 41.4061C188.13 41.3338 187.713 41.4061 187.502 41.3916C187.128 41.3627 186.912 41.3098 186.659 41.069C186.69 41.0979 186.722 41.1316 186.748 41.1653C186.437 40.7368 186.659 40.9439 186.669 41.0642C186.669 41.1172 186.685 41.1942 186.706 41.2424C186.79 41.4398 186.738 41.0064 186.706 41.1557C186.674 41.305 186.68 41.4783 186.653 41.6372C186.579 42.032 186.458 42.422 186.316 42.8024C186.284 42.8939 186.247 42.9853 186.21 43.0768C186.184 43.1394 186.157 43.202 186.136 43.2646C186.136 43.2646 186.247 42.9998 186.184 43.1539C186.084 43.385 185.983 43.6161 185.878 43.8424C185.656 44.3142 185.419 44.7861 185.176 45.2483C184.464 46.6013 183.689 47.9301 182.85 49.2157L185.271 48.0168C176.801 49.3938 168.346 50.8479 159.885 52.2876C159.395 52.3694 158.904 52.4561 158.414 52.5379C158.277 52.562 157.886 52.562 157.786 52.6438C157.812 52.6198 158.345 52.5476 157.881 52.6294C157.765 52.6487 157.649 52.6679 157.533 52.6872C156.642 52.8364 155.755 52.9857 154.864 53.1301L156.768 54.6083C158.145 51.8687 159.527 49.129 160.903 46.3894C161.098 45.9994 161.299 45.6094 161.494 45.2146C162.501 43.2116 157.902 43.4813 157.169 44.9401C155.792 47.6798 154.41 50.4194 153.034 53.159C152.839 53.549 152.638 53.939 152.443 54.3338C151.879 55.4557 153.324 55.9805 154.347 55.812C160.181 54.849 166.009 53.8331 171.843 52.8461C172.264 52.7738 172.681 52.7016 173.103 52.6342C173.256 52.6101 173.409 52.5813 173.567 52.5572C174.332 52.4272 173.108 52.6342 173.878 52.5042C174.749 52.355 175.624 52.2105 176.495 52.0661C178.309 51.7627 180.123 51.4594 181.943 51.1609C182.84 51.0116 183.742 50.8672 184.638 50.7227C185.662 50.5542 186.637 50.2942 187.223 49.4516C187.434 49.1483 187.618 48.8305 187.808 48.5176C188.578 47.2657 189.306 45.9898 189.955 44.6801C190.567 43.4427 191.342 42.0079 191.337 40.6164C191.337 39.9279 191.115 39.3501 190.414 38.9939C189.364 38.4594 188.083 38.7531 186.97 38.9216C184.153 39.3357 181.342 39.8076 178.536 40.289C172.001 41.4109 165.487 42.6242 158.978 43.8568C158.187 44.0061 156.779 44.7379 157.048 45.6527C157.332 46.6205 158.936 46.4713 159.701 46.3268L159.68 46.3124Z" fill="#E0A619"/>
<path d="M162.274 63.6408C168.108 62.8752 173.941 62.0904 179.759 61.2478C182.565 60.8386 185.371 60.4197 188.167 59.9574C189.401 59.7552 190.677 59.5963 191.896 59.3123C192.914 59.0715 194.222 58.4263 194.411 57.3719C194.633 56.12 193.32 54.8345 192.492 53.9823C191.384 52.8411 190.16 51.7915 188.916 50.7804C188.478 50.4241 188.029 50.0678 187.581 49.7212C187.481 49.6441 187.375 49.5623 187.275 49.4852C186.611 48.9845 185.946 48.9026 185.092 49.0037C181.531 49.4371 177.987 50.1111 174.442 50.6504C167.913 51.6423 161.378 52.5908 154.848 53.6019C154.072 53.7223 153.276 53.9245 152.712 54.4637C152.363 54.796 152.036 55.4026 152.474 55.8071C154.79 57.9545 157.11 60.1019 159.426 62.2493C159.758 62.5575 160.085 62.8608 160.418 63.1689C161.177 63.8719 162.591 63.7419 163.493 63.3423C164.099 63.0726 165.439 62.1674 164.648 61.4356C162.332 59.2882 160.011 57.1408 157.696 54.9934C157.364 54.6852 157.037 54.3819 156.704 54.0737L154.331 56.2789C161.852 55.1137 169.389 54.0256 176.911 52.87C179.553 52.4656 182.196 52.0563 184.833 51.6374L182.976 51.1656C184.031 51.9552 185.049 52.7882 186.041 53.6452C186.837 54.3337 187.618 55.0415 188.341 55.7926C188.668 56.1297 188.979 56.4812 189.264 56.8471C189.38 56.9963 189.485 57.1456 189.585 57.2997C189.696 57.4634 189.67 57.4923 189.585 57.2852C189.617 57.3671 189.67 57.4441 189.701 57.526C189.749 57.6415 189.759 57.7715 189.807 57.8823C189.897 58.0845 189.807 57.6174 189.802 57.7474C189.791 57.863 189.696 57.9304 189.828 57.7378C190.06 57.4008 190.26 57.1745 190.772 56.9675C190.566 57.0493 191.463 56.8374 191.104 56.8519C190.925 56.8615 190.735 56.9193 190.556 56.953C190.218 57.0108 189.886 57.0734 189.548 57.1263C189.438 57.1456 188.863 57.2419 189.211 57.1841C189.559 57.1263 188.863 57.2419 188.768 57.2563C187.971 57.3863 187.17 57.5163 186.373 57.6415C182.644 58.2289 178.905 58.7634 175.16 59.2882C171.04 59.8612 166.916 60.4149 162.791 60.9541C161.868 61.0745 160.396 61.503 160.222 62.5045C160.048 63.506 161.515 63.7274 162.269 63.6312L162.274 63.6408Z" fill="#E0A619"/>
<path d="M72.3184 69.2402C76.4905 68.2773 80.689 67.425 84.8927 66.5873C90.2991 65.5039 95.7212 64.4639 101.143 63.4336C103.928 62.9039 106.718 62.3839 109.503 61.8639C110.88 61.6088 112.257 61.3536 113.633 61.0984C114.293 60.978 114.947 60.8528 115.606 60.7325C115.748 60.7036 115.896 60.6795 116.038 60.6506C115.733 60.7084 116.191 60.6217 116.271 60.6073C116.603 60.5447 116.93 60.4869 117.262 60.4243C121.577 59.6299 125.896 58.845 130.211 58.0602C132.21 57.6991 134.204 57.3428 136.203 56.9817C136.229 56.9769 136.261 56.9721 136.287 56.9673C136.815 56.871 137.912 56.6543 138.033 56.0525C138.154 55.4506 137.115 55.4458 136.73 55.5132C135.09 55.8069 133.449 56.1006 131.809 56.3991C127.684 57.1454 123.56 57.8965 119.44 58.6525C113.966 59.6588 108.491 60.6747 103.021 61.705C97.504 62.745 91.9869 63.7995 86.4751 64.8925C82.034 65.7736 77.5929 66.6643 73.1834 67.6562C72.7667 67.7476 72.3553 67.8439 71.9386 67.9402C71.522 68.0365 70.4565 68.4025 70.5989 68.961C70.7413 69.5195 71.9545 69.3221 72.3184 69.2354V69.2402Z" fill="#FBF5EB"/>
<path d="M74.1797 71.6864C78.394 70.9015 82.6188 70.1456 86.8437 69.3897C92.308 68.4171 97.7723 67.4541 103.237 66.4912C108.712 65.533 114.192 64.5749 119.667 63.6215C124.018 62.8656 128.364 62.1097 132.716 61.3586C134.704 61.0167 136.751 60.7664 138.718 60.3234C138.744 60.3186 138.776 60.3138 138.802 60.309C139.098 60.256 139.525 59.9767 139.43 59.6638C139.33 59.3171 138.818 59.3412 138.533 59.3893C136.904 59.6686 135.274 59.9527 133.649 60.2319C129.525 60.9445 125.4 61.6619 121.275 62.3745C115.874 63.3134 110.479 64.2523 105.077 65.2008C99.5446 66.1686 94.0064 67.146 88.4735 68.1282C84.0324 68.9178 79.5965 69.7123 75.166 70.5308C74.7493 70.6078 74.3274 70.6849 73.9107 70.7619C73.6153 70.8149 73.1881 71.0893 73.283 71.4071C73.3832 71.749 73.8949 71.7345 74.1797 71.6815V71.6864Z" fill="#FBF5EB"/>
<path d="M74.1162 70.7329C73.4516 70.8099 72.787 70.8677 72.1171 70.887C71.98 70.887 71.8482 70.887 71.711 70.887C71.6635 70.887 71.5739 70.8774 71.7849 70.887C71.7585 70.887 71.7321 70.887 71.7057 70.887C71.6372 70.887 71.5686 70.887 71.4948 70.8822C71.2732 70.8725 71.057 70.8581 70.8407 70.8292C70.7563 70.8196 70.6667 70.8051 70.5823 70.7907C70.4293 70.7666 70.7458 70.8244 70.6139 70.7955C70.5665 70.7859 70.5243 70.7762 70.4768 70.7666C70.3397 70.7329 70.2131 70.6751 70.0812 70.6414C70.2658 70.6944 70.1972 70.6944 70.1339 70.6607C70.1076 70.6511 70.0865 70.6366 70.0654 70.6222C70.0179 70.5981 69.9757 70.5644 69.9282 70.5355C69.8439 70.4777 69.9652 70.5644 69.9757 70.574C69.9599 70.5596 69.9441 70.5451 69.9282 70.5307C69.8966 70.5018 69.8702 70.4681 69.8439 70.4296C69.8333 70.4151 69.8228 70.3911 69.8122 70.3766C69.828 70.3959 69.8755 70.5211 69.8491 70.4392C69.8386 70.4007 69.8228 70.367 69.8122 70.3285C69.8122 70.3092 69.8122 70.2899 69.8017 70.2707C69.7858 70.2129 69.8017 70.4248 69.8017 70.3429C69.8017 70.3044 69.8017 70.2659 69.8122 70.2274C69.8228 70.1888 69.8333 70.1503 69.8386 70.1166C69.8069 70.29 69.8069 70.1937 69.8491 70.1166C69.8649 70.0781 69.886 70.0444 69.9071 70.0059C69.9493 69.9337 70.0496 69.8325 69.9071 69.9962C69.9757 69.9192 70.039 69.8422 70.1128 69.7699C70.1498 69.7314 70.192 69.6929 70.2342 69.6592C70.25 69.6448 70.2711 69.6303 70.2869 69.6111C70.0812 69.7892 70.2025 69.6785 70.2553 69.6399C70.3502 69.5677 70.4504 69.4955 70.5559 69.4329C70.6087 69.3992 70.6561 69.3703 70.7089 69.3414C70.7405 69.3222 70.8565 69.2596 70.7089 69.3414C70.5612 69.4233 70.6983 69.3462 70.7352 69.3318C70.8671 69.2644 70.999 69.2066 71.1361 69.1488C71.2099 69.1199 71.2838 69.0959 71.3576 69.067C71.4473 69.0333 71.2099 69.1248 71.2205 69.1103C71.231 69.1007 71.268 69.0959 71.2838 69.0911C71.326 69.0766 71.3682 69.067 71.4051 69.0525C71.9114 68.9081 72.4336 68.8022 72.9558 68.7059C73.2301 68.6529 73.6995 68.3688 73.5834 68.0607C73.4569 67.7237 72.9927 67.7285 72.6868 67.7862C71.2627 68.0511 69.6382 68.4314 68.694 69.534C68.3934 69.8807 68.1138 70.3718 68.309 70.8244C68.5727 71.4262 69.3164 71.6381 69.9546 71.7585C70.5084 71.8596 71.0728 71.874 71.6372 71.874C72.4125 71.874 73.1879 71.8066 73.9632 71.7151C74.1689 71.6911 74.3693 71.6381 74.5381 71.5225C74.6542 71.4455 74.8018 71.3011 74.8071 71.1614C74.8282 70.8292 74.4168 70.6896 74.1056 70.7281L74.1162 70.7329Z" fill="#FBF5EB"/>
<path d="M69.8765 70.1743C69.8765 70.1743 69.9029 70.1406 69.9082 70.1261C69.8923 70.1743 69.8027 70.2417 69.8765 70.1743C69.8923 70.1598 69.9134 70.1406 69.9293 70.1261C70.0084 70.0395 69.808 70.2128 69.8871 70.1598C69.9398 70.1261 69.9873 70.0876 70.0453 70.0539C70.0717 70.0347 70.0981 70.0202 70.1297 70.0058C70.1455 69.9961 70.1561 69.9913 70.1719 69.9817C70.2721 69.9239 70.0295 70.0539 70.1086 70.0154C70.4145 69.8661 70.7257 69.7313 71.0527 69.6158C71.1371 69.5821 71.2268 69.5532 71.3112 69.5243C71.3323 69.5195 71.3534 69.5098 71.3692 69.505C71.4536 69.4761 71.2584 69.5436 71.2743 69.5387C71.3217 69.5243 71.3692 69.5098 71.4167 69.4906C71.5907 69.4328 71.7701 69.3799 71.9494 69.3269C72.2342 69.245 72.519 69.168 72.8091 69.091C72.9515 69.0524 73.0939 69.0187 73.2364 68.985C73.5265 68.9176 73.959 68.6673 73.864 68.3398C73.7691 68.0124 73.2469 68.0028 72.9674 68.0654C72.5401 68.1617 72.1182 68.2773 71.7015 68.3976C70.9261 68.6239 70.1244 68.8647 69.4176 69.2402C69.0379 69.4376 68.637 69.6687 68.4313 70.0347C68.2625 70.3332 68.5843 70.5739 68.8902 70.598C69.2541 70.6269 69.7077 70.4921 69.8871 70.1791L69.8765 70.1743Z" fill="#FBF5EB"/>
<path d="M212.919 46.2978C218.689 45.2097 224.47 44.1745 230.246 43.12C231.037 42.9756 232.445 42.2341 232.176 41.3241C231.891 40.3515 230.288 40.5104 229.523 40.65C223.748 41.7093 217.967 42.7397 212.197 43.8278C211.405 43.9771 209.997 44.7089 210.266 45.6237C210.551 46.5915 212.154 46.4423 212.919 46.2978Z" fill="#E0A619"/>
</svg>
