<svg width="216" height="134" viewBox="0 0 216 134" fill="none" xmlns="http://www.w3.org/2000/svg">
<path d="M127.145 90.1363C126.322 94.1509 124.733 97.9806 122.585 101.506C121.476 103.333 120.219 105.074 118.859 106.739C118.516 107.152 118.173 107.555 117.819 107.957C117.441 108.393 117.944 107.827 117.556 108.251C117.35 108.48 117.144 108.697 116.939 108.926C116.139 109.774 115.316 110.59 114.47 111.395C112.778 112.984 110.995 114.474 109.121 115.878C108.664 116.226 108.195 116.563 107.727 116.9C107.486 117.064 107.246 117.238 107.018 117.401C106.869 117.51 106.504 117.749 107.178 117.292C107.029 117.39 106.881 117.499 106.721 117.597C105.715 118.271 104.686 118.924 103.646 119.555C102.606 120.186 101.52 120.795 100.435 121.383C99.9088 121.666 99.3716 121.949 98.8344 122.221C98.6973 122.286 98.5601 122.351 98.4344 122.427C97.9772 122.667 99.2345 122.036 98.7659 122.264C98.4573 122.406 98.1487 122.569 97.8401 122.71C96.6743 123.265 95.4856 123.798 94.297 124.31C93.7712 124.538 93.2341 124.756 92.6969 124.962C92.5254 125.028 91.4282 125.463 92.3083 125.126C93.1883 124.788 92.0111 125.234 91.794 125.311C90.5596 125.767 89.3138 126.192 88.0565 126.594C87.5651 126.747 85.4164 127.345 87.3594 126.823C86.7193 126.997 86.0907 127.193 85.4506 127.356C84.2048 127.693 82.9476 127.987 81.6904 128.27C80.8789 128.455 83.1076 127.976 81.8733 128.226C81.5647 128.292 81.2561 128.346 80.9475 128.411C80.296 128.542 79.6445 128.661 78.9816 128.77C78.3644 128.879 77.7472 128.977 77.1301 129.064C76.9472 129.086 75.7585 129.249 76.6957 129.129C77.633 129.01 76.3643 129.173 76.1471 129.195C74.8328 129.347 73.5069 129.477 72.1811 129.565C71.5982 129.608 71.0153 129.63 70.4324 129.662C69.4381 129.717 71.3239 129.641 70.3296 129.662C69.9753 129.662 69.6324 129.684 69.2781 129.684C67.9523 129.706 66.6379 129.695 65.3121 129.652C63.9863 129.608 62.7633 129.521 61.4832 129.412C61.0261 129.369 62.1004 129.477 61.6433 129.423C61.4947 129.401 61.3347 129.39 61.1861 129.38C60.8775 129.347 60.5689 129.314 60.2603 129.271C59.6088 129.195 58.9574 129.108 58.3173 129.01C55.8143 128.629 53.3227 128.107 50.8882 127.432C50.2939 127.269 49.711 127.095 49.1281 126.91C48.8309 126.823 48.5452 126.725 48.2595 126.627C47.6537 126.431 48.1566 126.594 47.6537 126.42C46.465 125.996 45.2878 125.539 44.1335 125.039C41.7676 124.016 39.4703 122.83 37.2873 121.492C27.6637 115.573 20.7032 106.739 16.3486 96.7294C13.6284 90.4627 11.8912 83.8369 10.8511 77.1459C9.7196 69.8673 9.71959 62.7846 11.3883 55.5713C14.9657 40.0786 23.6634 24.749 36.3158 14.2827C37.7787 13.075 39.436 11.8238 40.7618 10.9643C41.5618 10.4421 42.3848 9.93076 43.2191 9.45205C43.6306 9.21269 44.0534 8.98422 44.4763 8.75574C44.6592 8.65783 46.0422 7.9724 45.2764 8.33144C46.1336 7.91801 46.9908 7.52633 47.8709 7.1673C48.0994 7.06939 49.5624 6.51452 48.6138 6.86267C49.2424 6.6342 49.871 6.40572 50.4996 6.18812C51.0025 6.01405 51.5054 5.85085 52.0083 5.68766C52.134 5.64414 52.6826 5.42654 52.7626 5.45918C52.7169 5.43742 51.5511 5.79645 52.5798 5.51358C53.6084 5.23071 54.5799 4.99135 55.5743 4.74112C56.5115 4.51264 55.5057 4.78464 55.3571 4.78464C55.5743 4.78464 55.8828 4.67584 56.1 4.63232C56.5915 4.53441 57.0944 4.44737 57.5858 4.36033C58.0773 4.27329 58.5802 4.19713 59.0716 4.12097C59.9403 3.97954 59.1174 4.12097 58.9573 4.13185C59.3231 4.08833 59.7003 4.04481 60.066 4.0013C61.0375 3.8925 62.0204 3.81634 63.0033 3.75106C63.2434 3.74018 63.4948 3.7293 63.7348 3.70754C63.5748 3.70754 62.9691 3.71842 63.7577 3.70754C64.3063 3.70754 64.8435 3.68578 65.3921 3.68578C69.3924 3.68578 72.5697 4.03394 76.5472 4.88256C91.9654 8.17912 105.258 17.9709 114.161 30.1997C124.128 43.8865 129.054 60.6413 128.585 77.2547C128.459 81.5739 127.979 85.8714 127.134 90.1145C126.825 91.6921 130.231 91.0828 131.077 90.9305C132.368 90.6912 133.671 90.343 134.871 89.8099C135.431 89.5597 136.791 89.0374 136.917 88.4064C140.38 70.9553 138.152 52.7099 129.762 36.7711C122.31 22.6274 110.047 10.3551 94.5141 4.27329C77.2215 -2.5048 57.2429 -0.883712 40.5332 6.76475C23.8234 14.4132 12.5312 28.8398 5.82218 44.474C2.65624 51.8396 0.473231 59.7383 0.061773 67.7131C-0.315396 75.0352 1.07899 82.5857 3.03341 89.6467C6.24507 101.255 12.2798 112.287 21.8347 120.295C29.9839 127.127 40.3389 131.251 51.0368 132.709C62.809 134.319 74.9242 133.133 86.3307 130.065C97.7372 126.997 108.309 122.264 117.567 115.443C125.053 109.927 131.717 102.757 135.157 94.2597C135.923 92.3666 136.517 90.4083 136.929 88.4064C137.249 86.8288 133.82 87.4381 132.985 87.5904C131.694 87.8298 130.391 88.1779 129.191 88.711C128.631 88.9613 127.271 89.4835 127.145 90.1145V90.1363Z" fill="#E0A619"/>
<path d="M108.081 82.2596C107.761 83.7392 107.315 85.1754 106.744 86.5788C106.481 87.2207 106.195 87.8518 105.886 88.4719C105.726 88.7983 105.544 89.1247 105.372 89.4402C105.303 89.5599 104.961 90.1583 105.338 89.5164C105.235 89.6904 105.132 89.8645 105.029 90.0386C104.206 91.3768 103.292 92.6497 102.286 93.8574C101.84 94.3905 101.383 94.9127 100.903 95.4241C100.617 95.7287 100.32 96.0333 100.023 96.338C99.806 96.5556 98.7887 97.5021 99.6117 96.7623C98.4344 97.8394 97.2115 98.8621 95.9314 99.8195C95.2799 100.309 94.6056 100.777 93.9313 101.234C93.7484 101.354 93.5541 101.473 93.3712 101.604C92.6969 102.061 94.1027 101.158 93.6227 101.441C93.1998 101.691 92.7883 101.952 92.3654 102.202C90.9139 103.051 89.4052 103.801 87.8966 104.541C87.0736 104.944 89.0166 104.052 88.1823 104.411C87.9994 104.487 87.828 104.563 87.6451 104.639C87.2565 104.813 86.8565 104.977 86.4565 105.14C85.6221 105.477 84.7878 105.792 83.9306 106.097C83.5191 106.239 83.1077 106.38 82.7076 106.511C81.4504 106.935 83.9077 106.162 82.6505 106.521C81.7361 106.783 80.8332 107.044 79.9074 107.272C79.0731 107.479 78.1816 107.599 77.3587 107.849C77.3587 107.849 78.7873 107.588 77.9987 107.718C77.7587 107.762 77.5301 107.805 77.2901 107.849C76.8215 107.936 76.3529 108.012 75.8729 108.077C75.0042 108.208 74.1356 108.317 73.267 108.404C72.8669 108.447 72.4783 108.48 72.0783 108.512C71.1525 108.599 73.3012 108.447 72.3755 108.491C72.0554 108.502 71.7468 108.523 71.4268 108.545C69.6781 108.621 67.9523 108.589 66.2036 108.534C65.3235 108.502 67.2322 108.621 66.3522 108.534C66.1579 108.512 65.9636 108.502 65.7579 108.491C65.3235 108.458 64.8892 108.415 64.4663 108.36C63.5634 108.262 62.6719 108.132 61.7804 107.99C60.9689 107.849 60.1575 107.696 59.3574 107.511C59.1288 107.457 58.9002 107.403 58.6716 107.348C59.6546 107.577 58.8545 107.392 58.6602 107.348C58.203 107.229 57.7573 107.098 57.3115 106.967C55.6657 106.478 54.0542 105.88 52.4883 105.183C51.6997 104.835 50.9225 104.465 50.1682 104.063C49.8253 103.878 49.4824 103.693 49.1395 103.497C49.7339 103.834 49.0481 103.442 48.9681 103.388C48.6938 103.225 48.4309 103.062 48.168 102.898C41.6647 98.775 36.9787 92.9544 34.0185 86.2742C30.2468 77.7554 28.4295 67.9418 30.6011 58.8355C31.824 53.7438 33.9042 48.7608 36.6929 44.2566C39.4817 39.7524 43.2077 35.2482 47.288 31.9951C47.8709 31.5382 48.4652 31.0921 49.071 30.6569C49.2881 30.5046 50.7282 29.5472 49.9967 30.015C51.2311 29.2426 52.5112 28.5571 53.837 27.9261C52.7055 28.4592 54.4771 27.6867 54.7628 27.5779C55.46 27.306 56.18 27.0775 56.8772 26.8164C57.6544 26.5335 55.6657 27.1645 56.9229 26.8055C57.3115 26.6967 57.6887 26.577 58.0773 26.4791C58.8316 26.2724 59.6089 26.0983 60.3746 25.9133C61.6661 25.6087 59.2545 26.0874 60.5575 25.8698C60.8775 25.8154 61.1861 25.761 61.5061 25.7066C62.1919 25.5978 62.8891 25.4999 63.5863 25.4346C63.8949 25.402 64.2149 25.3802 64.5235 25.3476C65.2778 25.2497 63.3691 25.3911 64.5806 25.3476C65.3807 25.315 66.1807 25.2823 66.9922 25.2823C67.6666 25.2823 68.3409 25.3041 69.0152 25.3367C68.0894 25.2932 69.8267 25.402 70.101 25.4346C71.5297 25.587 72.9584 25.8045 74.3642 26.0983C76.2272 26.49 78.9588 27.3386 81.2675 28.3069C83.7248 29.3405 85.9193 30.5155 88.0794 31.9625C92.4569 34.8891 96.2857 38.5447 99.4288 42.6682C106.195 51.5352 109.612 62.7957 109.212 73.7299C109.109 76.5803 108.721 79.42 108.127 82.2161C107.464 85.3603 117.407 83.8045 118.013 80.8779C120.505 68.9863 118.916 56.4419 112.961 45.6819C107.521 35.8466 98.8345 27.6759 87.9194 23.498C75.7128 18.8197 61.5061 19.6792 49.6081 24.8254C37.7102 29.9715 29.0353 39.8829 23.9035 51.0891C21.6062 56.1047 19.9946 61.5119 19.7089 67.0062C19.446 72.0979 20.3375 77.2658 21.7205 82.1725C23.9835 90.2127 28.2695 97.9373 34.8757 103.508C47.3908 114.072 65.495 115.312 81.0961 111.428C95.6228 107.816 110.995 99.1123 116.687 85.208C117.259 83.8045 117.704 82.3575 118.024 80.8887C118.71 77.7662 108.767 79.2894 108.138 82.2269L108.081 82.2596Z" fill="#E0A619"/>
<path d="M86.6394 74.5344C86.2393 76.0902 85.5993 77.5372 84.7992 78.9515C84.7535 79.0277 84.3535 79.6478 84.7078 79.1147C84.6049 79.267 84.5021 79.4194 84.3992 79.5717C84.1592 79.8981 83.9192 80.2245 83.6563 80.54C83.142 81.171 82.5819 81.7803 81.9876 82.346C81.7476 82.5745 80.9704 83.2382 81.6447 82.6833C81.2904 82.977 80.9361 83.2599 80.5704 83.5428C79.9417 84.0215 79.2103 84.6525 78.4559 84.968C79.6903 84.4567 78.4674 84.9463 78.1588 85.1095C77.7816 85.3162 77.393 85.5011 77.0044 85.6861C75.7357 86.2845 77.8845 85.3706 76.7301 85.8058C76.2843 85.9799 75.8386 86.1539 75.3929 86.3062C75.21 86.3715 75.0157 86.4259 74.8214 86.4912C74.2042 86.7088 76.2272 86.1104 75.3243 86.328C74.9357 86.4259 74.5585 86.5456 74.1699 86.6326C73.9528 86.687 73.6784 86.7088 73.4727 86.7958C74.7071 86.2845 74.4442 86.6218 73.8727 86.7088C73.4041 86.785 72.9241 86.8611 72.4555 86.9264C72.2955 86.9482 72.1355 86.959 71.9755 86.9808C71.0611 87.1113 73.187 86.9155 72.2612 86.9482C71.8612 86.959 71.4611 86.9917 71.0611 87.0026C70.8325 87.0026 69.4267 87.0026 70.1696 87.0134C70.9125 87.0243 70.1239 87.0134 69.9982 87.0026C69.6782 86.9808 69.3696 86.959 69.0495 86.9264C68.6609 86.8829 68.2609 86.8394 67.8723 86.785C67.6666 86.7523 66.3522 86.4912 67.358 86.7197C66.4665 86.5238 65.5979 86.2954 64.7407 85.9907C63.952 85.7187 63.1863 85.4032 62.4434 85.0442C62.9577 85.2944 61.9633 84.7831 61.8147 84.696C61.4033 84.4567 60.9918 84.1956 60.6032 83.9236C57.4144 81.7368 55.2086 78.7992 53.7685 75.3721C52.0083 71.1725 51.0826 66.3637 52.1569 61.9138C52.7741 59.3571 53.8485 56.8983 55.22 54.6244C55.8143 53.6452 56.5001 52.7096 57.243 51.8283C57.723 51.2517 58.2259 50.6968 58.7631 50.1637C59.266 49.6632 59.746 49.2281 60.0318 48.9996C60.5118 48.6188 61.0261 48.2815 61.5176 47.9225C62.4662 47.2371 60.809 48.2598 61.8376 47.7158C62.0548 47.607 62.2719 47.4982 62.4777 47.3785C63.5177 46.791 61.5405 47.694 62.6605 47.2806C62.9806 47.1609 63.312 47.0521 63.632 46.9215C64.3864 46.6169 62.4205 47.2153 63.6892 46.8998C63.9635 46.8345 65.6436 46.2905 64.2835 46.7148C64.615 46.606 66.5008 46.4211 65.335 46.519C65.9636 46.4646 66.5922 46.4537 67.2208 46.4428C68.4209 46.4211 66.4322 46.334 67.6209 46.4646C67.8609 46.4972 68.1123 46.5081 68.3524 46.5299C68.7181 46.5734 69.0838 46.6169 69.4496 46.6822C69.6896 46.7257 69.9296 46.7583 70.1696 46.8127C69.941 46.7692 69.941 46.7692 70.1696 46.8236C82.6619 49.8373 89.4167 63.0236 86.6279 74.5452C85.965 77.2978 95.8286 75.8399 96.4915 73.0982C99.3945 61.087 93.1084 48.1292 80.8104 43.5379C73.7585 40.9159 65.5064 41.6666 58.6488 44.4736C52.1912 47.1174 47.2652 52.0133 44.2592 58.0298C41.6648 63.2303 41.1619 68.594 42.5791 74.1753C43.6649 78.4619 45.825 82.618 49.1967 85.7079C56.0086 91.9637 66.2379 92.4751 74.9814 90.4297C84.1935 88.2864 94.1027 82.4004 96.5029 73.0982C97.2001 70.3892 87.348 71.8035 86.6394 74.5452V74.5344Z" fill="#E0A619"/>
<path d="M69.4723 73.512C70.981 73.4467 73.1297 71.8148 74.227 70.8465C74.4327 70.6724 75.4156 69.7911 76.3757 68.3768C77.6215 66.5381 78.4673 65.2869 78.1472 63.829C77.7701 62.11 75.8614 60.4998 74.0098 60.5433C71.9182 60.5869 69.2095 63.7311 69.2095 63.7311C69.2095 63.7311 67.9065 61.294 66.4207 60.9568C64.7406 60.576 62.489 61.3702 61.3918 62.7955C60.0203 64.5906 60.9917 66.7339 61.5518 67.9851C62.7519 70.6289 68.4094 73.5446 69.4723 73.5011V73.512Z" fill="#E0A619"/>
<path d="M74.7071 68.9751C81.4848 67.724 88.2624 66.451 95.04 65.189C106.172 63.1109 117.304 61.0329 128.437 58.9549C140.632 56.681 152.827 54.4071 165.022 52.1333C175.16 50.2402 185.286 48.3471 195.424 46.454C200.213 45.5619 204.991 44.6698 209.78 43.7776C209.848 43.7667 209.917 43.7559 209.974 43.745C211.768 43.4077 215.14 42.7005 215.654 40.6551C216.169 38.6097 212.568 38.6206 211.425 38.8382C207.516 39.5672 203.608 40.2961 199.687 41.025C190.041 42.8311 180.383 44.6262 170.737 46.4323C158.633 48.6953 146.518 50.9474 134.414 53.2104C122.973 55.3428 111.533 57.4752 100.092 59.6077C92.617 61.0003 85.1422 62.3929 77.6559 63.7855C77.1644 63.8725 76.673 63.9704 76.1815 64.0575C74.3871 64.3948 71.0154 65.1019 70.5011 67.1473C69.9868 69.1927 73.5871 69.1818 74.73 68.9643L74.7071 68.9751Z" fill="#E0A619"/>
<path d="M167.594 39.6216C175.606 38.044 183.629 36.4665 191.675 35.063C193.493 34.7475 195.31 34.4428 197.127 34.1491C197.527 34.0838 197.939 34.0185 198.339 33.9641C198.499 33.9424 198.67 33.9206 198.842 33.888C199.653 33.7139 197.55 33.888 197.55 33.8988C197.55 33.8988 197.63 33.975 197.699 34.2796C198.064 35.9551 196.59 38.2399 195.858 39.676C195.093 41.1883 194.258 42.6679 193.355 44.1149L197.264 42.4938C186.063 44.3978 174.886 46.465 163.696 48.3907L166.302 48.8259C168.039 45.2138 169.777 41.6017 171.514 37.9896C171.971 37.0431 169.239 37.5 168.908 37.5544C167.936 37.7285 165.491 38.1419 164.999 39.1755C163.262 42.7876 161.525 46.3997 159.787 50.0117C159.33 50.9583 162.199 50.4796 162.393 50.4469C168.862 49.3263 175.308 48.1513 181.766 47.0089C185.755 46.3018 189.755 45.6054 193.755 44.92C195.687 44.5936 198.567 44.474 199.882 42.9181C200.099 42.6679 200.236 42.3306 200.407 42.0478C201.253 40.6225 202.053 39.1755 202.762 37.6959C203.436 36.2924 204.316 34.6278 204.35 33.0393C204.396 30.9178 201.345 31.6358 199.996 31.8426C197.093 32.2777 194.201 32.7782 191.31 33.2896C183.823 34.6169 176.371 36.0748 168.919 37.5436C168.016 37.7176 165.342 38.1419 165.011 39.1646C164.702 40.1329 167.274 39.6651 167.616 39.5998L167.594 39.6216Z" fill="#E0A619"/>
<path d="M171.457 60.6197C178.189 59.6949 184.909 58.7484 191.618 57.7257C194.933 57.2143 198.236 56.6921 201.539 56.1155C203.699 55.7347 207.402 55.3865 207.779 52.721C207.996 51.2087 206.671 49.7399 205.711 48.6846C204.453 47.3029 203.048 46.0517 201.619 44.8332C200.533 43.9084 199.424 42.6355 197.881 42.4832C195.893 42.2982 193.527 43.0598 191.561 43.3753C189.595 43.6908 187.561 44.0172 185.561 44.3327C178.166 45.5077 170.76 46.6283 163.365 47.8251C162.233 48.0101 161.09 48.3147 160.29 49.1633C159.787 49.6964 159.33 50.6865 159.982 51.3175C162.908 54.1462 165.822 56.9859 168.748 59.8146C169.891 60.9243 171.834 60.7829 173.217 60.1628C174.166 59.7384 175.994 58.2479 174.84 57.1273C171.914 54.2986 168.999 51.4589 166.074 48.6302L162.69 52.1226C173.914 50.3057 185.149 48.6193 196.361 46.7698L194.121 46.3563C194.441 46.6066 194.75 46.8568 195.058 47.1071C195.196 47.2267 195.561 47.5205 195.218 47.2376C195.378 47.3682 195.538 47.5096 195.698 47.6402C196.144 48.0209 196.59 48.4126 197.024 48.8043C197.87 49.5659 198.693 50.3383 199.459 51.1761C199.79 51.5351 200.122 51.905 200.419 52.2858C200.544 52.449 200.659 52.6013 200.773 52.7645C200.842 52.8624 200.91 52.9712 200.967 53.0692C201.139 53.3411 200.83 52.7319 200.933 53.0039C200.99 53.1453 201.036 53.3085 201.093 53.4499C201.207 53.7111 201.162 53.1018 201.082 53.3194C201.413 52.5143 202.453 51.5895 203.196 51.6004C202.865 51.6004 202.476 51.7418 202.145 51.7962C200.27 52.1444 199.287 52.3076 197.424 52.6013C193.447 53.2432 189.458 53.8416 185.469 54.4291C181.023 55.071 176.577 55.6912 172.12 56.3113C170.737 56.4963 168.657 57.1817 168.439 58.7375C168.222 60.2933 170.257 60.7611 171.445 60.5979L171.457 60.6197Z" fill="#E0A619"/>
<path d="M142.803 50.6867C128.242 53.2652 113.704 55.9307 99.2116 58.8465C91.9426 60.3044 84.6735 61.8166 77.4615 63.5139C75.4957 63.9708 73.4727 64.3734 71.564 65.0479C70.3639 65.4722 65.2321 68.3771 67.8037 69.9221C69.7467 71.0862 72.9698 70.2593 75.0385 69.9112C84.9363 68.2139 94.777 66.2229 104.641 64.3516C116.927 62.0125 129.214 59.6625 141.546 57.5844C142.78 57.3777 144.003 57.171 145.238 56.9752C146.118 56.8337 146.518 55.6805 145.398 55.8654C123.305 59.4122 101.406 63.9926 79.416 68.0399C77.8044 68.3336 76.2043 68.6274 74.5928 68.8994C73.1869 69.1387 71.7354 69.3781 70.2953 69.2693C69.8153 69.2366 69.0609 69.2366 68.9124 68.7579C68.638 67.8658 70.3639 66.7996 71.0039 66.4623C72.8326 65.494 75.2785 65.1458 77.313 64.6563C83.9077 63.1005 90.5482 61.7079 97.2001 60.3588C112.458 57.258 127.774 54.4511 143.1 51.7311C144.141 51.5462 143.832 50.5126 142.803 50.6867Z" fill="white"/>
</svg>
