<svg width="99" height="119" viewBox="0 0 99 119" fill="none" xmlns="http://www.w3.org/2000/svg">
<path d="M83.2996 102.5C77.1596 115.51 16.6296 129.58 4.14959 97.3301C0.889591 88.9101 12.6996 75.5901 26.9596 71.6101C55.6896 63.5801 92.9096 82.1301 83.2996 102.5Z" fill="#FBF5EB"/>
<path d="M80.4102 102.89C80.2502 103.22 80.5702 102.61 80.4502 102.82C80.4002 102.9 80.3702 102.98 80.3202 103.06C80.2402 103.19 80.1602 103.32 80.0802 103.44C79.8602 103.77 79.6102 104.09 79.3502 104.39C79.2402 104.52 79.1202 104.64 79.0102 104.77C78.7102 105.1 79.2902 104.5 79.0702 104.71C78.9902 104.79 78.9102 104.87 78.8302 104.95C78.5202 105.24 78.2102 105.52 77.8802 105.79C77.5302 106.08 77.1602 106.35 76.8002 106.62C76.2302 107.05 77.1502 106.41 76.5402 106.8C76.3102 106.95 76.0802 107.1 75.8402 107.25C74.9102 107.84 73.9402 108.37 72.9702 108.87C72.8302 108.94 72.6902 109.01 72.5502 109.08C72.6102 109.05 73.1402 108.8 72.6902 109.01C72.4202 109.13 72.1602 109.26 71.8902 109.38C71.3102 109.65 70.7302 109.9 70.1402 110.15C68.9302 110.66 67.6902 111.11 66.4502 111.55C66.2702 111.61 65.7602 111.78 66.4702 111.55C66.3302 111.6 66.1902 111.64 66.0502 111.69C65.7302 111.79 65.4102 111.9 65.0802 112C64.3802 112.22 63.6902 112.42 62.9902 112.62C61.5402 113.03 60.0802 113.39 58.6102 113.72C58.2902 113.79 57.9802 113.85 57.6602 113.92C56.8802 114.09 58.0902 113.84 57.6002 113.93C57.4002 113.97 57.2002 114.01 57.0002 114.05C56.2702 114.19 55.5402 114.32 54.8102 114.44C53.2402 114.7 51.6602 114.91 50.0802 115.08C49.3202 115.16 48.5602 115.23 47.8002 115.29C47.6202 115.3 46.7202 115.37 47.2602 115.33C46.7902 115.36 46.3302 115.39 45.8602 115.41C44.2902 115.48 42.7202 115.51 41.1502 115.48C37.9202 115.43 35.5002 115.23 32.2802 114.69C29.2902 114.19 26.6702 113.53 23.9102 112.48C18.5902 110.46 13.8002 107.25 10.3802 102.64C8.74018 100.43 7.05018 97.6501 6.62018 94.8901C6.12018 91.7001 7.60018 88.4301 9.33018 85.8401C14.0102 78.8501 21.7402 74.1501 29.7202 72.3501C37.7002 70.5501 46.3302 71.0101 54.3602 72.9401C61.7202 74.7101 69.1302 77.8801 74.8202 82.9701C79.2302 86.9001 82.7802 92.4701 81.7802 98.6101C81.5402 100.1 81.0602 101.52 80.4302 102.89C79.8902 104.07 82.3702 104.07 82.9002 104.01C84.1302 103.85 85.6602 103.32 86.2102 102.11C93.2002 87.0001 75.7902 75.6401 63.6802 71.5801C45.6202 65.5301 22.9202 66.6801 8.58018 80.4501C5.58018 83.3301 2.85018 86.7302 1.47018 90.7102C0.32018 94.0202 0.670183 97.0401 2.16018 100.16C4.90018 105.88 9.45018 110.29 15.0202 113.26C20.5902 116.23 27.2502 117.77 33.6702 118.32C40.6102 118.91 47.6202 118.54 54.4802 117.37C60.7902 116.29 67.0802 114.64 72.9702 112.1C77.2602 110.26 81.8302 107.92 84.8702 104.26C85.4202 103.6 85.8502 102.88 86.2202 102.1C86.7802 100.93 84.2602 100.92 83.7502 100.98C82.5002 101.14 81.0202 101.68 80.4402 102.88L80.4102 102.89Z" fill="#E0A619"/>
<path d="M83.2898 94.1002C77.1498 107.11 16.6198 121.18 4.13983 88.9302C0.879826 80.5102 12.6898 67.1902 26.9498 63.2102C55.6798 55.1802 92.8998 73.7302 83.2898 94.1002Z" fill="#FBF5EB"/>
<path d="M80.4004 94.4902C80.2404 94.8202 80.5604 94.2102 80.4404 94.4202C80.3904 94.5002 80.3604 94.5802 80.3104 94.6602C80.2304 94.7902 80.1504 94.9202 80.0704 95.0402C79.8504 95.3702 79.6004 95.6902 79.3404 95.9902C79.2304 96.1202 79.1104 96.2402 79.0004 96.3702C78.7004 96.7002 79.2804 96.1002 79.0604 96.3102C78.9804 96.3902 78.9004 96.4702 78.8204 96.5502C78.5104 96.8402 78.2004 97.1202 77.8704 97.3902C77.5204 97.6802 77.1504 97.9502 76.7904 98.2202C76.2204 98.6502 77.1404 98.0102 76.5304 98.4002C76.3004 98.5502 76.0704 98.7002 75.8304 98.8502C74.9004 99.4402 73.9304 99.9702 72.9604 100.47C72.8204 100.54 72.6804 100.61 72.5404 100.68C72.6004 100.65 73.1304 100.4 72.6804 100.61C72.4104 100.73 72.1504 100.86 71.8804 100.98C71.3004 101.25 70.7204 101.5 70.1304 101.75C68.9204 102.26 67.6804 102.71 66.4404 103.15C66.2604 103.21 65.7504 103.38 66.4604 103.15C66.3204 103.2 66.1804 103.24 66.0404 103.29C65.7204 103.39 65.4004 103.5 65.0704 103.6C64.3704 103.82 63.6804 104.02 62.9804 104.22C61.5304 104.63 60.0704 104.99 58.6004 105.32C58.2804 105.39 57.9704 105.45 57.6504 105.52C56.8704 105.69 58.0804 105.44 57.5904 105.53C57.3904 105.57 57.1904 105.61 56.9904 105.65C56.2604 105.79 55.5304 105.92 54.8004 106.04C53.2304 106.3 51.6504 106.51 50.0704 106.68C49.3104 106.76 48.5504 106.83 47.7904 106.89C47.6104 106.9 46.7104 106.97 47.2504 106.93C46.7804 106.96 46.3204 106.99 45.8504 107.01C44.2804 107.08 42.7104 107.11 41.1404 107.08C37.9104 107.03 35.4904 106.83 32.2704 106.29C29.2804 105.79 26.6604 105.13 23.9004 104.08C18.5804 102.06 13.7904 98.8502 10.3704 94.2402C8.73042 92.0302 7.04042 89.2502 6.61042 86.4902C6.11042 83.3002 7.59042 80.0302 9.32042 77.4402C14.0004 70.4502 21.7304 65.7502 29.7104 63.9502C37.6904 62.1502 46.3204 62.6102 54.3504 64.5402C61.7104 66.3102 69.1204 69.4802 74.8104 74.5702C79.2204 78.5002 82.7704 84.0702 81.7704 90.2102C81.5304 91.7002 81.0504 93.1202 80.4204 94.4902C79.8804 95.6702 82.3604 95.6702 82.8904 95.6102C84.1204 95.4502 85.6504 94.9202 86.2004 93.7102C93.1904 78.6002 75.7804 67.2402 63.6704 63.1802C45.6104 57.1302 22.9104 58.2802 8.57042 72.0502C5.57042 74.9302 2.84041 78.3302 1.46041 82.3102C0.310415 85.6202 0.660417 88.6402 2.15042 91.7602C4.89042 97.4802 9.44042 101.89 15.0104 104.86C20.5804 107.83 27.2404 109.37 33.6604 109.92C40.6004 110.51 47.6104 110.14 54.4704 108.97C60.7804 107.89 67.0704 106.24 72.9604 103.7C77.2504 101.86 81.8204 99.5202 84.8604 95.8602C85.4104 95.2002 85.8404 94.4802 86.2104 93.7002C86.7704 92.5302 84.2504 92.5202 83.7404 92.5802C82.4904 92.7402 81.0104 93.2802 80.4304 94.4802L80.4004 94.4902Z" fill="#E0A619"/>
<path d="M84.2293 83.0197C78.0893 96.0297 17.5593 110.1 5.07928 77.8497C1.81928 69.4297 13.6293 56.1097 27.8893 52.1297C56.6193 44.0997 93.8393 62.6497 84.2293 83.0197Z" fill="#FBF5EB"/>
<path d="M81.3399 83.4097C81.1799 83.7397 81.4999 83.1297 81.3799 83.3397C81.3299 83.4197 81.2999 83.4997 81.2499 83.5797C81.1699 83.7097 81.0899 83.8397 81.0099 83.9597C80.7899 84.2897 80.5399 84.6097 80.2799 84.9097C80.1699 85.0397 80.0499 85.1597 79.9399 85.2897C79.6399 85.6197 80.2199 85.0197 79.9999 85.2297C79.9199 85.3097 79.8399 85.3897 79.7599 85.4697C79.4499 85.7597 79.1399 86.0397 78.8099 86.3097C78.4599 86.5997 78.0899 86.8697 77.7299 87.1397C77.1599 87.5697 78.0799 86.9297 77.4699 87.3197C77.2399 87.4697 77.0099 87.6197 76.7699 87.7697C75.8399 88.3597 74.8699 88.8897 73.8999 89.3897C73.7599 89.4597 73.6199 89.5297 73.4799 89.5997C73.5399 89.5697 74.0699 89.3197 73.6199 89.5297C73.3499 89.6497 73.0899 89.7797 72.8199 89.8997C72.2399 90.1697 71.6599 90.4197 71.0699 90.6697C69.8599 91.1797 68.6199 91.6297 67.3799 92.0697C67.1999 92.1297 66.6899 92.2997 67.3999 92.0697C67.2599 92.1197 67.1199 92.1597 66.9799 92.2097C66.6599 92.3097 66.3399 92.4197 66.0099 92.5197C65.3099 92.7397 64.6199 92.9397 63.9199 93.1397C62.4699 93.5497 61.0099 93.9097 59.5399 94.2397C59.2199 94.3097 58.9099 94.3697 58.5899 94.4397C57.8099 94.6097 59.0199 94.3597 58.5299 94.4497C58.3299 94.4897 58.1299 94.5297 57.9299 94.5697C57.1999 94.7097 56.4699 94.8397 55.7399 94.9597C54.1699 95.2197 52.5899 95.4297 51.0099 95.5997C50.2499 95.6797 49.4899 95.7497 48.7299 95.8097C48.5499 95.8197 47.6499 95.8897 48.1899 95.8497C47.7199 95.8797 47.2599 95.9097 46.7899 95.9297C45.2199 95.9997 43.6499 96.0297 42.0799 95.9997C38.8499 95.9497 36.4299 95.7497 33.2099 95.2097C30.2199 94.7097 27.5999 94.0497 24.8399 92.9997C19.5199 90.9797 14.7299 87.7697 11.3099 83.1597C9.66987 80.9497 7.97987 78.1697 7.54987 75.4097C7.04987 72.2197 8.52987 68.9497 10.2599 66.3597C14.9399 59.3697 22.6699 54.6697 30.6499 52.8697C38.6299 51.0697 47.2599 51.5297 55.2899 53.4597C62.6499 55.2297 70.0599 58.3997 75.7499 63.4897C80.1599 67.4197 83.7099 72.9897 82.7099 79.1297C82.4699 80.6197 81.9899 82.0397 81.3599 83.4097C80.8199 84.5897 83.2999 84.5897 83.8299 84.5297C85.0599 84.3697 86.5899 83.8397 87.1399 82.6297C94.1299 67.5197 76.7199 56.1597 64.6099 52.0997C46.5499 46.0497 23.8499 47.1997 9.50987 60.9697C6.50987 63.8497 3.77987 67.2497 2.39987 71.2297C1.24987 74.5397 1.59987 77.5597 3.08987 80.6797C5.82987 86.3997 10.3799 90.8097 15.9499 93.7797C21.5199 96.7497 28.1799 98.2897 34.5999 98.8397C41.5399 99.4297 48.5499 99.0597 55.4099 97.8897C61.7199 96.8097 68.0099 95.1597 73.8999 92.6197C78.1899 90.7797 82.7599 88.4397 85.7999 84.7797C86.3499 84.1197 86.7799 83.3997 87.1499 82.6197C87.7099 81.4497 85.1899 81.4397 84.6799 81.4997C83.4299 81.6597 81.9499 82.1997 81.3699 83.3997L81.3399 83.4097Z" fill="#E0A619"/>
<path d="M84.2293 74.6198C78.0893 87.6298 17.5593 101.7 5.07928 69.4498C1.81928 61.0298 13.6293 47.7098 27.8893 43.7298C56.6193 35.6998 93.8393 54.2498 84.2293 74.6198Z" fill="#FBF5EB"/>
<path d="M81.3399 75.0098C81.1799 75.3398 81.4999 74.7298 81.3799 74.9398C81.3299 75.0198 81.2999 75.0998 81.2499 75.1798C81.1699 75.3098 81.0899 75.4398 81.0099 75.5598C80.7899 75.8898 80.5399 76.2098 80.2799 76.5098C80.1699 76.6398 80.0499 76.7598 79.9399 76.8898C79.6399 77.2198 80.2199 76.6198 79.9999 76.8298C79.9199 76.9098 79.8399 76.9898 79.7599 77.0698C79.4499 77.3598 79.1399 77.6398 78.8099 77.9098C78.4599 78.1998 78.0899 78.4698 77.7299 78.7398C77.1599 79.1698 78.0799 78.5298 77.4699 78.9198C77.2399 79.0698 77.0099 79.2198 76.7699 79.3698C75.8399 79.9598 74.8699 80.4898 73.8999 80.9898C73.7599 81.0598 73.6199 81.1298 73.4799 81.1998C73.5399 81.1698 74.0699 80.9198 73.6199 81.1298C73.3499 81.2498 73.0899 81.3798 72.8199 81.4998C72.2399 81.7698 71.6599 82.0198 71.0699 82.2698C69.8599 82.7798 68.6199 83.2298 67.3799 83.6698C67.1999 83.7298 66.6899 83.8998 67.3999 83.6698C67.2599 83.7198 67.1199 83.7598 66.9799 83.8098C66.6599 83.9098 66.3399 84.0198 66.0099 84.1198C65.3099 84.3398 64.6199 84.5398 63.9199 84.7398C62.4699 85.1498 61.0099 85.5098 59.5399 85.8398C59.2199 85.9098 58.9099 85.9698 58.5899 86.0398C57.8099 86.2098 59.0199 85.9598 58.5299 86.0498C58.3299 86.0898 58.1299 86.1298 57.9299 86.1698C57.1999 86.3098 56.4699 86.4398 55.7399 86.5598C54.1699 86.8198 52.5899 87.0298 51.0099 87.1998C50.2499 87.2798 49.4899 87.3498 48.7299 87.4098C48.5499 87.4198 47.6499 87.4898 48.1899 87.4498C47.7199 87.4798 47.2599 87.5098 46.7899 87.5298C45.2199 87.5998 43.6499 87.6298 42.0799 87.5998C38.8499 87.5498 36.4299 87.3498 33.2099 86.8098C30.2199 86.3098 27.5999 85.6498 24.8399 84.5998C19.5199 82.5798 14.7299 79.3698 11.3099 74.7598C9.66987 72.5498 7.97987 69.7698 7.54987 67.0098C7.04987 63.8198 8.52987 60.5498 10.2599 57.9598C14.9399 50.9698 22.6699 46.2698 30.6499 44.4698C38.6299 42.6698 47.2599 43.1298 55.2899 45.0598C62.6499 46.8298 70.0599 49.9998 75.7499 55.0898C80.1599 59.0198 83.7099 64.5898 82.7099 70.7298C82.4699 72.2198 81.9899 73.6398 81.3599 75.0098C80.8199 76.1898 83.2999 76.1898 83.8299 76.1298C85.0599 75.9698 86.5899 75.4398 87.1399 74.2298C94.1299 59.1198 76.7199 47.7598 64.6099 43.6998C46.5499 37.6498 23.8499 38.7998 9.50987 52.5698C6.50987 55.4498 3.77987 58.8498 2.39987 62.8298C1.24987 66.1398 1.59987 69.1598 3.08987 72.2798C5.82987 77.9998 10.3799 82.4098 15.9499 85.3798C21.5199 88.3498 28.1799 89.8898 34.5999 90.4398C41.5399 91.0298 48.5499 90.6598 55.4099 89.4898C61.7199 88.4098 68.0099 86.7598 73.8999 84.2198C78.1899 82.3798 82.7599 80.0398 85.7999 76.3798C86.3499 75.7198 86.7799 74.9998 87.1499 74.2198C87.7099 73.0498 85.1899 73.0398 84.6799 73.0998C83.4299 73.2598 81.9499 73.7998 81.3699 74.9998L81.3399 75.0098Z" fill="#E0A619"/>
<path d="M84.2293 62.5602C78.0893 75.5702 17.5593 89.6402 5.07928 57.3902C1.81928 48.9702 13.6293 35.6502 27.8893 31.6702C56.6193 23.6402 93.8393 42.1902 84.2293 62.5602Z" fill="#FBF5EB"/>
<path d="M81.3399 62.96C81.1799 63.29 81.4999 62.68 81.3799 62.89C81.3299 62.97 81.2999 63.05 81.2499 63.13C81.1699 63.26 81.0899 63.39 81.0099 63.51C80.7899 63.84 80.5399 64.16 80.2799 64.46C80.1699 64.59 80.0499 64.71 79.9399 64.84C79.6399 65.17 80.2199 64.57 79.9999 64.78C79.9199 64.86 79.8399 64.94 79.7599 65.02C79.4499 65.31 79.1399 65.59 78.8099 65.86C78.4599 66.15 78.0899 66.42 77.7299 66.69C77.1599 67.12 78.0799 66.48 77.4699 66.87C77.2399 67.02 77.0099 67.17 76.7699 67.32C75.8399 67.91 74.8699 68.44 73.8999 68.94C73.7599 69.01 73.6199 69.08 73.4799 69.15C73.5399 69.12 74.0699 68.87 73.6199 69.08C73.3499 69.2 73.0899 69.33 72.8199 69.45C72.2399 69.72 71.6599 69.97 71.0699 70.22C69.8599 70.73 68.6199 71.18 67.3799 71.62C67.1999 71.68 66.6899 71.85 67.3999 71.62C67.2599 71.67 67.1199 71.71 66.9799 71.76C66.6599 71.86 66.3399 71.97 66.0099 72.07C65.3099 72.29 64.6199 72.49 63.9199 72.69C62.4699 73.1 61.0099 73.46 59.5399 73.79C59.2199 73.86 58.9099 73.92 58.5899 73.99C57.8099 74.16 59.0199 73.91 58.5299 74C58.3299 74.04 58.1299 74.08 57.9299 74.12C57.1999 74.26 56.4699 74.39 55.7399 74.51C54.1699 74.77 52.5899 74.98 51.0099 75.15C50.2499 75.23 49.4899 75.3 48.7299 75.36C48.5499 75.37 47.6499 75.44 48.1899 75.4C47.7199 75.43 47.2599 75.46 46.7899 75.48C45.2199 75.55 43.6499 75.58 42.0799 75.55C38.8499 75.5 36.4299 75.3 33.2099 74.76C30.2199 74.26 27.5999 73.6 24.8399 72.55C19.5199 70.53 14.7299 67.32 11.3099 62.71C9.66987 60.5 7.97987 57.72 7.54987 54.96C7.04987 51.77 8.52987 48.5 10.2599 45.91C14.9399 38.92 22.6699 34.22 30.6499 32.42C38.6299 30.62 47.2599 31.08 55.2899 33.01C62.6499 34.78 70.0599 37.95 75.7499 43.04C80.1599 46.97 83.7099 52.54 82.7099 58.68C82.4699 60.17 81.9899 61.59 81.3599 62.96C80.8199 64.14 83.2999 64.14 83.8299 64.08C85.0599 63.92 86.5899 63.39 87.1399 62.18C94.1299 47.07 76.7199 35.71 64.6099 31.65C46.5499 25.6 23.8499 26.75 9.50987 40.52C6.50987 43.4 3.77987 46.8 2.39987 50.78C1.24987 54.09 1.59987 57.11 3.08987 60.23C5.82987 65.95 10.3799 70.36 15.9499 73.33C21.5199 76.3 28.1799 77.84 34.5999 78.39C41.5399 78.98 48.5499 78.61 55.4099 77.44C61.7199 76.36 68.0099 74.71 73.8999 72.17C78.1899 70.33 82.7599 67.99 85.7999 64.33C86.3499 63.67 86.7799 62.95 87.1499 62.17C87.7099 61 85.1899 60.99 84.6799 61.05C83.4299 61.21 81.9499 61.75 81.3699 62.95L81.3399 62.96Z" fill="#E0A619"/>
<path d="M84.2293 54.1701C78.0893 67.1801 17.5593 81.2501 5.07928 49.0001C1.81928 40.5801 13.6293 27.2601 27.8893 23.2801C56.6193 15.2501 93.8393 33.8001 84.2293 54.1701Z" fill="#FBF5EB"/>
<path d="M81.3399 54.5601C81.1799 54.8901 81.4999 54.2801 81.3799 54.4901C81.3299 54.5701 81.2999 54.6501 81.2499 54.7301C81.1699 54.8601 81.0899 54.9901 81.0099 55.1101C80.7899 55.4401 80.5399 55.7601 80.2799 56.0601C80.1699 56.1901 80.0499 56.3101 79.9399 56.4401C79.6399 56.7701 80.2199 56.1701 79.9999 56.3801C79.9199 56.4601 79.8399 56.5401 79.7599 56.6201C79.4499 56.9101 79.1399 57.1901 78.8099 57.4601C78.4599 57.7501 78.0899 58.0201 77.7299 58.2901C77.1599 58.7201 78.0799 58.0801 77.4699 58.4701C77.2399 58.6201 77.0099 58.7701 76.7699 58.9201C75.8399 59.5101 74.8699 60.0401 73.8999 60.5401C73.7599 60.6101 73.6199 60.6801 73.4799 60.7501C73.5399 60.7201 74.0699 60.4701 73.6199 60.6801C73.3499 60.8001 73.0899 60.9301 72.8199 61.0501C72.2399 61.3201 71.6599 61.5701 71.0699 61.8201C69.8599 62.3301 68.6199 62.7801 67.3799 63.2201C67.1999 63.2801 66.6899 63.4501 67.3999 63.2201C67.2599 63.2701 67.1199 63.3101 66.9799 63.3601C66.6599 63.4601 66.3399 63.5701 66.0099 63.6701C65.3099 63.8901 64.6199 64.0901 63.9199 64.2901C62.4699 64.7001 61.0099 65.0601 59.5399 65.3901C59.2199 65.4601 58.9099 65.5201 58.5899 65.5901C57.8099 65.7601 59.0199 65.5101 58.5299 65.6001C58.3299 65.6401 58.1299 65.6801 57.9299 65.7201C57.1999 65.8601 56.4699 65.9901 55.7399 66.1101C54.1699 66.3701 52.5899 66.5801 51.0099 66.7501C50.2499 66.8301 49.4899 66.9001 48.7299 66.9601C48.5499 66.9701 47.6499 67.0401 48.1899 67.0001C47.7199 67.0301 47.2599 67.0601 46.7899 67.0801C45.2199 67.1501 43.6499 67.1801 42.0799 67.1501C38.8499 67.1001 36.4299 66.9001 33.2099 66.3601C30.2199 65.8601 27.5999 65.2001 24.8399 64.1501C19.5199 62.1301 14.7299 58.9201 11.3099 54.3101C9.66987 52.1001 7.97987 49.3201 7.54987 46.5601C7.04987 43.3701 8.52987 40.1001 10.2599 37.5101C14.9399 30.5201 22.6699 25.8201 30.6499 24.0201C38.6299 22.2201 47.2599 22.6801 55.2899 24.6101C62.6499 26.3801 70.0599 29.5501 75.7499 34.6401C80.1599 38.5701 83.7099 44.1401 82.7099 50.2801C82.4699 51.7701 81.9899 53.1901 81.3599 54.5601C80.8199 55.7401 83.2999 55.7401 83.8299 55.6801C85.0599 55.5201 86.5899 54.9901 87.1399 53.7801C94.1299 38.6701 76.7199 27.3101 64.6099 23.2501C46.5499 17.2001 23.8499 18.3501 9.50987 32.1201C6.50987 35.0001 3.77987 38.4001 2.39987 42.3801C1.24987 45.6901 1.59987 48.7101 3.08987 51.8301C5.82987 57.5501 10.3799 61.9601 15.9499 64.9301C21.5199 67.9001 28.1799 69.4401 34.5999 69.9901C41.5399 70.5801 48.5499 70.2101 55.4099 69.0401C61.7199 67.9601 68.0099 66.3101 73.8999 63.7701C78.1899 61.9301 82.7599 59.5901 85.7999 55.9301C86.3499 55.2701 86.7799 54.5501 87.1499 53.7701C87.7099 52.6001 85.1899 52.5901 84.6799 52.6501C83.4299 52.8101 81.9499 53.3501 81.3699 54.5501L81.3399 54.5601Z" fill="#E0A619"/>
<path d="M93.6297 43.09C87.4897 56.1 26.9597 70.17 14.4797 37.92C11.2197 29.5 23.0297 16.18 37.2897 12.2C66.0197 4.16997 103.24 22.72 93.6297 43.09Z" fill="#FBF5EB"/>
<path d="M90.7403 43.48C90.5803 43.81 90.9003 43.2 90.7803 43.41C90.7303 43.49 90.7003 43.57 90.6503 43.65C90.5703 43.78 90.4903 43.91 90.4103 44.03C90.1903 44.36 89.9403 44.68 89.6803 44.98C89.5703 45.11 89.4503 45.23 89.3403 45.36C89.0403 45.69 89.6203 45.09 89.4003 45.3C89.3203 45.38 89.2403 45.46 89.1603 45.54C88.8503 45.83 88.5403 46.11 88.2103 46.38C87.8603 46.67 87.4903 46.94 87.1303 47.21C86.5603 47.64 87.4803 47 86.8703 47.39C86.6403 47.54 86.4103 47.69 86.1703 47.84C85.2403 48.43 84.2703 48.96 83.3003 49.46C83.1603 49.53 83.0203 49.6 82.8803 49.67C82.9403 49.64 83.4703 49.39 83.0203 49.6C82.7503 49.72 82.4903 49.85 82.2203 49.97C81.6403 50.24 81.0603 50.49 80.4703 50.74C79.2603 51.25 78.0203 51.7 76.7803 52.14C76.6003 52.2 76.0903 52.37 76.8003 52.14C76.6603 52.19 76.5203 52.23 76.3803 52.28C76.0603 52.38 75.7403 52.49 75.4103 52.59C74.7103 52.81 74.0203 53.01 73.3203 53.21C71.8703 53.62 70.4103 53.98 68.9403 54.31C68.6203 54.38 68.3103 54.44 67.9903 54.51C67.2103 54.68 68.4203 54.43 67.9303 54.52C67.7303 54.56 67.5303 54.6 67.3303 54.64C66.6003 54.78 65.8703 54.91 65.1403 55.03C63.5703 55.29 61.9903 55.5 60.4103 55.67C59.6503 55.75 58.8903 55.82 58.1303 55.88C57.9503 55.89 57.0503 55.96 57.5903 55.92C57.1203 55.95 56.6603 55.98 56.1903 56C54.6203 56.07 53.0503 56.1 51.4803 56.07C48.2503 56.02 45.8303 55.82 42.6103 55.28C39.6203 54.78 37.0003 54.12 34.2403 53.07C28.9203 51.05 24.1303 47.84 20.7103 43.23C19.0703 41.02 17.3803 38.24 16.9503 35.48C16.4503 32.29 17.9303 29.02 19.6603 26.43C24.3403 19.44 32.0703 14.74 40.0503 12.94C48.0303 11.14 56.6603 11.6 64.6903 13.53C72.0503 15.3 79.4603 18.47 85.1503 23.56C89.5603 27.49 93.1103 33.06 92.1103 39.2C91.8703 40.69 91.3903 42.11 90.7603 43.48C90.2203 44.66 92.7003 44.66 93.2303 44.6C94.4603 44.44 95.9902 43.91 96.5403 42.7C103.53 27.59 86.1203 16.23 74.0103 12.17C55.9503 6.11999 33.2503 7.26999 18.9103 21.04C15.9103 23.92 13.1803 27.32 11.8003 31.3C10.6503 34.61 11.0003 37.63 12.4903 40.75C15.2303 46.47 19.7803 50.88 25.3503 53.85C30.9203 56.82 37.5803 58.36 44.0003 58.91C50.9403 59.5 57.9503 59.13 64.8103 57.96C71.1203 56.88 77.4103 55.23 83.3003 52.69C87.5903 50.85 92.1603 48.51 95.2003 44.85C95.7503 44.19 96.1803 43.47 96.5503 42.69C97.1103 41.52 94.5903 41.51 94.0803 41.57C92.8303 41.73 91.3503 42.27 90.7703 43.47L90.7403 43.48Z" fill="#E0A619"/>
<path d="M93.6297 34.6901C87.4897 47.7001 26.9597 61.7701 14.4797 29.5201C11.2197 21.1001 23.0297 7.78007 37.2897 3.80007C66.0197 -4.22993 103.24 14.3201 93.6297 34.6901Z" fill="#FBF5EB"/>
<path d="M90.7403 35.0801C90.5803 35.4101 90.9003 34.8001 90.7803 35.0101C90.7303 35.0901 90.7003 35.1701 90.6503 35.2501C90.5703 35.3801 90.4903 35.5101 90.4103 35.6301C90.1903 35.9601 89.9403 36.2801 89.6803 36.5801C89.5703 36.7101 89.4503 36.8301 89.3403 36.9601C89.0403 37.2901 89.6203 36.6901 89.4003 36.9001C89.3203 36.9801 89.2403 37.0601 89.1603 37.1401C88.8503 37.4301 88.5403 37.7101 88.2103 37.9801C87.8603 38.2701 87.4903 38.5401 87.1303 38.8101C86.5603 39.2401 87.4803 38.6001 86.8703 38.9901C86.6403 39.1401 86.4103 39.2901 86.1703 39.4401C85.2403 40.0301 84.2703 40.5601 83.3003 41.0601C83.1603 41.1301 83.0203 41.2001 82.8803 41.2701C82.9403 41.2401 83.4703 40.9901 83.0203 41.2001C82.7503 41.3201 82.4903 41.4501 82.2203 41.5701C81.6403 41.8401 81.0603 42.0901 80.4703 42.3401C79.2603 42.8501 78.0203 43.3001 76.7803 43.7401C76.6003 43.8001 76.0903 43.9701 76.8003 43.7401C76.6603 43.7901 76.5203 43.8301 76.3803 43.8801C76.0603 43.9801 75.7403 44.0901 75.4103 44.1901C74.7103 44.4101 74.0203 44.6101 73.3203 44.8101C71.8703 45.2201 70.4103 45.5801 68.9403 45.9101C68.6203 45.9801 68.3103 46.0401 67.9903 46.1101C67.2103 46.2801 68.4203 46.0301 67.9303 46.1201C67.7303 46.1601 67.5303 46.2001 67.3303 46.2401C66.6003 46.3801 65.8703 46.5101 65.1403 46.6301C63.5703 46.8901 61.9903 47.1001 60.4103 47.2701C59.6503 47.3501 58.8903 47.4201 58.1303 47.4801C57.9503 47.4901 57.0503 47.5601 57.5903 47.5201C57.1203 47.5501 56.6603 47.5801 56.1903 47.6001C54.6203 47.6701 53.0503 47.7001 51.4803 47.6701C48.2503 47.6201 45.8303 47.4201 42.6103 46.8801C39.6203 46.3801 37.0003 45.7201 34.2403 44.6701C28.9203 42.6501 24.1303 39.4401 20.7103 34.8301C19.0703 32.6201 17.3803 29.8401 16.9503 27.0801C16.4503 23.8901 17.9303 20.6201 19.6603 18.0301C24.3403 11.0401 32.0703 6.34009 40.0503 4.54009C48.0303 2.74009 56.6603 3.20009 64.6903 5.13009C72.0503 6.90009 79.4603 10.0701 85.1503 15.1601C89.5603 19.0901 93.1103 24.6601 92.1103 30.8001C91.8703 32.2901 91.3903 33.7101 90.7603 35.0801C90.2203 36.2601 92.7003 36.2601 93.2303 36.2001C94.4603 36.0401 95.9902 35.5101 96.5403 34.3001C103.53 19.1901 86.1203 7.83009 74.0103 3.77009C55.9503 -2.27991 33.2503 -1.12992 18.9103 12.6401C15.9103 15.5201 13.1803 18.9201 11.8003 22.9001C10.6503 26.2101 11.0003 29.2301 12.4903 32.3501C15.2303 38.0701 19.7803 42.4801 25.3503 45.4501C30.9203 48.4201 37.5803 49.9601 44.0003 50.5101C50.9403 51.1001 57.9503 50.7301 64.8103 49.5601C71.1203 48.4801 77.4103 46.8301 83.3003 44.2901C87.5903 42.4501 92.1603 40.1101 95.2003 36.4501C95.7503 35.7901 96.1803 35.0701 96.5503 34.2901C97.1103 33.1201 94.5903 33.1101 94.0803 33.1701C92.8303 33.3301 91.3503 33.8701 90.7703 35.0701L90.7403 35.0801Z" fill="#E0A619"/>
<path d="M47.3095 36.9501C49.4395 38.4201 54.1695 38.3201 56.7195 38.0901C57.1895 38.0501 59.4895 37.8201 62.3395 36.7901C66.0595 35.4501 68.5695 34.5501 69.7195 32.1201C71.0695 29.2601 70.2295 24.9801 67.6495 23.1001C64.7395 20.9901 57.5995 22.6701 57.5995 22.6701C57.5995 22.6701 58.4695 17.8301 56.8095 15.8001C54.9395 13.5001 50.9895 12.3001 47.9395 13.2101C44.0995 14.3601 43.0895 18.4401 42.4995 20.8101C41.2495 25.8501 45.8095 35.9101 47.3095 36.9501Z" fill="#E0A619"/>
</svg>
