<svg width="241" height="222" viewBox="0 0 241 222" fill="none" xmlns="http://www.w3.org/2000/svg">
<path d="M116.404 115.2C124.971 115.2 137.379 105.583 143.715 99.8483C144.89 98.7854 150.562 93.5826 156.139 85.0026C163.412 73.8169 168.326 66.2568 166.606 57.0083C164.587 46.1397 153.891 35.5026 143.332 35.2197C131.418 34.9026 115.723 53.8626 115.723 53.8626C115.723 53.8626 108.527 38.254 100.096 35.6911C90.5841 32.8111 77.691 37.1397 71.3466 45.7968C63.3672 56.6826 68.7067 70.3969 71.8065 78.3769C78.3893 95.3054 110.367 115.183 116.404 115.183V115.2Z" fill="#E0A619"/>
<path d="M175.495 145.286C179.191 141.017 182.776 136.654 186.2 132.163C188.371 129.309 190.458 126.377 192.646 123.531C193.54 122.366 194.605 121.286 195.439 120.077C196.419 118.671 196.453 117 195.627 115.526C193.557 111.831 189.001 109.637 185.025 108.831C179.906 107.794 174.422 109.526 170.939 113.46C169.687 114.874 168.768 116.563 167.814 118.191C166.622 120.231 165.378 122.229 163.863 124.046C160.661 127.903 156.471 130.217 152.085 132.617C148.048 134.829 145.068 138.737 143.612 143.1C142.896 145.251 142.462 147.48 141.636 149.597C140.503 152.494 138.724 155.091 136.935 157.603C135.292 159.917 133.537 162.146 131.689 164.306C131.017 165.094 130.327 165.874 129.629 166.646C129.373 166.929 129.109 167.211 128.845 167.494C128.717 167.631 128.59 167.769 128.462 167.897C128.087 168.3 128.556 167.803 128.547 167.811C128.377 167.983 128.215 168.154 128.045 168.317C127.619 168.746 126.793 169.663 127.542 170.263C136.654 177.523 145.758 184.791 154.972 191.914C156.82 193.337 160.482 192.18 161.844 190.5C172.344 177.617 182.478 164.434 192.995 151.56C196.947 146.726 200.915 141.917 204.739 136.989C206.698 134.46 208.622 131.906 210.513 129.317C211.569 127.869 212.616 126.411 213.655 124.946C214.524 123.72 215.733 122.443 216.261 121.029C216.738 119.76 216.746 118.243 216.831 116.906C217.002 114.274 217.027 111.626 217.019 108.986C217.002 102.094 216.653 95.2029 216.005 88.3457C215.384 81.7543 214.583 75.0343 212.693 68.6657C211.96 66.2057 211.134 63.0343 208.614 61.8857C206.672 61.0028 204.279 61.08 202.227 61.4314C199.672 61.8771 197.236 62.7686 194.954 64.0028C191.812 65.7 188.755 68.3228 188.158 72.0428C187.605 75.5314 188.635 79.1143 189.564 82.4486C190.662 86.3828 191.88 90.3257 192.161 94.4314C192.442 98.5371 191.394 102.951 188.737 106.354C187.588 107.837 186.191 109.054 184.548 110.211C184.139 110.494 183.645 111.18 183.79 111.729C183.943 112.311 184.701 112.569 185.203 112.663C187.026 113.014 188.967 112.286 190.441 111.249C194.196 108.609 197.296 104.914 198.735 100.491C200.004 96.5743 199.791 92.3143 199.008 88.3286C198.224 84.3428 196.955 80.8371 196.087 77.0486C195.721 75.4714 195.405 73.8343 195.431 72.2143C195.431 71.9057 195.542 70.98 195.661 70.4486C195.738 70.1228 195.831 69.8057 195.942 69.4971C195.984 69.3686 196.036 69.2486 196.087 69.1286C196.197 68.8971 196.197 68.8886 196.087 69.1028C196.146 68.9828 196.214 68.8714 196.291 68.7514C196.478 68.46 196.674 68.1943 196.887 67.92C196.972 67.8086 197.075 67.7057 197.168 67.6028C196.717 68.1 197.236 67.56 197.313 67.4828C197.611 67.2171 197.918 66.9771 198.233 66.7286C198.693 66.3686 198.258 66.7114 198.165 66.7714C198.454 66.5914 198.735 66.4028 199.033 66.2314C199.186 66.1457 199.34 66.0686 199.485 65.9743C200.251 65.52 198.769 66.2743 199.587 65.9143C199.987 65.7428 200.387 65.5714 200.796 65.4086C201.503 65.1257 200.566 65.5028 200.566 65.4857C200.566 65.4514 201.247 65.2886 201.298 65.2714C201.418 65.2371 202.141 64.9628 201.528 65.2114C200.796 65.5028 201.946 65.0314 201.98 65.1686C201.997 65.22 201.188 65.1771 201.741 65.1857C201.963 65.1857 202.184 65.1857 202.405 65.1943C201.537 65.1943 202.082 65.2028 202.218 65.1943C202.405 65.1771 202.942 65.4514 202.329 65.1943C202.482 65.2628 203.206 65.6743 202.865 65.4086C203.172 65.64 203.444 65.9143 203.649 66.24C203.538 66.0686 203.802 66.6 203.845 66.6943C203.955 66.9257 204.058 67.1571 204.151 67.3971C204.39 67.9543 204.594 68.5286 204.798 69.1028C206.8 74.9314 207.626 81.2057 208.298 87.3086C209.056 94.1657 209.465 101.066 209.593 107.957C209.644 110.777 209.644 113.374 209.55 115.903C209.482 117.651 209.431 119.451 209.099 121.183C209.056 121.414 208.988 121.646 208.937 121.877C208.92 121.937 208.844 122.057 208.852 122.109C208.818 121.92 209.286 121.38 208.784 122.109C207.685 123.686 206.578 125.246 205.463 126.806C203.581 129.437 201.665 132.034 199.706 134.606C196.095 139.337 192.34 143.957 188.576 148.56C177.675 161.897 167.124 175.517 156.275 188.897C155.849 189.42 155.432 189.943 155.006 190.457L161.878 189.043C152.664 181.92 143.561 174.651 134.449 167.391L133.946 169.337C136.194 167.091 138.298 164.674 140.299 162.206C143.952 157.689 147.699 152.743 149.53 147.154C150.186 145.149 150.586 143.057 151.361 141.086C151.719 140.169 152.162 139.337 152.698 138.523C153.03 138.017 153.388 137.52 153.763 137.04C153.924 136.834 154.086 136.637 154.257 136.44C154.342 136.346 155.04 135.634 154.546 136.106C154.836 135.831 155.142 135.566 155.449 135.309C155.645 135.137 155.968 134.709 155.372 135.343C155.483 135.223 155.696 135.129 155.832 135.043C156.488 134.64 157.178 134.289 157.859 133.937C160.243 132.711 162.491 131.314 164.672 129.737C168.904 126.669 172.063 122.683 174.686 118.2C175.589 116.657 176.458 115.071 177.607 113.7C177.735 113.546 177.871 113.391 178.007 113.246C177.531 113.76 177.99 113.271 178.093 113.186C178.323 112.989 179.353 112.354 178.527 112.8C178.706 112.706 178.893 112.594 179.055 112.483C179.677 112.08 178.263 112.783 178.987 112.534C179.464 112.371 179.625 112.534 178.859 112.56C178.995 112.517 179.132 112.483 179.276 112.449C178.604 112.577 178.467 112.603 178.876 112.534C179.489 112.423 179.2 112.74 178.782 112.526C178.893 112.586 179.302 112.526 179.438 112.526C179.625 112.526 179.992 112.62 179.293 112.509C179.523 112.543 179.753 112.56 179.983 112.603C180.451 112.68 180.92 112.783 181.38 112.911C180.809 112.757 181.584 112.989 181.644 113.006C181.959 113.109 182.265 113.229 182.572 113.357C184.403 114.103 185.697 114.857 187.102 116.229C187.4 116.52 187.681 116.829 187.937 117.154C188.056 117.309 188.175 117.463 188.278 117.626C188.601 118.114 188.15 117.326 188.388 117.84C188.533 118.149 188.661 118.457 188.729 118.791C188.763 118.946 188.78 119.1 188.797 119.263C188.831 119.606 188.882 119.023 188.772 119.46C188.712 119.691 188.371 120.343 188.661 119.906C188.465 120.197 188.244 120.454 188.014 120.72C187.528 121.294 187.051 121.869 186.591 122.46C184.326 125.323 182.214 128.314 180.017 131.229C176.389 136.037 172.566 140.7 168.623 145.26C167.473 146.589 169.602 147.283 170.582 147.274C172.344 147.249 174.294 146.657 175.478 145.286H175.495Z" fill="#E0A619"/>
<path d="M57.934 143.846C52.0495 137.049 46.7015 129.892 41.2769 122.734C40.3912 121.569 39.4885 120.42 38.5433 119.306C38.0323 118.706 37.9557 118.8 37.7939 118.037C37.7598 117.883 37.7428 117.729 37.7343 117.574C37.7598 118.02 37.7428 117.54 37.7683 117.446C37.8109 117.283 37.8365 117.129 37.8876 116.974C37.9216 116.863 38.2197 116.194 37.9642 116.692C38.143 116.357 38.3645 116.04 38.5944 115.74C38.6966 115.603 38.8158 115.483 38.918 115.346C39.1905 115.02 38.4326 115.783 38.9435 115.312C39.2756 115.003 39.5993 114.703 39.9569 114.429C40.1443 114.283 40.3316 114.146 40.519 114.009C39.8122 114.514 40.7063 113.906 40.8511 113.82C41.064 113.692 41.2769 113.572 41.4898 113.452C41.7623 113.297 42.1711 112.869 41.5324 113.417C41.8645 113.126 42.4947 112.997 42.9034 112.834C43.721 112.5 42.0263 113.074 42.8694 112.834C43.0226 112.792 43.1844 112.74 43.3377 112.697C43.5336 112.646 43.8657 112.629 44.036 112.526C43.4229 112.646 43.3207 112.672 43.7295 112.594C43.8828 112.569 44.036 112.543 44.1893 112.526C44.8961 112.44 44.4363 112.706 44.1638 112.517C44.2404 112.569 44.7173 112.517 44.8195 112.517C45.5348 112.509 44.1638 112.337 44.8365 112.517C45.0239 112.569 45.2453 112.594 45.4327 112.629C44.794 112.509 45.4837 112.646 45.603 112.689C45.8074 112.766 46.0117 112.843 46.2076 112.937C46.4035 113.032 46.5823 113.126 46.7782 113.22C46.8122 113.237 47.3743 113.589 46.9911 113.332C48.4302 114.292 49.4862 115.732 50.3974 117.18C52.7223 120.874 54.8683 124.869 58.1554 127.989C60.3184 130.037 62.8051 131.76 65.3684 133.26C66.22 133.757 67.0971 134.22 67.9742 134.674C68.3319 134.854 68.6896 135.034 69.0387 135.232C69.2005 135.317 69.3708 135.412 69.5326 135.506C69.6178 135.557 70.2906 135.969 69.8307 135.669C73.2285 137.906 75.0595 141.729 76.0984 145.543C76.8308 148.217 77.6398 150.797 78.9938 153.24C80.6629 156.24 82.6642 159.069 84.7506 161.777C87.0243 164.726 89.4343 167.623 92.0742 170.246L92.5767 168.3C83.4647 175.56 74.3612 182.829 65.147 189.952L71.5339 189.052C61.2722 176.46 51.3682 163.577 41.098 150.986C37.1807 146.186 33.2294 141.403 29.4057 136.526C27.5407 134.143 25.7098 131.726 23.9045 129.292C21.784 126.42 19.8168 123.429 17.6708 120.583C17.2791 120.06 17.6964 120.926 17.6708 120.609C17.6708 120.532 17.6027 120.446 17.5856 120.377C17.526 120.129 17.4579 119.897 17.4153 119.649C17.2791 118.929 17.211 118.2 17.1513 117.48C16.9555 115.192 16.9129 112.894 16.8959 110.606C16.8533 104.16 17.1513 97.6631 17.6964 91.1231C18.2414 84.5831 18.9993 77.8545 20.6003 71.4173C20.9154 70.1402 21.273 68.8631 21.7074 67.6116C21.8862 67.0888 22.082 66.5659 22.2949 66.0516C22.3971 65.8116 22.4908 65.5802 22.6015 65.3402C22.6611 65.2031 22.7207 65.0659 22.7889 64.9373C22.9592 64.5945 22.4738 65.2031 22.857 64.8431L22.9677 64.6802C23.1551 64.4488 23.121 64.4745 22.8655 64.7573C22.9166 64.7488 23.1295 64.5345 23.1551 64.5173C23.104 64.5516 21.8436 65.1859 22.4738 64.9459C22.4482 64.9545 21.4689 65.2459 22.0735 65.0916C20.9069 65.3831 21.5881 65.1859 21.8947 65.1602C21.8095 65.1602 21.0261 65.1602 21.6222 65.1945C21.784 65.2031 22.5419 65.2802 21.7159 65.1773C21.9543 65.203 22.1927 65.2373 22.4312 65.2802C22.84 65.3488 23.2487 65.4431 23.649 65.5545C23.1125 65.4002 23.9215 65.6573 23.9555 65.6745C24.1173 65.7345 24.2791 65.7945 24.4409 65.8545C25.3351 66.2059 26.1952 66.6259 27.0213 67.1231C29.5249 68.6316 31.0408 70.8173 31.1004 73.9973C31.16 77.1773 29.8996 80.7859 29.014 83.9402C27.9154 87.8488 26.9361 91.7831 26.902 95.8716C26.868 100.354 28.2986 104.58 31.1174 108.069C32.3948 109.654 33.9277 111 35.5797 112.166C36.9508 113.126 39.0031 112.792 40.4594 112.149C41.0384 111.892 43.8487 110.28 42.4776 109.32C38.7817 106.732 35.9034 103.192 34.8218 98.7345C33.8595 94.7488 34.4301 90.6773 35.3754 86.7516C36.2695 83.0402 37.5895 79.4145 38.2197 75.6431C38.7562 72.4373 38.671 69.1116 36.5165 66.5059C34.1576 63.6602 30.0104 61.8002 26.4166 61.3459C23.7086 61.0031 20.8387 61.3716 18.4372 62.7259C16.7341 63.6859 15.7973 65.0231 15.0394 66.7802C12.6975 72.2659 11.863 78.4802 11.1306 84.3516C10.2364 91.4573 9.76805 98.6231 9.5807 105.789C9.45296 110.82 9.22304 116.04 9.92986 121.046C10.2279 123.172 11.633 124.654 12.8508 126.369C14.852 129.197 16.8959 132 18.9823 134.769C22.6611 139.654 26.5018 144.403 30.368 149.134C41.5068 162.772 52.305 176.683 63.3927 190.354C63.8185 190.877 64.2358 191.4 64.6615 191.914C65.2577 192.652 66.7735 192.532 67.5655 192.429C68.8258 192.266 70.0351 191.794 71.0485 191.014C80.2627 183.892 89.3662 176.623 98.4782 169.363C99.0317 168.926 99.6193 168.06 98.9806 167.417C96.6643 165.103 94.5268 162.583 92.4915 160.02C88.8637 155.443 85.4659 150.652 83.8819 144.952C82.6812 140.614 81.0887 136.192 77.4013 133.32C75.9622 132.197 74.3016 131.443 72.7006 130.586C70.2054 129.249 67.8295 127.654 65.7175 125.76C63.7504 124.003 62.0472 121.98 60.5824 119.777C59.4158 118.012 58.4194 116.143 57.2953 114.352C55.0301 110.752 51.6833 108.454 47.3147 108.523C42.2988 108.6 36.6783 110.734 33.042 114.283C31.7817 115.509 30.4276 117.077 30.3254 118.92C30.2232 120.763 31.3984 121.843 32.4629 123.146C34.5408 125.7 36.4569 128.392 38.4241 131.032C41.4302 135.069 44.547 139.012 47.7745 142.869C48.8475 144.154 49.9375 145.423 51.0361 146.692C52.6201 148.517 59.6968 145.886 57.9255 143.846H57.934Z" fill="#E0A619"/>
</svg>
