<svg width="195" height="191" viewBox="0 0 195 191" fill="none" xmlns="http://www.w3.org/2000/svg">
<path d="M121.023 121.311C121.65 121.084 121.358 121.193 120.928 121.311C120.61 121.404 120.283 121.496 119.965 121.581C119.32 121.757 118.667 121.926 118.013 122.077C117.454 122.212 116.689 122.246 116.173 122.482C116.19 122.482 116.912 122.339 116.465 122.423C116.319 122.448 116.181 122.482 116.035 122.507C115.7 122.566 115.365 122.633 115.029 122.692C113.722 122.92 112.415 123.105 111.099 123.257C110.463 123.332 109.827 123.391 109.182 123.45C108.769 123.492 109.337 123.442 109.38 123.433C109.233 123.442 109.087 123.459 108.932 123.467C108.537 123.492 108.141 123.526 107.746 123.543C105.106 123.703 102.449 123.728 99.8003 123.627C99.4478 123.619 99.0952 123.602 98.7512 123.585C98.4073 123.568 98.7598 123.585 98.82 123.585C98.6739 123.585 98.5191 123.568 98.3729 123.56C97.6678 123.518 96.9712 123.467 96.2747 123.408C94.9247 123.299 93.5832 123.156 92.2418 122.979C82.4475 121.724 72.8252 119.02 63.994 114.244C57.7253 110.859 50.8719 105.662 48.6963 98.6878C47.5269 94.9397 48.0342 90.9053 49.1951 87.2078C50.6397 82.6006 53.271 78.4988 56.4957 74.8939C58.3272 72.8387 60.0213 71.2721 62.1538 69.5623C63.2115 68.7117 64.3036 67.9031 65.43 67.1282C65.8686 66.825 66.7371 66.2438 66.9435 66.1091C66.6941 66.2691 67.1412 65.9827 67.1412 65.9827C67.3218 65.8732 67.5024 65.7553 67.6916 65.6458C68.0097 65.4521 68.3365 65.2584 68.6633 65.0647C69.9273 64.3235 71.2172 63.616 72.5242 62.959C73.1606 62.6389 73.8055 62.3273 74.4504 62.0241C74.8288 61.8472 74.4074 62.0409 74.3472 62.0662C74.502 61.9988 74.6482 61.9314 74.803 61.8641C75.1555 61.704 75.5081 61.5524 75.8693 61.4008C77.2537 60.8197 78.6553 60.2806 80.0656 59.7837C80.4353 59.6573 80.8051 59.531 81.1748 59.4047C80.5213 59.6321 81.2006 59.4047 81.4758 59.312C82.2239 59.0846 82.972 58.8656 83.7288 58.655C84.4339 58.4613 85.139 58.2844 85.8441 58.116C86.1709 58.0402 86.4976 57.9644 86.8244 57.8886C86.9878 57.8549 87.1512 57.8212 87.3145 57.7791C88.0541 57.6106 86.9878 57.838 87.4607 57.7454C88.8882 57.4759 90.3242 57.2316 91.7688 57.0463C92.4912 56.9537 93.2135 56.8779 93.9358 56.8105C94.6151 56.7431 93.652 56.8273 94.3313 56.7768C94.7269 56.7515 95.1225 56.7263 95.518 56.701C96.3779 56.6589 97.2464 56.642 98.1149 56.6589C98.5363 56.6589 98.9662 56.6841 99.3876 56.701C99.9723 56.7178 98.7684 56.6589 99.3532 56.701C99.5854 56.7178 99.8175 56.7347 100.05 56.7515C100.961 56.8189 101.864 56.92 102.767 57.0379C104.633 57.2822 106.482 57.6359 108.322 58.057C107.866 57.9475 108.27 58.0402 108.485 58.0991C108.7 58.1581 108.898 58.2002 109.104 58.2592C109.595 58.3855 110.076 58.5203 110.558 58.655C111.495 58.9246 112.432 59.2109 113.361 59.5226C115.201 60.1374 117.024 60.8281 118.804 61.5861C122.51 63.1696 125.683 64.8457 128.908 66.9429C134.859 70.8089 140.654 75.9299 144.059 81.8931C145.625 84.6304 146.76 87.6205 147.181 90.7368C147.602 93.8532 147.301 96.7085 146.192 99.7996C145.59 101.476 144.773 103.051 143.991 104.255C142.907 105.914 141.643 107.456 140.267 108.879C139.898 109.258 139.519 109.637 139.141 110.008C138.797 110.345 139.261 109.907 138.9 110.235C138.642 110.463 138.384 110.698 138.126 110.926C137.24 111.701 136.32 112.434 135.383 113.141C134.325 113.933 133.242 114.691 132.133 115.415C132.004 115.499 131.875 115.584 131.746 115.668C131.806 115.634 132.09 115.449 131.78 115.643C131.471 115.836 131.152 116.03 130.843 116.224C130.189 116.62 129.536 116.999 128.874 117.378C127.627 118.085 126.354 118.759 125.064 119.407C124.359 119.761 123.654 120.107 122.94 120.443C122.768 120.519 122.605 120.603 122.433 120.679C121.865 120.94 122.829 120.502 122.252 120.764C121.848 120.949 121.435 121.134 121.023 121.311C120.3 121.631 117.798 122.802 118.933 123.897C119.982 124.916 122.717 124.259 123.826 123.77C133.835 119.349 144.687 113.537 150.81 104.221C154.765 98.2077 155.978 91.1159 153.553 84.2935C151.128 77.4712 145.848 71.6848 140.104 67.2293C133.637 62.2094 126.105 58.3687 118.245 55.9177C109.534 53.1972 100.66 52.4054 91.6055 53.7615C78.7757 55.6734 66.0578 60.8533 56.0227 68.9896C47.7763 75.6772 40.7852 84.9421 40.5531 95.7904C40.3811 103.48 46.1424 109.738 52.1532 113.975C60.5114 119.854 70.5035 123.341 80.5041 125.404C91.7172 127.721 103.592 128.15 114.866 126.028C117.867 125.463 120.954 124.823 123.826 123.779C124.583 123.501 127.025 122.263 125.916 121.193C124.806 120.123 122.192 120.898 121.023 121.319V121.311Z" fill="#E0A619"/>
<path d="M86.1279 76.5113C77.5031 85.3298 81.5876 99.9009 93.695 104.348C93.8068 104.39 93.9186 104.432 94.039 104.466C107.608 109.208 117.592 102.377 118.641 92.6154C119.57 83.9822 115.158 73.7487 104.117 71.8452C101.744 71.4409 95.9996 70.447 90.3672 73.3697C88.699 74.2372 87.2974 75.3069 86.1365 76.5029L86.1279 76.5113Z" fill="#E0A619"/>
<path d="M91.2786 79.1979C88.9396 81.531 90.0489 85.3885 93.3337 86.5593C93.3681 86.5677 93.3939 86.5845 93.4283 86.593C97.1173 87.8479 99.8346 86.0371 100.118 83.4597C100.368 81.1772 99.1725 78.4651 96.1714 77.9682C95.5265 77.8587 93.9615 77.5976 92.4308 78.3725C91.9751 78.5999 91.5967 78.8862 91.2786 79.1979Z" fill="#FBF5EB"/>
<path d="M102.767 41.5152C102.586 33.5895 102.346 25.6385 102.586 17.7044C102.612 16.9801 97.6419 17.5949 97.5989 19.0099C97.3581 26.9356 97.5989 34.8866 97.7794 42.8207C97.7966 43.6208 102.793 42.8881 102.767 41.5152Z" fill="#E0A619"/>
<path d="M126.578 45.1792C129.536 37.7926 132.442 30.3722 135.787 23.1456C136.157 22.3454 134.076 22.6318 133.792 22.6824C133.001 22.8171 131.264 23.154 130.868 24.0131C127.523 31.2397 124.617 38.6601 121.659 46.0467C121.332 46.8637 123.336 46.5689 123.654 46.51C124.402 46.3836 126.234 46.0299 126.578 45.1792Z" fill="#E0A619"/>
<path d="M151.145 58.116C155.668 51.538 160.157 44.9093 165.024 38.5671C165.566 37.8596 163.192 38.0786 163.029 38.1039C162.04 38.2723 160.742 38.6008 160.105 39.4346C155.238 45.7769 150.749 52.4055 146.226 58.9836C145.719 59.7163 148.032 59.4805 148.221 59.4468C149.167 59.2868 150.569 58.9583 151.145 58.116Z" fill="#E0A619"/>
<path d="M71.9739 44.9516C69.0158 37.5649 66.1094 30.1446 62.7643 22.918C62.2226 21.7472 57.39 23.3896 57.7769 24.2235C61.1219 31.4501 64.0284 38.8704 66.9865 46.2571C67.4508 47.4025 72.3436 45.8696 71.9739 44.9516Z" fill="#E0A619"/>
<path d="M44.5516 62.2178C40.0285 55.6397 35.5398 49.0111 30.6728 42.6689C29.7699 41.4981 25.3156 43.4943 25.6853 43.9744C30.5524 50.3166 35.0411 56.9452 39.5641 63.5233C40.3811 64.7109 44.9385 62.7821 44.5516 62.2178Z" fill="#E0A619"/>
<path d="M100.11 144.027C99.9292 151.952 99.6884 159.903 99.9292 167.838C99.955 168.646 104.951 167.897 104.917 166.532C104.676 158.606 104.917 150.655 105.097 142.721C105.114 141.988 100.144 142.62 100.11 144.027Z" fill="#E0A619"/>
<path d="M123.955 140.59C126.913 147.977 129.82 155.397 133.165 162.624C133.706 163.795 138.539 162.152 138.152 161.318C134.807 154.092 131.9 146.672 128.942 139.285C128.478 138.139 123.585 139.672 123.955 140.59Z" fill="#E0A619"/>
<path d="M148.514 127.653C153.037 134.231 157.526 140.86 162.393 147.202C163.295 148.373 167.75 146.377 167.38 145.897C162.513 139.554 158.024 132.926 153.501 126.348C152.684 125.16 148.127 127.089 148.514 127.653Z" fill="#E0A619"/>
<path d="M69.3511 140.363C66.393 147.75 63.4865 155.17 60.1415 162.397C59.7718 163.197 61.8527 162.91 62.1365 162.86C62.9276 162.725 64.6646 162.388 65.0602 161.529C68.4052 154.302 71.3117 146.882 74.2697 139.495C74.5965 138.678 72.5929 138.973 72.2747 139.032C71.5266 139.159 69.695 139.512 69.3511 140.363Z" fill="#E0A619"/>
<path d="M41.9288 123.105C37.4057 129.683 32.917 136.312 28.05 142.654C27.5082 143.362 29.8815 143.143 30.0449 143.118C31.0338 142.949 32.3323 142.621 32.9686 141.787C37.8356 135.445 42.3243 128.816 46.8474 122.238C47.3548 121.505 45.0416 121.741 44.8524 121.775C43.9065 121.935 42.5049 122.263 41.9288 123.105Z" fill="#E0A619"/>
</svg>
