<svg width="159" height="137" viewBox="0 0 159 137" fill="none" xmlns="http://www.w3.org/2000/svg">
<path d="M87.4754 48.0728C95.3554 48.3328 103.235 48.5928 111.115 48.8428C112.235 48.8828 113.365 48.9128 114.485 48.9528L112.905 48.3928C118.885 56.1428 124.865 63.8928 130.845 71.6428C131.695 72.7428 132.545 73.8428 133.385 74.9428L137.175 72.0628H108.775L110.355 72.6228C104.775 64.6028 99.1854 56.5828 93.6054 48.5528C92.8254 47.4328 92.0454 46.3028 91.2654 45.1828C90.0954 43.5028 84.4854 45.4728 85.8954 47.5028C91.1054 54.9928 96.3254 62.4928 101.535 69.9828L104.555 74.3228C105.215 75.2628 106.085 75.5028 107.225 75.5028H134.965C136.055 75.5028 140.145 74.4228 138.755 72.6228C133.295 65.5428 127.835 58.4628 122.365 51.3828L118.975 46.9928C118.235 46.0328 117.755 45.5728 116.365 45.5028C111.935 45.2728 107.495 45.2128 103.055 45.0628C98.6154 44.9128 94.1354 44.7728 89.6754 44.6228C88.4054 44.5828 86.5454 45.0428 85.8554 46.2328C85.1654 47.4228 86.4354 48.0228 87.4554 48.0628L87.4754 48.0728Z" fill="#E0A619"/>
<path d="M74.0655 44.9526C65.5955 45.1326 57.1255 45.3226 48.6555 45.5026C46.7755 45.5426 45.0755 46.0126 43.8955 47.5526C42.9155 48.8226 41.9355 50.0926 40.9555 51.3626C37.5755 55.7426 34.2055 60.1226 30.8255 64.4926C28.4655 67.5526 26.0955 70.6226 23.7355 73.6826C22.8855 74.7826 24.4655 75.5126 25.3355 75.5126C34.2555 75.5126 43.1755 75.5126 52.0855 75.5126C54.0555 75.5126 56.2555 75.6226 57.5855 73.8426C58.3055 72.8826 58.9255 71.8326 59.5955 70.8326C62.6655 66.2326 65.7355 61.6426 68.8055 57.0426C71.0955 53.6226 73.3755 50.2026 75.6655 46.7726C76.4355 45.6226 75.0055 44.9926 74.0655 44.9426C72.7555 44.8826 71.0155 45.4026 70.2455 46.5526C64.9455 54.4726 59.6555 62.4026 54.3555 70.3226C53.6155 71.4326 52.8655 72.5526 52.1255 73.6626L55.9455 72.0526H27.5455L29.1455 73.8826C35.1255 66.1326 41.1055 58.3826 47.0855 50.6326C47.9355 49.5326 48.7855 48.4326 49.6255 47.3326L45.8055 48.9426C53.3855 48.7826 60.9555 48.6126 68.5355 48.4526C69.6355 48.4326 70.7355 48.4026 71.8355 48.3826C73.1255 48.3526 74.9455 48.0026 75.6555 46.7726C76.3155 45.6326 75.0955 44.9226 74.0555 44.9426L74.0655 44.9526Z" fill="#E0A619"/>
<path d="M101.255 72.2326C95.9355 64.5326 90.6054 56.8426 85.2854 49.1426C84.5454 48.0626 83.7954 46.9926 83.0554 45.9126C82.5454 45.1826 81.0354 45.3226 80.3554 45.4526C79.3554 45.6526 78.2654 46.0926 77.6654 46.9626C72.3454 54.6626 67.0154 62.3526 61.6954 70.0526C60.9554 71.1326 60.2054 72.2026 59.4654 73.2826C58.7254 74.3626 60.1354 75.1126 61.0654 75.1126H97.4755C98.7555 75.1126 100.595 74.7126 101.295 73.5026C101.995 72.2926 100.725 71.6726 99.6954 71.6726H63.2854L64.8854 73.5026C70.2054 65.8026 75.5354 58.1126 80.8554 50.4126C81.5954 49.3326 82.3454 48.2626 83.0854 47.1826L77.6954 48.2326C83.0154 55.9326 88.3454 63.6226 93.6654 71.3226C94.4054 72.4026 95.1554 73.4726 95.8955 74.5526C97.0654 76.2426 102.675 74.2726 101.265 72.2326H101.255Z" fill="#E0A619"/>
<path d="M95.6654 79.4926C93.6154 85.7926 91.5655 92.0826 89.5255 98.3826C86.2555 108.433 82.9955 118.473 79.7255 128.523C78.9755 130.843 78.2154 133.163 77.4654 135.483L83.2655 134.363C81.2155 128.063 79.1655 121.773 77.1255 115.473C73.8555 105.423 70.5954 95.3826 67.3254 85.3326C66.5754 83.0126 65.8155 80.6926 65.0655 78.3726L61.0655 80.8726H97.4755C98.7555 80.8726 100.595 80.4726 101.295 79.2626C101.995 78.0526 100.725 77.4326 99.6954 77.4326H63.2854C62.2454 77.4326 58.7054 78.1626 59.2854 79.9326C61.3354 86.2326 63.3855 92.5226 65.4255 98.8226C68.6955 108.873 71.9555 118.913 75.2255 128.963C75.9755 131.283 76.7355 133.603 77.4855 135.923C77.8455 137.023 79.5354 136.933 80.4055 136.763C81.5255 136.543 82.9054 135.993 83.2854 134.813C85.3354 128.513 87.3855 122.223 89.4255 115.923C92.6955 105.873 95.9555 95.8326 99.2255 85.7826C99.9755 83.4626 100.735 81.1426 101.485 78.8226C101.905 77.5326 99.6855 77.3926 98.9555 77.4726C97.7355 77.6126 96.0955 78.2126 95.6755 79.5026L95.6654 79.4926Z" fill="#E0A619"/>
<path d="M50.0853 80.7427C52.1353 86.4127 54.1753 92.0827 56.2253 97.7527C59.4953 106.803 62.7553 115.853 66.0253 124.903C66.7853 126.993 67.5353 129.083 68.2953 131.173L73.8753 129.243C69.0253 123.433 64.1753 117.633 59.3153 111.823C51.6553 102.653 43.9853 93.4827 36.3253 84.3127C34.5653 82.2027 32.8053 80.1027 31.0453 77.9927L27.2553 80.8727C34.4253 81.1127 41.5853 81.3527 48.7553 81.5827C49.7953 81.6127 50.8353 81.6527 51.8853 81.6827C53.1553 81.7227 55.0153 81.2627 55.7053 80.0727C56.3953 78.8827 55.1253 78.2827 54.1053 78.2427C46.9353 78.0027 39.7753 77.7627 32.6053 77.5327C31.5653 77.5027 30.5253 77.4627 29.4753 77.4327C28.4253 77.4027 24.2353 78.5827 25.6853 80.3127C30.5353 86.1227 35.3853 91.9227 40.2453 97.7327C47.9053 106.903 55.5753 116.073 63.2353 125.243C64.9953 127.353 66.7553 129.453 68.5153 131.563C69.2753 132.463 71.0753 132.143 71.9853 131.813C72.7253 131.553 74.4853 130.713 74.0953 129.633C72.0453 123.963 70.0053 118.293 67.9553 112.623C64.6853 103.573 61.4253 94.5227 58.1553 85.4727C57.3953 83.3827 56.6453 81.2927 55.8853 79.2027C55.1253 77.1127 49.3653 78.7427 50.0853 80.7527V80.7427Z" fill="#E0A619"/>
<path d="M104.205 80.3125C102.155 85.9825 100.115 91.6524 98.0653 97.3224C94.7953 106.372 91.5353 115.422 88.2653 124.472C87.5053 126.562 86.7553 128.652 85.9953 130.742C85.5853 131.882 87.5253 132.132 88.1553 132.112C89.4853 132.052 90.7453 131.542 91.6053 130.512C96.4553 124.702 101.305 118.902 106.165 113.092C113.825 103.922 121.495 94.7525 129.155 85.5825C130.915 83.4725 132.675 81.3725 134.435 79.2625C135.325 78.2025 133.665 77.4025 132.835 77.4325C125.665 77.6725 118.505 77.9125 111.335 78.1425C110.295 78.1725 109.255 78.2125 108.205 78.2425C106.915 78.2825 105.105 78.6125 104.385 79.8525C103.735 80.9825 104.945 81.7125 105.985 81.6825C113.155 81.4425 120.315 81.2025 127.485 80.9725C128.525 80.9425 129.565 80.9025 130.615 80.8725L129.015 79.0425C124.165 84.8525 119.315 90.6524 114.455 96.4624C106.795 105.632 99.1253 114.802 91.4653 123.972C89.7053 126.082 87.9453 128.182 86.1853 130.292L91.7953 130.062C93.8453 124.392 95.8853 118.722 97.9353 113.052C101.205 104.002 104.465 94.9524 107.735 85.9025C108.495 83.8125 109.245 81.7225 110.005 79.6325C110.465 78.3525 108.175 78.2025 107.475 78.2825C106.215 78.4225 104.665 79.0325 104.195 80.3125H104.205Z" fill="#E0A619"/>
<path d="M84.7555 28.6327C84.5455 19.2227 84.2655 9.78269 84.5455 0.36269C84.5755 -0.49731 78.7955 0.232689 78.7455 1.91269C78.4655 11.3227 78.7455 20.7627 78.9555 30.1827C78.9755 31.1327 84.7855 30.2627 84.7555 28.6327Z" fill="#E0A619"/>
<path d="M119.285 32.9729C122.725 24.2029 126.105 15.3929 129.995 6.81288C130.425 5.86288 128.005 6.20288 127.675 6.26288C126.755 6.42288 124.735 6.82288 124.275 7.84288C120.385 16.4229 117.005 25.2329 113.565 34.0029C113.185 34.9729 115.515 34.6229 115.885 34.5529C116.755 34.4029 118.885 33.9829 119.285 32.9729Z" fill="#E0A619"/>
<path d="M142.285 52.1025C147.545 44.2925 152.765 36.4225 158.425 28.8925C159.055 28.0525 156.295 28.3125 156.105 28.3425C154.955 28.5425 153.445 28.9325 152.705 29.9225C147.045 37.4525 141.825 45.3225 136.565 53.1325C135.975 54.0025 138.665 53.7225 138.885 53.6825C139.985 53.4925 141.615 53.1025 142.285 52.1025Z" fill="#E0A619"/>
<path d="M49.8755 32.7128C46.4355 23.9428 43.0555 15.1328 39.1655 6.55281C38.5355 5.16281 32.9155 7.11282 33.3655 8.10282C37.2555 16.6828 40.6355 25.4928 44.0755 34.2628C44.6155 35.6228 50.3055 33.8028 49.8755 32.7128Z" fill="#E0A619"/>
<path d="M21.9653 53.2124C16.7053 45.4024 11.4853 37.5324 5.8253 30.0024C4.7753 28.6124 -0.404703 30.9824 0.0252968 31.5524C5.6853 39.0824 10.9053 46.9524 16.1653 54.7624C17.1153 56.1724 22.4153 53.8824 21.9653 53.2124Z" fill="#E0A619"/>
</svg>
