<svg width="231" height="252" viewBox="0 0 231 252" fill="none" xmlns="http://www.w3.org/2000/svg">
<g clip-path="url(#clip0_768_1268)">
<path d="M222.718 176.989C222.34 170.238 217.187 166.172 212.078 162.423C210.04 160.929 204.276 158.214 203.301 155.801C202.427 153.646 207.609 150.73 209.036 149.093C218.395 138.434 221.743 121.096 213.461 108.857C207.493 100.037 196.401 96.7764 186.649 101.186C173.563 107.105 166.533 123.94 167.072 137.357C168.018 137.026 168.964 136.696 169.91 136.366C165.965 135.13 166.489 134.326 167.858 130.648C168.702 128.364 169.313 125.994 169.677 123.595C170.463 118.381 170.157 112.98 168.687 107.909C166.329 99.7355 160.725 92.036 152.53 88.8183C137.116 82.7851 122.473 94.4205 118.019 108.555C119.052 108.326 120.071 108.096 121.104 107.866C119.663 98.615 120.813 88.5023 120.813 79.1795V51.3263C119.867 51.6567 118.921 51.987 117.975 52.3174C125.355 54.3716 129.925 60.3186 130.275 67.8026C130.304 68.3054 133.346 67.7739 133.39 66.9838C133.826 57.4169 142.152 49.1428 152.414 52.9207C158.891 55.3053 162.574 61.1661 162.88 67.817C162.909 68.3198 165.951 67.7883 165.994 66.9982C166.431 57.4313 174.757 49.1572 185.033 52.9351C191.511 55.3197 195.193 61.1805 195.499 67.8314C195.528 68.3341 198.57 67.8026 198.614 67.0126C199.007 58.2501 206.037 50.1053 215.819 52.3605C222.383 53.8688 226.75 59.2556 227.944 65.6192C228.046 66.2082 231.131 65.533 231.059 64.8004C227.187 27.4089 182.486 9.03642 150.114 3.16124C109.984 -4.13606 62.9687 0.63304 28.6608 23.8609C14.1778 33.672 1.84905 47.7782 0.00047231 65.5905C-0.043195 65.9783 2.95529 65.5905 3.08629 64.901C4.80387 55.7075 13.6829 48.9417 23.2024 53.3661C29.0101 56.0666 32.1542 61.6545 32.4307 67.8026C32.4598 68.3054 35.502 67.7739 35.5457 66.9838C35.9823 57.4169 44.3082 49.1428 54.57 52.9207C61.0474 55.3053 64.73 61.1661 65.0356 67.817C65.0502 68.3198 68.1069 67.7883 68.1506 66.9982C68.5872 57.4313 76.9131 49.1572 87.1749 52.9351C93.6523 55.3197 97.3349 61.1805 97.6406 67.8314C97.6551 68.3341 100.712 67.8026 100.755 67.0126C101.076 60.2324 104.918 54.1705 111.891 52.2169C111.338 52.2169 110.77 52.1881 110.217 52.1881V90.9874C111.221 90.6857 112.24 90.3697 113.244 90.0536C105.559 81.9088 94.4092 79.5243 84.2347 84.4801C73.8273 89.5509 68.6455 100.597 67.8886 111.601C68.922 111.328 69.97 111.055 71.0035 110.782C66.2292 100.439 57.9615 90.1398 45.1961 91.8492C33.7116 93.3863 25.6623 102.364 23.7846 113.411C22.5328 120.809 23.8719 128.522 27.2198 135.216C28.7772 138.348 30.8005 141.235 33.2167 143.778C34.3957 145.028 36.0842 146.019 37.1468 147.312C39.0973 149.667 37.8309 149.696 35.2545 151.233C25.1092 157.338 11.8052 163.587 11.354 176.946C11.354 177.363 14.4398 176.989 14.4689 176.127C14.9638 161.576 31.47 155.155 42.2267 148.475C42.3577 148.389 42.7944 148.116 42.5033 147.944C28.8209 139.124 22.1543 120.133 29.243 105.165C33.4496 96.2736 43.3621 89.8956 53.2164 94.4205C60.3632 97.7101 64.7445 104.806 67.8886 111.615C68.1942 112.276 70.9598 111.486 71.0035 110.796C71.5712 102.407 74.5988 93.9896 81.0761 88.258C90.4209 79.9696 102.4 82.7276 110.319 91.1166C110.755 91.5763 113.346 90.8724 113.346 90.1829V51.3837C113.346 50.9528 111.76 51.3263 111.672 51.355C103.652 53.5959 98.0627 59.3849 97.6697 67.8601C98.7031 67.5872 99.7366 67.3142 100.785 67.0413C99.7802 44.8765 66.04 46.5715 65.0647 67.8601C66.0982 67.5872 67.1317 67.3142 68.1797 67.0413C67.1753 44.8765 33.4351 46.5572 32.4598 67.8601C33.4933 67.5872 34.5413 67.3142 35.5748 67.0413C34.6286 46.1262 3.71219 45.9538 0.0586954 65.5186C1.09215 65.2888 2.11106 65.059 3.14452 64.8291C6.87079 28.515 49.6211 10.2862 81.0906 4.41097C120.755 -3.00124 167.785 1.75349 201.336 25.5559C214.873 35.1659 226.139 48.7406 227.886 65.5905C228.919 65.3175 229.967 65.0446 231 64.7717C227.172 44.3306 196.372 47.7494 195.455 67.8026C196.489 67.5297 197.537 67.2568 198.57 66.9838C197.566 44.819 163.826 46.5141 162.85 67.8026C163.884 67.5297 164.932 67.2568 165.965 66.9838C164.961 44.819 131.221 46.5141 130.245 67.8026C131.279 67.5297 132.327 67.2568 133.36 66.9838C132.997 59.1694 128.091 53.2799 120.522 51.1682C119.969 51.0102 117.684 51.3837 117.684 52.1594V80.0127C117.684 89.3498 116.534 99.4482 117.975 108.699C118.077 109.317 120.901 108.541 121.061 108.01C123.259 101.057 127.247 94.5067 133.812 90.7862C141.686 86.3044 151.162 88.9476 157.348 94.8371C168.396 105.366 169.502 122.891 162.632 135.877C162.53 136.064 162.748 136.136 162.88 136.179C164.379 136.61 165.863 137.069 167.348 137.529C167.872 137.702 170.216 137.299 170.186 136.538C169.473 118.956 188.323 86.3763 207.886 106.631C221.466 120.679 214.465 145.229 199.458 155.241C199.283 155.356 198.934 155.557 199.167 155.787C206.212 162.05 219.021 167.25 219.603 177.837C219.632 178.325 222.762 177.837 222.718 177.018" fill="#E0A619"/>
</g>
<path d="M24.3085 195.844C23.3551 198.555 22.4394 201.069 21.5614 203.386C20.7084 205.679 19.868 207.86 19.0401 209.93C18.2122 212.001 17.3843 213.985 16.5564 215.883C15.7536 217.757 14.9257 219.618 14.0728 221.466H10.6483C9.79535 219.618 8.95492 217.757 8.12703 215.883C7.32423 213.985 6.49634 212.001 5.64337 209.93C4.81548 207.86 3.96251 205.679 3.08445 203.386C2.20639 201.069 1.30324 198.555 0.375 195.844H4.40154C5.75626 199.738 7.0859 203.485 8.39045 207.083C9.695 210.682 11.0372 214.059 12.417 217.214C13.7968 214.084 15.139 210.719 16.4435 207.12C17.7481 203.497 19.0652 199.738 20.3948 195.844H24.3085Z" fill="#E0A619"/>
<path d="M30.1883 221.466V195.844H46.1063V198.912H33.8386V206.529H44.7516V209.524H33.8386V218.397H47.0471V221.466H30.1883Z" fill="#E0A619"/>
<path d="M67.1004 213.221C67.1004 214.454 66.9624 215.6 66.6865 216.66C66.4356 217.72 65.9715 218.656 65.2941 219.47C64.6419 220.258 63.7512 220.887 62.6223 221.355C61.5185 221.799 60.1261 222.021 58.4452 222.021C57.5923 222.021 56.802 221.947 56.0745 221.799C55.372 221.676 54.7323 221.516 54.1553 221.318C53.5783 221.096 53.0765 220.875 52.65 220.653C52.2236 220.406 51.8849 220.172 51.634 219.95L53.064 217.103C53.5908 217.473 54.2682 217.867 55.0961 218.286C55.949 218.681 57.0027 218.878 58.2571 218.878C60.0634 218.878 61.3805 218.434 62.2084 217.547C63.0363 216.635 63.4502 215.082 63.4502 212.888V195.844H67.1004V213.221Z" fill="#E0A619"/>
<path d="M91.3349 218.36V221.466H75.6427V195.844H79.2929V218.36H91.3349Z" fill="#E0A619"/>
<path d="M97.4144 221.466V195.844H113.332V198.912H101.065V206.529H111.978V209.524H101.065V218.397H114.273V221.466H97.4144Z" fill="#E0A619"/>
<path d="M143.841 217.917C143.59 217.325 143.252 216.573 142.825 215.661C142.424 214.749 141.985 213.763 141.508 212.703C141.032 211.644 140.517 210.559 139.965 209.45C139.438 208.316 138.937 207.256 138.46 206.27C137.983 205.259 137.532 204.36 137.105 203.571C136.704 202.782 136.378 202.178 136.127 201.759C135.851 204.668 135.625 207.823 135.45 211.225C135.274 214.601 135.123 218.015 134.998 221.466H131.423C131.523 219.248 131.636 217.017 131.762 214.774C131.887 212.506 132.025 210.288 132.176 208.119C132.351 205.925 132.527 203.793 132.702 201.722C132.903 199.652 133.116 197.692 133.342 195.844H136.541C137.218 196.928 137.946 198.21 138.723 199.689C139.501 201.168 140.279 202.721 141.057 204.347C141.834 205.95 142.587 207.564 143.314 209.191C144.042 210.793 144.707 212.26 145.309 213.591C145.911 212.26 146.576 210.793 147.303 209.191C148.031 207.564 148.784 205.95 149.561 204.347C150.339 202.721 151.117 201.168 151.894 199.689C152.672 198.21 153.4 196.928 154.077 195.844H157.276C158.129 204.101 158.768 212.642 159.195 221.466H155.62C155.494 218.015 155.344 214.601 155.168 211.225C154.993 207.823 154.767 204.668 154.491 201.759C154.24 202.178 153.901 202.782 153.475 203.571C153.074 204.36 152.634 205.259 152.158 206.27C151.681 207.256 151.167 208.316 150.615 209.45C150.088 210.559 149.586 211.644 149.11 212.703C148.633 213.763 148.181 214.749 147.755 215.661C147.354 216.573 147.027 217.325 146.777 217.917H143.841Z" fill="#E0A619"/>
<path d="M166.123 208.636C166.123 206.443 166.449 204.508 167.101 202.832C167.778 201.155 168.681 199.763 169.81 198.654C170.964 197.52 172.294 196.669 173.799 196.102C175.33 195.535 176.948 195.252 178.654 195.252C180.335 195.252 181.915 195.535 183.395 196.102C184.901 196.669 186.218 197.52 187.347 198.654C188.475 199.763 189.366 201.155 190.018 202.832C190.696 204.508 191.034 206.443 191.034 208.636C191.034 210.83 190.696 212.765 190.018 214.441C189.366 216.117 188.475 217.522 187.347 218.656C186.218 219.765 184.901 220.604 183.395 221.17C181.915 221.737 180.335 222.021 178.654 222.021C176.948 222.021 175.33 221.737 173.799 221.17C172.294 220.604 170.964 219.765 169.81 218.656C168.681 217.522 167.778 216.117 167.101 214.441C166.449 212.765 166.123 210.83 166.123 208.636ZM169.961 208.636C169.961 210.189 170.162 211.607 170.563 212.888C170.964 214.145 171.529 215.218 172.256 216.105C173.009 216.992 173.912 217.683 174.966 218.176C176.045 218.644 177.249 218.878 178.578 218.878C179.908 218.878 181.1 218.644 182.153 218.176C183.207 217.683 184.098 216.992 184.825 216.105C185.578 215.218 186.155 214.145 186.556 212.888C186.958 211.607 187.158 210.189 187.158 208.636C187.158 207.083 186.958 205.679 186.556 204.421C186.155 203.14 185.578 202.055 184.825 201.168C184.098 200.28 183.207 199.603 182.153 199.134C181.1 198.641 179.908 198.395 178.578 198.395C177.249 198.395 176.045 198.641 174.966 199.134C173.912 199.603 173.009 200.28 172.256 201.168C171.529 202.055 170.964 203.14 170.563 204.421C170.162 205.679 169.961 207.083 169.961 208.636Z" fill="#E0A619"/>
<path d="M220.135 208.636C220.135 210.855 219.784 212.79 219.082 214.441C218.379 216.068 217.388 217.424 216.109 218.508C214.829 219.568 213.299 220.369 211.518 220.912C209.737 221.429 207.78 221.688 205.647 221.688C204.594 221.688 203.427 221.639 202.148 221.54C200.893 221.466 199.752 221.306 198.723 221.06V196.213C199.752 195.967 200.893 195.807 202.148 195.733C203.427 195.634 204.594 195.585 205.647 195.585C207.78 195.585 209.737 195.856 211.518 196.398C213.299 196.916 214.829 197.717 216.109 198.801C217.388 199.861 218.379 201.217 219.082 202.869C219.784 204.495 220.135 206.418 220.135 208.636ZM205.948 218.545C209.41 218.545 211.994 217.683 213.7 215.957C215.406 214.207 216.259 211.767 216.259 208.636C216.259 205.506 215.406 203.078 213.7 201.353C211.994 199.603 209.41 198.727 205.948 198.727C204.92 198.727 204.117 198.74 203.54 198.764C202.988 198.789 202.599 198.814 202.373 198.838V218.434C202.599 218.459 202.988 218.484 203.54 218.508C204.117 218.533 204.92 218.545 205.948 218.545Z" fill="#E0A619"/>
<path d="M19.1906 225.822H23.9321V251.445H19.1906V240.094H7.86361V251.445H3.12208V225.822H7.86361V236.064H19.1906V225.822Z" fill="#E0A619"/>
<path d="M40.217 251.999C38.4358 251.999 36.9055 251.753 35.626 251.26C34.3466 250.742 33.2804 250.027 32.4274 249.115C31.5995 248.203 30.9849 247.131 30.5835 245.899C30.1821 244.666 29.9814 243.311 29.9814 241.832V225.822H34.7605V241.388C34.7605 242.546 34.886 243.545 35.1368 244.383C35.4128 245.196 35.7891 245.862 36.2658 246.379C36.7675 246.897 37.3445 247.279 37.9968 247.526C38.6742 247.772 39.4268 247.895 40.2547 247.895C41.0826 247.895 41.8352 247.772 42.5125 247.526C43.1899 247.279 43.7669 246.897 44.2436 246.379C44.7453 245.862 45.1216 245.196 45.3725 244.383C45.6485 243.545 45.7865 242.546 45.7865 241.388V225.822H50.5656V241.832C50.5656 243.311 50.3524 244.666 49.9259 245.899C49.5245 247.131 48.8973 248.203 48.0443 249.115C47.2164 250.027 46.1502 250.742 44.8457 251.26C43.5411 251.753 41.9983 251.999 40.217 251.999Z" fill="#E0A619"/>
<path d="M61.3705 247.6C61.6464 247.624 62.0102 247.649 62.4618 247.673C62.9134 247.673 63.528 247.673 64.3057 247.673C67.4918 247.673 69.8626 246.885 71.418 245.307C72.9985 243.705 73.7888 241.474 73.7888 238.615C73.7888 235.706 73.0236 233.476 71.4933 231.923C69.9629 230.37 67.5922 229.593 64.381 229.593C62.9761 229.593 61.9726 229.63 61.3705 229.704V247.6ZM78.7561 238.615C78.7561 240.833 78.4049 242.768 77.7024 244.42C77 246.047 75.9965 247.415 74.6919 248.524C73.4125 249.608 71.857 250.422 70.0257 250.964C68.2194 251.482 66.2124 251.741 64.0047 251.741C62.951 251.741 61.7593 251.691 60.4297 251.593C59.1001 251.519 57.8332 251.346 56.629 251.075V226.192C57.8332 225.921 59.1126 225.748 60.4673 225.674C61.8221 225.6 63.0263 225.563 64.0799 225.563C66.2625 225.563 68.257 225.822 70.0633 226.34C71.8696 226.833 73.4125 227.621 74.6919 228.706C75.9965 229.766 77 231.122 77.7024 232.773C78.4049 234.4 78.7561 236.347 78.7561 238.615Z" fill="#E0A619"/>
<path d="M95.524 251.999C93.5672 251.999 91.8111 251.704 90.2557 251.112C88.7002 250.52 87.3832 249.658 86.3044 248.524C85.2256 247.365 84.3978 245.96 83.8207 244.309C83.2437 242.657 82.9552 240.759 82.9552 238.615C82.9552 236.47 83.2813 234.573 83.9336 232.921C84.611 231.27 85.5267 229.877 86.6807 228.743C87.8347 227.585 89.1895 226.709 90.7449 226.118C92.3003 225.526 93.9686 225.231 95.7498 225.231C96.8286 225.231 97.807 225.317 98.6851 225.489C99.5631 225.637 100.328 225.81 100.981 226.007C101.633 226.204 102.172 226.414 102.599 226.636C103.025 226.857 103.326 227.018 103.502 227.116L102.109 230.924C101.507 230.555 100.642 230.21 99.5129 229.889C98.4091 229.544 97.2049 229.372 95.9004 229.372C94.7714 229.372 93.7177 229.569 92.7393 229.963C91.7609 230.333 90.908 230.9 90.1804 231.664C89.478 232.428 88.926 233.389 88.5246 234.548C88.1232 235.706 87.9225 237.05 87.9225 238.578C87.9225 239.934 88.0731 241.178 88.3741 242.312C88.7002 243.446 89.1895 244.432 89.8417 245.27C90.494 246.084 91.3219 246.725 92.3254 247.193C93.3289 247.637 94.5331 247.858 95.938 247.858C97.6188 247.858 98.9861 247.698 100.04 247.378C101.093 247.033 101.909 246.712 102.486 246.416L103.765 250.225C103.464 250.422 103.05 250.619 102.523 250.816C102.022 251.013 101.42 251.211 100.717 251.408C100.015 251.58 99.2244 251.716 98.3464 251.815C97.4683 251.938 96.5275 251.999 95.524 251.999Z" fill="#E0A619"/>
<path d="M125.939 251.445C125.588 250.434 125.224 249.436 124.848 248.45C124.472 247.464 124.108 246.453 123.757 245.418H112.769C112.417 246.453 112.054 247.476 111.677 248.487C111.326 249.473 110.975 250.459 110.624 251.445H105.694C106.672 248.709 107.601 246.182 108.479 243.865C109.357 241.548 110.21 239.354 111.038 237.284C111.89 235.213 112.731 233.241 113.559 231.368C114.387 229.495 115.24 227.646 116.118 225.822H120.596C121.474 227.646 122.327 229.495 123.155 231.368C123.983 233.241 124.811 235.213 125.638 237.284C126.491 239.354 127.357 241.548 128.235 243.865C129.138 246.182 130.079 248.709 131.057 251.445H125.939ZM118.263 230.777C117.686 232.083 117.021 233.673 116.268 235.546C115.541 237.419 114.776 239.453 113.973 241.647H122.553C121.75 239.453 120.972 237.407 120.22 235.509C119.467 233.611 118.815 232.034 118.263 230.777Z" fill="#E0A619"/>
<path d="M151.927 251.445C151.074 250.04 150.121 248.536 149.067 246.934C148.014 245.307 146.922 243.68 145.793 242.054C144.665 240.402 143.51 238.812 142.331 237.284C141.177 235.731 140.074 234.338 139.02 233.106V251.445H134.354V225.822H138.23C139.233 226.857 140.312 228.09 141.466 229.519C142.62 230.924 143.774 232.391 144.928 233.919C146.107 235.448 147.236 236.988 148.315 238.541C149.419 240.069 150.397 241.499 151.25 242.83V225.822H155.954V251.445H151.927Z" fill="#E0A619"/>
<path d="M173.8 251.999C171.843 251.999 170.087 251.704 168.532 251.112C166.976 250.52 165.659 249.658 164.58 248.524C163.501 247.365 162.674 245.96 162.097 244.309C161.52 242.657 161.231 240.759 161.231 238.615C161.231 236.47 161.557 234.573 162.209 232.921C162.887 231.27 163.803 229.877 164.957 228.743C166.111 227.585 167.465 226.709 169.021 226.118C170.576 225.526 172.244 225.231 174.026 225.231C175.104 225.231 176.083 225.317 176.961 225.489C177.839 225.637 178.604 225.81 179.256 226.007C179.909 226.204 180.448 226.414 180.875 226.636C181.301 226.857 181.602 227.018 181.778 227.116L180.385 230.924C179.783 230.555 178.918 230.21 177.789 229.889C176.685 229.544 175.481 229.372 174.176 229.372C173.047 229.372 171.994 229.569 171.015 229.963C170.037 230.333 169.184 230.9 168.456 231.664C167.754 232.428 167.202 233.389 166.8 234.548C166.399 235.706 166.198 237.05 166.198 238.578C166.198 239.934 166.349 241.178 166.65 242.312C166.976 243.446 167.465 244.432 168.118 245.27C168.77 246.084 169.598 246.725 170.601 247.193C171.605 247.637 172.809 247.858 174.214 247.858C175.895 247.858 177.262 247.698 178.316 247.378C179.369 247.033 180.185 246.712 180.762 246.416L182.041 250.225C181.74 250.422 181.326 250.619 180.799 250.816C180.298 251.013 179.695 251.211 178.993 251.408C178.291 251.58 177.5 251.716 176.622 251.815C175.744 251.938 174.803 251.999 173.8 251.999Z" fill="#E0A619"/>
<path d="M186.207 251.445V225.822H202.953V229.778H190.948V236.101H201.636V239.983H190.948V247.489H203.856V251.445H186.207Z" fill="#E0A619"/>
<path d="M215.444 225.563C219.207 225.563 222.079 226.241 224.061 227.597C226.068 228.953 227.072 231.023 227.072 233.808C227.072 237.284 225.328 239.638 221.841 240.87C222.318 241.437 222.857 242.127 223.459 242.941C224.061 243.754 224.676 244.642 225.303 245.603C225.93 246.54 226.532 247.513 227.109 248.524C227.687 249.51 228.201 250.483 228.652 251.445H223.346C222.87 250.557 222.355 249.67 221.803 248.783C221.252 247.871 220.687 246.996 220.11 246.158C219.558 245.295 219.006 244.494 218.454 243.754C217.902 242.99 217.388 242.312 216.911 241.721C216.56 241.745 216.259 241.758 216.008 241.758C215.757 241.758 215.519 241.758 215.293 241.758H212.998V251.445H208.256V226.192C209.41 225.945 210.64 225.785 211.944 225.711C213.249 225.613 214.415 225.563 215.444 225.563ZM215.783 229.593C214.779 229.593 213.851 229.63 212.998 229.704V237.986H215.068C216.222 237.986 217.238 237.925 218.116 237.802C218.994 237.678 219.721 237.456 220.298 237.136C220.9 236.816 221.352 236.384 221.653 235.842C221.954 235.3 222.105 234.609 222.105 233.771C222.105 232.983 221.954 232.317 221.653 231.775C221.352 231.233 220.913 230.801 220.336 230.481C219.784 230.16 219.119 229.938 218.341 229.815C217.564 229.667 216.711 229.593 215.783 229.593Z" fill="#E0A619"/>
<defs>
<clipPath id="clip0_768_1268">
<rect width="231" height="178.008" fill="none"/>
</clipPath>
</defs>
</svg>
