<svg width="26" height="46" viewBox="0 0 26 46" fill="none" xmlns="http://www.w3.org/2000/svg">
<path d="M14.248 44.8406C14.8965 43.2612 15.5349 41.6777 16.1684 40.0941C17.5508 36.6548 18.9132 33.2112 20.2403 29.755C21.5675 26.2989 22.8544 22.9223 23.9956 19.4662C24.3575 18.3728 24.7245 17.271 24.9658 16.1567C25.3378 14.4265 25.4434 12.5832 25.3982 10.8321C25.3378 8.57829 24.7848 6.34122 23.1561 4.49795C21.3413 2.4494 18.325 1.1968 15.3188 0.941258C9.0952 0.41341 2.49961 3.76901 0.488767 8.75424C0.0162173 9.92305 -0.0340507 11.2133 0.00113911 12.4324C0.0514103 14.0537 0.312818 15.6707 0.654662 17.2668C1.47408 21.1251 2.74594 24.9122 4.13846 28.6491C5.53097 32.3859 6.93354 35.7373 8.49697 39.2312C9.37169 41.1917 10.2766 43.1481 11.2217 45.0877C11.2669 45.1799 11.3122 45.2679 11.3574 45.36C11.6892 46.0345 14.5496 45.2679 14.2731 44.7107C13.6246 43.4037 13.0113 42.084 12.403 40.7644C10.9753 37.6644 9.62305 34.535 8.36627 31.3847C6.87824 27.6604 5.50584 23.8942 4.43506 20.0694C3.56537 16.9652 2.73589 13.6976 2.942 10.4928C3.03752 8.97627 3.61061 7.61057 4.56576 6.30771C5.30475 5.30647 6.27498 4.38902 7.38598 3.66428C7.90377 3.32914 8.4467 3.02332 9.02482 2.76778C9.54764 2.53737 10.2012 2.31953 10.6385 2.22318C11.1664 2.10588 11.6992 2.02628 12.3578 2.00533C13.0164 1.98439 13.6196 2.02628 14.2379 2.12682C15.7411 2.36561 17.1738 2.92278 18.4004 3.67685C20.6425 5.05931 21.854 7.09948 22.2813 9.36168C22.6835 11.5066 22.4673 13.6976 22.2059 15.8425C22.0953 16.7599 21.8138 17.6564 21.5373 18.5487C20.557 21.7284 19.3656 24.8662 18.1842 27.9997C16.852 31.5229 15.4746 35.0293 14.0771 38.5357C13.2275 40.6639 12.3679 42.792 11.5032 44.9202C11.463 45.0249 11.4177 45.1254 11.3775 45.2302C11.1362 45.8167 13.9816 45.5318 14.2631 44.8448L14.248 44.8406Z" fill="#E0A619"/>
<circle cx="12.5" cy="12.5" r="4.5" stroke="#E0A619" stroke-width="2"/>
</svg>
