<svg width="47" height="29" viewBox="0 0 47 29" fill="none" xmlns="http://www.w3.org/2000/svg">
<path d="M0.458984 1.24744V28.0641C0.458984 28.216 0.773179 28.3002 0.876235 28.3189C1.1301 28.3633 1.4443 28.3306 1.68812 28.2651C2.07269 28.1623 2.64578 27.959 2.64578 27.5196V0.70288C2.64578 0.550963 2.33159 0.466825 2.22853 0.448128C1.97466 0.403722 1.66047 0.436443 1.41665 0.501884C1.03208 0.604719 0.458984 0.808053 0.458984 1.24744Z" fill="#E0A619"/>
<path d="M44.082 1.36463V28.1813C44.082 28.3332 44.3962 28.4174 44.4993 28.4361C44.7531 28.4805 45.0673 28.4478 45.3112 28.3823C45.6957 28.2795 46.2688 28.0761 46.2688 27.6368C46.2688 22.8082 46.2688 17.9772 46.2688 13.1486V0.820067C46.2688 0.668151 45.9546 0.584013 45.8516 0.565315C45.5977 0.520909 45.2835 0.55363 45.0397 0.619071C44.6551 0.721907 44.082 0.92524 44.082 1.36463Z" fill="#E0A619"/>
<path d="M45.6084 27.3626C44.6331 27.3579 43.6604 27.3556 42.6851 27.3509C40.169 27.3415 37.6555 27.3322 35.1394 27.3228C31.7084 27.3112 28.2749 27.2995 24.8439 27.2901C21.0785 27.2784 17.3107 27.2691 13.5454 27.2621C10.0666 27.2551 6.58787 27.248 3.1091 27.248C2.73458 27.248 2.36006 27.248 1.98554 27.248C1.50545 27.248 0.831813 27.4 0.54024 27.7903C0.248667 28.1806 0.791596 28.3395 1.11836 28.3395C4.51921 28.3395 7.92257 28.3442 11.3234 28.3512C15.0887 28.3582 18.8515 28.3676 22.6168 28.3792C26.1207 28.3886 29.6246 28.4003 33.1285 28.412C35.7904 28.4213 38.4523 28.4307 41.1116 28.44C42.3056 28.4447 43.502 28.4657 44.6934 28.454C44.7085 28.454 44.7261 28.454 44.7412 28.454C45.2213 28.454 45.8949 28.2998 46.1865 27.9118C46.4781 27.5238 45.9351 27.3649 45.6084 27.3626Z" fill="#E0A619"/>
<path d="M45.6084 0.487569C44.6331 0.482894 43.6604 0.480557 42.6851 0.475883C40.169 0.466534 37.6555 0.457185 35.1394 0.447836C31.7084 0.43615 28.2749 0.424465 24.8439 0.415116C21.0785 0.40343 17.3107 0.394082 13.5454 0.38707C10.0666 0.380059 6.58787 0.373047 3.1091 0.373047C2.73458 0.373047 2.36006 0.373047 1.98554 0.373047C1.50545 0.373047 0.831813 0.524963 0.54024 0.91527C0.248667 1.30558 0.791596 1.46451 1.11836 1.46451C4.51921 1.46451 7.92257 1.46918 11.3234 1.47619C15.0887 1.4832 18.8515 1.49255 22.6168 1.50424C26.1207 1.51359 29.6246 1.52527 33.1285 1.53696C35.7904 1.54631 38.4523 1.55566 41.1116 1.565C42.3056 1.56968 43.502 1.59071 44.6934 1.57903C44.7085 1.57903 44.7261 1.57903 44.7412 1.57903C45.2213 1.57903 45.8949 1.42477 46.1865 1.0368C46.4781 0.648833 45.9351 0.489906 45.6084 0.487569Z" fill="#E0A619"/>
<path d="M23.5184 16.3952C22.7467 15.4323 21.8016 14.5676 20.8867 13.7285C17.9911 11.0688 14.8189 8.6709 11.5664 6.40384C8.64312 4.36583 5.63188 2.43767 2.56785 0.588966C2.1506 0.336552 1.56745 0.413678 1.12758 0.59364C0.966711 0.659081 0.119641 1.11483 0.531865 1.36491C5.41571 4.31208 10.1839 7.4509 14.6329 10.9473C16.7644 12.6231 18.8557 14.3759 20.7107 16.3181C20.9746 16.5962 21.2436 16.8744 21.4799 17.1712C21.5854 17.3044 21.9172 17.3278 22.063 17.3278C22.3395 17.3301 22.6663 17.2693 22.9176 17.1665C23.2067 17.0473 23.7999 16.7528 23.5133 16.3952H23.5184Z" fill="#E0A619"/>
<path d="M23.3677 16.9254C24.3756 16.0092 25.4665 15.1655 26.5498 14.3265C29.8376 11.7789 33.266 9.39036 36.7524 7.08591C39.6957 5.13905 42.7371 3.23426 45.8414 1.36218C46.1129 1.19858 46.515 0.819961 46.0475 0.618965C45.6101 0.429654 44.8887 0.588581 44.5042 0.822298C39.4469 3.8723 34.4726 7.05553 29.6767 10.4514C27.2637 12.1599 24.8833 13.9175 22.6211 15.7942C22.2868 16.0723 21.95 16.3505 21.6308 16.6426C21.5202 16.7431 21.3593 16.8903 21.4071 17.0563C21.4548 17.2222 21.676 17.2853 21.8243 17.311C22.2944 17.3928 23.0158 17.2479 23.3702 16.9254H23.3677Z" fill="#E0A619"/>
<path d="M45.4667 27.0888C44.9363 26.6587 44.4211 26.2076 43.9033 25.7636C41.4902 23.6975 39.0948 21.6151 36.6994 19.5327C34.0401 17.2189 31.3832 14.9004 28.7314 12.5796C28.3871 12.2781 27.6732 12.43 27.2911 12.5843C27.0674 12.6754 26.341 13.0447 26.6954 13.3555C30.702 16.8613 34.7137 20.3624 38.7404 23.8471C40.1606 25.0765 41.5807 26.3081 43.0185 27.5211C43.1542 27.6357 43.29 27.7502 43.4282 27.8647C43.7876 28.1568 44.4764 28.019 44.8685 27.86C45.0796 27.7735 45.8312 27.3879 45.4642 27.0888H45.4667Z" fill="#E0A619"/>
<path d="M3.29934 27.278C3.74927 26.9484 4.15646 26.5534 4.5712 26.1865C6.80073 24.2279 8.99255 22.232 11.1844 20.2361C13.7331 17.9152 16.2743 15.5874 18.813 13.2573C18.9236 13.1568 19.0845 13.0119 19.0367 12.8436C18.989 12.6753 18.7678 12.6145 18.6195 12.5888C18.152 12.507 17.4255 12.6519 17.0736 12.9745C13.2581 16.4802 9.43745 19.9836 5.58165 23.452C4.35001 24.5598 3.1259 25.6747 1.85907 26.7474C1.76104 26.8292 1.66552 26.918 1.55995 26.9928C1.44433 27.077 1.291 27.2522 1.33625 27.4065C1.38149 27.5608 1.6052 27.6355 1.7535 27.6612C2.26878 27.7524 2.89214 27.5724 3.29934 27.2756V27.278Z" fill="#E0A619"/>
</svg>
