<svg width="523" height="94" viewBox="0 0 523 94" fill="none" xmlns="http://www.w3.org/2000/svg">
<path d="M490.577 2.51926C351.228 1.73199 218.559 1.10212 79.2108 0.31485C58.3341 0.31485 20.2949 0.472305 -0.581781 0.31485C-0.581781 0.31485 -0.582648 23 -0.581559 39.8358C-0.581559 54 -0.581559 90 -0.581559 90C135.949 90.7873 298.48 92.8978 435.011 93.6851C458.577 93.6851 482.144 93.9999 505.71 94C506.154 94 523 94 523 54.1642C523 2.51926 508.968 2.51926 497 2.51926H490.577Z" fill="#EDC35A"/>
<path d="M33.0439 33.312C36.4999 33.312 38.2759 34.944 38.2759 37.8C38.2759 40.272 37.0999 41.88 34.5319 44.688L31.6999 47.808V47.88H38.5399V51H27.4519V47.976L31.1719 43.632C33.3319 41.088 34.6279 39.768 34.6279 37.992C34.6279 36.84 34.0039 36.168 32.6839 36.168C31.1479 36.168 30.5479 37.104 30.3079 38.736L27.0439 38.184C27.4519 34.752 29.8279 33.312 33.0439 33.312ZM47.2997 51.288C42.5237 51.288 41.1077 48.024 41.1077 42.264C41.1077 36.528 42.7637 33.312 47.5398 33.312C52.3637 33.312 53.6597 36.552 53.6597 42.072C53.6597 48.048 52.0998 51.288 47.2997 51.288ZM47.3957 48.456C49.3397 48.456 49.8198 46.656 49.8198 42.216C49.8198 37.896 49.4358 36.168 47.4918 36.168C45.5237 36.168 44.9717 37.872 44.9717 42.288C44.9717 46.608 45.4037 48.456 47.3957 48.456ZM59.9948 37.944C59.1788 38.376 57.0668 38.688 56.2748 38.688L56.1068 35.616C58.2428 35.448 59.9708 34.872 61.1228 33.624H63.5948V51H59.9948V37.944ZM76.756 41.544C79.084 42.6 80.092 43.848 80.092 46.248C80.092 49.008 77.62 51.288 73.54 51.288C69.316 51.288 67.444 49.176 67.444 46.752C67.444 44.64 68.452 43.152 70.78 42.096C68.836 41.16 68.116 39.72 68.116 38.088C68.116 35.088 70.516 33.312 74.068 33.312C77.692 33.312 79.636 34.944 79.636 37.368C79.636 39.336 78.556 40.464 76.756 41.544ZM73.036 43.44C71.908 44.088 70.996 44.88 70.996 46.368C70.996 47.664 71.74 48.528 73.612 48.528C75.364 48.528 76.228 47.568 76.228 46.392C76.228 44.736 74.668 44.064 73.036 43.44ZM74.332 40.32C75.436 39.648 76.156 38.712 76.156 37.656C76.156 36.528 75.508 35.928 73.996 35.928C72.724 35.928 71.86 36.528 71.86 37.584C71.86 38.856 72.772 39.552 74.332 40.32Z" fill="#FBF5EB"/>
<path d="M295.53 59V54.14H285.81V50.93L294.42 37.28H299.94V50.48H302.37V54.14H299.91V59H295.53ZM295.53 50.48V41.42L289.8 50.48H295.53ZM316.25 43.04C315.92 41 315.11 40.4 313.7 40.4C311 40.4 309.89 44 309.86 47.3C310.88 46.4 312.56 45.65 314.54 45.65C317.99 45.65 320.39 47.72 320.39 51.92C320.39 57.02 317.18 59.36 313.01 59.36C307.01 59.36 305.51 54.65 305.51 48.68C305.51 43.61 307.13 36.89 314.06 36.89C317 36.89 319.46 38.03 320.27 41.93L316.25 43.04ZM310.1 50.39C310.19 53.27 310.61 55.91 313.13 55.91C314.93 55.91 315.8 54.47 315.8 52.25C315.8 50.09 315.11 49.04 313.25 49.04C312.17 49.04 310.88 49.7 310.1 50.39ZM333.174 59V54.14H323.454V50.93L332.064 37.28H337.584V50.48H340.014V54.14H337.554V59H333.174ZM333.174 50.48V41.42L327.444 50.48H333.174ZM348.315 56.72C348.315 58.43 347.385 59.36 345.525 59.36C343.635 59.36 342.735 58.49 342.735 56.72C342.735 54.98 343.635 54.05 345.525 54.05C347.385 54.05 348.315 54.98 348.315 56.72ZM355.124 53C355.364 54.83 356.144 55.85 358.184 55.85C359.894 55.85 361.244 54.86 361.244 52.61C361.244 50.3 360.014 49.49 357.734 49.49H355.604V46.07H357.014C359.564 46.07 360.944 44.78 360.944 42.77C360.944 41.33 360.344 40.37 358.484 40.37C356.624 40.37 355.874 41.33 355.484 43.07L351.584 42.29C352.364 38.21 355.514 36.89 358.904 36.89C363.074 36.89 365.414 38.84 365.414 42.17C365.414 45.02 363.314 46.64 361.334 47.3V47.42C364.214 48.08 365.864 49.7 365.864 52.85C365.864 56.87 362.864 59.36 358.184 59.36C354.764 59.36 351.554 57.92 351.074 53.75L355.124 53ZM376.984 59.36C371.014 59.36 369.244 55.28 369.244 48.08C369.244 40.91 371.314 36.89 377.284 36.89C383.314 36.89 384.934 40.94 384.934 47.84C384.934 55.31 382.984 59.36 376.984 59.36ZM377.104 55.82C379.534 55.82 380.134 53.57 380.134 48.02C380.134 42.62 379.654 40.46 377.224 40.46C374.764 40.46 374.074 42.59 374.074 48.11C374.074 53.51 374.614 55.82 377.104 55.82ZM395.733 59.36C389.763 59.36 387.993 55.28 387.993 48.08C387.993 40.91 390.063 36.89 396.033 36.89C402.063 36.89 403.683 40.94 403.683 47.84C403.683 55.31 401.733 59.36 395.733 59.36ZM395.853 55.82C398.283 55.82 398.883 53.57 398.883 48.02C398.883 42.62 398.403 40.46 395.973 40.46C393.513 40.46 392.823 42.59 392.823 48.11C392.823 53.51 393.363 55.82 395.853 55.82ZM419.611 48.83L424.771 43.37H429.781L424.591 48.98L430.171 59H425.161L421.111 51.86L419.611 53.33V59H415.081V36.35H419.611V48.83ZM443.055 47.48C441.015 47.3 439.005 47.84 437.685 48.89V59H433.155V43.37H437.025L437.355 45.83C438.405 44.3 439.875 43.04 442.275 43.04C442.515 43.04 442.785 43.04 443.055 43.07V47.48ZM448.883 56.72C448.883 58.43 447.953 59.36 446.093 59.36C444.203 59.36 443.302 58.49 443.302 56.72C443.302 54.98 444.203 54.05 446.093 54.05C447.953 54.05 448.883 54.98 448.883 56.72Z" fill="#FBF5EB"/>
</svg>
