<svg width="860" height="94" viewBox="0 0 860 94" fill="none" xmlns="http://www.w3.org/2000/svg">
<path d="M804.86 2.51926C567.884 1.73199 342.268 1.10212 105.292 0.31485C69.789 0.31485 34.5038 0.157455 -0.999035 0C-0.999035 0 -0.99982 25.5 -1 41.5C-1 57.5 -0.999035 91 -0.999035 91C231.185 91.7873 478.181 92.8978 710.365 93.6851C750.442 93.6851 790.519 93.9999 830.596 94C831.351 94 860 94 860 54.1642C860 2.51926 836.137 2.51926 815.785 2.51926L804.86 2.51926Z" fill="#EBBC47"/>
<path d="M30.9502 34.312C34.4062 34.312 36.1822 35.944 36.1822 38.8C36.1822 41.272 35.0062 42.88 32.4382 45.688L29.6062 48.808V48.88H36.4462V52H25.3582V48.976L29.0782 44.632C31.2382 42.088 32.5342 40.768 32.5342 38.992C32.5342 37.84 31.9102 37.168 30.5902 37.168C29.0542 37.168 28.4542 38.104 28.2142 39.736L24.9502 39.184C25.3582 35.752 27.7342 34.312 30.9502 34.312ZM45.206 52.288C40.43 52.288 39.014 49.024 39.014 43.264C39.014 37.528 40.67 34.312 45.446 34.312C50.27 34.312 51.566 37.552 51.566 43.072C51.566 49.048 50.006 52.288 45.206 52.288ZM45.302 49.456C47.246 49.456 47.726 47.656 47.726 43.216C47.726 38.896 47.342 37.168 45.398 37.168C43.43 37.168 42.878 38.872 42.878 43.288C42.878 47.608 43.31 49.456 45.302 49.456ZM57.9011 38.944C57.0851 39.376 54.9731 39.688 54.1811 39.688L54.0131 36.616C56.1491 36.448 57.8771 35.872 59.0291 34.624H61.5011V52H57.9011V38.944ZM68.8063 47.2C69.0943 48.808 69.7663 49.528 71.0863 49.528C73.1983 49.528 74.1343 46.984 74.1823 44.032C73.3663 44.752 71.9983 45.28 70.4143 45.28C67.6543 45.28 65.7343 43.648 65.7343 40.192C65.7343 36.184 68.3983 34.312 71.7583 34.312C76.4143 34.312 77.6383 38.08 77.6383 42.856C77.6383 47.104 76.6063 52.288 70.9903 52.288C68.3743 52.288 66.1663 51.352 65.5903 48.16L68.8063 47.2ZM73.9663 41.56C73.8703 39.064 73.5583 37.096 71.5423 37.096C70.1023 37.096 69.4063 38.176 69.4063 39.976C69.4063 41.704 70.0063 42.64 71.4703 42.64C72.3343 42.64 73.2703 42.208 73.9663 41.56Z" fill="#FBF5EB"/>
<path d="M591.1 60.03L599.47 42.18H589.93V38.28H604.18V41.76L595.9 60.03H591.1ZM614.06 60V55.14H604.34V51.93L612.95 38.28H618.47V51.48H620.9V55.14H618.44V60H614.06ZM614.06 51.48V42.42L608.33 51.48H614.06ZM634.9 48.18C637.81 49.5 639.07 51.06 639.07 54.06C639.07 57.51 635.98 60.36 630.88 60.36C625.6 60.36 623.26 57.72 623.26 54.69C623.26 52.05 624.52 50.19 627.43 48.87C625 47.7 624.1 45.9 624.1 43.86C624.1 40.11 627.1 37.89 631.54 37.89C636.07 37.89 638.5 39.93 638.5 42.96C638.5 45.42 637.15 46.83 634.9 48.18ZM630.25 50.55C628.84 51.36 627.7 52.35 627.7 54.21C627.7 55.83 628.63 56.91 630.97 56.91C633.16 56.91 634.24 55.71 634.24 54.24C634.24 52.17 632.29 51.33 630.25 50.55ZM631.87 46.65C633.25 45.81 634.15 44.64 634.15 43.32C634.15 41.91 633.34 41.16 631.45 41.16C629.86 41.16 628.78 41.91 628.78 43.23C628.78 44.82 629.92 45.69 631.87 46.65ZM647.481 57.72C647.481 59.43 646.551 60.36 644.691 60.36C642.801 60.36 641.901 59.49 641.901 57.72C641.901 55.98 642.801 55.05 644.691 55.05C646.551 55.05 647.481 55.98 647.481 57.72ZM661.91 48.18C664.82 49.5 666.08 51.06 666.08 54.06C666.08 57.51 662.99 60.36 657.89 60.36C652.61 60.36 650.27 57.72 650.27 54.69C650.27 52.05 651.53 50.19 654.44 48.87C652.01 47.7 651.11 45.9 651.11 43.86C651.11 40.11 654.11 37.89 658.55 37.89C663.08 37.89 665.51 39.93 665.51 42.96C665.51 45.42 664.16 46.83 661.91 48.18ZM657.26 50.55C655.85 51.36 654.71 52.35 654.71 54.21C654.71 55.83 655.64 56.91 657.98 56.91C660.17 56.91 661.25 55.71 661.25 54.24C661.25 52.17 659.3 51.33 657.26 50.55ZM658.88 46.65C660.26 45.81 661.16 44.64 661.16 43.32C661.16 41.91 660.35 41.16 658.46 41.16C656.87 41.16 655.79 41.91 655.79 43.23C655.79 44.82 656.93 45.69 658.88 46.65ZM680.07 44.04C679.74 42 678.93 41.4 677.52 41.4C674.82 41.4 673.71 45 673.68 48.3C674.7 47.4 676.38 46.65 678.36 46.65C681.81 46.65 684.21 48.72 684.21 52.92C684.21 58.02 681 60.36 676.83 60.36C670.83 60.36 669.33 55.65 669.33 49.68C669.33 44.61 670.95 37.89 677.88 37.89C680.82 37.89 683.28 39.03 684.09 42.93L680.07 44.04ZM673.92 51.39C674.01 54.27 674.43 56.91 676.95 56.91C678.75 56.91 679.62 55.47 679.62 53.25C679.62 51.09 678.93 50.04 677.07 50.04C675.99 50.04 674.7 50.7 673.92 51.39ZM698.614 44.04C698.284 42 697.474 41.4 696.064 41.4C693.364 41.4 692.254 45 692.224 48.3C693.244 47.4 694.924 46.65 696.904 46.65C700.354 46.65 702.754 48.72 702.754 52.92C702.754 58.02 699.544 60.36 695.374 60.36C689.374 60.36 687.874 55.65 687.874 49.68C687.874 44.61 689.494 37.89 696.424 37.89C699.364 37.89 701.824 39.03 702.634 42.93L698.614 44.04ZM692.464 51.39C692.554 54.27 692.974 56.91 695.494 56.91C697.294 56.91 698.164 55.47 698.164 53.25C698.164 51.09 697.474 50.04 695.614 50.04C694.534 50.04 693.244 50.7 692.464 51.39ZM706.687 56.04H711.427L708.487 64.11L704.797 63.75L706.687 56.04ZM716.262 38.28H727.692V42.18H719.562L719.052 47.61C719.982 46.8 721.272 46.17 723.192 46.17C726.402 46.17 728.952 48.06 728.952 52.8C728.952 57.54 725.892 60.36 721.182 60.36C717.702 60.36 714.642 58.95 714.102 54.78L718.032 53.97C718.272 55.68 719.142 56.79 721.182 56.79C722.922 56.79 724.452 55.65 724.452 52.98C724.452 50.31 723.042 49.65 721.572 49.65C720.282 49.65 719.202 50.31 718.392 51.09L715.452 49.86L716.262 38.28ZM740.189 60.36C734.219 60.36 732.449 56.28 732.449 49.08C732.449 41.91 734.519 37.89 740.489 37.89C746.519 37.89 748.139 41.94 748.139 48.84C748.139 56.31 746.189 60.36 740.189 60.36ZM740.309 56.82C742.739 56.82 743.339 54.57 743.339 49.02C743.339 43.62 742.859 41.46 740.429 41.46C737.969 41.46 737.279 43.59 737.279 49.11C737.279 54.51 737.819 56.82 740.309 56.82ZM764.066 49.83L769.226 44.37H774.236L769.046 49.98L774.626 60H769.616L765.566 52.86L764.066 54.33V60H759.536V37.35H764.066V49.83ZM787.51 48.48C785.47 48.3 783.46 48.84 782.14 49.89V60H777.61V44.37H781.48L781.81 46.83C782.86 45.3 784.33 44.04 786.73 44.04C786.97 44.04 787.24 44.04 787.51 44.07V48.48ZM793.338 57.72C793.338 59.43 792.408 60.36 790.548 60.36C788.658 60.36 787.758 59.49 787.758 57.72C787.758 55.98 788.658 55.05 790.548 55.05C792.408 55.05 793.338 55.98 793.338 57.72Z" fill="#FBF5EB"/>
</svg>
