<svg width="1170" height="94" viewBox="0 0 1170 94" fill="none" xmlns="http://www.w3.org/2000/svg">
<path d="M1094.08 2.51926C767.777 1.73199 457.12 1.10212 130.821 0.31485C81.9357 0.31485 48.8849 0.472305 5.63502e-05 0.31485C5.63502e-05 0.31485 -9.02932e-07 28.6642 0.000125885 46.5C0.000125885 61.1642 5.63502e-05 91.5 5.63502e-05 91.5C319.701 92.2873 644.262 92.8978 963.963 93.6851C1019.15 93.6851 1074.33 93.9999 1129.51 94C1130.55 94 1170 94 1170 54.1642C1170 2.51926 1137.14 2.51926 1109.12 2.51926H1094.08Z" fill="#E9B635"/>
<path d="M911.79 43.68C910.77 44.22 908.13 44.61 907.14 44.61L906.93 40.77C909.6 40.56 911.76 39.84 913.2 38.28H916.29V60H911.79V43.68ZM927.041 57.72C927.041 59.43 926.111 60.36 924.251 60.36C922.361 60.36 921.461 59.49 921.461 57.72C921.461 55.98 922.361 55.05 924.251 55.05C926.111 55.05 927.041 55.98 927.041 57.72ZM937.871 60.36C931.901 60.36 930.131 56.28 930.131 49.08C930.131 41.91 932.201 37.89 938.171 37.89C944.201 37.89 945.821 41.94 945.821 48.84C945.821 56.31 943.871 60.36 937.871 60.36ZM937.991 56.82C940.421 56.82 941.021 54.57 941.021 49.02C941.021 43.62 940.541 41.46 938.111 41.46C935.651 41.46 934.961 43.59 934.961 49.11C934.961 54.51 935.501 56.82 937.991 56.82ZM956.26 37.89C960.58 37.89 962.8 39.93 962.8 43.5C962.8 46.59 961.33 48.6 958.12 52.11L954.58 56.01V56.1H963.13V60H949.27V56.22L953.92 50.79C956.62 47.61 958.24 45.96 958.24 43.74C958.24 42.3 957.46 41.46 955.81 41.46C953.89 41.46 953.14 42.63 952.84 44.67L948.76 43.98C949.27 39.69 952.24 37.89 956.26 37.89ZM971.199 43.68C970.179 44.22 967.539 44.61 966.549 44.61L966.339 40.77C969.009 40.56 971.169 39.84 972.609 38.28H975.699V60H971.199V43.68ZM986.451 57.72C986.451 59.43 985.521 60.36 983.661 60.36C981.771 60.36 980.871 59.49 980.871 57.72C980.871 55.98 981.771 55.05 983.661 55.05C985.521 55.05 986.451 55.98 986.451 57.72ZM1000.76 44.04C1000.43 42 999.62 41.4 998.21 41.4C995.51 41.4 994.4 45 994.37 48.3C995.39 47.4 997.07 46.65 999.05 46.65C1002.5 46.65 1004.9 48.72 1004.9 52.92C1004.9 58.02 1001.69 60.36 997.52 60.36C991.52 60.36 990.02 55.65 990.02 49.68C990.02 44.61 991.64 37.89 998.57 37.89C1001.51 37.89 1003.97 39.03 1004.78 42.93L1000.76 44.04ZM994.61 51.39C994.7 54.27 995.12 56.91 997.64 56.91C999.44 56.91 1000.31 55.47 1000.31 53.25C1000.31 51.09 999.62 50.04 997.76 50.04C996.68 50.04 995.39 50.7 994.61 51.39ZM1015.82 60.36C1009.85 60.36 1008.08 56.28 1008.08 49.08C1008.08 41.91 1010.15 37.89 1016.12 37.89C1022.15 37.89 1023.77 41.94 1023.77 48.84C1023.77 56.31 1021.82 60.36 1015.82 60.36ZM1015.94 56.82C1018.37 56.82 1018.97 54.57 1018.97 49.02C1018.97 43.62 1018.49 41.46 1016.06 41.46C1013.6 41.46 1012.91 43.59 1012.91 49.11C1012.91 54.51 1013.45 56.82 1015.94 56.82ZM1034.57 60.36C1028.6 60.36 1026.83 56.28 1026.83 49.08C1026.83 41.91 1028.9 37.89 1034.87 37.89C1040.9 37.89 1042.52 41.94 1042.52 48.84C1042.52 56.31 1040.57 60.36 1034.57 60.36ZM1034.69 56.82C1037.12 56.82 1037.72 54.57 1037.72 49.02C1037.72 43.62 1037.24 41.46 1034.81 41.46C1032.35 41.46 1031.66 43.59 1031.66 49.11C1031.66 54.51 1032.2 56.82 1034.69 56.82ZM1058.45 49.83L1063.61 44.37H1068.62L1063.43 49.98L1069.01 60H1064L1059.95 52.86L1058.45 54.33V60H1053.92V37.35H1058.45V49.83ZM1081.89 48.48C1079.85 48.3 1077.84 48.84 1076.52 49.89V60H1071.99V44.37H1075.86L1076.19 46.83C1077.24 45.3 1078.71 44.04 1081.11 44.04C1081.35 44.04 1081.62 44.04 1081.89 44.07V48.48ZM1087.72 57.72C1087.72 59.43 1086.79 60.36 1084.93 60.36C1083.04 60.36 1082.14 59.49 1082.14 57.72C1082.14 55.98 1083.04 55.05 1084.93 55.05C1086.79 55.05 1087.72 55.98 1087.72 57.72Z" fill="#FBF5EB"/>
<path d="M28.6767 35.312C32.1328 35.312 33.9088 36.944 33.9088 39.8C33.9088 42.272 32.7327 43.88 30.1647 46.688L27.3327 49.808V49.88H34.1728V53H23.0847V49.976L26.8047 45.632C28.9647 43.088 30.2608 41.768 30.2608 39.992C30.2608 38.84 29.6367 38.168 28.3168 38.168C26.7807 38.168 26.1807 39.104 25.9407 40.736L22.6767 40.184C23.0847 36.752 25.4607 35.312 28.6767 35.312ZM42.9326 53.288C38.1566 53.288 36.7406 50.024 36.7406 44.264C36.7406 38.528 38.3966 35.312 43.1726 35.312C47.9966 35.312 49.2926 38.552 49.2926 44.072C49.2926 50.048 47.7326 53.288 42.9326 53.288ZM43.0286 50.456C44.9726 50.456 45.4526 48.656 45.4526 44.216C45.4526 39.896 45.0686 38.168 43.1246 38.168C41.1566 38.168 40.6046 39.872 40.6046 44.288C40.6046 48.608 41.0366 50.456 43.0286 50.456ZM57.6436 35.312C61.0996 35.312 62.8756 36.944 62.8756 39.8C62.8756 42.272 61.6996 43.88 59.1316 46.688L56.2996 49.808V49.88H63.1396V53H52.0516V49.976L55.7716 45.632C57.9316 43.088 59.2276 41.768 59.2276 39.992C59.2276 38.84 58.6036 38.168 57.2836 38.168C55.7476 38.168 55.1476 39.104 54.9076 40.736L51.6436 40.184C52.0516 36.752 54.4276 35.312 57.6436 35.312ZM71.6114 35.312C75.0674 35.312 76.8434 36.944 76.8434 39.8C76.8434 42.272 75.6674 43.88 73.0994 46.688L70.2674 49.808V49.88H77.1074V53H66.0194V49.976L69.7394 45.632C71.8994 43.088 73.1954 41.768 73.1954 39.992C73.1954 38.84 72.5714 38.168 71.2514 38.168C69.7154 38.168 69.1154 39.104 68.8754 40.736L65.6114 40.184C66.0194 36.752 68.3954 35.312 71.6114 35.312Z" fill="#FBF5EB"/>
</svg>
