<svg width="383" height="94" viewBox="0 0 383 94" fill="none" xmlns="http://www.w3.org/2000/svg">
<path d="M350.158 2.20432C210.81 1.41705 190.848 0.787178 51.4998 -9.15527e-05C30.6231 -9.15527e-05 20.8769 0.157364 0.000234124 -9.15527e-05C0.000234124 -9.15527e-05 -0.000487074 32.1642 0.000602095 49C0.000602095 63.1642 0.000234124 92 0.000234124 92C136.531 92.7873 158.062 92.5829 294.593 93.3701C318.159 93.3701 341.725 93.6849 365.292 93.6851C365.736 93.6851 382.582 93.6851 382.582 53.8492C382.582 2.20432 368.55 2.20432 356.582 2.20432H350.158Z" fill="#EFCA6C"/>
<path d="M32.9346 34.312C36.3906 34.312 38.1666 35.944 38.1666 38.8C38.1666 41.272 36.9906 42.88 34.4226 45.688L31.5906 48.808V48.88H38.4306V52H27.3426V48.976L31.0626 44.632C33.2226 42.088 34.5186 40.768 34.5186 38.992C34.5186 37.84 33.8946 37.168 32.5746 37.168C31.0386 37.168 30.4386 38.104 30.1986 39.736L26.9346 39.184C27.3426 35.752 29.7186 34.312 32.9346 34.312ZM47.1904 52.288C42.4144 52.288 40.9984 49.024 40.9984 43.264C40.9984 37.528 42.6544 34.312 47.4304 34.312C52.2544 34.312 53.5504 37.552 53.5504 43.072C53.5504 49.048 51.9904 52.288 47.1904 52.288ZM47.2864 49.456C49.2304 49.456 49.7104 47.656 49.7104 43.216C49.7104 38.896 49.3264 37.168 47.3824 37.168C45.4144 37.168 44.8624 38.872 44.8624 43.288C44.8624 47.608 45.2944 49.456 47.2864 49.456ZM59.8854 38.944C59.0694 39.376 56.9574 39.688 56.1654 39.688L55.9974 36.616C58.1334 36.448 59.8614 35.872 61.0134 34.624H63.4854V52H59.8854V38.944ZM67.6434 52.024L74.3394 37.744H66.7074V34.624H78.1074V37.408L71.4834 52.024H67.6434Z" fill="#FBF5EB"/>
<path d="M174.65 51C174.89 52.83 175.67 53.85 177.71 53.85C179.42 53.85 180.77 52.86 180.77 50.61C180.77 48.3 179.54 47.49 177.26 47.49H175.13V44.07H176.54C179.09 44.07 180.47 42.78 180.47 40.77C180.47 39.33 179.87 38.37 178.01 38.37C176.15 38.37 175.4 39.33 175.01 41.07L171.11 40.29C171.89 36.21 175.04 34.89 178.43 34.89C182.6 34.89 184.94 36.84 184.94 40.17C184.94 43.02 182.84 44.64 180.86 45.3V45.42C183.74 46.08 185.39 47.7 185.39 50.85C185.39 54.87 182.39 57.36 177.71 57.36C174.29 57.36 171.08 55.92 170.6 51.75L174.65 51ZM190.571 35.28H202.001V39.18H193.871L193.361 44.61C194.291 43.8 195.581 43.17 197.501 43.17C200.711 43.17 203.261 45.06 203.261 49.8C203.261 54.54 200.201 57.36 195.491 57.36C192.011 57.36 188.951 55.95 188.411 51.78L192.341 50.97C192.581 52.68 193.451 53.79 195.491 53.79C197.231 53.79 198.761 52.65 198.761 49.98C198.761 47.31 197.351 46.65 195.881 46.65C194.591 46.65 193.511 47.31 192.701 48.09L189.761 46.86L190.571 35.28ZM217.655 41.04C217.325 39 216.515 38.4 215.105 38.4C212.405 38.4 211.295 42 211.265 45.3C212.285 44.4 213.965 43.65 215.945 43.65C219.395 43.65 221.795 45.72 221.795 49.92C221.795 55.02 218.585 57.36 214.415 57.36C208.415 57.36 206.915 52.65 206.915 46.68C206.915 41.61 208.535 34.89 215.465 34.89C218.405 34.89 220.865 36.03 221.675 39.93L217.655 41.04ZM211.505 48.39C211.595 51.27 212.015 53.91 214.535 53.91C216.335 53.91 217.205 52.47 217.205 50.25C217.205 48.09 216.515 47.04 214.655 47.04C213.575 47.04 212.285 47.7 211.505 48.39ZM230.619 54.72C230.619 56.43 229.689 57.36 227.829 57.36C225.939 57.36 225.039 56.49 225.039 54.72C225.039 52.98 225.939 52.05 227.829 52.05C229.689 52.05 230.619 52.98 230.619 54.72ZM235.756 40.68C234.736 41.22 232.096 41.61 231.106 41.61L230.896 37.77C233.566 37.56 235.726 36.84 237.166 35.28H240.256V57H235.756V40.68ZM245.454 57.03L253.824 39.18H244.284V35.28H258.534V38.76L250.254 57.03H245.454ZM264.943 51C265.303 53.01 266.143 53.91 267.793 53.91C270.433 53.91 271.603 50.73 271.663 47.04C270.643 47.94 268.933 48.6 266.953 48.6C263.503 48.6 261.103 46.56 261.103 42.24C261.103 37.23 264.433 34.89 268.633 34.89C274.453 34.89 275.983 39.6 275.983 45.57C275.983 50.88 274.693 57.36 267.673 57.36C264.403 57.36 261.643 56.19 260.923 52.2L264.943 51ZM271.393 43.95C271.273 40.83 270.883 38.37 268.363 38.37C266.563 38.37 265.693 39.72 265.693 41.97C265.693 44.13 266.443 45.3 268.273 45.3C269.353 45.3 270.523 44.76 271.393 43.95ZM292.306 46.83L297.466 41.37H302.476L297.286 46.98L302.866 57H297.856L293.806 49.86L292.306 51.33V57H287.776V34.35H292.306V46.83ZM315.75 45.48C313.71 45.3 311.7 45.84 310.38 46.89V57H305.85V41.37H309.72L310.05 43.83C311.1 42.3 312.57 41.04 314.97 41.04C315.21 41.04 315.48 41.04 315.75 41.07V45.48ZM321.578 54.72C321.578 56.43 320.648 57.36 318.788 57.36C316.898 57.36 315.998 56.49 315.998 54.72C315.998 52.98 316.898 52.05 318.788 52.05C320.648 52.05 321.578 52.98 321.578 54.72Z" fill="#FBF5EB"/>
</svg>
