<svg width="941" height="81" viewBox="0 0 941 81" fill="none" xmlns="http://www.w3.org/2000/svg">
<path d="M878.5 2.17085C613.311 1.49246 360.834 0.949699 95.6452 0.271309C55.9156 0.271309 39.7291 0.40699 -0.000457764 0.271309C-0.000457764 0.271309 -0.00042946 25.6734 -0.00195312 41C-0.00195312 53.1734 -0.000457764 79 -0.000457764 79C259.826 79.6784 512.928 80.0502 772.755 80.7286C817.603 80.7286 862.451 80.9999 907.299 81C908.144 81 940.204 81 940.204 46.6734C940.204 2.17085 913.5 2.17085 890.724 2.17085H878.5Z" fill="#E0A619"/>
<path d="M712.27 41.18C715.18 42.5 716.44 44.06 716.44 47.06C716.44 50.51 713.35 53.36 708.25 53.36C702.97 53.36 700.63 50.72 700.63 47.69C700.63 45.05 701.89 43.19 704.8 41.87C702.37 40.7 701.47 38.9 701.47 36.86C701.47 33.11 704.47 30.89 708.91 30.89C713.44 30.89 715.87 32.93 715.87 35.96C715.87 38.42 714.52 39.83 712.27 41.18ZM707.62 43.55C706.21 44.36 705.07 45.35 705.07 47.21C705.07 48.83 706 49.91 708.34 49.91C710.53 49.91 711.61 48.71 711.61 47.24C711.61 45.17 709.66 44.33 707.62 43.55ZM709.24 39.65C710.62 38.81 711.52 37.64 711.52 36.32C711.52 34.91 710.71 34.16 708.82 34.16C707.23 34.16 706.15 34.91 706.15 36.23C706.15 37.82 707.29 38.69 709.24 39.65ZM724.07 36.68C723.05 37.22 720.41 37.61 719.42 37.61L719.21 33.77C721.88 33.56 724.04 32.84 725.48 31.28H728.57V53H724.07V36.68ZM737.402 47C737.642 48.83 738.422 49.85 740.462 49.85C742.172 49.85 743.522 48.86 743.522 46.61C743.522 44.3 742.292 43.49 740.012 43.49H737.882V40.07H739.292C741.842 40.07 743.222 38.78 743.222 36.77C743.222 35.33 742.622 34.37 740.762 34.37C738.902 34.37 738.152 35.33 737.762 37.07L733.862 36.29C734.642 32.21 737.792 30.89 741.182 30.89C745.352 30.89 747.692 32.84 747.692 36.17C747.692 39.02 745.592 40.64 743.612 41.3V41.42C746.492 42.08 748.142 43.7 748.142 46.85C748.142 50.87 745.142 53.36 740.462 53.36C737.042 53.36 733.832 51.92 733.352 47.75L737.402 47ZM757.162 50.72C757.162 52.43 756.232 53.36 754.372 53.36C752.482 53.36 751.582 52.49 751.582 50.72C751.582 48.98 752.482 48.05 754.372 48.05C756.232 48.05 757.162 48.98 757.162 50.72ZM771.591 41.18C774.501 42.5 775.761 44.06 775.761 47.06C775.761 50.51 772.671 53.36 767.571 53.36C762.291 53.36 759.951 50.72 759.951 47.69C759.951 45.05 761.211 43.19 764.121 41.87C761.691 40.7 760.791 38.9 760.791 36.86C760.791 33.11 763.791 30.89 768.231 30.89C772.761 30.89 775.191 32.93 775.191 35.96C775.191 38.42 773.841 39.83 771.591 41.18ZM766.941 43.55C765.531 44.36 764.391 45.35 764.391 47.21C764.391 48.83 765.321 49.91 767.661 49.91C769.851 49.91 770.931 48.71 770.931 47.24C770.931 45.17 768.981 44.33 766.941 43.55ZM768.561 39.65C769.941 38.81 770.841 37.64 770.841 36.32C770.841 34.91 770.031 34.16 768.141 34.16C766.551 34.16 765.471 34.91 765.471 36.23C765.471 37.82 766.611 38.69 768.561 39.65ZM786.272 53.36C780.302 53.36 778.532 49.28 778.532 42.08C778.532 34.91 780.602 30.89 786.572 30.89C792.602 30.89 794.222 34.94 794.222 41.84C794.222 49.31 792.272 53.36 786.272 53.36ZM786.392 49.82C788.822 49.82 789.422 47.57 789.422 42.02C789.422 36.62 788.942 34.46 786.512 34.46C784.052 34.46 783.362 36.59 783.362 42.11C783.362 47.51 783.902 49.82 786.392 49.82ZM805.02 53.36C799.05 53.36 797.28 49.28 797.28 42.08C797.28 34.91 799.35 30.89 805.32 30.89C811.35 30.89 812.97 34.94 812.97 41.84C812.97 49.31 811.02 53.36 805.02 53.36ZM805.14 49.82C807.57 49.82 808.17 47.57 808.17 42.02C808.17 36.62 807.69 34.46 805.26 34.46C802.8 34.46 802.11 36.59 802.11 42.11C802.11 47.51 802.65 49.82 805.14 49.82ZM828.898 42.83L834.058 37.37H839.068L833.878 42.98L839.458 53H834.448L830.398 45.86L828.898 47.33V53H824.368V30.35H828.898V42.83ZM852.342 41.48C850.302 41.3 848.292 41.84 846.972 42.89V53H842.442V37.37H846.312L846.642 39.83C847.692 38.3 849.162 37.04 851.562 37.04C851.802 37.04 852.072 37.04 852.342 37.07V41.48ZM858.17 50.72C858.17 52.43 857.24 53.36 855.38 53.36C853.49 53.36 852.59 52.49 852.59 50.72C852.59 48.98 853.49 48.05 855.38 48.05C857.24 48.05 858.17 48.98 858.17 50.72Z" fill="#FBF5EB"/>
<path d="M30.0244 27.312C33.4804 27.312 35.2564 28.944 35.2564 31.8C35.2564 34.272 34.0804 35.88 31.5124 38.688L28.6804 41.808V41.88H35.5204V45H24.4324V41.976L28.1524 37.632C30.3124 35.088 31.6084 33.768 31.6084 31.992C31.6084 30.84 30.9844 30.168 29.6644 30.168C28.1284 30.168 27.5284 31.104 27.2884 32.736L24.0244 32.184C24.4324 28.752 26.8084 27.312 30.0244 27.312ZM44.2802 45.288C39.5042 45.288 38.0882 42.024 38.0882 36.264C38.0882 30.528 39.7442 27.312 44.5202 27.312C49.3442 27.312 50.6402 30.552 50.6402 36.072C50.6402 42.048 49.0802 45.288 44.2802 45.288ZM44.3762 42.456C46.3202 42.456 46.8002 40.656 46.8002 36.216C46.8002 31.896 46.4162 30.168 44.4722 30.168C42.5042 30.168 41.9522 31.872 41.9522 36.288C41.9522 40.608 42.3842 42.456 44.3762 42.456ZM58.9913 27.312C62.4473 27.312 64.2233 28.944 64.2233 31.8C64.2233 34.272 63.0473 35.88 60.4793 38.688L57.6473 41.808V41.88H64.4873V45H53.3993V41.976L57.1193 37.632C59.2793 35.088 60.5753 33.768 60.5753 31.992C60.5753 30.84 59.9513 30.168 58.6313 30.168C57.0953 30.168 56.4953 31.104 56.2553 32.736L52.9913 32.184C53.3993 28.752 55.7753 27.312 58.9913 27.312ZM70.0311 40.2C70.2231 41.664 70.8471 42.48 72.4791 42.48C73.8471 42.48 74.9271 41.688 74.9271 39.888C74.9271 38.04 73.9431 37.392 72.1191 37.392H70.4151V34.656H71.5431C73.5831 34.656 74.6871 33.624 74.6871 32.016C74.6871 30.864 74.2071 30.096 72.7191 30.096C71.2311 30.096 70.6311 30.864 70.3191 32.256L67.1991 31.632C67.8231 28.368 70.3431 27.312 73.0551 27.312C76.3911 27.312 78.2631 28.872 78.2631 31.536C78.2631 33.816 76.5831 35.112 74.9991 35.64V35.736C77.3031 36.264 78.6231 37.56 78.6231 40.08C78.6231 43.296 76.2231 45.288 72.4791 45.288C69.7431 45.288 67.1751 44.136 66.7911 40.8L70.0311 40.2Z" fill="#FBF5EB"/>
</svg>
