<svg width="52" height="97" viewBox="0 0 52 97" fill="none" xmlns="http://www.w3.org/2000/svg">
<path d="M29.0038 94.3751C30.2951 91.0003 31.5663 87.6165 32.8276 84.2327C35.5804 76.8833 38.2932 69.5249 40.9358 62.1397C43.5785 54.7544 46.1411 47.5393 48.4134 40.154C49.1341 37.8176 49.8649 35.4633 50.3454 33.0821C51.0861 29.385 51.2963 25.4462 51.2063 21.7044C51.0861 16.8883 49.985 12.1081 46.7417 8.16926C43.1281 3.79183 37.122 1.11524 31.1359 0.569178C18.7434 -0.558749 5.61005 6.61165 1.60599 17.2643C0.665036 19.7618 0.564941 22.519 0.635012 25.124C0.735114 28.5883 1.25564 32.0437 1.93633 35.4543C3.56798 43.699 6.10055 51.7914 8.87336 59.7764C11.6462 67.7614 14.439 74.9228 17.5521 82.3886C19.2939 86.5781 21.0957 90.7586 22.9776 94.9033C23.0677 95.1002 23.1578 95.2882 23.2479 95.4851C23.9086 96.9264 29.6044 95.2882 29.0538 94.0976C27.7625 91.3046 26.5413 88.4848 25.33 85.665C22.4872 79.0407 19.7944 72.3537 17.2919 65.6219C14.3289 57.6638 11.5961 49.6161 9.46396 41.4431C7.7322 34.8098 6.08053 27.8274 6.49094 20.9793C6.68114 17.7387 7.82229 14.8204 9.72422 12.0364C11.1957 9.89696 13.1277 7.93651 15.3399 6.38785C16.371 5.6717 17.452 5.01822 18.6032 4.47216C19.6443 3.97981 20.9456 3.51432 21.8165 3.30843C22.8675 3.05778 23.9286 2.8877 25.2399 2.84294C26.5513 2.79818 27.7525 2.8877 28.9837 3.10254C31.9768 3.61279 34.8297 4.80338 37.2721 6.4147C41.7367 9.3688 44.1491 13.7283 45 18.5623C45.8008 23.1456 45.3703 27.8274 44.8498 32.4107C44.6296 34.3712 44.069 36.2869 43.5185 38.1936C41.5665 44.988 39.1941 51.6929 36.8417 58.3889C34.189 65.9173 31.4462 73.41 28.6634 80.9026C26.9717 85.4502 25.26 89.9977 23.5382 94.5452C23.4581 94.769 23.368 94.9838 23.288 95.2076C22.8075 96.4609 28.4732 95.8521 29.0338 94.3841L29.0038 94.3751Z" fill="#E0A619"/>
<path d="M29.5249 30.9785C29.5249 30.9785 29.1345 31.1933 29.1045 31.2023C29.1045 31.2023 28.3938 31.5245 28.8042 31.3545C28.664 31.4171 28.5139 31.4708 28.3637 31.5245C29.0244 31.2828 27.7831 31.5245 28.6841 31.4261C27.8933 31.5066 29.3447 31.3724 28.5539 31.4619C28.0334 31.5156 28.4839 31.4798 28.584 31.4619C28.5539 31.4619 27.8032 31.5245 28.2836 31.4977C27.9833 31.5156 27.673 31.5156 27.3727 31.4977C26.0013 31.4171 24.3797 30.9069 23.1284 30.1549C20.0453 28.3198 18.6339 24.9271 19.1043 21.6955C19.3446 20.0483 20.1254 18.446 21.2265 17.1121C21.737 16.4945 22.3176 15.9574 22.9983 15.4829C23.2886 15.277 23.4287 15.2054 23.7491 15.0353L23.9493 14.9369C23.739 15.0353 23.7591 15.0264 24.0093 14.9189C23.689 15.0264 23.679 15.0353 23.9693 14.9369C23.8091 14.9906 23.6389 15.0353 23.4688 15.0622C23.0083 15.2054 23.9693 15.1159 23.2485 15.098C22.8281 15.098 23.6489 15.098 23.6289 15.098C23.9593 15.1159 24.2996 15.1696 24.6199 15.2412C25.5909 15.4382 26.5118 15.841 27.3527 16.3154C29.0544 17.2822 30.4258 18.6519 31.3868 20.2363C32.3478 21.8208 32.8483 23.5753 32.8283 25.3299C32.8082 27.6216 31.567 29.6178 29.5249 30.9606C28.4538 31.6588 30.4759 31.7036 30.8563 31.6678C32.1876 31.5514 33.6591 31.1844 34.7502 30.4682C36.9724 29.0091 38.4439 26.8965 38.6241 24.4079C38.7643 22.5101 38.2037 20.5138 37.1927 18.8488C36.0515 16.96 34.2897 15.277 32.1676 14.2476C29.8052 13.1017 27.1725 12.9316 24.5599 13.3524C19.4347 14.1849 14.83 17.1479 13.5788 21.8387C12.5377 25.7417 14.0893 29.949 18.0433 32.0706C23.1084 34.7919 30.1856 33.306 34.7602 30.4682C35.8513 29.7879 33.7892 29.7252 33.4289 29.761C32.0775 29.8864 30.656 30.2623 29.5349 30.9606L29.5249 30.9785Z" fill="#E0A619"/>
</svg>
