<?xml version="1.0" encoding="UTF-8"?>
<svg id="Layer_1" xmlns="http://www.w3.org/2000/svg" xmlns:xlink="http://www.w3.org/1999/xlink" viewBox="0 0 283.46 283.46">
  <defs>
    <style>
      .cls-1 {
        letter-spacing: -.01em;
      }

      .cls-2 {
        font-family: Ubuntu-Bold, Ubuntu;
        font-weight: 700;
      }

      .cls-2, .cls-3 {
        font-size: 25.85px;
      }

      .cls-2, .cls-3, .cls-4 {
        fill: #dd9c00;
      }

      .cls-5 {
        fill: none;
      }

      .cls-6 {
        letter-spacing: .04em;
      }

      .cls-7 {
        letter-spacing: -.01em;
      }

      .cls-8 {
        letter-spacing: 0em;
      }

      .cls-9 {
        letter-spacing: .04em;
      }

      .cls-10 {
        letter-spacing: .01em;
      }

      .cls-3 {
        font-family: Ubuntu, Ubuntu;
      }

      .cls-11 {
        letter-spacing: .06em;
      }

      .cls-12 {
        letter-spacing: -.01em;
      }

      .cls-13 {
        letter-spacing: .15em;
      }

      .cls-14 {
        clip-path: url(#clippath);
      }
    </style>
    <clipPath id="clippath">
      <rect class="cls-5" width="283.46" height="283.46"/>
    </clipPath>
  </defs>
  <text class="cls-3" transform="translate(62.52 195.46)"><tspan class="cls-6" x="0" y="0">V</tspan><tspan class="cls-11" x="17.99" y="0">E</tspan><tspan class="cls-6" x="34.4" y="0">JLE</tspan><tspan class="cls-13" x="78.61" y="0"> </tspan><tspan class="cls-6" x="88.35" y="0">M</tspan><tspan class="cls-9" x="111.9" y="0">O</tspan><tspan x="133.02" y="0">D </tspan></text>
  <text class="cls-2" transform="translate(62.52 217.43)"><tspan class="cls-7" x="0" y="0">HU</tspan><tspan class="cls-1" x="36.58" y="0">D</tspan><tspan class="cls-10" x="55.26" y="0">C</tspan><tspan class="cls-12" x="72.38" y="0">AN</tspan><tspan class="cls-7" x="109.83" y="0">CE</tspan><tspan class="cls-8" x="141.57" y="0">R</tspan></text>
  <g class="cls-14">
    <path class="cls-4" d="M215.53,162.78c-.26-4.7-3.8-7.53-7.31-10.14-1.4-1.04-5.36-2.93-6.03-4.61-.6-1.5,2.96-3.53,3.94-4.67,6.43-7.42,8.73-19.49,3.04-28.01-4.1-6.14-11.72-8.41-18.42-5.34-8.99,4.12-13.82,15.84-13.45,25.18.65-.23,1.3-.46,1.95-.69-2.71-.86-2.35-1.42-1.41-3.98.58-1.59,1-3.24,1.25-4.91.54-3.63.33-7.39-.68-10.92-1.62-5.69-5.47-11.05-11.1-13.29-10.59-4.2-20.65,3.9-23.71,13.74.71-.16,1.41-.32,2.12-.48-.99-6.44-.2-13.48-.2-19.97v-19.39c-.65.23-1.3.46-1.95.69,5.07,1.43,8.21,5.57,8.45,10.78.02.35,2.11-.02,2.14-.57.3-6.66,6.02-12.42,13.07-9.79,4.45,1.66,6.98,5.74,7.19,10.37.02.35,2.11-.02,2.14-.57.3-6.66,6.02-12.42,13.08-9.79,4.45,1.66,6.98,5.74,7.19,10.37.02.35,2.11-.02,2.14-.57.27-6.1,5.1-11.77,11.82-10.2,4.51,1.05,7.51,4.8,8.33,9.23.07.41,2.19-.06,2.14-.57-2.66-26.03-33.37-38.82-55.61-42.91-27.53-5.06-59.84-1.75-83.4,14.43-9.95,6.83-18.43,16.65-19.69,29.05-.03.27,2.03,0,2.12-.48,1.18-6.4,7.28-11.11,13.82-8.03,3.99,1.88,6.15,5.77,6.34,10.05.02.35,2.11-.02,2.14-.57.3-6.66,6.02-12.42,13.07-9.79,4.45,1.66,6.98,5.74,7.19,10.37.01.35,2.11-.02,2.14-.57.3-6.66,6.02-12.42,13.07-9.79,4.45,1.66,6.98,5.74,7.19,10.37.01.35,2.11-.02,2.14-.57.22-4.72,2.86-8.94,7.65-10.3-.38,0-.77-.02-1.15-.02v27.01c.69-.21,1.39-.43,2.08-.65-5.28-5.67-12.94-7.33-19.93-3.88-7.15,3.53-10.71,11.22-11.23,18.88.71-.19,1.43-.38,2.14-.57-3.28-7.2-8.96-14.37-17.73-13.18-7.89,1.07-13.42,7.32-14.71,15.01-.86,5.15.06,10.52,2.36,15.18,1.07,2.18,2.46,4.19,4.12,5.96.81.87,1.97,1.56,2.7,2.46,1.34,1.64.47,1.66-1.3,2.73-6.97,4.25-16.11,8.6-16.42,17.9,0,.29,2.12.03,2.14-.57.34-10.13,11.68-14.6,19.07-19.25.09-.06.39-.25.19-.37-9.4-6.14-13.98-19.36-9.11-29.78,2.89-6.19,9.7-10.63,16.47-7.48,4.91,2.29,7.92,7.23,10.08,11.97.21.46,2.11-.09,2.14-.57.39-5.84,2.47-11.7,6.92-15.69,6.42-5.77,14.65-3.85,20.09,1.99.3.32,2.08-.17,2.08-.65v-27.01c0-.3-1.09-.04-1.15-.02-5.51,1.56-9.35,5.59-9.62,11.49.71-.19,1.42-.38,2.14-.57-.69-15.43-23.87-14.25-24.54.57.71-.19,1.42-.38,2.14-.57-.69-15.43-23.87-14.26-24.54.57.71-.19,1.43-.38,2.14-.57-.65-14.56-21.89-14.68-24.4-1.06.71-.16,1.41-.32,2.12-.48,2.58-25.24,31.96-37.93,53.58-42.02,27.25-5.16,59.56-1.85,82.61,14.72,9.3,6.69,17.04,16.14,18.24,27.87.71-.19,1.43-.38,2.14-.57-2.63-14.23-23.79-11.85-24.42,2.11.71-.19,1.43-.38,2.14-.57-.69-15.43-23.87-14.25-24.54.57.71-.19,1.43-.38,2.14-.57-.69-15.43-23.87-14.25-24.54.57.71-.19,1.43-.38,2.14-.57-.25-5.44-3.62-9.54-8.82-11.01-.38-.11-1.95.15-1.95.69v19.39c0,6.5-.79,13.53.2,19.97.07.43,2.01-.11,2.12-.48,1.51-4.84,4.25-9.4,8.76-11.99,5.41-3.12,11.92-1.28,16.17,2.82,7.59,7.33,8.35,19.53,3.63,28.57-.07.13.08.18.17.21,1.03.3,2.05.62,3.07.94.36.12,1.97-.16,1.95-.69-.49-12.24,12.46-34.92,25.9-20.82,9.33,9.78,4.52,26.87-5.79,33.84-.12.08-.36.22-.2.38,4.84,4.36,13.64,7.98,14.04,15.35.02.34,2.17,0,2.14-.57"/>
  </g>
</svg>